<svg id="set3" xmlns="http://www.w3.org/2000/svg" viewBox="0 0 170 170"><defs><style>.cls-1{opacity:0;}.cls-2{fill:#2580b2;}.cls-3,.cls-4,.cls-5{fill:none;stroke-linecap:round;stroke-linejoin:round;}.cls-3,.cls-4{stroke:#36eaa5;stroke-width:3px;}.cls-3{stroke-opacity:0.39;}.cls-5{stroke:#fff;stroke-width:2px;}</style></defs><title>24_tool3</title><g id="Layer_2" data-name="Layer 2" class="cls-1"><rect class="cls-2" width="170" height="170"/></g><g id="_24" data-name="24"><g id="shape"><path class="cls-3" d="M7.93,88L85,36.66,162.07,88,85,139.42Z"/><path class="cls-4" d="M7.93,88L85,36.66"/><path class="cls-4" d="M85,36.66L162.07,88"/><path class="cls-4" d="M162.07,88L85,139.42"/><path class="cls-4" d="M85,139.42L7.93,88"/></g><g id="tool3"><path class="cls-5" d="M7.93,88L85,36.66"/><path class="cls-5" d="M85,36.66L162.07,88"/><path class="cls-5" d="M162.07,88L85,139.42"/><path class="cls-5" d="M85,139.42L7.93,88"/><polyline class="cls-5" points="44.99 53.24 58.85 53.76 60.51 65.74"/><polyline class="cls-5" points="128.41 53.91 113.25 55.16 113.79 65.1"/><polyline class="cls-5" points="114.78 107.48 129.99 109.09 130.29 119.98"/><polyline class="cls-5" points="136.22 59.59 121.39 60.58 121.59 70.78"/><polyline class="cls-5" points="54.16 108.13 39.85 108.72 39.54 119.32"/><polyline class="cls-5" points="61.97 113.81 47.86 114.25 47.35 125"/></g></g></svg>