<svg id="set3" xmlns="http://www.w3.org/2000/svg" viewBox="0 0 170 170"><defs><style>.cls-1{opacity:0;}.cls-2{fill:#2580b2;}.cls-3,.cls-4,.cls-5,.cls-6{fill:none;stroke-linecap:round;stroke-linejoin:round;}.cls-3,.cls-4{stroke:#36eaa5;stroke-width:3px;}.cls-3,.cls-5{stroke-opacity:0.39;}.cls-5,.cls-6{stroke:#fff;stroke-width:2px;}</style></defs><title>24_tool1</title><g id="Layer_2" data-name="Layer 2" class="cls-1"><rect class="cls-2" width="170" height="170"/></g><g id="_24" data-name="24"><g id="shape"><path class="cls-3" d="M7.93,88L85,36.66,162.07,88,85,139.42Z"/><path class="cls-4" d="M7.93,88L85,36.66"/><path class="cls-4" d="M85,36.66L162.07,88"/><path class="cls-4" d="M162.07,88L85,139.42"/><path class="cls-4" d="M85,139.42L7.93,88"/></g><g id="tool1"><path class="cls-5" d="M7.93,88L85,36.66,162.07,88,85,139.42Z"/><path class="cls-6" d="M7.93,88L85,36.66"/><path class="cls-6" d="M85,36.66L162.07,88"/><path class="cls-6" d="M162.07,88L85,139.42"/><path class="cls-6" d="M85,139.42L7.93,88"/><line class="cls-6" x1="43.99" y1="53.24" x2="57.51" y2="65.74"/><line class="cls-6" x1="127.25" y1="53.89" x2="112.63" y2="65.08"/><line class="cls-6" x1="53.22" y1="107.48" x2="39.71" y2="119.98"/><line class="cls-6" x1="116.78" y1="107.48" x2="130.29" y2="119.98"/></g></g></svg>