<svg id="_14" data-name="14" xmlns="http://www.w3.org/2000/svg" viewBox="0 0 170 170"><defs><style>.cls-1{opacity:0;}.cls-2{fill:#2580b2;}.cls-3,.cls-4,.cls-5{fill:none;}.cls-3{stroke:#36eaa5;stroke-width:3px;}.cls-3,.cls-4{stroke-linecap:round;stroke-linejoin:round;}.cls-4,.cls-5{stroke:#fff;stroke-width:2px;}.cls-5{stroke-linejoin:bevel;}</style></defs><title>14_tool1</title><g id="transparent_bg" data-name="transparent bg" class="cls-1"><rect class="cls-2" width="170" height="170"/></g><g id="shape"><path class="cls-3" d="M9.76,62.21l50.65,67.54"/><path class="cls-3" d="M60.42,129.74l98.94-.34"/><path class="cls-3" d="M159.36,129.41L69.87,113.53"/><path class="cls-3" d="M69.87,113.53L9.76,62.21"/></g><g id="tool1"><line class="cls-4" x1="103.04" y1="114.76" x2="102.36" y2="123.99"/><line class="cls-4" x1="52.88" y1="92.56" x2="46.64" y2="99.39"/><line class="cls-4" x1="41.63" y1="114.16" x2="49.73" y2="108.11"/><line class="cls-4" x1="45.71" y1="118.96" x2="53.81" y2="112.91"/><line class="cls-4" x1="82.32" y1="135.08" x2="82.38" y2="124.77"/><line class="cls-4" x1="88.61" y1="134.72" x2="88.67" y2="124.4"/><path class="cls-3" d="M9.76,62.21l50.65,67.54"/><path class="cls-3" d="M60.42,129.74l98.94-.34"/><path class="cls-3" d="M159.36,129.41L69.87,113.53"/><path class="cls-3" d="M69.87,113.53L9.76,62.21"/><path class="cls-5" d="M9.76,62.21l50.65,67.54"/><path class="cls-5" d="M60.42,129.74l98.94-.34"/><path class="cls-5" d="M159.36,129.41L69.87,113.53"/><path class="cls-5" d="M69.87,113.53L9.76,62.21"/></g></svg>