<svg id="_45" data-name="45" xmlns="http://www.w3.org/2000/svg" viewBox="0 0 170 170"><defs><style>.cls-1{opacity:0;}.cls-2{fill:#2580b2;}.Graphic-Style,.cls-3,.cls-4{fill:none;}.Graphic-Style{stroke:#fff;stroke-linejoin:bevel;stroke-width:2px;}.cls-3{stroke:#930;}.cls-3,.cls-4{stroke-linecap:round;stroke-linejoin:round;}.cls-4{stroke:#36eaa5;stroke-width:3px;}</style></defs><title>45_tool2D</title><g id="transparent_bg" data-name="transparent bg" class="cls-1"><rect class="cls-2" width="170" height="170"/></g><g id="tool2D"><path class="Graphic-Style" d="M130.14,66.94l7.38-7.42A10.46,10.46,0,1,1,119.68,67h10.46Z"/><path class="Graphic-Style" d="M39.86,66.94l10.46,0a10.46,10.46,0,1,1-17.83-7.45Z"/></g><g id="shape"><path class="cls-3" d="M21.81,48.89L39.86,66.94"/><path class="cls-3" d="M148.2,121.11H21.81"/><path class="cls-3" d="M148.2,48.89v72.22"/><path class="cls-3" d="M39.86,66.94h90.28"/><path class="cls-3" d="M130.14,66.94L148.2,48.89"/><path class="cls-3" d="M21.81,121.11V48.89"/><path class="cls-4" d="M21.81,48.89L39.86,66.94"/><path class="cls-4" d="M148.2,121.11H21.81"/><path class="cls-4" d="M148.2,48.89v72.22"/><path class="cls-4" d="M39.86,66.94h90.28"/><path class="cls-4" d="M130.14,66.94L148.2,48.89"/><path class="cls-4" d="M21.81,121.11V48.89"/></g></svg>