<svg id="_45" data-name="45" xmlns="http://www.w3.org/2000/svg" viewBox="0 0 170 170"><defs><style>.cls-1{opacity:0;}.cls-2{fill:#2580b2;}.cls-3,.cls-4,.cls-5{fill:none;stroke-linecap:round;stroke-linejoin:round;}.cls-3{stroke:#930;}.cls-4{stroke:#36eaa5;stroke-width:3px;}.cls-5{stroke:#fff;stroke-width:2px;}</style></defs><title>45_tool3</title><g id="transparent_bg" data-name="transparent bg" class="cls-1"><rect class="cls-2" width="170" height="170"/></g><g id="shape"><path class="cls-3" d="M21.81,48.89L39.86,66.94"/><path class="cls-3" d="M148.2,121.11H21.81"/><path class="cls-3" d="M148.2,48.89v72.22"/><path class="cls-3" d="M39.86,66.94h90.28"/><path class="cls-3" d="M130.14,66.94L148.2,48.89"/><path class="cls-3" d="M21.81,121.11V48.89"/><path class="cls-4" d="M21.81,48.89L39.86,66.94"/><path class="cls-4" d="M148.2,121.11H21.81"/><path class="cls-4" d="M148.2,48.89v72.22"/><path class="cls-4" d="M39.86,66.94h90.28"/><path class="cls-4" d="M130.14,66.94L148.2,48.89"/><path class="cls-4" d="M21.81,121.11V48.89"/></g><g id="tool3"><polyline class="cls-5" points="72.7 59.93 79.7 66.94 72.7 73.96"/><polyline class="cls-5" points="79.7 59.93 86.7 66.94 79.7 73.96"/><polyline class="cls-5" points="72.7 114.1 79.7 121.87 72.7 128.13"/><polyline class="cls-5" points="79.7 114.1 86.7 121.87 79.7 128.13"/><polyline class="cls-5" points="14.79 95.97 21.8 88.97 28.82 95.97"/><polyline class="cls-5" points="140.85 95.97 147.87 88.97 154.88 95.97"/><line class="cls-5" x1="21.81" y1="48.89" x2="21.81" y2="121.11"/><line class="cls-5" x1="148.2" y1="48.89" x2="148.2" y2="121.11"/><line class="cls-5" x1="130.14" y1="66.94" x2="39.86" y2="66.94"/><line class="cls-5" x1="21.81" y1="121.11" x2="148.2" y2="121.11"/></g></svg>