<svg id="_45" data-name="45" xmlns="http://www.w3.org/2000/svg" viewBox="0 0 170 170"><defs><style>.cls-1{opacity:0;}.cls-2{fill:#2580b2;}.cls-3,.cls-4,.cls-5,.cls-6{fill:none;}.cls-3{stroke:#930;}.cls-3,.cls-4,.cls-5{stroke-linecap:round;stroke-linejoin:round;}.cls-4{stroke:#36eaa5;stroke-width:3px;}.cls-5,.cls-6{stroke:#fff;stroke-width:2px;}.cls-6{stroke-miterlimit:10;}</style></defs><title>45_tool1</title><g id="transparent_bg" data-name="transparent bg" class="cls-1"><rect class="cls-2" width="170" height="170"/></g><g id="shape"><path class="cls-3" d="M21.81,48.89L39.86,66.94"/><path class="cls-3" d="M148.2,121.11H21.81"/><path class="cls-3" d="M148.2,48.89v72.22"/><path class="cls-3" d="M39.86,66.94h90.28"/><path class="cls-3" d="M130.14,66.94L148.2,48.89"/><path class="cls-3" d="M21.81,121.11V48.89"/><path class="cls-4" d="M21.81,48.89L39.86,66.94"/><path class="cls-4" d="M148.2,121.11H21.81"/><path class="cls-4" d="M148.2,48.89v72.22"/><path class="cls-4" d="M39.86,66.94h90.28"/><path class="cls-4" d="M130.14,66.94L148.2,48.89"/><path class="cls-4" d="M21.81,121.11V48.89"/></g><g id="tool1"><line class="cls-5" x1="133.32" y1="55.26" x2="142.03" y2="63.97"/><line class="cls-5" x1="37.19" y1="55.26" x2="28.48" y2="63.97"/><line class="cls-5" x1="15.64" y1="87" x2="27.97" y2="87"/><line class="cls-5" x1="15.64" y1="91.44" x2="27.97" y2="91.44"/><line class="cls-5" x1="142.03" y1="87" x2="154.36" y2="87"/><line class="cls-5" x1="142.03" y1="91.44" x2="154.36" y2="91.44"/><path class="cls-6" d="M21.81,48.89L39.86,66.94"/><path class="cls-6" d="M148.2,48.89v72.22"/><path class="cls-6" d="M130.14,66.94L148.2,48.89"/><path class="cls-6" d="M21.81,121.11V48.89"/><path class="cls-6" d="M21.81,48.89L39.86,66.94"/><path class="cls-6" d="M148.2,48.89v72.22"/><path class="cls-6" d="M130.14,66.94L148.2,48.89"/><path class="cls-6" d="M21.81,121.11V48.89"/></g></svg>