<svg id="_51" data-name="51" xmlns="http://www.w3.org/2000/svg" viewBox="0 0 170 170"><defs><style>.cls-1{opacity:0;}.cls-2{fill:#2580b2;}.cls-3,.cls-4,.cls-5{fill:none;stroke-linecap:round;stroke-linejoin:round;}.cls-3{stroke:#930;}.cls-4{stroke:#36eaa5;stroke-width:3px;}.cls-5{stroke:#fff;stroke-width:2px;}</style></defs><title>51_tool3</title><g id="transparent_bg" data-name="transparent bg" class="cls-1"><rect class="cls-2" width="170" height="170"/></g><g id="shape"><path class="cls-3" d="M29,79v46.3"/><path class="cls-3" d="M29,125.27H144.7"/><path class="cls-3" d="M144.7,125.27V55.83"/><path class="cls-3" d="M144.7,55.83L116.92,32.21"/><path class="cls-3" d="M116.92,32.21l-21.76.46"/><path class="cls-3" d="M95.16,32.68L29,79"/><path class="cls-4" d="M29,79v46.3"/><path class="cls-4" d="M29,125.27H144.7"/><path class="cls-4" d="M144.7,125.27V55.83"/><path class="cls-4" d="M144.7,55.83L116.92,32.21"/><path class="cls-4" d="M116.92,32.21l-21.76.46"/><path class="cls-4" d="M95.16,32.68L29,79"/></g><g id="tool3"><polyline class="cls-5" points="20.18 100.12 28.95 93.12 37.73 100.12"/><polyline class="cls-5" points="135.93 95.12 144.7 88.12 153.47 95.12"/><polyline class="cls-5" points="102.54 23.67 109.54 32.45 102.54 41.22"/><polyline class="cls-5" points="79.83 116.5 86.83 125.27 79.83 134.05"/><polyline class="cls-5" points="20.18 107.12 28.95 100.12 37.73 107.12"/><polyline class="cls-5" points="135.93 102.12 144.7 95.12 153.47 102.12"/><line class="cls-5" x1="28.95" y1="78.97" x2="28.95" y2="125.27"/><line class="cls-5" x1="144.7" y1="57.14" x2="144.7" y2="125.27"/><line class="cls-5" x1="95.16" y1="32.45" x2="116.92" y2="32.45"/><line class="cls-5" x1="28.95" y1="125.27" x2="144.7" y2="125.27"/></g></svg>