<svg id="_51" data-name="51" xmlns="http://www.w3.org/2000/svg" viewBox="0 0 170 170"><defs><style>.cls-1{opacity:0;}.cls-2{fill:#2580b2;}.cls-3,.cls-4,.cls-5{fill:none;}.cls-3{stroke:#fff;stroke-miterlimit:10;stroke-width:2px;}.cls-4{stroke:#930;}.cls-4,.cls-5{stroke-linecap:round;stroke-linejoin:round;}.cls-5{stroke:#36eaa5;stroke-width:3px;}</style></defs><title>51_tool2A</title><g id="transparent_bg" data-name="transparent bg" class="cls-1"><rect class="cls-2" width="170" height="170"/></g><g id="tool2A"><path class="cls-3" d="M144.7,55.83l0,11.8a11.8,11.8,0,0,1-9-19.38Z"/><path class="cls-3" d="M116.92,32.21l5,4.24-0.3.34a6.56,6.56,0,0,1-11.27-4.47Z"/><path class="cls-3" d="M95.16,32.68l6.56-.17a6.56,6.56,0,0,1-11.94,3.94Z"/><path class="cls-3" d="M29,79l9.93-7A12.16,12.16,0,0,1,29,91.13Z"/></g><g id="shape"><path class="cls-4" d="M29,79v46.3"/><path class="cls-4" d="M29,125.27H144.7"/><path class="cls-4" d="M144.7,125.27V55.83"/><path class="cls-4" d="M144.7,55.83L116.92,32.21"/><path class="cls-4" d="M116.92,32.21l-21.76.46"/><path class="cls-4" d="M95.16,32.68L29,79"/><path class="cls-5" d="M29,79v46.3"/><path class="cls-5" d="M29,125.27H144.7"/><path class="cls-5" d="M144.7,125.27V55.83"/><path class="cls-5" d="M144.7,55.83L116.92,32.21"/><path class="cls-5" d="M116.92,32.21l-21.76.46"/><path class="cls-5" d="M95.16,32.68L29,79"/></g></svg>