<svg id="_42" data-name="42" xmlns="http://www.w3.org/2000/svg" viewBox="0 0 170 170"><defs><style>.cls-1{opacity:0;}.cls-2{fill:#2580b2;}.Graphic-Style,.cls-3,.cls-4{fill:none;}.Graphic-Style{stroke:#fff;stroke-linejoin:bevel;stroke-width:2px;}.cls-3{stroke:#930;}.cls-3,.cls-4{stroke-linecap:round;stroke-linejoin:round;}.cls-4{stroke:#36eaa5;stroke-width:3px;}</style></defs><title>42_tool2A</title><g id="transparent_bg" data-name="transparent bg" class="cls-1"><rect class="cls-2" width="170" height="170"/></g><g id="tool2A"><path class="Graphic-Style" d="M62.53,71.29l4.94-11.48a12.5,12.5,0,0,1-5,24Z"/><path class="Graphic-Style" d="M107.47,70.76l0,12.5a12.5,12.5,0,0,1-4.92-24Z"/></g><g id="shape"><path class="cls-3" d="M62.53,71.29v80.26"/><path class="cls-3" d="M107.47,70.76L84.79,18.45"/><path class="cls-3" d="M62.53,151.55l44.95-.54"/><path class="cls-3" d="M107.47,151V70.76"/><path class="cls-3" d="M84.79,18.45L62.53,71.29"/><path class="cls-4" d="M62.53,71.29v80.26"/><path class="cls-4" d="M107.47,70.76L84.79,18.45"/><path class="cls-4" d="M62.53,151.55l44.95-.54"/><path class="cls-4" d="M107.47,151V70.76"/><path class="cls-4" d="M84.79,18.45L62.53,71.29"/></g></svg>