<svg id="_42" data-name="42" xmlns="http://www.w3.org/2000/svg" viewBox="0 0 170 170"><defs><style>.cls-1{opacity:0;}.cls-2{fill:#2580b2;}.cls-3,.cls-4,.cls-5,.cls-6{fill:none;}.cls-3{stroke:#930;}.cls-3,.cls-4,.cls-5{stroke-linecap:round;stroke-linejoin:round;}.cls-4{stroke:#36eaa5;stroke-width:3px;}.cls-5,.cls-6{stroke:#fff;stroke-width:2px;}.cls-6{stroke-miterlimit:10;}</style></defs><title>42_tool1</title><g id="transparent_bg" data-name="transparent bg" class="cls-1"><rect class="cls-2" width="170" height="170"/></g><g id="shape"><path class="cls-3" d="M62.53,71.29v80.26"/><path class="cls-3" d="M107.47,70.76L84.79,18.45"/><path class="cls-3" d="M62.53,151.55l44.95-.54"/><path class="cls-3" d="M107.47,151V70.76"/><path class="cls-3" d="M84.79,18.45L62.53,71.29"/><path class="cls-4" d="M62.53,71.29v80.26"/><path class="cls-4" d="M107.47,70.76L84.79,18.45"/><path class="cls-4" d="M62.53,151.55l44.95-.54"/><path class="cls-4" d="M107.47,151V70.76"/><path class="cls-4" d="M84.79,18.45L62.53,71.29"/></g><g id="tool1"><line class="cls-5" x1="53.75" y1="111.42" x2="71.3" y2="111.42"/><line class="cls-5" x1="98.7" y1="111.42" x2="116.25" y2="111.42"/><line class="cls-5" x1="53.75" y1="104.5" x2="71.3" y2="104.5"/><line class="cls-5" x1="98.7" y1="104.5" x2="116.25" y2="104.5"/><line class="cls-5" x1="107.04" y1="47.09" x2="90.86" y2="53.88"/><line class="cls-5" x1="79.06" y1="53.88" x2="62.53" y2="48"/><path class="cls-6" d="M62.53,71.29v80.26"/><path class="cls-6" d="M107.47,70.76L84.79,18.45"/><path class="cls-6" d="M107.47,151V70.76"/><path class="cls-6" d="M84.79,18.45L62.53,71.29"/><path class="cls-6" d="M62.53,71.29v80.26"/><path class="cls-6" d="M107.47,70.76L84.79,18.45"/><path class="cls-6" d="M107.47,151V70.76"/><path class="cls-6" d="M84.79,18.45L62.53,71.29"/><line class="cls-6" x1="53.75" y1="111.42" x2="71.3" y2="111.42"/><line class="cls-6" x1="98.7" y1="111.42" x2="116.25" y2="111.42"/><line class="cls-6" x1="53.75" y1="104.5" x2="71.3" y2="104.5"/><line class="cls-6" x1="98.7" y1="104.5" x2="116.25" y2="104.5"/><line class="cls-6" x1="107.04" y1="47.09" x2="90.86" y2="53.88"/><line class="cls-6" x1="79.06" y1="53.88" x2="62.53" y2="48"/><path class="cls-6" d="M62.53,71.29v80.26"/><path class="cls-6" d="M107.47,70.76L84.79,18.45"/><path class="cls-6" d="M107.47,151V70.76"/><path class="cls-6" d="M84.79,18.45L62.53,71.29"/><path class="cls-6" d="M62.53,71.29v80.26"/><path class="cls-6" d="M107.47,70.76L84.79,18.45"/><path class="cls-6" d="M107.47,151V70.76"/><path class="cls-6" d="M84.79,18.45L62.53,71.29"/><path class="cls-6" d="M62.53,71.29v80.26"/><path class="cls-6" d="M107.47,70.76L84.79,18.45"/><path class="cls-6" d="M107.47,151V70.76"/><path class="cls-6" d="M84.79,18.45L62.53,71.29"/></g></svg>