<svg id="set1" xmlns="http://www.w3.org/2000/svg" viewBox="0 0 170 170"><defs><style>.cls-1{opacity:0;}.cls-2{fill:#2580b2;}.cls-3,.cls-4{fill:none;stroke-linecap:round;stroke-linejoin:round;}.cls-3{stroke:#fff;stroke-width:2px;}.cls-4{stroke:#36eaa5;stroke-width:3px;}</style></defs><title>36_tool2A</title><g id="Layer_2" data-name="Layer 2" class="cls-1"><rect class="cls-2" width="170" height="170"/></g><g id="_36" data-name="36"><g id="tool2A"><path class="cls-3" d="M47.3,139h15a15,15,0,0,0-19.58-14.24Z"/><path class="cls-3" d="M122.7,139h-15a15,15,0,0,1,19.58-14.24Z"/><path class="cls-3" d="M24,67.3l12.12-8.78a15,15,0,0,1-7.43,23Z"/><path class="cls-3" d="M146,67.3l-12.12-8.78a15,15,0,0,0,7.43,23Z"/><path class="cls-3" d="M85,23L73,31.93a15,15,0,0,0,24.15-.21Z"/></g><g id="shape"><path class="cls-4" d="M47.3,139h75.4L146,67.3,85,23,24,67.3Z"/><path class="cls-4" d="M122.7,139L146,67.3"/></g></g></svg>