<svg id="_50" data-name="50" xmlns="http://www.w3.org/2000/svg" viewBox="0 0 170 170"><defs><style>.cls-1{opacity:0;}.cls-2{fill:#2580b2;}.Graphic-Style,.cls-3,.cls-4,.cls-5{fill:none;}.Graphic-Style,.cls-3{stroke:#fff;stroke-width:2px;}.cls-3{stroke-miterlimit:10;}.Graphic-Style{stroke-linejoin:bevel;}.cls-4{stroke:#930;}.cls-4,.cls-5{stroke-linecap:round;stroke-linejoin:round;}.cls-5{stroke:#36eaa5;stroke-width:3px;}</style></defs><title>50_tool2A</title><g id="transparent_bg" data-name="transparent bg" class="cls-1"><rect class="cls-2" width="170" height="170"/></g><g id="tool2A"><path class="cls-3" d="M140.3,53.64l0.06,11.8a11.8,11.8,0,0,1-10.67-17Z"/><path class="Graphic-Style" d="M96.79,31.89l7.32,3.72a8.21,8.21,0,0,1-15.53-3.53Z"/><path class="cls-3" d="M75,31.89L83.81,32a8.78,8.78,0,0,1-16.55,4Z"/><path class="cls-3" d="M31.52,53.64l10.85-5.48A12.16,12.16,0,0,1,31.54,65.8Z"/></g><g id="shape"><path class="cls-4" d="M31.52,53.64L75,31.89"/><path class="cls-4" d="M75,31.89H96.79"/><path class="cls-4" d="M96.79,31.89L140.3,53.64"/><path class="cls-4" d="M140.3,53.64v87"/><path class="cls-4" d="M140.3,140.67H31.52"/><path class="cls-4" d="M31.52,140.67v-87"/><path class="cls-5" d="M31.52,53.64L75,31.89"/><path class="cls-5" d="M75,31.89H96.79"/><path class="cls-5" d="M96.79,31.89L140.3,53.64"/><path class="cls-5" d="M140.3,53.64v87"/><path class="cls-5" d="M140.3,140.67H31.52"/><path class="cls-5" d="M31.52,140.67v-87"/></g></svg>