<svg id="_50" data-name="50" xmlns="http://www.w3.org/2000/svg" viewBox="0 0 170 170"><defs><style>.cls-1{opacity:0;}.cls-2{fill:#2580b2;}.cls-3,.cls-4,.cls-5{fill:none;stroke-linecap:round;stroke-linejoin:round;}.cls-3{stroke:#930;}.cls-4{stroke:#36eaa5;stroke-width:3px;}.cls-5{stroke:#fff;stroke-width:2px;}</style></defs><title>50_tool3</title><g id="transparent_bg" data-name="transparent bg" class="cls-1"><rect class="cls-2" width="170" height="170"/></g><g id="shape"><path class="cls-3" d="M31.52,53.64L75,31.89"/><path class="cls-3" d="M75,31.89H96.79"/><path class="cls-3" d="M96.79,31.89L140.3,53.64"/><path class="cls-3" d="M140.3,53.64v87"/><path class="cls-3" d="M140.3,140.67H31.52"/><path class="cls-3" d="M31.52,140.67v-87"/><path class="cls-4" d="M31.52,53.64L75,31.89"/><path class="cls-4" d="M75,31.89H96.79"/><path class="cls-4" d="M96.79,31.89L140.3,53.64"/><path class="cls-4" d="M140.3,53.64v87"/><path class="cls-4" d="M140.3,140.67H31.52"/><path class="cls-4" d="M31.52,140.67v-87"/></g><g id="tool3"><polyline class="cls-5" points="22.75 100.12 31.52 93.12 40.3 100.12"/><polyline class="cls-5" points="131.52 100.66 140.3 93.66 149.07 100.66"/><polyline class="cls-5" points="81.5 23.11 88.5 31.89 81.5 40.66"/><polyline class="cls-5" points="81.5 131.89 88.5 140.66 81.5 149.44"/><polyline class="cls-5" points="22.75 107.12 31.52 100.12 40.3 107.12"/><polyline class="cls-5" points="131.52 107.66 140.3 100.66 149.07 107.66"/><line class="cls-5" x1="31.52" y1="53.64" x2="31.52" y2="140.67"/><line class="cls-5" x1="140.3" y1="53.64" x2="140.3" y2="140.67"/><line class="cls-5" x1="75.03" y1="31.89" x2="96.79" y2="31.89"/><line class="cls-5" x1="31.52" y1="140.67" x2="140.3" y2="140.67"/></g></svg>