<svg id="_35" data-name="35" xmlns="http://www.w3.org/2000/svg" viewBox="0 0 170 170"><defs><style>.cls-1{opacity:0;}.cls-2{fill:#2580b2;}.Graphic-Style,.TISS_shape_outline,.cls-3{fill:none;}.Graphic-Style{stroke:#fff;stroke-linejoin:bevel;stroke-width:2px;}.TISS_shape_outline{stroke:#36eaa5;stroke-linecap:round;stroke-linejoin:round;stroke-width:3px;}</style></defs><title>35_tool2D</title><g id="transparent_bg" data-name="transparent bg" class="cls-1"><rect class="cls-2" width="170" height="170"/></g><g id="tool2D"><path class="Graphic-Style" d="M66.87,52.22l0.07,18.13A18.13,18.13,0,1,0,54,39.5Z"/><path class="Graphic-Style" d="M66.87,52.22l0.07,18.13A18.13,18.13,0,1,0,54,39.5Z"/></g><g id="shape"><path class="cls-3" d="M66.87,151h49.38"/><path class="cls-3" d="M116.25,151V27.54"/><path class="cls-3" d="M116.25,27.54H42.18"/><path class="cls-3" d="M42.18,27.54L66.87,52.22"/><path class="cls-3" d="M66.87,52.22V151"/><path class="TISS_shape_outline" d="M66.87,151h49.38"/><path class="TISS_shape_outline" d="M116.25,151V27.54"/><path class="TISS_shape_outline" d="M116.25,27.54H42.18"/><path class="TISS_shape_outline" d="M42.18,27.54L66.87,52.22"/><path class="TISS_shape_outline" d="M66.87,52.22V151"/><path class="TISS_shape_outline" d="M66.87,151h49.38"/><path class="TISS_shape_outline" d="M116.25,151V27.54"/><path class="TISS_shape_outline" d="M116.25,27.54H42.18"/><path class="TISS_shape_outline" d="M42.18,27.54L66.87,52.22"/><path class="TISS_shape_outline" d="M66.87,52.22V151"/></g></svg>