<svg id="_35" data-name="35" xmlns="http://www.w3.org/2000/svg" viewBox="0 0 170 170"><defs><style>.cls-1{opacity:0;}.cls-2{fill:#2580b2;}.TISS_shape_outline,.cls-3,.cls-4{fill:none;}.cls-3{stroke:#fff;stroke-width:2px;}.TISS_shape_outline,.cls-3{stroke-linecap:round;stroke-linejoin:round;}.TISS_shape_outline{stroke:#36eaa5;stroke-width:3px;}</style></defs><title>35_tool2B</title><g id="transparent_bg" data-name="transparent bg" class="cls-1"><rect class="cls-2" width="170" height="170"/></g><g id="tool2B"><rect class="cls-3" x="66.87" y="134.27" width="16.71" height="16.71"/><rect class="cls-3" x="99.54" y="134.27" width="16.71" height="16.71"/><rect class="cls-3" x="99.54" y="27.54" width="16.71" height="16.71"/></g><g id="shape"><path class="cls-4" d="M66.87,151h49.38"/><path class="cls-4" d="M116.25,151V27.54"/><path class="cls-4" d="M116.25,27.54H42.18"/><path class="cls-4" d="M42.18,27.54L66.87,52.22"/><path class="cls-4" d="M66.87,52.22V151"/><path class="TISS_shape_outline" d="M66.87,151h49.38"/><path class="TISS_shape_outline" d="M116.25,151V27.54"/><path class="TISS_shape_outline" d="M116.25,27.54H42.18"/><path class="TISS_shape_outline" d="M42.18,27.54L66.87,52.22"/><path class="TISS_shape_outline" d="M66.87,52.22V151"/><path class="TISS_shape_outline" d="M66.87,151h49.38"/><path class="TISS_shape_outline" d="M116.25,151V27.54"/><path class="TISS_shape_outline" d="M116.25,27.54H42.18"/><path class="TISS_shape_outline" d="M42.18,27.54L66.87,52.22"/><path class="TISS_shape_outline" d="M66.87,52.22V151"/></g></svg>