<svg id="_35" data-name="35" xmlns="http://www.w3.org/2000/svg" viewBox="0 0 170 170"><defs><style>.cls-1{opacity:0;}.cls-2{fill:#2580b2;}.TISS_shape_outline,.cls-3,.cls-4{fill:none;}.TISS_shape_outline{stroke:#36eaa5;stroke-width:3px;}.TISS_shape_outline,.cls-4{stroke-linecap:round;stroke-linejoin:round;}.cls-4{stroke:#fff;stroke-width:2px;}</style></defs><title>35_tool3</title><g id="transparent_bg" data-name="transparent bg" class="cls-1"><rect class="cls-2" width="170" height="170"/></g><g id="shape"><path class="cls-3" d="M66.87,151h49.38"/><path class="cls-3" d="M116.25,151V27.54"/><path class="cls-3" d="M116.25,27.54H42.18"/><path class="cls-3" d="M42.18,27.54L66.87,52.22"/><path class="cls-3" d="M66.87,52.22V151"/><path class="TISS_shape_outline" d="M66.87,151h49.38"/><path class="TISS_shape_outline" d="M116.25,151V27.54"/><path class="TISS_shape_outline" d="M116.25,27.54H42.18"/><path class="TISS_shape_outline" d="M42.18,27.54L66.87,52.22"/><path class="TISS_shape_outline" d="M66.87,52.22V151"/><path class="TISS_shape_outline" d="M66.87,151h49.38"/><path class="TISS_shape_outline" d="M116.25,151V27.54"/><path class="TISS_shape_outline" d="M116.25,27.54H42.18"/><path class="TISS_shape_outline" d="M42.18,27.54L66.87,52.22"/><path class="TISS_shape_outline" d="M66.87,52.22V151"/></g><g id="tool3"><polyline class="cls-4" points="58.1 99.4 66.87 92.4 75.65 99.4"/><polyline class="cls-4" points="107.47 99.4 116.25 92.4 125.03 99.4"/><polyline class="cls-4" points="58.1 91.1 66.87 84.1 75.65 91.1"/><polyline class="cls-4" points="107.47 91.1 116.25 84.1 125.03 91.1"/><polyline class="cls-4" points="83.44 18.76 90.44 27.54 83.44 36.31"/><polyline class="cls-4" points="85 142.21 92 150.98 85 159.75"/><line class="cls-4" x1="66.87" y1="52.22" x2="66.87" y2="150.98"/><line class="cls-4" x1="42.18" y1="27.54" x2="115.1" y2="27.54"/><line class="cls-4" x1="66.87" y1="150.98" x2="116.25" y2="150.98"/><line class="cls-4" x1="116.25" y1="27.54" x2="116.25" y2="150.98"/></g></svg>