<svg id="_32" data-name="32" xmlns="http://www.w3.org/2000/svg" viewBox="0 0 170 170"><defs><style>.cls-1{opacity:0;}.cls-2{fill:#2580b2;}.cls-3,.cls-4{fill:none;stroke-linecap:round;stroke-linejoin:round;}.cls-3{stroke:#36eaa5;stroke-width:3px;}.cls-4{stroke:#fff;stroke-width:2px;}</style></defs><title>32_tool1</title><g id="transparent_bg" data-name="transparent bg" class="cls-1"><rect class="cls-2" width="170" height="170"/></g><g id="shape"><path class="cls-3" d="M7.37,115L58.91,63.44"/><path class="cls-3" d="M58.91,63.44L84.68,89.21"/><path class="cls-3" d="M84.68,89.21l25.77-25.77"/><path class="cls-3" d="M110.45,63.44L162,115"/><path class="cls-3" d="M162,115H7.37"/></g><g id="tool1"><path class="cls-4" d="M7.37,115L58.91,63.44"/><path class="cls-4" d="M58.91,63.44L84.68,89.21"/><path class="cls-4" d="M84.68,89.21l25.77-25.77"/><path class="cls-4" d="M110.45,63.44L162,115"/><line class="cls-4" x1="29.29" y1="83.09" x2="39.61" y2="92.72"/><line class="cls-4" x1="141.38" y1="83.09" x2="131.06" y2="92.72"/><line class="cls-4" x1="95.09" y1="68.69" x2="105.41" y2="78.33"/><line class="cls-4" x1="91.09" y1="72.69" x2="101.41" y2="82.33"/><line class="cls-4" x1="74.96" y1="68.69" x2="64.64" y2="78.33"/><line class="cls-4" x1="78.96" y1="72.69" x2="68.64" y2="82.33"/></g></svg>