<svg id="_32" data-name="32" xmlns="http://www.w3.org/2000/svg" viewBox="0 0 170 170"><defs><style>.cls-1{opacity:0;}.cls-2{fill:#2580b2;}.cls-3,.cls-4{fill:none;stroke-linecap:round;stroke-linejoin:round;}.cls-3{stroke:#36eaa5;stroke-width:3px;}.cls-4{stroke:#fff;stroke-width:2px;}</style></defs><title>32_tool3</title><g id="transparent_bg" data-name="transparent bg" class="cls-1"><rect class="cls-2" width="170" height="170"/></g><g id="shape"><path class="cls-3" d="M7.37,115L58.91,63.44"/><path class="cls-3" d="M58.91,63.44L84.68,89.21"/><path class="cls-3" d="M84.68,89.21l25.77-25.77"/><path class="cls-3" d="M110.45,63.44L162,115"/><path class="cls-3" d="M162,115H7.37"/></g><g id="tool3"><path class="cls-4" d="M7.37,115L58.91,63.44"/><path class="cls-4" d="M58.91,63.44L84.68,89.21"/><path class="cls-4" d="M84.68,89.21l25.77-25.77"/><path class="cls-4" d="M110.45,63.44L162,115"/><polyline class="cls-4" points="71.01 65.28 71 75.19 61.09 75.2"/><polyline class="cls-4" points="75.96 70.23 75.95 80.14 66.04 80.15"/><polyline class="cls-4" points="131.27 75.2 131.26 85.11 121.35 85.13"/><polyline class="cls-4" points="136.22 80.15 136.21 90.06 126.3 90.08"/><polyline class="cls-4" points="91.59 72.72 101.5 72.73 101.51 82.64"/><polyline class="cls-4" points="26 86.71 35.91 86.72 35.92 96.63"/></g></svg>