<svg id="_52" data-name="52" xmlns="http://www.w3.org/2000/svg" viewBox="0 0 170 170"><defs><style>.cls-1{opacity:0;}.cls-2{fill:#2580b2;}.cls-3,.cls-4{fill:none;}.cls-3{stroke:#fff;stroke-miterlimit:10;stroke-width:2px;}.cls-4{stroke:#36eaa5;stroke-linecap:round;stroke-linejoin:round;stroke-width:3px;}</style></defs><title>52_tool2A</title><g id="transparent_bg" data-name="transparent bg" class="cls-1"><rect class="cls-2" width="170" height="170"/></g><g id="tool2A"><path class="cls-3" d="M33.48,140.36L28,124.09a17.18,17.18,0,0,1,22.69,16Z"/><path class="cls-3" d="M147.13,139.48l-17.18-.17a17.18,17.18,0,0,1,19.48-16.86Z"/><path class="cls-3" d="M156.92,58.06l-2,17.06a17.18,17.18,0,0,1-13.33-24.76Z"/><path class="cls-3" d="M115.78,37.49L131,45.36a17.18,17.18,0,0,1-31.93-3.65Z"/><path class="cls-3" d="M33.48,58.24l11.75-3.13A12.16,12.16,0,0,1,24.67,66.62Z"/><path class="cls-3" d="M12.9,78.64l8.67-8.53,0.2,0.21a12.16,12.16,0,0,1-5.17,19.9Z"/></g><g id="shape"><path class="cls-4" d="M12.9,78.64L33.48,58.06"/><path class="cls-4" d="M33.48,58.06l82.3-20.57"/><path class="cls-4" d="M115.78,37.49l41.15,20.57"/><path class="cls-4" d="M156.92,58.06l-9.79,81.42"/><path class="cls-4" d="M147.13,139.48l-113.65.88"/><path class="cls-4" d="M33.48,140.36L12.9,78.64"/></g></svg>