<svg id="_60" data-name="60" xmlns="http://www.w3.org/2000/svg" viewBox="0 0 170 170"><defs><style>.cls-1{opacity:0;}.cls-2{fill:#2580b2;}.Graphic-Style,.cls-3,.cls-4,.cls-5{fill:none;}.cls-3{stroke:#930;}.cls-3,.cls-4,.cls-5{stroke-linecap:round;stroke-linejoin:round;}.cls-4{stroke:#36eaa5;stroke-width:3px;}.Graphic-Style,.cls-5{stroke:#fff;stroke-width:2px;}.Graphic-Style{stroke-linejoin:bevel;}</style></defs><title>60_tool1</title><g id="transparent_bg" data-name="transparent bg" class="cls-1"><rect class="cls-2" width="170" height="170"/></g><path class="cls-3" d="M31.75,76.13H156"/><path class="cls-3" d="M156,76.13L138.25,93.87"/><path class="cls-3" d="M138.25,93.87H14"/><path class="cls-3" d="M14,93.87L31.75,76.13"/><path class="cls-4" d="M31.75,76.13H156"/><path class="cls-4" d="M156,76.13L138.25,93.87"/><path class="cls-4" d="M138.25,93.87H14"/><path class="cls-4" d="M14,93.87L31.75,76.13"/><g id="tool1"><line class="cls-5" x1="81" y1="89.13" x2="81" y2="98.31"/><line class="cls-5" x1="88" y1="89.13" x2="88" y2="98.31"/><line class="cls-5" x1="81" y1="71.69" x2="81" y2="80.87"/><line class="cls-5" x1="88" y1="71.69" x2="88" y2="80.87"/><line class="cls-5" x1="19.19" y1="78.76" x2="29.11" y2="88.68"/><line class="cls-5" x1="139.93" y1="82.28" x2="149.85" y2="92.2"/><path class="Graphic-Style" d="M31.75,76.13H156"/><path class="Graphic-Style" d="M156,76.13L138.25,93.87"/><path class="Graphic-Style" d="M138.25,93.87H14"/><path class="Graphic-Style" d="M14,93.87L31.75,76.13"/></g></svg>