<svg id="_60" data-name="60" xmlns="http://www.w3.org/2000/svg" viewBox="0 0 170 170"><defs><style>.cls-1{opacity:0;}.cls-2{fill:#2580b2;}.cls-3,.cls-4,.cls-5,.cls-6{fill:none;}.cls-3{stroke:#930;}.cls-3,.cls-4,.cls-5{stroke-linecap:round;stroke-linejoin:round;}.cls-4{stroke:#36eaa5;stroke-width:3px;}.cls-5,.cls-6{stroke:#fff;stroke-width:2px;}.cls-6{stroke-linejoin:bevel;}</style></defs><title>60_tool3</title><g id="transparent_bg" data-name="transparent bg" class="cls-1"><rect class="cls-2" width="170" height="170"/></g><path class="cls-3" d="M31.75,76.13H156"/><path class="cls-3" d="M156,76.13L138.25,93.87"/><path class="cls-3" d="M138.25,93.87H14"/><path class="cls-3" d="M14,93.87L31.75,76.13"/><path class="cls-4" d="M31.75,76.13H156"/><path class="cls-4" d="M156,76.13L138.25,93.87"/><path class="cls-4" d="M138.25,93.87H14"/><path class="cls-4" d="M14,93.87L31.75,76.13"/><g id="tool3"><polyline class="cls-5" points="82.7 69.26 89.7 76.28 82.7 83.29"/><polyline class="cls-5" points="89.7 69.26 96.7 76.28 89.7 83.29"/><polyline class="cls-5" points="72.7 86.71 79.7 94.47 72.7 100.74"/><polyline class="cls-5" points="79.7 86.71 86.7 94.47 79.7 100.74"/><polyline class="cls-5" points="139.69 82.51 149.6 82.53 149.61 92.44"/><polyline class="cls-5" points="16.21 81.75 26.12 81.76 26.13 91.67"/><line class="cls-6" x1="31.75" y1="76.13" x2="156" y2="76.13"/><line class="cls-6" x1="138.25" y1="93.87" x2="14" y2="93.87"/><line class="cls-6" x1="31.75" y1="76.13" x2="14" y2="93.87"/><line class="cls-6" x1="156" y1="76.13" x2="138.25" y2="93.87"/></g></svg>