<svg id="_61" data-name="61" xmlns="http://www.w3.org/2000/svg" viewBox="0 0 170 170"><defs><style>.cls-1{opacity:0;}.cls-2{fill:#2580b2;}.cls-3,.cls-4,.cls-5,.cls-6{fill:none;}.cls-3{stroke:#930;}.cls-3,.cls-4,.cls-5{stroke-linecap:round;stroke-linejoin:round;}.cls-4{stroke:#36eaa5;stroke-width:3px;}.cls-5,.cls-6{stroke:#fff;stroke-width:2px;}.cls-6{stroke-linejoin:bevel;}</style></defs><title>61_tool1</title><g id="transparent_bg" data-name="transparent bg" class="cls-1"><rect class="cls-2" width="170" height="170"/></g><g id="Shape"><path class="cls-3" d="M14.42,101.93L80.78,67.4"/><path class="cls-3" d="M80.78,67.4h74.8"/><path class="cls-3" d="M155.58,67.4l-66,35.2"/><path class="cls-3" d="M89.58,102.6l-75.16-.67"/><path class="cls-4" d="M14.42,101.93L80.78,67.4"/><path class="cls-4" d="M80.78,67.4h74.8"/><path class="cls-4" d="M155.58,67.4l-66,35.2"/><path class="cls-4" d="M89.58,102.6l-75.16-.67"/></g><g id="tool1"><line class="cls-5" x1="52" y1="109.66" x2="52" y2="94.2"/><line class="cls-5" x1="118.18" y1="75.13" x2="118.18" y2="59.67"/><line class="cls-5" x1="64.42" y1="84.66" x2="56.69" y2="71.27"/><line class="cls-5" x1="112.09" y1="99.39" x2="104.36" y2="85.99"/><path class="cls-3" d="M14.42,101.93L80.78,67.4"/><path class="cls-3" d="M80.78,67.4h74.8"/><path class="cls-3" d="M155.58,67.4l-66,35.2"/><path class="cls-3" d="M89.58,102.6l-75.16-.67"/><path class="cls-6" d="M14.42,101.93L80.78,67.4"/><path class="cls-6" d="M80.78,67.4h74.8"/><path class="cls-6" d="M155.58,67.4l-66,35.2"/><path class="cls-6" d="M89.58,102.6l-75.16-.67"/></g></svg>