<svg id="_61" data-name="61" xmlns="http://www.w3.org/2000/svg" viewBox="0 0 170 170"><defs><style>.cls-1{opacity:0;}.cls-2{fill:#2580b2;}.cls-3,.cls-4,.cls-5,.cls-6{fill:none;}.cls-3{stroke:#930;}.cls-3,.cls-4,.cls-5{stroke-linecap:round;stroke-linejoin:round;}.cls-4{stroke:#36eaa5;stroke-width:3px;}.cls-5,.cls-6{stroke:#fff;stroke-width:2px;}.cls-6{stroke-linejoin:bevel;}</style></defs><title>61_tool3</title><g id="transparent_bg" data-name="transparent bg" class="cls-1"><rect class="cls-2" width="170" height="170"/></g><g id="Shape"><path class="cls-3" d="M14.42,101.93L80.78,67.4"/><path class="cls-3" d="M80.78,67.4h74.8"/><path class="cls-3" d="M155.58,67.4l-66,35.2"/><path class="cls-3" d="M89.58,102.6l-75.16-.67"/><path class="cls-4" d="M14.42,101.93L80.78,67.4"/><path class="cls-4" d="M80.78,67.4h74.8"/><path class="cls-4" d="M155.58,67.4l-66,35.2"/><path class="cls-4" d="M89.58,102.6l-75.16-.67"/></g><g id="tool3_copy" data-name="tool3 copy"><polyline class="cls-5" points="105.71 60.38 112.71 67.4 105.71 74.42"/><polyline class="cls-5" points="112.71 60.38 119.71 67.4 112.71 74.42"/><polyline class="cls-5" points="53 95.58 60 102.6 53 109.62"/><polyline class="cls-5" points="60 95.58 67 102.6 60 109.62"/><polyline class="cls-5" points="51.65 75.11 61.35 77.15 59.34 86.85"/><polyline class="cls-5" points="104.36 87.85 114.06 89.89 112.05 99.59"/><path class="cls-3" d="M14.42,101.93L80.78,67.4"/><path class="cls-3" d="M80.78,67.4h74.8"/><path class="cls-3" d="M155.58,67.4l-66,35.2"/><path class="cls-3" d="M89.58,102.6l-75.16-.67"/><path class="cls-6" d="M14.42,101.93L80.78,67.4"/><path class="cls-6" d="M80.78,67.4h74.8"/><path class="cls-6" d="M155.58,67.4l-66,35.2"/><path class="cls-6" d="M89.58,102.6l-75.16-.67"/></g></svg>