<svg id="_41" data-name="41" xmlns="http://www.w3.org/2000/svg" viewBox="0 0 170 170"><defs><style>.cls-1{opacity:0;}.cls-2{fill:#2580b2;}.cls-3,.cls-4,.cls-5{fill:none;stroke-linecap:round;stroke-linejoin:round;}.cls-3{stroke:#930;}.cls-4{stroke:#36eaa5;stroke-width:3px;}.cls-5{stroke:#fff;stroke-width:2px;}</style></defs><title>41_tool3</title><g id="transparent_bg" data-name="transparent bg" class="cls-1"><rect class="cls-2" width="170" height="170"/></g><g id="shape"><path class="cls-3" d="M121.8,146.33V48.2"/><path class="cls-3" d="M48.2,23.67V146.33"/><path class="cls-3" d="M48.2,146.33H121.8"/><path class="cls-3" d="M121.8,48.2L97.27,23.67"/><path class="cls-3" d="M97.27,23.67H48.2"/><path class="cls-4" d="M121.8,146.33V48.2"/><path class="cls-4" d="M48.2,23.67V146.33"/><path class="cls-4" d="M48.2,146.33H121.8"/><path class="cls-4" d="M121.8,48.2L97.27,23.67"/><path class="cls-4" d="M97.27,23.67H48.2"/></g><g id="tool3"><polyline class="cls-5" points="39.43 92.25 48.2 85.25 56.98 92.25"/><polyline class="cls-5" points="69.23 14.9 76.23 23.67 69.23 32.45"/><polyline class="cls-5" points="79.92 137.55 86.92 146.33 79.92 155.1"/><polyline class="cls-5" points="113.02 92.25 121.8 85.25 130.57 92.25"/><polyline class="cls-5" points="39.43 97.27 48.2 90.27 56.98 97.27"/><polyline class="cls-5" points="113.02 97.27 121.8 90.27 130.57 97.27"/><line class="cls-5" x1="48.2" y1="23.67" x2="48.2" y2="146.33"/><line class="cls-5" x1="121.8" y1="48.2" x2="121.8" y2="146.33"/><line class="cls-5" x1="48.2" y1="23.67" x2="97.27" y2="23.67"/><line class="cls-5" x1="48.2" y1="146.33" x2="121.8" y2="146.33"/></g></svg>