<svg id="_54" data-name="54" xmlns="http://www.w3.org/2000/svg" xmlns:xlink="http://www.w3.org/1999/xlink" viewBox="0 0 170 170"><defs><style>.cls-1{font-size:10px;fill:#fff;font-family:Arial;font-style:italic;}.cls-2{opacity:0;}.cls-3{fill:#2580b2;}.cls-4,.cls-5{fill:none;stroke-linecap:round;stroke-linejoin:round;}.cls-4{stroke:#930;}.cls-5{stroke:#36eaa5;stroke-width:3px;}</style><symbol id="NotApplicable" data-name="NotApplicable" viewBox="0 0 64.11 11.83"><text class="cls-1" transform="translate(0 8.58)">Not<tspan x="15.56" y="0"> </tspan><tspan x="17.97" y="0">Applicable</tspan></text></symbol></defs><title>54_tool2A</title><g id="transparent_bg" data-name="transparent bg" class="cls-2"><rect class="cls-3" width="170" height="170"/></g><g id="tool2A"><use width="64.11" height="11.83" transform="translate(54.83 154.7)" xlink:href="#NotApplicable"/></g><g id="shape"><path class="cls-4" d="M84.84,20.9L30.57,76.61"/><path class="cls-4" d="M30.57,76.61L74.48,58.14"/><path class="cls-4" d="M74.48,58.14v92.38"/><path class="cls-4" d="M96.43,150.52V58.14"/><path class="cls-4" d="M96.43,58.14l43.9,18.48"/><path class="cls-4" d="M140.33,76.61L84.84,20.9"/><path class="cls-4" d="M74.48,150.52h22"/><path class="cls-5" d="M84.84,20.9L30.57,76.61"/><path class="cls-5" d="M30.57,76.61L74.48,58.14"/><path class="cls-5" d="M74.48,58.14v92.38"/><path class="cls-5" d="M96.43,150.52V58.14"/><path class="cls-5" d="M96.43,58.14l43.9,18.48"/><path class="cls-5" d="M140.33,76.61L84.84,20.9"/><path class="cls-5" d="M74.48,150.52h22"/></g></svg>