<svg id="_54" data-name="54" xmlns="http://www.w3.org/2000/svg" viewBox="0 0 170 170"><defs><style>.cls-1{opacity:0;}.cls-2{fill:#2580b2;}.cls-3,.cls-4,.cls-5{fill:none;stroke-linecap:round;stroke-linejoin:round;}.cls-3{stroke:#fff;stroke-width:2px;}.cls-4{stroke:#930;}.cls-5{stroke:#36eaa5;stroke-width:3px;}</style></defs><title>54_tool2B</title><g id="transparent_bg" data-name="transparent bg" class="cls-1"><rect class="cls-2" width="170" height="170"/></g><g id="tool2B"><rect class="cls-3" x="74.25" y="142" width="8.52" height="8.52"/><rect class="cls-3" x="87.97" y="142" width="8.52" height="8.52"/></g><g id="shape"><path class="cls-4" d="M84.84,20.9L30.57,76.61"/><path class="cls-4" d="M30.57,76.61L74.48,58.14"/><path class="cls-4" d="M74.48,58.14v92.38"/><path class="cls-4" d="M96.43,150.52V58.14"/><path class="cls-4" d="M96.43,58.14l43.9,18.48"/><path class="cls-4" d="M140.33,76.61L84.84,20.9"/><path class="cls-4" d="M74.48,150.52h22"/><path class="cls-5" d="M84.84,20.9L30.57,76.61"/><path class="cls-5" d="M30.57,76.61L74.48,58.14"/><path class="cls-5" d="M74.48,58.14v92.38"/><path class="cls-5" d="M96.43,150.52V58.14"/><path class="cls-5" d="M96.43,58.14l43.9,18.48"/><path class="cls-5" d="M140.33,76.61L84.84,20.9"/><path class="cls-5" d="M74.48,150.52h22"/></g></svg>