<svg id="_54" data-name="54" xmlns="http://www.w3.org/2000/svg" viewBox="0 0 170 170"><defs><style>.cls-1{opacity:0;}.cls-2{fill:#2580b2;}.cls-3,.cls-4,.cls-5,.cls-6,.cls-7{fill:none;}.cls-3{stroke:#930;}.cls-3,.cls-4{stroke-linecap:round;stroke-linejoin:round;}.cls-4{stroke:#36eaa5;stroke-width:3px;}.cls-5{stroke:#bc66ff;}.cls-5,.cls-6,.cls-7{stroke-miterlimit:10;stroke-width:2px;}.cls-6{stroke:#ffe566;}.cls-7{stroke:#f66;}</style></defs><title>54_tool1B</title><g id="transparent_bg" data-name="transparent bg" class="cls-1"><rect class="cls-2" width="170" height="170"/></g><g id="shape"><path class="cls-3" d="M84.84,20.9L30.57,76.61"/><path class="cls-3" d="M30.57,76.61L74.48,58.14"/><path class="cls-3" d="M74.48,58.14v92.38"/><path class="cls-3" d="M96.43,150.52V58.14"/><path class="cls-3" d="M96.43,58.14l43.9,18.48"/><path class="cls-3" d="M140.33,76.61L84.84,20.9"/><path class="cls-3" d="M74.48,150.52h22"/><path class="cls-4" d="M84.84,20.9L30.57,76.61"/><path class="cls-4" d="M30.57,76.61L74.48,58.14"/><path class="cls-4" d="M74.48,58.14v92.38"/><path class="cls-4" d="M96.43,150.52V58.14"/><path class="cls-4" d="M96.43,58.14l43.9,18.48"/><path class="cls-4" d="M140.33,76.61L84.84,20.9"/><path class="cls-4" d="M74.48,150.52h22"/></g><g id="tool1B"><path class="cls-5" d="M84.84,20.9L30.57,76.61"/><path class="cls-6" d="M30.57,76.61L74.48,58.14"/><path class="cls-7" d="M74.48,58.14v92.38"/><path class="cls-7" d="M96.43,150.52V58.14"/><path class="cls-6" d="M96.43,58.14l43.9,18.48"/><path class="cls-5" d="M140.33,76.61L84.84,20.9"/></g></svg>