<svg id="_54" data-name="54" xmlns="http://www.w3.org/2000/svg" viewBox="0 0 170 170"><defs><style>.cls-1{opacity:0;}.cls-2{fill:#2580b2;}.cls-3,.cls-4,.cls-5{fill:none;stroke-linecap:round;stroke-linejoin:round;}.cls-3{stroke:#930;}.cls-4{stroke:#36eaa5;stroke-width:3px;}.cls-5{stroke:#fff;stroke-width:2px;}</style></defs><title>54_tool3</title><g id="transparent_bg" data-name="transparent bg" class="cls-1"><rect class="cls-2" width="170" height="170"/></g><g id="shape"><path class="cls-3" d="M84.84,20.9L30.57,76.61"/><path class="cls-3" d="M30.57,76.61L74.48,58.14"/><path class="cls-3" d="M74.48,58.14v92.38"/><path class="cls-3" d="M96.43,150.52V58.14"/><path class="cls-3" d="M96.43,58.14l43.9,18.48"/><path class="cls-3" d="M140.33,76.61L84.84,20.9"/><path class="cls-3" d="M74.48,150.52h22"/><path class="cls-4" d="M84.84,20.9L30.57,76.61"/><path class="cls-4" d="M30.57,76.61L74.48,58.14"/><path class="cls-4" d="M74.48,58.14v92.38"/><path class="cls-4" d="M96.43,150.52V58.14"/><path class="cls-4" d="M96.43,58.14l43.9,18.48"/><path class="cls-4" d="M140.33,76.61L84.84,20.9"/><path class="cls-4" d="M74.48,150.52h22"/></g><g id="tool3"><polyline class="cls-5" points="65.7 111.23 74.48 104.23 83.25 111.23"/><polyline class="cls-5" points="87.66 111.77 96.43 104.77 105.21 111.77"/><line class="cls-5" x1="74.48" y1="58.14" x2="74.48" y2="150.52"/><line class="cls-5" x1="96.43" y1="58.14" x2="96.43" y2="150.52"/></g></svg>