<svg id="_54" data-name="54" xmlns="http://www.w3.org/2000/svg" viewBox="0 0 170 170"><defs><style>.cls-1{opacity:0;}.cls-2{fill:#2580b2;}.cls-3,.cls-4,.cls-5,.cls-6{fill:none;}.cls-3{stroke:#930;}.cls-3,.cls-4,.cls-5{stroke-linecap:round;stroke-linejoin:round;}.cls-4{stroke:#36eaa5;stroke-width:3px;}.cls-5,.cls-6{stroke:#fff;stroke-width:2px;}.cls-6{stroke-miterlimit:10;}</style></defs><title>54_tool1</title><g id="transparent_bg" data-name="transparent bg" class="cls-1"><rect class="cls-2" width="170" height="170"/></g><g id="shape"><path class="cls-3" d="M84.84,20.9L30.57,76.61"/><path class="cls-3" d="M30.57,76.61L74.48,58.14"/><path class="cls-3" d="M74.48,58.14v92.38"/><path class="cls-3" d="M96.43,150.52V58.14"/><path class="cls-3" d="M96.43,58.14l43.9,18.48"/><path class="cls-3" d="M140.33,76.61L84.84,20.9"/><path class="cls-3" d="M74.48,150.52h22"/><path class="cls-4" d="M84.84,20.9L30.57,76.61"/><path class="cls-4" d="M30.57,76.61L74.48,58.14"/><path class="cls-4" d="M74.48,58.14v92.38"/><path class="cls-4" d="M96.43,150.52V58.14"/><path class="cls-4" d="M96.43,58.14l43.9,18.48"/><path class="cls-4" d="M140.33,76.61L84.84,20.9"/><path class="cls-4" d="M74.48,150.52h22"/></g><g id="tool1"><line class="cls-5" x1="110.55" y1="70.62" x2="114.62" y2="59.13"/><line class="cls-5" x1="62" y1="70.51" x2="57.47" y2="59.24"/><line class="cls-5" x1="96.59" y1="41.36" x2="104.7" y2="32.83"/><line class="cls-5" x1="99.4" y1="44.57" x2="107.5" y2="36.03"/><line class="cls-5" x1="69.89" y1="44.68" x2="62.1" y2="35.79"/><line class="cls-5" x1="72.81" y1="41.6" x2="65.02" y2="32.71"/><line class="cls-5" x1="68.71" y1="100.9" x2="79.95" y2="100.9"/><line class="cls-5" x1="68.71" y1="105.35" x2="79.95" y2="105.35"/><line class="cls-5" x1="68.71" y1="109.79" x2="79.95" y2="109.79"/><line class="cls-5" x1="90.81" y1="100.9" x2="102.05" y2="100.9"/><line class="cls-5" x1="90.81" y1="105.35" x2="102.05" y2="105.35"/><line class="cls-5" x1="90.81" y1="109.79" x2="102.05" y2="109.79"/><path class="cls-6" d="M84.84,20.9L30.57,76.61"/><path class="cls-6" d="M30.57,76.61L74.48,58.14"/><path class="cls-6" d="M74.48,58.14v92.38"/><path class="cls-6" d="M96.43,150.52V58.14"/><path class="cls-6" d="M96.43,58.14l43.9,18.48"/><path class="cls-6" d="M140.33,76.61L84.84,20.9"/><path class="cls-6" d="M84.84,20.9L30.57,76.61"/><path class="cls-6" d="M30.57,76.61L74.48,58.14"/><path class="cls-6" d="M74.48,58.14v92.38"/><path class="cls-6" d="M96.43,150.52V58.14"/><path class="cls-6" d="M96.43,58.14l43.9,18.48"/><path class="cls-6" d="M140.33,76.61L84.84,20.9"/></g></svg>