<svg id="_71" data-name="71" xmlns="http://www.w3.org/2000/svg" viewBox="0 0 170 170"><defs><style>.cls-1{opacity:0;}.cls-2{fill:#2580b2;}.cls-3,.cls-4,.cls-5{fill:none;}.cls-3{stroke:#fff;stroke-linejoin:bevel;stroke-width:2px;}.cls-4{stroke:#000;}.cls-4,.cls-5{stroke-linecap:round;stroke-linejoin:round;}.cls-5{stroke:#36eaa5;stroke-width:3px;}</style></defs><title>71_tool2A</title><g id="transparent_bg" data-name="transparent bg" class="cls-1"><rect class="cls-2" width="170" height="170"/></g><g id="tool2A"><path class="cls-3" d="M111,20H95.77a15.23,15.23,0,0,0,20.1,14.44Z"/><path class="cls-3" d="M59,20L54.22,34.46A15.23,15.23,0,0,0,74.23,20Z"/><path class="cls-3" d="M111,20H95.77a15.23,15.23,0,0,0,20.1,14.44Z"/><path class="cls-3" d="M59,20L54.22,34.46A15.23,15.23,0,0,0,74.23,20Z"/></g><g id="shape_copy_2" data-name="shape copy 2"><path class="cls-4" d="M33,98a52,52,0,0,0,104,0"/><path class="cls-4" d="M59,20L33,98"/><path class="cls-4" d="M111,20l26,78"/><path class="cls-4" d="M59,20h52"/><path class="cls-5" d="M33,98a52,52,0,0,0,104,0"/><path class="cls-5" d="M59,20L33,98"/><path class="cls-5" d="M111,20l26,78"/><path class="cls-5" d="M59,20h52"/></g></svg>