<svg id="_46" data-name="46" xmlns="http://www.w3.org/2000/svg" viewBox="0 0 170 170"><defs><style>.cls-1{opacity:0;}.cls-2{fill:#2580b2;}.cls-3,.cls-4,.cls-5{fill:none;stroke-linecap:round;stroke-linejoin:round;}.cls-3{stroke:#930;}.cls-4{stroke:#36eaa5;stroke-width:3px;}.cls-5{stroke:#fff;stroke-width:2px;}</style></defs><title>46_tool3</title><g id="transparent_bg" data-name="transparent bg" class="cls-1"><rect class="cls-2" width="170" height="170"/></g><g id="shape"><path class="cls-3" d="M52.1,145.65l-17.33-52"/><path class="cls-3" d="M34.77,93.66L86.76,59"/><path class="cls-3" d="M86.76,59L69.43,24.35"/><path class="cls-3" d="M138.74,24.35v121.3"/><path class="cls-3" d="M69.43,24.35h69.32"/><path class="cls-3" d="M138.74,145.65H52.1"/><path class="cls-4" d="M52.1,145.65l-17.33-52"/><path class="cls-4" d="M34.77,93.66L86.76,59"/><path class="cls-4" d="M86.76,59L69.43,24.35"/><path class="cls-4" d="M138.74,24.35v121.3"/><path class="cls-4" d="M69.43,24.35h69.32"/><path class="cls-4" d="M138.74,145.65H52.1"/></g><g id="tool3"><polyline class="cls-5" points="104.09 17.33 111.09 24.35 104.09 31.36"/><polyline class="cls-5" points="89.93 138.64 96.93 145.65 89.93 152.67"/><line class="cls-5" x1="69.43" y1="24.35" x2="138.74" y2="24.35"/><line class="cls-5" x1="138.74" y1="145.65" x2="52.1" y2="145.65"/></g></svg>