<svg id="_56" data-name="56" xmlns="http://www.w3.org/2000/svg" viewBox="0 0 170 170"><defs><style>.cls-1{opacity:0;}.cls-2{fill:#2580b2;}.TISS_shape_outline,.cls-3{fill:none;stroke-linecap:round;stroke-linejoin:round;}.TISS_shape_outline{stroke:#36eaa5;stroke-width:3px;}.cls-3{stroke:#fff;stroke-width:2px;}</style></defs><title>56_tool3</title><g id="transparent_bg" data-name="transparent bg" class="cls-1"><rect class="cls-2" width="170" height="170"/></g><g id="shape"><path class="TISS_shape_outline" d="M57.65,151.48h54.69"/><path class="TISS_shape_outline" d="M112.35,151.48V99.1"/><path class="TISS_shape_outline" d="M112.35,99.1L94.11,40.62"/><path class="TISS_shape_outline" d="M94.11,40.62l18.23-20.1"/><path class="TISS_shape_outline" d="M112.35,20.52H57.65"/><path class="TISS_shape_outline" d="M57.65,20.52l18.23,20.1"/><path class="TISS_shape_outline" d="M75.88,40.62L57.65,99.1"/><path class="TISS_shape_outline" d="M57.65,99.1v52.38"/><path class="TISS_shape_outline" d="M57.65,151.48h54.69"/><path class="TISS_shape_outline" d="M112.35,151.48V99.1"/><path class="TISS_shape_outline" d="M112.35,99.1L94.11,40.62"/><path class="TISS_shape_outline" d="M94.11,40.62l18.23-20.1"/><path class="TISS_shape_outline" d="M112.35,20.52H57.65"/><path class="TISS_shape_outline" d="M57.65,20.52l18.23,20.1"/><path class="TISS_shape_outline" d="M75.88,40.62L57.65,99.1"/><path class="TISS_shape_outline" d="M57.65,99.1v52.38"/></g><g id="tool3"><polyline class="cls-3" points="48.88 125.29 57.66 118.29 66.43 125.29"/><polyline class="cls-3" points="103.57 125.29 112.35 118.29 121.12 125.29"/><polyline class="cls-3" points="81.5 11.74 88.5 20.52 81.5 29.29"/><polyline class="cls-3" points="81.5 142.71 88.5 151.48 81.5 160.25"/><polyline class="cls-3" points="48.88 132.29 57.66 125.29 66.43 132.29"/><polyline class="cls-3" points="103.57 132.29 112.35 125.29 121.12 132.29"/><line class="cls-3" x1="57.65" y1="20.52" x2="112.35" y2="20.52"/><line class="cls-3" x1="57.65" y1="151.48" x2="112.35" y2="151.48"/><line class="cls-3" x1="112.35" y1="99.1" x2="112.35" y2="151.48"/><line class="cls-3" x1="57.65" y1="99.1" x2="57.65" y2="151.48"/></g></svg>