<svg id="_56" data-name="56" xmlns="http://www.w3.org/2000/svg" viewBox="0 0 170 170"><defs><style>.cls-1{opacity:0;}.cls-2{fill:#2580b2;}.TISS_shape_outline,.cls-3{fill:none;}.cls-3{stroke:#fff;stroke-linejoin:bevel;stroke-width:2px;}.TISS_shape_outline{stroke:#36eaa5;stroke-linecap:round;stroke-linejoin:round;stroke-width:3px;}</style></defs><title>56_tool2D</title><g id="transparent_bg" data-name="transparent bg" class="cls-1"><rect class="cls-2" width="170" height="170"/></g><g id="tool2D"><path class="cls-3" d="M94.11,40.62l4.64-5.06a6.86,6.86,0,1,0-2.57,11.61Z"/><path class="cls-3" d="M75.88,40.62l-2.12,6.53a6.86,6.86,0,1,0-2.47-11.63Z"/></g><g id="shape"><path class="TISS_shape_outline" d="M57.65,151.48h54.69"/><path class="TISS_shape_outline" d="M112.35,151.48V99.1"/><path class="TISS_shape_outline" d="M112.35,99.1L94.11,40.62"/><path class="TISS_shape_outline" d="M94.11,40.62l18.23-20.1"/><path class="TISS_shape_outline" d="M112.35,20.52H57.65"/><path class="TISS_shape_outline" d="M57.65,20.52l18.23,20.1"/><path class="TISS_shape_outline" d="M75.88,40.62L57.65,99.1"/><path class="TISS_shape_outline" d="M57.65,99.1v52.38"/><path class="TISS_shape_outline" d="M57.65,151.48h54.69"/><path class="TISS_shape_outline" d="M112.35,151.48V99.1"/><path class="TISS_shape_outline" d="M112.35,99.1L94.11,40.62"/><path class="TISS_shape_outline" d="M94.11,40.62l18.23-20.1"/><path class="TISS_shape_outline" d="M112.35,20.52H57.65"/><path class="TISS_shape_outline" d="M57.65,20.52l18.23,20.1"/><path class="TISS_shape_outline" d="M75.88,40.62L57.65,99.1"/><path class="TISS_shape_outline" d="M57.65,99.1v52.38"/></g></svg>