<svg id="_56" data-name="56" xmlns="http://www.w3.org/2000/svg" viewBox="0 0 170 170"><defs><style>.cls-1{opacity:0;}.cls-2{fill:#2580b2;}.TISS_shape_outline,.cls-3{fill:none;stroke-linecap:round;stroke-linejoin:round;}.cls-3{stroke:#fff;stroke-width:2px;}.TISS_shape_outline{stroke:#36eaa5;stroke-width:3px;}</style></defs><title>56_tool2B</title><g id="transparent_bg" data-name="transparent bg" class="cls-1"><rect class="cls-2" width="170" height="170"/></g><g id="tool2B"><rect class="cls-3" x="57.65" y="134.77" width="16.71" height="16.71"/><rect class="cls-3" x="95.63" y="134.77" width="16.71" height="16.71"/></g><g id="shape"><path class="TISS_shape_outline" d="M57.65,151.48h54.69"/><path class="TISS_shape_outline" d="M112.35,151.48V99.1"/><path class="TISS_shape_outline" d="M112.35,99.1L94.11,40.62"/><path class="TISS_shape_outline" d="M94.11,40.62l18.23-20.1"/><path class="TISS_shape_outline" d="M112.35,20.52H57.65"/><path class="TISS_shape_outline" d="M57.65,20.52l18.23,20.1"/><path class="TISS_shape_outline" d="M75.88,40.62L57.65,99.1"/><path class="TISS_shape_outline" d="M57.65,99.1v52.38"/><path class="TISS_shape_outline" d="M57.65,151.48h54.69"/><path class="TISS_shape_outline" d="M112.35,151.48V99.1"/><path class="TISS_shape_outline" d="M112.35,99.1L94.11,40.62"/><path class="TISS_shape_outline" d="M94.11,40.62l18.23-20.1"/><path class="TISS_shape_outline" d="M112.35,20.52H57.65"/><path class="TISS_shape_outline" d="M57.65,20.52l18.23,20.1"/><path class="TISS_shape_outline" d="M75.88,40.62L57.65,99.1"/><path class="TISS_shape_outline" d="M57.65,99.1v52.38"/></g></svg>