<svg id="_56" data-name="56" xmlns="http://www.w3.org/2000/svg" viewBox="0 0 170 170"><defs><style>.cls-1{opacity:0;}.cls-2{fill:#2580b2;}.TISS_shape_outline,.cls-3,.cls-4{fill:none;}.TISS_shape_outline{stroke:#36eaa5;stroke-width:3px;}.TISS_shape_outline,.cls-3{stroke-linecap:round;stroke-linejoin:round;}.cls-3,.cls-4{stroke:#fff;stroke-width:2px;}.cls-4{stroke-miterlimit:10;}</style></defs><title>56_tool1</title><g id="transparent_bg" data-name="transparent bg" class="cls-1"><rect class="cls-2" width="170" height="170"/></g><g id="shape"><path class="TISS_shape_outline" d="M57.65,151.48h54.69"/><path class="TISS_shape_outline" d="M112.35,151.48V99.1"/><path class="TISS_shape_outline" d="M112.35,99.1L94.11,40.62"/><path class="TISS_shape_outline" d="M94.11,40.62l18.23-20.1"/><path class="TISS_shape_outline" d="M112.35,20.52H57.65"/><path class="TISS_shape_outline" d="M57.65,20.52l18.23,20.1"/><path class="TISS_shape_outline" d="M75.88,40.62L57.65,99.1"/><path class="TISS_shape_outline" d="M57.65,99.1v52.38"/><path class="TISS_shape_outline" d="M57.65,151.48h54.69"/><path class="TISS_shape_outline" d="M112.35,151.48V99.1"/><path class="TISS_shape_outline" d="M112.35,99.1L94.11,40.62"/><path class="TISS_shape_outline" d="M94.11,40.62l18.23-20.1"/><path class="TISS_shape_outline" d="M112.35,20.52H57.65"/><path class="TISS_shape_outline" d="M57.65,20.52l18.23,20.1"/><path class="TISS_shape_outline" d="M75.88,40.62L57.65,99.1"/><path class="TISS_shape_outline" d="M57.65,99.1v52.38"/></g><g id="tool1"><line class="cls-3" x1="74.36" y1="26.87" x2="61.17" y2="37.13"/><line class="cls-3" x1="108.31" y1="37.25" x2="95.32" y2="26.75"/><line class="cls-3" x1="80.99" y1="28.87" x2="80.99" y2="12.16"/><line class="cls-3" x1="87.49" y1="28.87" x2="87.49" y2="12.16"/><line class="cls-3" x1="80.99" y1="159.84" x2="80.99" y2="143.13"/><line class="cls-3" x1="87.49" y1="159.84" x2="87.49" y2="143.13"/><line class="cls-3" x1="113.07" y1="73.03" x2="97.16" y2="78.12"/><line class="cls-3" x1="109.31" y1="61.25" x2="93.39" y2="66.34"/><line class="cls-3" x1="111.19" y1="67.14" x2="95.27" y2="72.23"/><line class="cls-3" x1="73.27" y1="77.99" x2="57.24" y2="73.24"/><line class="cls-3" x1="76.78" y1="66.13" x2="60.76" y2="61.38"/><line class="cls-3" x1="75.02" y1="72.06" x2="59" y2="67.31"/><line class="cls-3" x1="66.01" y1="122.68" x2="49.3" y2="122.68"/><line class="cls-3" x1="66.01" y1="116.5" x2="49.3" y2="116.5"/><line class="cls-3" x1="66.01" y1="135.03" x2="49.3" y2="135.03"/><line class="cls-3" x1="66.01" y1="128.85" x2="49.3" y2="128.85"/><line class="cls-3" x1="120.7" y1="122.68" x2="103.99" y2="122.68"/><line class="cls-3" x1="120.7" y1="116.5" x2="103.99" y2="116.5"/><line class="cls-3" x1="120.7" y1="135.03" x2="103.99" y2="135.03"/><line class="cls-3" x1="120.7" y1="128.85" x2="103.99" y2="128.85"/><path class="cls-4" d="M57.65,151.48h54.69"/><path class="cls-4" d="M112.35,151.48V99.1"/><path class="cls-4" d="M112.35,99.1L94.11,40.62"/><path class="cls-4" d="M94.11,40.62l18.23-20.1"/><path class="cls-4" d="M112.35,20.52H57.65"/><path class="cls-4" d="M57.65,20.52l18.23,20.1"/><path class="cls-4" d="M75.88,40.62L57.65,99.1"/><path class="cls-4" d="M57.65,99.1v52.38"/><path class="cls-4" d="M57.65,151.48h54.69"/><path class="cls-4" d="M112.35,151.48V99.1"/><path class="cls-4" d="M112.35,99.1L94.11,40.62"/><path class="cls-4" d="M94.11,40.62l18.23-20.1"/><path class="cls-4" d="M112.35,20.52H57.65"/><path class="cls-4" d="M57.65,20.52l18.23,20.1"/><path class="cls-4" d="M75.88,40.62L57.65,99.1"/><path class="cls-4" d="M57.65,99.1v52.38"/></g></svg>