<svg id="_56" data-name="56" xmlns="http://www.w3.org/2000/svg" viewBox="0 0 170 170"><defs><style>.cls-1{opacity:0;}.cls-2{fill:#2580b2;}.TISS_shape_outline,.cls-3,.cls-4,.cls-5,.cls-6{fill:none;}.TISS_shape_outline{stroke:#36eaa5;stroke-linecap:round;stroke-linejoin:round;stroke-width:3px;}.cls-3{stroke:#8add00;}.cls-3,.cls-4,.cls-5,.cls-6{stroke-miterlimit:10;stroke-width:2px;}.cls-4{stroke:#f66;}.cls-5{stroke:#ffe566;}.cls-6{stroke:#bc66ff;}</style></defs><title>56_tool1B</title><g id="transparent_bg" data-name="transparent bg" class="cls-1"><rect class="cls-2" width="170" height="170"/></g><g id="shape"><path class="TISS_shape_outline" d="M57.65,151.48h54.69"/><path class="TISS_shape_outline" d="M112.35,151.48V99.1"/><path class="TISS_shape_outline" d="M112.35,99.1L94.11,40.62"/><path class="TISS_shape_outline" d="M94.11,40.62l18.23-20.1"/><path class="TISS_shape_outline" d="M112.35,20.52H57.65"/><path class="TISS_shape_outline" d="M57.65,20.52l18.23,20.1"/><path class="TISS_shape_outline" d="M75.88,40.62L57.65,99.1"/><path class="TISS_shape_outline" d="M57.65,99.1v52.38"/><path class="TISS_shape_outline" d="M57.65,151.48h54.69"/><path class="TISS_shape_outline" d="M112.35,151.48V99.1"/><path class="TISS_shape_outline" d="M112.35,99.1L94.11,40.62"/><path class="TISS_shape_outline" d="M94.11,40.62l18.23-20.1"/><path class="TISS_shape_outline" d="M112.35,20.52H57.65"/><path class="TISS_shape_outline" d="M57.65,20.52l18.23,20.1"/><path class="TISS_shape_outline" d="M75.88,40.62L57.65,99.1"/><path class="TISS_shape_outline" d="M57.65,99.1v52.38"/></g><g id="tool1B"><path class="cls-3" d="M57.65,151.48h54.69"/><path class="cls-4" d="M112.35,151.48V99.1"/><path class="cls-5" d="M112.35,99.1L94.11,40.62"/><path class="cls-6" d="M94.11,40.62l18.23-20.1"/><path class="cls-3" d="M112.35,20.52H57.65"/><path class="cls-6" d="M57.65,20.52l18.23,20.1"/><path class="cls-5" d="M75.88,40.62L57.65,99.1"/><path class="cls-4" d="M57.65,99.1v52.38"/></g></svg>