<svg id="_69" data-name="69" xmlns="http://www.w3.org/2000/svg" viewBox="0 0 170 170"><defs><style>.cls-1{opacity:0;}.cls-2{fill:#2580b2;}.Graphic-Style,.cls-3,.cls-4{fill:none;}.cls-3{stroke:#000;}.cls-3,.cls-4{stroke-linecap:round;stroke-linejoin:round;}.cls-4{stroke:#36eaa5;stroke-width:3px;}.Graphic-Style{stroke:#fff;stroke-linejoin:bevel;stroke-width:2px;}</style></defs><title>69_tool1</title><g id="transparent_bg" data-name="transparent bg" class="cls-1"><rect class="cls-2" width="170" height="170"/></g><g id="shape"><path class="cls-3" d="M111.52,45.22a26.52,26.52,0,0,0-53,0"/><path class="cls-3" d="M58.48,45.22v79.57"/><path class="cls-3" d="M58.48,124.78L85,151.31"/><path class="cls-3" d="M85,151.31l26.52-26.52"/><path class="cls-3" d="M111.52,124.78V45.22"/><path class="cls-4" d="M111.52,45.22a26.52,26.52,0,0,0-53,0"/><path class="cls-4" d="M58.48,45.22v79.57"/><path class="cls-4" d="M58.48,124.78L85,151.31"/><path class="cls-4" d="M85,151.31l26.52-26.52"/><path class="cls-4" d="M111.52,124.78V45.22"/></g><g id="tool1"><line class="Graphic-Style" x1="103.79" y1="85" x2="119.26" y2="85"/><line class="Graphic-Style" x1="92.79" y1="132.58" x2="103.73" y2="143.51"/><line class="Graphic-Style" x1="77.21" y1="132.58" x2="66.27" y2="143.51"/><line class="Graphic-Style" x1="50.74" y1="85" x2="66.21" y2="85"/><path class="Graphic-Style" d="M111.52,45.22v79.57"/><path class="Graphic-Style" d="M58.48,45.22v79.57"/><path class="Graphic-Style" d="M58.48,124.78L85,151.31"/><path class="Graphic-Style" d="M85,151.31l26.52-26.52"/></g></svg>