<svg id="_69" data-name="69" xmlns="http://www.w3.org/2000/svg" viewBox="0 0 170 170"><defs><style>.cls-1{opacity:0;}.cls-2{fill:#2580b2;}.cls-3,.cls-4,.cls-5{fill:none;stroke-linecap:round;stroke-linejoin:round;}.cls-3{stroke:#000;}.cls-4{stroke:#36eaa5;stroke-width:3px;}.cls-5{stroke:#fff;stroke-width:2px;}</style></defs><title>69_tool3</title><g id="transparent_bg" data-name="transparent bg" class="cls-1"><rect class="cls-2" width="170" height="170"/></g><g id="shape"><path class="cls-3" d="M111.52,45.22a26.52,26.52,0,0,0-53,0"/><path class="cls-3" d="M58.48,45.22v79.57"/><path class="cls-3" d="M58.48,124.78L85,151.31"/><path class="cls-3" d="M85,151.31l26.52-26.52"/><path class="cls-3" d="M111.52,124.78V45.22"/><path class="cls-4" d="M111.52,45.22a26.52,26.52,0,0,0-53,0"/><path class="cls-4" d="M58.48,45.22v79.57"/><path class="cls-4" d="M58.48,124.78L85,151.31"/><path class="cls-4" d="M85,151.31l26.52-26.52"/><path class="cls-4" d="M111.52,124.78V45.22"/></g><g id="tool3"><polyline class="cls-5" points="49.7 87.95 58.48 80.95 67.25 87.95"/><polyline class="cls-5" points="102.75 88.5 111.52 81.5 120.3 88.5"/><line class="cls-5" x1="58.48" y1="45.22" x2="58.48" y2="123.68"/><line class="cls-5" x1="111.52" y1="45.22" x2="111.52" y2="124.78"/></g></svg>