<svg id="_69" data-name="69" xmlns="http://www.w3.org/2000/svg" viewBox="0 0 170 170"><defs><style>.cls-1{opacity:0;}.cls-2{fill:#2580b2;}.cls-3,.cls-4,.cls-5,.cls-6{fill:none;}.cls-3{stroke:#000;}.cls-3,.cls-4{stroke-linecap:round;stroke-linejoin:round;}.cls-4{stroke:#36eaa5;stroke-width:3px;}.cls-5{stroke:#f66;}.cls-5,.cls-6{stroke-linejoin:bevel;stroke-width:2px;}.cls-6{stroke:#ffe566;}</style></defs><title>69_tool1B</title><g id="transparent_bg" data-name="transparent bg" class="cls-1"><rect class="cls-2" width="170" height="170"/></g><g id="shape"><path class="cls-3" d="M111.52,45.22a26.52,26.52,0,0,0-53,0"/><path class="cls-3" d="M58.48,45.22v79.57"/><path class="cls-3" d="M58.48,124.78L85,151.31"/><path class="cls-3" d="M85,151.31l26.52-26.52"/><path class="cls-3" d="M111.52,124.78V45.22"/><path class="cls-4" d="M111.52,45.22a26.52,26.52,0,0,0-53,0"/><path class="cls-4" d="M58.48,45.22v79.57"/><path class="cls-4" d="M58.48,124.78L85,151.31"/><path class="cls-4" d="M85,151.31l26.52-26.52"/><path class="cls-4" d="M111.52,124.78V45.22"/></g><g id="tool1B"><path class="cls-5" d="M111.52,45.22v79.57"/><path class="cls-5" d="M58.48,45.22v79.57"/><path class="cls-6" d="M58.48,124.78L85,151.31"/><path class="cls-6" d="M85,151.31l26.52-26.52"/></g></svg>