<svg id="_55" data-name="55" xmlns="http://www.w3.org/2000/svg" viewBox="0 0 170 170"><defs><style>.cls-1{opacity:0;}.cls-2{fill:#2580b2;}.TISS_shape_outline,.cls-3,.cls-4{fill:none;}.TISS_shape_outline{stroke:#36eaa5;stroke-width:3px;}.TISS_shape_outline,.cls-3{stroke-linecap:round;stroke-linejoin:round;}.cls-3,.cls-4{stroke:#fff;stroke-width:2px;}.cls-4{stroke-linejoin:bevel;}</style></defs><title>55_tool3</title><g id="transparent_bg" data-name="transparent bg" class="cls-1"><rect class="cls-2" width="170" height="170"/></g><g id="shape"><path class="TISS_shape_outline" d="M59.72,146h50.55L146,110.28V59.72L110.28,24H59.72L24,59.72v50.55Z"/><path class="TISS_shape_outline" d="M59.72,146h50.55"/><path class="TISS_shape_outline" d="M110.28,146L146,110.28"/><path class="TISS_shape_outline" d="M146,110.28V59.72"/><path class="TISS_shape_outline" d="M146,59.72L110.28,24"/><path class="TISS_shape_outline" d="M59.72,24L24,59.72"/><path class="TISS_shape_outline" d="M24,110.28L59.72,146"/></g><g id="tool3"><polyline class="cls-3" points="80.31 32.33 87.31 23.98 80.31 15.62"/><polyline class="cls-3" points="79.5 154.38 86.5 146.03 79.5 137.67"/><polyline class="cls-3" points="87.31 32.33 94.31 23.98 87.31 15.62"/><polyline class="cls-3" points="86.5 154.38 93.5 146.03 86.5 137.67"/><polyline class="cls-3" points="73.31 32.33 80.31 23.98 73.31 15.62"/><polyline class="cls-3" points="72.5 154.38 79.5 146.03 72.5 137.67"/><polyline class="cls-3" points="94.31 32.33 101.31 23.98 94.31 15.62"/><polyline class="cls-3" points="93.5 154.38 100.5 146.03 93.5 137.67"/><polyline class="cls-3" points="125.22 119.43 126.18 130.29 137.04 131.25"/><polyline class="cls-3" points="39.49 32.56 40.45 43.41 51.31 44.38"/><polyline class="cls-3" points="120.46 45.57 131.31 44.61 132.28 33.75"/><polyline class="cls-3" points="33.59 131.3 44.44 130.34 45.4 119.48"/><polyline class="cls-3" points="126.12 51.23 136.97 50.27 137.93 39.41"/><polyline class="cls-3" points="39.24 136.95 50.1 136 51.06 125.14"/><polyline class="cls-3" points="138.07 73.91 146.42 80.91 154.78 73.91"/><polyline class="cls-3" points="138.07 81.91 146.42 88.91 154.78 81.91"/><polyline class="cls-3" points="16.02 73.09 24.38 80.09 32.73 73.09"/><polyline class="cls-3" points="16.02 81.09 24.38 88.09 32.73 81.09"/><polyline class="cls-3" points="138.07 89.91 146.42 96.91 154.78 89.91"/><polyline class="cls-3" points="16.02 89.09 24.38 96.09 32.73 89.09"/><path class="TISS_shape_outline" d="M59.72,146h50.55L146,110.28V59.72L110.28,24H59.72L24,59.72v50.55Z"/><path class="TISS_shape_outline" d="M59.72,146h50.55"/><path class="TISS_shape_outline" d="M110.28,146L146,110.28"/><path class="TISS_shape_outline" d="M146,110.28V59.72"/><path class="TISS_shape_outline" d="M146,59.72L110.28,24"/><path class="TISS_shape_outline" d="M59.72,24L24,59.72"/><path class="TISS_shape_outline" d="M24,110.28L59.72,146"/><path class="cls-4" d="M59.72,146h50.55L146,110.28V59.72L110.28,24H59.72L24,59.72v50.55Z"/><path class="cls-4" d="M59.72,146h50.55"/><path class="cls-4" d="M110.28,146L146,110.28"/><path class="cls-4" d="M146,110.28V59.72"/><path class="cls-4" d="M146,59.72L110.28,24"/><path class="cls-4" d="M59.72,24L24,59.72"/><path class="cls-4" d="M24,110.28L59.72,146"/></g></svg>