<svg id="_55" data-name="55" xmlns="http://www.w3.org/2000/svg" viewBox="0 0 170 170"><defs><style>.cls-1{opacity:0;}.cls-2{fill:#2580b2;}.TISS_shape_outline,.cls-3,.cls-4{fill:none;}.TISS_shape_outline{stroke:#36eaa5;stroke-width:3px;}.TISS_shape_outline,.cls-3{stroke-linecap:round;stroke-linejoin:round;}.cls-3,.cls-4{stroke:#fff;stroke-width:2px;}.cls-4{stroke-miterlimit:10;}</style></defs><title>55_tool1</title><g id="transparent_bg" data-name="transparent bg" class="cls-1"><rect class="cls-2" width="170" height="170"/></g><g id="shape"><path class="TISS_shape_outline" d="M59.72,146h50.55L146,110.28V59.72L110.28,24H59.72L24,59.72v50.55Z"/><path class="TISS_shape_outline" d="M59.72,146h50.55"/><path class="TISS_shape_outline" d="M110.28,146L146,110.28"/><path class="TISS_shape_outline" d="M146,110.28V59.72"/><path class="TISS_shape_outline" d="M146,59.72L110.28,24"/><path class="TISS_shape_outline" d="M59.72,24L24,59.72"/><path class="TISS_shape_outline" d="M24,110.28L59.72,146"/></g><g id="tool1"><line class="cls-3" x1="85" y1="32.33" x2="85" y2="15.62"/><line class="cls-3" x1="85" y1="154.38" x2="85" y2="137.67"/><line class="cls-3" x1="137.67" y1="85" x2="154.38" y2="85"/><line class="cls-3" x1="15.62" y1="85" x2="32.33" y2="85"/><line class="cls-3" x1="122.24" y1="122.24" x2="134.06" y2="134.06"/><line class="cls-3" x1="35.94" y1="35.94" x2="47.76" y2="47.76"/><line class="cls-3" x1="122.24" y1="47.76" x2="134.06" y2="35.94"/><line class="cls-3" x1="35.94" y1="134.06" x2="47.76" y2="122.24"/><path class="cls-4" d="M59.72,146h50.55L146,110.28V59.72L110.28,24H59.72L24,59.72v50.55Z"/></g></svg>