<svg id="_66" data-name="66" xmlns="http://www.w3.org/2000/svg" viewBox="0 0 170 170"><defs><style>.cls-1{opacity:0;}.cls-2{fill:#2580b2;}.cls-3{font-size:10px;fill:#fff;font-family:Arial;font-style:italic;}.cls-4,.cls-5{fill:none;stroke-linecap:round;stroke-linejoin:round;}.cls-4{stroke:#000;}.cls-5{stroke:#36eaa5;stroke-width:3px;}</style></defs><title>66_tool2A</title><g id="transparent_bg" data-name="transparent bg" class="cls-1"><rect class="cls-2" width="170" height="170"/></g><g id="tool2ABC"><text class="cls-3" transform="translate(54.83 162.67)">Not<tspan x="15.56" y="0"> </tspan><tspan x="17.97" y="0">Applicable</tspan></text></g><g id="shape_copy" data-name="shape copy"><path class="cls-4" d="M34.5,97.63a50.5,50.5,0,0,0,101,0"/><path class="cls-4" d="M59.75,21.88a25.25,25.25,0,0,0,50.5,0"/><path class="cls-4" d="M59.75,21.88L34.5,97.63"/><path class="cls-4" d="M110.25,21.88L135.5,97.63"/><path class="cls-5" d="M34.5,97.63a50.5,50.5,0,0,0,101,0"/><path class="cls-5" d="M59.75,21.88a25.25,25.25,0,0,0,50.5,0"/><path class="cls-5" d="M59.75,21.88L34.5,97.63"/><path class="cls-5" d="M110.25,21.88L135.5,97.63"/></g></svg>