<svg id="_66" data-name="66" xmlns="http://www.w3.org/2000/svg" viewBox="0 0 170 170"><defs><style>.cls-1{opacity:0;}.cls-2{fill:#2580b2;}.Graphic-Style,.cls-3,.cls-4,.cls-5{fill:none;}.cls-3{stroke:#000;}.cls-3,.cls-4,.cls-5{stroke-linecap:round;}.cls-3,.cls-4{stroke-linejoin:round;}.cls-4{stroke:#36eaa5;stroke-width:3px;}.Graphic-Style{stroke:#fff;}.Graphic-Style,.cls-5{stroke-linejoin:bevel;stroke-width:2px;}.cls-5{stroke:#f66;}</style></defs><title>66_tool1B</title><g id="transparent_bg" data-name="transparent bg" class="cls-1"><rect class="cls-2" width="170" height="170"/></g><g id="shape_copy" data-name="shape copy"><path class="cls-3" d="M34.5,97.63a50.5,50.5,0,0,0,101,0"/><path class="cls-3" d="M59.75,21.88a25.25,25.25,0,0,0,50.5,0"/><path class="cls-3" d="M59.75,21.88L34.5,97.63"/><path class="cls-3" d="M110.25,21.88L135.5,97.63"/><path class="cls-4" d="M34.5,97.63a50.5,50.5,0,0,0,101,0"/><path class="cls-4" d="M59.75,21.88a25.25,25.25,0,0,0,50.5,0"/><path class="cls-4" d="M59.75,21.88L34.5,97.63"/><path class="cls-4" d="M110.25,21.88L135.5,97.63"/></g><g id="tool1B"><path class="Graphic-Style" d="M59.75,21.88L34.5,97.63"/><path class="Graphic-Style" d="M110.25,21.88L135.5,97.63"/><path class="cls-5" d="M59.75,21.88L34.5,97.63"/><path class="cls-5" d="M110.25,21.88L135.5,97.63"/></g></svg>