<svg xmlns:sketch="http://www.bohemiancoding.com/sketch/ns" xmlns="http://www.w3.org/2000/svg" xmlns:xlink="http://www.w3.org/1999/xlink" version="1.1" id="Layer_1" x="0px" y="0px" width="100%" height="100%" viewBox="7.88079 202.649 669.868 68.1126" enable-background="new 0 0 680 340" xml:space="preserve"  preserveAspectRatio="xMidYMid slice"><rect id="svgEditorBackground" x="0" y="0" width="680" height="340" style="fill: none; stroke: none;"/>
<title>AwwRuler_Teaser</title>
<description>Created with Sketch (http://www.bohemiancoding.com/sketch)</description>
<g id="Page-1" sketch:type="MSPage">
	<g id="AwwRuler_Teaser" sketch:type="MSArtboardGroup">
		
			
		<g id="Imported-Layers" transform="translate(208.628988, 23.619719)" sketch:type="MSLayerGroup">
			
		</g>
		
			
		<polyline fill="#FFFFFF" stroke="#98989C" points="675 262.504 616.501 204 9 204 9 268.212 675.005 268.756 675 262.504" />
		<path id="Rectangle-2_3_" sketch:type="MSShapeGroup" fill="#FFFFFF" stroke="#98989C" d="M675,262.504"/>
		<path id="Rectangle-2_2_" sketch:type="MSShapeGroup" fill="#FFFFFF" stroke="#98989C" d="M615.5,204"/>
		<g id="Unknown" transform="translate(33.000000, 205.000000)" sketch:type="MSLayerGroup">
			<g id="Group" transform="translate(0.000000, 48.000000)" sketch:type="MSTextLayer">
				<text transform="matrix(1 0 0 1 0 11)" font-family="'Helvetica-Bold'" font-size="11.5909">0</text>
				<text transform="matrix(1 0 0 1 32 11)" font-family="'Helvetica-Bold'" font-size="11.5909">1</text>
				<text transform="matrix(1 0 0 1 66 11)" font-family="'Helvetica-Bold'" font-size="11.5909">2</text>
				<text transform="matrix(1 0 0 1 98 11)" font-family="'Helvetica-Bold'" font-size="11.5909">3</text>
				<text transform="matrix(1 0 0 1 131 11)" font-family="'Helvetica-Bold'" font-size="11.5909">4</text>
				<text transform="matrix(1 0 0 1 163 11)" font-family="'Helvetica-Bold'" font-size="11.5909">5</text>
				<text transform="matrix(1 0 0 1 196 11)" font-family="'Helvetica-Bold'" font-size="11.5909">6</text>
				<text transform="matrix(1 0 0 1 228 11)" font-family="'Helvetica-Bold'" font-size="11.5909">7</text>
				<text transform="matrix(1 0 0 1 262 11)" font-family="'Helvetica-Bold'" font-size="11.5909">8</text>
				<text transform="matrix(1 0 0 1 294 11)" font-family="'Helvetica-Bold'" font-size="11.5909">9</text>
				<text transform="matrix(1 0 0 1 327 11)" font-family="'Helvetica-Bold'" font-size="11.5909">10</text>
				<text transform="matrix(1 0 0 1 359 11)" font-family="'Helvetica-Bold'" font-size="11.5909">11</text>
				<text transform="matrix(1 0 0 1 392 11)" font-family="'Helvetica-Bold'" font-size="11.5909">12</text>
				<text transform="matrix(1 0 0 1 425 11)" font-family="'Helvetica-Bold'" font-size="11.5909">13</text>
				<text transform="matrix(1 0 0 1 457 11)" font-family="'Helvetica-Bold'" font-size="11.5909">14</text>
				<text transform="matrix(1 0 0 1 490 11)" font-family="'Helvetica-Bold'" font-size="11.5909">15</text>
				<text transform="matrix(1 0 0 1 522 11)" font-family="'Helvetica-Bold'" font-size="11.5909">16</text>
				<text transform="matrix(1 0 0 1 550 11)" font-family="'Helvetica-Bold'" font-size="11.5909"></text>
			</g>
			<g id="Group_1_" transform="translate(2.000000, 0.000000)" sketch:type="MSShapeGroup">
				<path id="Stroke-1" fill="none" stroke="#98989C" d="M0,42V0"/>
				<path id="Stroke-2" fill="none" stroke="#98989C" d="M33,42V0"/>
				<path id="Stroke-3" fill="none" stroke="#98989C" d="M66,42V0"/>
				<path id="Stroke-4" fill="none" stroke="#98989C" d="M98,42V0"/>
				<path id="Stroke-5" fill="none" stroke="#98989C" d="M131,42V0"/>
				<path id="Stroke-6" fill="none" stroke="#98989C" d="M163,42V0"/>
				<path id="Stroke-7" fill="none" stroke="#98989C" d="M196,42V0"/>
				<path id="Stroke-8" fill="none" stroke="#98989C" d="M229,42V0"/>
				<path id="Stroke-9" fill="none" stroke="#98989C" d="M262,42V0"/>
				<path id="Stroke-10" fill="none" stroke="#98989C" d="M294,42V0"/>
				<path id="Stroke-11" fill="none" stroke="#98989C" d="M327,42V0"/>
				<path id="Stroke-12" fill="none" stroke="#98989C" d="M359,42V0"/>
				<path id="Stroke-13" fill="none" stroke="#98989C" d="M392,42V0"/>
				<path id="Stroke-14" fill="none" stroke="#98989C" d="M425,42V0"/>
				<path id="Stroke-15" fill="none" stroke="#98989C" d="M456.5,42V0"/>
				<path id="Stroke-16" fill="none" stroke="#98989C" d="M490,42V0"/>
				<path id="Stroke-17" fill="none" stroke="#98989C" d="M522,42V0"/>
				<path id="Stroke-22" fill="none" stroke="#98989C" d="M16,21V0"/>
				<path id="Stroke-23" fill="none" stroke="#98989C" d="M50,21V0"/>
				<path id="Stroke-24" fill="none" stroke="#98989C" d="M82,21V0"/>
				<path id="Stroke-25" fill="none" stroke="#98989C" d="M115,21V0"/>
				<path id="Stroke-26" fill="none" stroke="#98989C" d="M147,21V0"/>
				<path id="Stroke-27" fill="none" stroke="#98989C" d="M179,21V0"/>
				<path id="Stroke-28" fill="none" stroke="#98989C" d="M213,21V0"/>
				<path id="Stroke-29" fill="none" stroke="#98989C" d="M245,21V0"/>
				<path id="Stroke-30" fill="none" stroke="#98989C" d="M278,21V0"/>
				<path id="Stroke-31" fill="none" stroke="#98989C" d="M310,21V0"/>
				<path id="Stroke-32" fill="none" stroke="#98989C" d="M343,21V0"/>
				<path id="Stroke-33" fill="none" stroke="#98989C" d="M375,21V0"/>
				<path id="Stroke-34" fill="none" stroke="#98989C" d="M409,21V0"/>
				<path id="Stroke-35" fill="none" stroke="#98989C" d="M441,21V0"/>
				<path id="Stroke-36" fill="none" stroke="#98989C" d="M474,21V0"/>
				<path id="Stroke-37" fill="none" stroke="#98989C" d="M506,21V0"/>
			</g>
		</g>
		
			
		
		
		<polygon id="Rectangle-3" sketch:type="MSShapeGroup" fill="#EEEEEE" stroke="#98989C" points="617,204 675,262 617,262   ">
		</polygon>
	</g>
</g>
</svg>