<svg id="_47" data-name="47" xmlns="http://www.w3.org/2000/svg" viewBox="0 0 170 170"><defs><style>.cls-1{opacity:0;}.cls-2{fill:#2580b2;}.cls-3,.cls-4,.cls-5{fill:none;stroke-linecap:round;stroke-linejoin:round;}.cls-3{stroke:#930;}.cls-4{stroke:#36eaa5;stroke-width:3px;}.cls-5{stroke:#fff;stroke-width:2px;}</style></defs><title>47_tool3</title><g id="transparent_bg" data-name="transparent bg" class="cls-1"><rect class="cls-2" width="170" height="170"/></g><g id="shape"><path class="cls-3" d="M51.75,138.2V31.8"/><path class="cls-3" d="M51.75,31.8h66.5"/><path class="cls-3" d="M118.25,31.8L91.65,71.7"/><path class="cls-3" d="M91.65,71.7l13.3-13.3"/><path class="cls-3" d="M104.95,58.4v79.8"/><path class="cls-3" d="M104.95,138.2H51.75"/><path class="cls-4" d="M51.75,138.2V31.8"/><path class="cls-4" d="M51.75,31.8h66.5"/><path class="cls-4" d="M118.25,31.8L91.65,71.7"/><path class="cls-4" d="M91.65,71.7l13.3-13.3"/><path class="cls-4" d="M104.95,58.4v79.8"/><path class="cls-4" d="M104.95,138.2H51.75"/></g><g id="tool3_" data-name="tool3\"><polyline class="cls-5" points="72.15 24.79 79.15 31.8 72.15 38.82"/><polyline class="cls-5" points="79.15 24.79 86.15 31.8 79.15 38.82"/><polyline class="cls-5" points="68.65 131.18 75.65 138.95 68.65 145.22"/><polyline class="cls-5" points="75.65 131.18 82.65 138.95 75.65 145.22"/><polyline class="cls-5" points="44.73 104.9 51.75 97.9 58.77 104.9"/><polyline class="cls-5" points="97.94 105.3 104.95 98.3 111.97 105.3"/><line class="cls-5" x1="51.75" y1="31.8" x2="51.75" y2="138.2"/><line class="cls-5" x1="104.95" y1="58.4" x2="104.95" y2="137.4"/><line class="cls-5" x1="118.25" y1="31.8" x2="51.75" y2="31.8"/><line class="cls-5" x1="51.75" y1="138.2" x2="102.32" y2="138.2"/></g></svg>