<svg id="_38" data-name="38" xmlns="http://www.w3.org/2000/svg" viewBox="0 0 170 170"><defs><style>.cls-1{opacity:0;}.cls-2{fill:#2580b2;}.TISS_shape_outline,.cls-3,.cls-4{fill:none;}.TISS_shape_outline{stroke:#36eaa5;stroke-width:3px;}.TISS_shape_outline,.cls-3{stroke-linecap:round;stroke-linejoin:round;}.cls-3,.cls-4{stroke:#fff;stroke-width:2px;}.cls-4{stroke-miterlimit:10;}</style></defs><title>38_tool1</title><g id="transparent_bg" data-name="transparent bg" class="cls-1"><rect class="cls-2" width="170" height="170"/></g><g id="shape"><path class="TISS_shape_outline" d="M146.52,63.68v60.25"/><path class="TISS_shape_outline" d="M146.52,123.93H26"/><path class="TISS_shape_outline" d="M86.27,48.62l60.25,15.06"/><path class="TISS_shape_outline" d="M26,63.68L86.27,48.62"/><path class="TISS_shape_outline" d="M26,123.93V63.68"/><path class="TISS_shape_outline" d="M146.52,63.68v60.25"/><path class="TISS_shape_outline" d="M146.52,123.93H26"/><path class="TISS_shape_outline" d="M86.27,48.62l60.25,15.06"/><path class="TISS_shape_outline" d="M26,63.68L86.27,48.62"/><path class="TISS_shape_outline" d="M26,123.93V63.68"/></g><g id="tool1"><line class="cls-3" x1="36.03" y1="90.66" x2="16.01" y2="90.66"/><line class="cls-4" x1="156.53" y1="90.66" x2="136.51" y2="90.66"/><line class="cls-3" x1="36.03" y1="96.96" x2="16.01" y2="96.96"/><line class="cls-3" x1="156.53" y1="96.96" x2="136.51" y2="96.96"/><line class="cls-3" x1="119.16" y1="46.53" x2="113.63" y2="65.77"/><line class="cls-3" x1="51.21" y1="46.38" x2="55.54" y2="65.92"/><path class="TISS_shape_outline" d="M146.52,63.68v60.25"/><path class="TISS_shape_outline" d="M86.27,48.62l60.25,15.06"/><path class="TISS_shape_outline" d="M26,63.68L86.27,48.62"/><path class="TISS_shape_outline" d="M26,123.93V63.68"/><line class="cls-4" x1="36.03" y1="90.66" x2="16.01" y2="90.66"/><line class="cls-4" x1="156.53" y1="90.66" x2="136.51" y2="90.66"/><line class="cls-4" x1="36.03" y1="96.96" x2="16.01" y2="96.96"/><line class="cls-4" x1="156.53" y1="96.96" x2="136.51" y2="96.96"/><line class="cls-4" x1="119.16" y1="46.53" x2="113.63" y2="65.77"/><line class="cls-4" x1="51.21" y1="46.38" x2="55.54" y2="65.92"/><path class="cls-4" d="M146.52,63.68v60.25"/><path class="cls-4" d="M86.27,48.62l60.25,15.06"/><path class="cls-4" d="M26,63.68L86.27,48.62"/><path class="cls-4" d="M26,123.93V63.68"/></g></svg>