<svg id="_38" data-name="38" xmlns="http://www.w3.org/2000/svg" viewBox="0 0 170 170"><defs><style>.cls-1{opacity:0;}.cls-2{fill:#2580b2;}.Graphic-Style,.TISS_shape_outline{fill:none;}.Graphic-Style{stroke:#fff;stroke-linejoin:bevel;stroke-width:2px;}.TISS_shape_outline{stroke:#36eaa5;stroke-linecap:round;stroke-linejoin:round;stroke-width:3px;}</style></defs><title>38_tool2A</title><g id="transparent_bg" data-name="transparent bg" class="cls-1"><rect class="cls-2" width="170" height="170"/></g><g id="tool2A"><path class="Graphic-Style" d="M26,63.68l17-4.25A17.5,17.5,0,0,1,26.23,81.18Z"/><path class="Graphic-Style" d="M146.52,63.68v17.5a17.5,17.5,0,0,1-17-21.54l0.05-.22Z"/><path class="Graphic-Style" d="M86.27,48.68l14.59,3.46a15,15,0,0,1-29.18,0Z"/></g><g id="shape"><path class="TISS_shape_outline" d="M146.52,63.68v60.25"/><path class="TISS_shape_outline" d="M146.52,123.93H26"/><path class="TISS_shape_outline" d="M86.27,48.62l60.25,15.06"/><path class="TISS_shape_outline" d="M26,63.68L86.27,48.62"/><path class="TISS_shape_outline" d="M26,123.93V63.68"/><path class="TISS_shape_outline" d="M146.52,63.68v60.25"/><path class="TISS_shape_outline" d="M146.52,123.93H26"/><path class="TISS_shape_outline" d="M86.27,48.62l60.25,15.06"/><path class="TISS_shape_outline" d="M26,63.68L86.27,48.62"/><path class="TISS_shape_outline" d="M26,123.93V63.68"/></g></svg>