<svg id="_39" data-name="39" xmlns="http://www.w3.org/2000/svg" viewBox="0 0 170 170"><defs><style>.cls-1{opacity:0;}.cls-2{fill:#2580b2;}.TISS_shape_outline,.cls-3{fill:none;stroke-linecap:round;stroke-linejoin:round;}.TISS_shape_outline{stroke:#36eaa5;stroke-width:3px;}.cls-3{stroke:#fff;stroke-width:2px;}</style></defs><title>39_tool3</title><g id="transparent_bg" data-name="transparent bg" class="cls-1"><rect class="cls-2" width="170" height="170"/></g><g id="shape"><path class="TISS_shape_outline" d="M144.95,77.51L85,107.48"/><path class="TISS_shape_outline" d="M115,62.52l30,15"/><path class="TISS_shape_outline" d="M55,62.52H115"/><path class="TISS_shape_outline" d="M85,107.48l-59.95-30"/><path class="TISS_shape_outline" d="M25.05,77.51l30-15"/><path class="TISS_shape_outline" d="M144.95,77.51L85,107.48"/><path class="TISS_shape_outline" d="M115,62.52l30,15"/><path class="TISS_shape_outline" d="M55,62.52H115"/><path class="TISS_shape_outline" d="M85,107.48l-59.95-30"/><path class="TISS_shape_outline" d="M25.05,77.51l30-15"/></g><g id="tool3"><polyline class="cls-3" points="32.06 62.6 45.02 67.54 42.75 79.42"/><polyline class="cls-3" points="106.11 84.45 120.39 89.94 117.88 100.53"/><polyline class="cls-3" points="62.2 86.64 48.09 89.1 49.17 99.65"/><polyline class="cls-3" points="70.68 91.25 56.76 93.53 57.65 104.25"/><polyline class="cls-3" points="134.5 62.6 120.39 65.06 121.47 75.61"/><polyline class="cls-3" points="142.98 67.21 129.05 69.49 129.95 80.22"/><line class="cls-3" x1="55.02" y1="62.52" x2="25.05" y2="77.51"/><line class="cls-3" x1="144.95" y1="77.51" x2="85" y2="107.48"/><line class="cls-3" x1="114.97" y1="62.52" x2="144.95" y2="77.51"/><line class="cls-3" x1="25.05" y1="77.51" x2="85" y2="107.48"/></g></svg>