<svg id="_39" data-name="39" xmlns="http://www.w3.org/2000/svg" viewBox="0 0 170 170"><defs><style>.cls-1{opacity:0;}.cls-2{fill:#2580b2;}.Graphic-Style,.TISS_shape_outline{fill:none;}.Graphic-Style{stroke:#fff;stroke-linejoin:bevel;stroke-width:2px;}.TISS_shape_outline{stroke:#36eaa5;stroke-linecap:round;stroke-linejoin:round;stroke-width:3px;}</style></defs><title>39_tool2A</title><g id="transparent_bg" data-name="transparent bg" class="cls-1"><rect class="cls-2" width="170" height="170"/></g><g id="tool2A"><path class="Graphic-Style" d="M85,107.48l-11.19-5.56a12.5,12.5,0,0,1,22.34-.1Z"/><path class="Graphic-Style" d="M55,62.52H65A10,10,0,0,1,46.08,67Z"/><path class="Graphic-Style" d="M115,62.52l9,4.46a10,10,0,0,1-19-4.46h10Z"/></g><g id="shape"><path class="TISS_shape_outline" d="M144.95,77.51L85,107.48"/><path class="TISS_shape_outline" d="M115,62.52l30,15"/><path class="TISS_shape_outline" d="M55,62.52H115"/><path class="TISS_shape_outline" d="M85,107.48l-59.95-30"/><path class="TISS_shape_outline" d="M25.05,77.51l30-15"/><path class="TISS_shape_outline" d="M144.95,77.51L85,107.48"/><path class="TISS_shape_outline" d="M115,62.52l30,15"/><path class="TISS_shape_outline" d="M55,62.52H115"/><path class="TISS_shape_outline" d="M85,107.48l-59.95-30"/><path class="TISS_shape_outline" d="M25.05,77.51l30-15"/></g></svg>