<svg id="_39" data-name="39" xmlns="http://www.w3.org/2000/svg" viewBox="0 0 170 170"><defs><style>.cls-1{opacity:0;}.cls-2{fill:#2580b2;}.TISS_shape_outline,.cls-3,.cls-4{fill:none;}.TISS_shape_outline{stroke:#36eaa5;stroke-width:3px;}.TISS_shape_outline,.cls-3{stroke-linecap:round;stroke-linejoin:round;}.cls-3,.cls-4{stroke:#fff;stroke-width:2px;}.cls-4{stroke-miterlimit:10;}</style></defs><title>39_tool1</title><g id="transparent_bg" data-name="transparent bg" class="cls-1"><rect class="cls-2" width="170" height="170"/></g><g id="shape"><path class="TISS_shape_outline" d="M144.95,77.51L85,107.48"/><path class="TISS_shape_outline" d="M115,62.52l30,15"/><path class="TISS_shape_outline" d="M55,62.52H115"/><path class="TISS_shape_outline" d="M85,107.48l-59.95-30"/><path class="TISS_shape_outline" d="M25.05,77.51l30-15"/><path class="TISS_shape_outline" d="M144.95,77.51L85,107.48"/><path class="TISS_shape_outline" d="M115,62.52l30,15"/><path class="TISS_shape_outline" d="M55,62.52H115"/><path class="TISS_shape_outline" d="M85,107.48l-59.95-30"/><path class="TISS_shape_outline" d="M25.05,77.51l30-15"/></g><g id="tool1"><g id="Layer_279" data-name="Layer 279"><line class="cls-3" x1="133.99" y1="60.85" x2="125.93" y2="79.18"/><line class="cls-3" x1="35.35" y1="61.17" x2="44.72" y2="78.86"/><line class="cls-3" x1="57.48" y1="82.44" x2="47.97" y2="100.06"/><line class="cls-3" x1="62.08" y1="84.93" x2="52.57" y2="102.54"/><line class="cls-3" x1="107.89" y1="84.95" x2="117.46" y2="102.53"/><line class="cls-3" x1="112.48" y1="82.45" x2="122.05" y2="100.03"/></g><path class="cls-4" d="M144.95,77.51L85,107.48"/><path class="cls-4" d="M115,62.52l30,15"/><path class="cls-4" d="M85,107.48l-59.95-30"/><path class="cls-4" d="M25.05,77.51l30-15"/><path class="cls-4" d="M144.95,77.51L85,107.48"/><path class="cls-4" d="M115,62.52l30,15"/><path class="cls-4" d="M85,107.48l-59.95-30"/><path class="cls-4" d="M25.05,77.51l30-15"/></g></svg>