<svg id="_44" data-name="44" xmlns="http://www.w3.org/2000/svg" viewBox="0 0 170 170"><defs><style>.cls-1{opacity:0;}.cls-2{fill:#2580b2;}.cls-3,.cls-4,.cls-5,.cls-6,.cls-7{fill:none;stroke-linecap:round;stroke-linejoin:round;}.cls-3{stroke:#930;}.cls-4{stroke:#36eaa5;stroke-width:3px;}.cls-5{stroke:#bc66ff;}.cls-5,.cls-6,.cls-7{stroke-width:2px;}.cls-6{stroke:#ffe566;}.cls-7{stroke:#f66;}</style></defs><title>44_tool1B</title><g id="transparent_bg" data-name="transparent bg" class="cls-1"><rect class="cls-2" width="170" height="170"/></g><g id="shape"><path class="cls-3" d="M85,123.16l-16,26"/><path class="cls-3" d="M69,69L85,20.86"/><path class="cls-3" d="M85,20.86L101,69"/><path class="cls-3" d="M69,149.14V69"/><path class="cls-3" d="M101,149.14l-16-26"/><path class="cls-3" d="M101,69v80.18"/><path class="cls-4" d="M85,123.16l-16,26"/><path class="cls-4" d="M69,69L85,20.86"/><path class="cls-4" d="M85,20.86L101,69"/><path class="cls-4" d="M69,149.14V69"/><path class="cls-4" d="M101,149.14l-16-26"/><path class="cls-4" d="M101,69v80.18"/></g><g id="tool1B"><path class="cls-5" d="M85,123.16l-16,26"/><path class="cls-6" d="M69,69L85,20.86"/><path class="cls-6" d="M85,20.86L101,69"/><path class="cls-7" d="M69,149.14V69"/><path class="cls-5" d="M101,149.14l-16-26"/><path class="cls-7" d="M101,69v80.18"/></g></svg>