<svg id="_44" data-name="44" xmlns="http://www.w3.org/2000/svg" viewBox="0 0 170 170"><defs><style>.cls-1{opacity:0;}.cls-2{fill:#2580b2;}.cls-3,.cls-4,.cls-5,.cls-6{fill:none;}.cls-3{stroke:#930;}.cls-3,.cls-4,.cls-5{stroke-linecap:round;stroke-linejoin:round;}.cls-4{stroke:#36eaa5;stroke-width:3px;}.cls-5,.cls-6{stroke:#fff;stroke-width:2px;}.cls-6{stroke-miterlimit:10;}</style></defs><title>44_tool1</title><g id="transparent_bg" data-name="transparent bg" class="cls-1"><rect class="cls-2" width="170" height="170"/></g><g id="shape"><path class="cls-3" d="M85,123.16l-16,26"/><path class="cls-3" d="M69,69L85,20.86"/><path class="cls-3" d="M85,20.86L101,69"/><path class="cls-3" d="M69,149.14V69"/><path class="cls-3" d="M101,149.14l-16-26"/><path class="cls-3" d="M101,69v80.18"/><path class="cls-4" d="M85,123.16l-16,26"/><path class="cls-4" d="M69,69L85,20.86"/><path class="cls-4" d="M85,20.86L101,69"/><path class="cls-4" d="M69,149.14V69"/><path class="cls-4" d="M101,149.14l-16-26"/><path class="cls-4" d="M101,69v80.18"/></g><g id="tool1"><line class="cls-5" x1="94.87" y1="98.56" x2="107.2" y2="98.56"/><line class="cls-5" x1="94.87" y1="94.11" x2="107.2" y2="94.11"/><line class="cls-5" x1="94.87" y1="103" x2="107.2" y2="103"/><line class="cls-5" x1="88.33" y1="49.31" x2="99.95" y2="45.24"/><line class="cls-5" x1="89.79" y1="53.51" x2="101.42" y2="49.43"/><line class="cls-5" x1="81.67" y1="49.31" x2="70.05" y2="45.24"/><line class="cls-5" x1="80.21" y1="53.51" x2="68.58" y2="49.43"/><line class="cls-5" x1="62.8" y1="98.56" x2="75.13" y2="98.56"/><line class="cls-5" x1="62.8" y1="94.11" x2="75.13" y2="94.11"/><line class="cls-5" x1="62.8" y1="103" x2="75.13" y2="103"/><line class="cls-5" x1="87.36" y1="135.58" x2="95.37" y2="131.01"/><line class="cls-5" x1="82.75" y1="135.58" x2="74.74" y2="131.01"/><path class="cls-3" d="M85,123.16l-16,26"/><path class="cls-3" d="M69,69L85,20.86"/><path class="cls-3" d="M85,20.86L101,69"/><path class="cls-3" d="M69,149.14V69"/><path class="cls-3" d="M101,149.14l-16-26"/><path class="cls-3" d="M101,69v80.18"/><path class="cls-6" d="M85,123.16l-16,26"/><path class="cls-6" d="M69,69L85,20.86"/><path class="cls-6" d="M85,20.86L101,69"/><path class="cls-6" d="M69,149.14V69"/><path class="cls-6" d="M101,149.14l-16-26"/><path class="cls-6" d="M101,69v80.18"/></g></svg>