<svg id="_44" data-name="44" xmlns="http://www.w3.org/2000/svg" viewBox="0 0 170 170"><defs><style>.cls-1{opacity:0;}.cls-2{fill:#2580b2;}.Graphic-Style,.cls-3,.cls-4{fill:none;}.Graphic-Style{stroke:#fff;stroke-linejoin:bevel;stroke-width:2px;}.cls-3{stroke:#930;}.cls-3,.cls-4{stroke-linecap:round;stroke-linejoin:round;}.cls-4{stroke:#36eaa5;stroke-width:3px;}</style></defs><title>44_tool2C</title><g id="transparent_bg" data-name="transparent bg" class="cls-1"><rect class="cls-2" width="170" height="170"/></g><g id="tool2C"><path class="Graphic-Style" d="M85,20.86l6.95,21.4a22.5,22.5,0,0,1-14.17-.09Z"/><path class="Graphic-Style" d="M101,149.14L89.39,129.89A22.5,22.5,0,0,1,101,126.64Z"/><path class="Graphic-Style" d="M69,149.14l0-22.5a22.5,22.5,0,0,1,11.94,3.41Z"/></g><g id="shape"><path class="cls-3" d="M85,123.16l-16,26"/><path class="cls-3" d="M69,69L85,20.86"/><path class="cls-3" d="M85,20.86L101,69"/><path class="cls-3" d="M69,149.14V69"/><path class="cls-3" d="M101,149.14l-16-26"/><path class="cls-3" d="M101,69v80.18"/><path class="cls-4" d="M85,123.16l-16,26"/><path class="cls-4" d="M69,69L85,20.86"/><path class="cls-4" d="M85,20.86L101,69"/><path class="cls-4" d="M69,149.14V69"/><path class="cls-4" d="M101,149.14l-16-26"/><path class="cls-4" d="M101,69v80.18"/></g></svg>