<svg id="_44" data-name="44" xmlns="http://www.w3.org/2000/svg" viewBox="0 0 170 170"><defs><style>.cls-1{opacity:0;}.cls-2{fill:#2580b2;}.cls-3,.cls-4,.cls-5{fill:none;stroke-linecap:round;stroke-linejoin:round;}.cls-3{stroke:#930;}.cls-4{stroke:#36eaa5;stroke-width:3px;}.cls-5{stroke:#fff;stroke-width:2px;}</style></defs><title>44_tool3</title><g id="transparent_bg" data-name="transparent bg" class="cls-1"><rect class="cls-2" width="170" height="170"/></g><g id="shape"><path class="cls-3" d="M85,123.16l-16,26"/><path class="cls-3" d="M69,69L85,20.86"/><path class="cls-3" d="M85,20.86L101,69"/><path class="cls-3" d="M69,149.14V69"/><path class="cls-3" d="M101,149.14l-16-26"/><path class="cls-3" d="M101,69v80.18"/><path class="cls-4" d="M85,123.16l-16,26"/><path class="cls-4" d="M69,69L85,20.86"/><path class="cls-4" d="M85,20.86L101,69"/><path class="cls-4" d="M69,149.14V69"/><path class="cls-4" d="M101,149.14l-16-26"/><path class="cls-4" d="M101,69v80.18"/></g><g id="tool3"><polyline class="cls-5" points="60.19 97.98 68.96 90.98 77.74 97.98"/><polyline class="cls-5" points="92.26 97.78 101.04 90.78 109.81 97.78"/><line class="cls-5" x1="68.96" y1="68.96" x2="68.96" y2="149.14"/><line class="cls-5" x1="101.04" y1="68.96" x2="101.04" y2="149.14"/></g></svg>