<?xml version="1.0" encoding="utf-8"?>
<!-- Generator: Adobe Illustrator 16.0.0, SVG Export Plug-In . SVG Version: 6.00 Build 0)  -->
<!DOCTYPE svg PUBLIC "-//W3C//DTD SVG 1.1//EN" "http://www.w3.org/Graphics/SVG/1.1/DTD/svg11.dtd">
<svg version="1.1" id="Layer_1" xmlns="http://www.w3.org/2000/svg" xmlns:xlink="http://www.w3.org/1999/xlink" x="0px" y="0px"
	 width="74.55px" height="22.5px" viewBox="0 0 74.55 22.5" enable-background="new 0 0 74.55 22.5" xml:space="preserve">
<g>
	<path fill-rule="evenodd" clip-rule="evenodd" fill-opacity="0.4" d="M74.05,7.825c0.334,1.072,0.5,2.214,0.5,3.425
		c0,3.1-1.1,5.75-3.3,7.95c-2.2,2.2-4.85,3.3-7.95,3.3H11.25c-3.1,0-5.75-1.1-7.95-3.3c-0.485-0.486-0.919-0.994-1.3-1.525
		c-0.333-1.072-0.5-2.214-0.5-3.425c0-3.1,1.101-5.75,3.3-7.95C7,4.1,9.65,3,12.75,3H64.8c3.101,0,5.75,1.1,7.95,3.3
		C73.236,6.786,73.669,7.294,74.05,7.825z"/>
	<path fill-rule="evenodd" clip-rule="evenodd" fill-opacity="0.6" d="M2,17.675c-1.333-1.868-2-4.009-2-6.425
		C0,8.15,1.101,5.5,3.3,3.3C5.5,1.1,8.15,0,11.25,0H63.3c3.101,0,5.75,1.1,7.95,3.3c1.341,1.341,2.274,2.849,2.8,4.525
		c-0.381-0.531-0.813-1.039-1.3-1.525C70.55,4.1,67.9,3,64.8,3H12.75C9.65,3,7,4.1,4.8,6.3c-2.199,2.2-3.3,4.85-3.3,7.95
		C1.5,15.461,1.667,16.603,2,17.675z"/>
</g>
<path display="none" fill-rule="evenodd" clip-rule="evenodd" fill="#00CCCC" d="M55.101,11.25v0.05c0,2.7-0.95,5-2.851,6.9
	c-1.899,1.9-4.2,2.85-6.899,2.85h-16.2c-2.7,0-5-0.95-6.9-2.85c-1.899-1.9-2.85-4.2-2.85-6.9v-0.05c0-2.7,0.95-5,2.85-6.9
	c1.9-1.9,4.2-2.85,6.9-2.85h16.2c2.699,0,5,0.95,6.899,2.85C54.15,6.25,55.101,8.55,55.101,11.25z"/>
<line display="none" fill-rule="evenodd" clip-rule="evenodd" fill="none" stroke="#008690" stroke-linejoin="round" stroke-miterlimit="3" x1="31.7" y1="4.85" x2="31.7" y2="17.7"/>
<line display="none" fill-rule="evenodd" clip-rule="evenodd" fill="none" stroke="#7DE8F8" stroke-linejoin="round" stroke-miterlimit="3" x1="33.7" y1="4.85" x2="33.7" y2="17.7"/>
<line display="none" fill-rule="evenodd" clip-rule="evenodd" fill="none" stroke="#008690" stroke-linejoin="round" stroke-miterlimit="3" x1="35.7" y1="4.85" x2="35.7" y2="17.7"/>
<line display="none" fill-rule="evenodd" clip-rule="evenodd" fill="none" stroke="#7DE8F8" stroke-linejoin="round" stroke-miterlimit="3" x1="37.7" y1="4.85" x2="37.7" y2="17.7"/>
<line display="none" fill-rule="evenodd" clip-rule="evenodd" fill="none" stroke="#008690" stroke-linejoin="round" stroke-miterlimit="3" x1="39.7" y1="4.85" x2="39.7" y2="17.7"/>
<line display="none" fill-rule="evenodd" clip-rule="evenodd" fill="none" stroke="#7DE8F8" stroke-linejoin="round" stroke-miterlimit="3" x1="41.7" y1="4.85" x2="41.7" y2="17.7"/>
</svg>
