<?xml version="1.0" encoding="utf-8"?>
<!-- Generator: Adobe Illustrator 16.0.0, SVG Export Plug-In . SVG Version: 6.00 Build 0)  -->
<!DOCTYPE svg PUBLIC "-//W3C//DTD SVG 1.1//EN" "http://www.w3.org/Graphics/SVG/1.1/DTD/svg11.dtd">
<svg version="1.1" id="Layer_1" xmlns="http://www.w3.org/2000/svg" xmlns:xlink="http://www.w3.org/1999/xlink" x="0px" y="0px"
	 width="35.7px" height="19.55px" viewBox="0 0 35.7 19.55" enable-background="new 0 0 35.7 19.55" xml:space="preserve">
<path fill-rule="evenodd" clip-rule="evenodd" fill="#00CCCC" d="M35.7,9.75V9.8c0,2.7-0.95,5-2.851,6.899
	c-1.899,1.9-4.2,2.851-6.899,2.851H9.75c-2.7,0-5-0.95-6.9-2.851C0.95,14.8,0,12.5,0,9.8V9.75c0-2.7,0.95-5,2.85-6.9
	C4.75,0.95,7.05,0,9.75,0h16.2c2.699,0,5,0.95,6.899,2.85C34.75,4.75,35.7,7.05,35.7,9.75z"/>
<line fill-rule="evenodd" clip-rule="evenodd" fill="none" stroke="#008690" stroke-linejoin="round" stroke-miterlimit="3" x1="12.3" y1="3.35" x2="12.3" y2="16.199"/>
<line fill-rule="evenodd" clip-rule="evenodd" fill="none" stroke="#7DE8F8" stroke-linejoin="round" stroke-miterlimit="3" x1="14.3" y1="3.35" x2="14.3" y2="16.199"/>
<line fill-rule="evenodd" clip-rule="evenodd" fill="none" stroke="#008690" stroke-linejoin="round" stroke-miterlimit="3" x1="16.3" y1="3.35" x2="16.3" y2="16.199"/>
<line fill-rule="evenodd" clip-rule="evenodd" fill="none" stroke="#7DE8F8" stroke-linejoin="round" stroke-miterlimit="3" x1="18.3" y1="3.35" x2="18.3" y2="16.199"/>
<line fill-rule="evenodd" clip-rule="evenodd" fill="none" stroke="#008690" stroke-linejoin="round" stroke-miterlimit="3" x1="20.3" y1="3.35" x2="20.3" y2="16.199"/>
<line fill-rule="evenodd" clip-rule="evenodd" fill="none" stroke="#7DE8F8" stroke-linejoin="round" stroke-miterlimit="3" x1="22.3" y1="3.35" x2="22.3" y2="16.199"/>
</svg>
