
<svg xmlns="http://www.w3.org/2000/svg" version="1.1" xmlns:xlink="http://www.w3.org/1999/xlink" preserveAspectRatio="none" x="0px" y="0px" width="115px" height="100px" viewBox="0 0 115 100">
<defs>
<g id="wire2_0_Layer0_1_STROKES_1_FILL">
<path fill="#FFFFFF" fill-opacity="0.6" stroke="none" d="
M 5.25 3.4
Q 5.2822265625 3.385546875 5.25 3.35 5.2248046875 3.2970703125 5.15 3.25 5.135546875 3.2677734375 5.1 3.3 5.0470703125 3.325 5 3.35
L 3.6 8.15
Q 3.6177734375 8.2142578125 3.65 8.25 3.6751953125 8.3029296875 3.7 8.3 3.764453125 8.3322265625 3.8 8.3 3.8529296875 8.275 3.85 8.2
L 5.25 3.4
M 8.95 4.35
Q 8.9349609375 4.3677734375 8.9 4.4 8.846875 4.4255859375 8.8 4.45
L 7.5 9.25
Q 7.5177734375 9.31484375 7.55 9.35 7.5755859375 9.403125 7.6 9.4 7.66484375 9.4322265625 7.7 9.4 7.753125 9.3744140625 7.75 9.3
L 9.05 4.5
Q 9.0822265625 4.4849609375 9.05 4.45 9.0244140625 4.396875 8.95 4.35
M 16.5 6.35
Q 16.483984375 6.3759765625 16.45 6.4
L 15.25 11.3
Q 15.2677734375 11.3779296875 15.3 11.4 15.3259765625 11.466015625 15.35 11.45 15.4279296875 11.4822265625 15.45 11.45 15.516015625 11.4240234375 15.5 11.35
L 16.7 6.45
Q 16.7322265625 6.4220703125 16.7 6.35 16.6740234375 6.333984375 16.6 6.3 16.5720703125 6.3177734375 16.5 6.35
M 12.8 5.4
Q 12.7849609375 5.4177734375 12.75 5.45 12.696875 5.4755859375 12.65 5.5
L 11.35 10.3
Q 11.3677734375 10.36484375 11.4 10.4 11.4255859375 10.453125 11.45 10.45 11.51484375 10.4822265625 11.55 10.45 11.603125 10.4244140625 11.6 10.35
L 12.9 5.55
Q 12.9322265625 5.5349609375 12.9 5.5 12.8744140625 5.446875 12.8 5.4
M 27.9 8.9
Q 27.8833984375 8.926953125 27.85 8.95
L 26.95 13.85
Q 26.96796875 13.9291015625 27 13.95 27.026953125 14.0166015625 27.05 14 27.1291015625 14.0318359375 27.15 14 27.2166015625 13.973046875 27.2 13.9
L 28.1 9
Q 28.1318359375 8.9708984375 28.1 8.9 28.073046875 8.8833984375 28 8.85 27.97109375 8.86796875 27.9 8.9
M 20.4 7.25
Q 20.3716796875 7.26796875 20.3 7.3 20.2837890625 7.326171875 20.25 7.35
L 19.15 12.25
Q 19.1677734375 12.3283203125 19.2 12.35 19.226171875 12.4162109375 19.25 12.4 19.3283203125 12.4322265625 19.35 12.4 19.4162109375 12.373828125 19.4 12.3
L 20.5 7.4
Q 20.5322265625 7.3716796875 20.5 7.3 20.473828125 7.2837890625 20.4 7.25
M 24.3 8.25
Q 24.3318359375 8.221484375 24.3 8.15 24.2734375 8.13359375 24.2 8.1 24.1712890625 8.11796875 24.1 8.15 24.08359375 8.1763671875 24.05 8.2
L 23.05 13.1
Q 23.06796875 13.178515625 23.1 13.2 23.1263671875 13.26640625 23.15 13.25 23.2287109375 13.28203125 23.25 13.25 23.31640625 13.2236328125 23.3 13.15
L 24.3 8.25
M 35.7 10.25
Q 35.731640625 10.2201171875 35.7 10.15 35.6724609375 10.1330078125 35.6 10.1 35.5703125 10.118359375 35.5 10.15 35.4830078125 10.1775390625 35.45 10.2
L 34.75 15.1
Q 34.768359375 15.1798828125 34.8 15.2 34.8275390625 15.2671875 34.85 15.25 34.9298828125 15.2818359375 34.95 15.25 35.0169921875 15.2224609375 35 15.15
L 35.7 10.25
M 39.4 10.6
Q 39.3828125 10.627734375 39.35 10.65
L 38.75 15.65
Q 38.768359375 15.7302734375 38.8 15.75 38.8279296875 15.8171875 38.85 15.8 38.9302734375 15.831640625 38.95 15.8 39.0171875 15.7720703125 39 15.7
L 39.6 10.7
Q 39.631640625 10.6697265625 39.6 10.6 39.5720703125 10.5828125 39.5 10.55 39.4697265625 10.568359375 39.4 10.6
M 31.7 9.55
Q 31.683203125 9.576953125 31.65 9.6
L 30.85 14.5
Q 30.8681640625 14.579296875 30.9 14.6 30.9271484375 14.666796875 30.95 14.65 31.0294921875 14.6818359375 31.05 14.65 31.116796875 14.6228515625 31.1 14.55
L 31.9 9.65
Q 31.9318359375 9.620703125 31.9 9.55 31.8728515625 9.533203125 31.8 9.5 31.7705078125 9.5181640625 31.7 9.55
M 47.15 11.3
Q 47.1322265625 11.3416015625 47.1 11.4
L 46.8 16.4
Q 46.81875 16.4439453125 46.85 16.45 46.8916015625 16.51796875 46.95 16.5 46.9939453125 16.53125 47 16.5 47.0677734375 16.4583984375 47.05 16.4
L 47.35 11.4
Q 47.38125 11.3560546875 47.35 11.3 47.30859375 11.2822265625 47.25 11.25 47.20625 11.26875 47.15 11.3
M 43.25 11
Q 43.232421875 11.041015625 43.2 11.1
L 42.8 16.1
Q 42.8185546875 16.143359375 42.85 16.15 42.891015625 16.217578125 42.95 16.2 42.9935546875 16.2314453125 43 16.2 43.067578125 16.158984375 43.05 16.1
L 43.45 11.1
Q 43.48125 11.0564453125 43.45 11 43.408984375 10.982421875 43.35 10.95 43.3064453125 10.9685546875 43.25 11
M 58.7 11.3
Q 58.66875 11.3560546875 58.65 11.4
L 58.95 16.4
Q 58.9822265625 16.4583984375 59 16.5 59.05625 16.53125 59.1 16.5 59.15859375 16.51796875 59.2 16.45 59.23125 16.4439453125 59.2 16.4
L 58.9 11.4
Q 58.9177734375 11.3416015625 58.85 11.3 58.8439453125 11.26875 58.8 11.25 58.7416015625 11.2822265625 58.7 11.3
M 51.2 11.55
Q 51.230859375 11.50546875 51.2 11.45 51.1578125 11.4318359375 51.1 11.4 51.05546875 11.4189453125 51 11.45 50.9818359375 11.4921875 50.95 11.55
L 50.85 16.55
Q 50.8689453125 16.59453125 50.9 16.6 50.9421875 16.6681640625 51 16.65 51.04453125 16.6810546875 51.05 16.65 51.1181640625 16.6078125 51.1 16.55
L 51.2 11.55
M 55.05 11.55
Q 55.0681640625 11.4921875 55 11.45 54.99453125 11.4189453125 54.95 11.4 54.8921875 11.4318359375 54.85 11.45 54.8189453125 11.50546875 54.8 11.55
L 54.9 16.55
Q 54.9318359375 16.6078125 54.95 16.65 55.00546875 16.6810546875 55.05 16.65 55.1078125 16.6681640625 55.15 16.6 55.180859375 16.59453125 55.15 16.55
L 55.05 11.55
M 66.45 10.6
Q 66.466796875 10.576953125 66.4 10.55 66.3794921875 10.5181640625 66.3 10.5 66.2771484375 10.533203125 66.25 10.55 66.2181640625 10.620703125 66.2 10.65
L 67 15.55
Q 67.033203125 15.6228515625 67.05 15.65 67.1205078125 15.6818359375 67.15 15.65 67.2228515625 15.666796875 67.25 15.6 67.2818359375 15.579296875 67.25 15.5
L 66.45 10.6
M 69.95 9.8
Q 69.9177734375 9.8716796875 69.9 9.9
L 71 14.8
Q 71.0337890625 14.873828125 71.05 14.9 71.1216796875 14.9322265625 71.15 14.9 71.223828125 14.9162109375 71.25 14.85 71.2822265625 14.8283203125 71.25 14.75
L 70.15 9.85
Q 70.1662109375 9.826171875 70.1 9.8 70.0783203125 9.76796875 70 9.75 69.976171875 9.7837890625 69.95 9.8
M 62.7 11.1
Q 62.7173828125 11.0408203125 62.65 11 62.6431640625 10.9685546875 62.6 10.95 62.5408203125 10.9826171875 62.5 11 62.4685546875 11.069140625 62.45 11.1
L 62.95 16.1
Q 62.9826171875 16.1716796875 63 16.2 63.0568359375 16.231640625 63.1 16.2 63.1591796875 16.2173828125 63.2 16.15 63.2314453125 16.1431640625 63.2 16.1
L 62.7 11.1
M 79.1 12.35
L 77.3 7.65
Q 77.301953125 7.5990234375 77.25 7.55 77.200390625 7.555078125 77.15 7.55 77.0990234375 7.598046875 77.05 7.65 77.055078125 7.699609375 77.05 7.75
L 78.85 12.45
Q 78.898046875 12.50078125 78.95 12.5 78.999609375 12.544921875 79.05 12.5 79.1009765625 12.501953125 79.1 12.45 79.144921875 12.400390625 79.1 12.35
M 73.6 8.9
Q 73.5677734375 8.935546875 73.55 8.95
L 74.95 13.75
Q 74.9970703125 13.825 75.05 13.85 75.085546875 13.8822265625 75.1 13.85 75.1748046875 13.8529296875 75.2 13.8 75.2322265625 13.7642578125 75.2 13.7
L 73.8 8.9
Q 73.8029296875 8.875 73.75 8.85 73.714453125 8.8177734375 73.65 8.8 73.6251953125 8.8470703125 73.6 8.9
M 82.7 10.8
Q 82.712109375 10.85234375 82.75 10.85 82.801171875 10.882421875 82.85 10.85 82.90234375 10.837890625 82.9 10.8 82.932421875 10.7490234375 82.9 10.7
L 80.7 6.2
Q 80.687890625 6.14765625 80.65 6.1 80.5990234375 6.117578125 80.55 6.15 80.49765625 6.162109375 80.45 6.2 80.467578125 6.2509765625 80.5 6.3
L 82.7 10.8
M 83.75 4.4
Q 83.7677734375 4.477734375 83.8 4.5
L 86.4 8.8
Q 86.4259765625 8.8658203125 86.45 8.85 86.5279296875 8.8822265625 86.55 8.85 86.6158203125 8.82421875 86.6 8.75 86.63203125 8.722265625 86.6 8.65
L 84 4.35
Q 83.9740234375 4.3341796875 83.9 4.3 83.8720703125 4.3177734375 83.8 4.35 83.783984375 4.3759765625 83.75 4.4
M 86.9 2.25
Q 86.8830078125 2.2775390625 86.85 2.3 86.868359375 2.3796875 86.9 2.4
L 89.9 6.4
Q 89.9275390625 6.4669921875 89.95 6.45 90.0298828125 6.4818359375 90.05 6.45 90.1171875 6.4224609375 90.1 6.35 90.131640625 6.3203125 90.1 6.25
L 87.1 2.25
Q 87.0724609375 2.2330078125 87 2.2 86.9703125 2.218359375 86.9 2.25
M 107.05 -22
Q 107.1283203125 -21.9677734375 107.15 -22 107.2162109375 -22.026171875 107.2 -22.1 107.2322265625 -22.1283203125 107.2 -22.2 107.173828125 -22.2162109375 107.1 -22.25
L 102.2 -23.35
Q 102.1716796875 -23.3322265625 102.1 -23.3 102.0837890625 -23.273828125 102.05 -23.25 102.06796875 -23.1716796875 102.1 -23.15 102.126171875 -23.0837890625 102.15 -23.1
L 107.05 -22
M 92.5 -2.85
Q 92.49375 -2.88125 92.45 -2.9 92.39140625 -2.8677734375 92.35 -2.85 92.31875 -2.79375 92.3 -2.75 92.3322265625 -2.69140625 92.35 -2.65
L 96.15 0.65
Q 96.20625 0.6810546875 96.25 0.65 96.3087890625 0.6677734375 96.35 0.6 96.38125 0.59375 96.35 0.55 96.3677734375 0.49140625 96.3 0.45
L 92.5 -2.85
M 94.65 -5.8
Q 94.6181640625 -5.729296875 94.6 -5.7 94.633203125 -5.6271484375 94.65 -5.6
L 98.75 -2.7
Q 98.820703125 -2.668359375 98.85 -2.7 98.923046875 -2.683203125 98.95 -2.75 98.9818359375 -2.770703125 98.95 -2.85 98.966796875 -2.8728515625 98.9 -2.9
L 94.8 -5.8
Q 94.779296875 -5.831640625 94.7 -5.85 94.6771484375 -5.816796875 94.65 -5.8
M 96.85 -8.95
Q 96.82734375 -8.9822265625 96.75 -9 96.7255859375 -8.965625 96.7 -8.95 96.6677734375 -8.8775390625 96.65 -8.85 96.684375 -8.7755859375 96.7 -8.75
L 101 -6.25
Q 101.07265625 -6.2177734375 101.1 -6.25 101.1744140625 -6.2341796875 101.2 -6.3 101.2322265625 -6.3224609375 101.2 -6.4 101.215625 -6.4244140625 101.15 -6.45
L 96.85 -8.95
M 98.4 -12.2
Q 98.4478515625 -12.1494140625 98.5 -12.15
L 103 -10.05
Q 103.04921875 -10.0052734375 103.1 -10.05 103.1505859375 -10.0478515625 103.15 -10.1 103.194921875 -10.14921875 103.15 -10.2 103.1521484375 -10.2505859375 103.1 -10.3
L 98.6 -12.4
Q 98.5505859375 -12.3947265625 98.5 -12.4 98.44921875 -12.3521484375 98.4 -12.3 98.405078125 -12.25078125 98.4 -12.2
M 89.75 -0.15
Q 89.73203125 -0.108203125 89.7 -0.05 89.7189453125 -0.005859375 89.75 0
L 93.15 3.7
Q 93.191796875 3.76796875 93.25 3.75 93.294140625 3.7810546875 93.3 3.75 93.36796875 3.708203125 93.35 3.65 93.3810546875 3.605859375 93.35 3.55
L 89.95 -0.15
Q 89.908203125 -0.16796875 89.85 -0.2 89.805859375 -0.1810546875 89.75 -0.15
M 99.85 -15.8
Q 99.855078125 -15.74921875 99.85 -15.7 99.89921875 -15.648046875 99.95 -15.65
L 104.65 -13.95
Q 104.70078125 -13.9052734375 104.75 -13.95 104.8021484375 -13.94921875 104.8 -14 104.844921875 -14.05078125 104.8 -14.1 104.8005859375 -14.1521484375 104.75 -14.2
L 100.05 -15.9
Q 99.9990234375 -15.894921875 99.95 -15.9 99.8978515625 -15.85078125 99.85 -15.8
M 101.1 -19.5
Q 101.1177734375 -19.435546875 101.15 -19.4 101.175 -19.3470703125 101.2 -19.35
L 106 -17.95
Q 106.0642578125 -17.9177734375 106.1 -17.95 106.1529296875 -17.9751953125 106.15 -18.05 106.1822265625 -18.064453125 106.15 -18.1 106.125 -18.1529296875 106.05 -18.2
L 101.25 -19.6
Q 101.235546875 -19.5822265625 101.2 -19.55 101.1470703125 -19.5248046875 101.1 -19.5
M 102.9 -27
Q 102.926953125 -26.933203125 102.95 -26.95
L 107.85 -26.15
Q 107.929296875 -26.1181640625 107.95 -26.15 108.016796875 -26.1771484375 108 -26.25 108.0318359375 -26.2794921875 108 -26.35 107.9728515625 -26.366796875 107.9 -26.4
L 103 -27.2
Q 102.970703125 -27.1818359375 102.9 -27.15 102.883203125 -27.1228515625 102.85 -27.1 102.8681640625 -27.0205078125 102.9 -27
M 103.5 -31
Q 103.4697265625 -30.981640625 103.4 -30.95 103.3828125 -30.9220703125 103.35 -30.9 103.368359375 -30.8197265625 103.4 -30.8 103.427734375 -30.7328125 103.45 -30.75
L 108.45 -30.15
Q 108.5302734375 -30.118359375 108.55 -30.15 108.6171875 -30.1779296875 108.6 -30.25 108.631640625 -30.2802734375 108.6 -30.35 108.5720703125 -30.3671875 108.5 -30.4
L 103.5 -31
M 109 -34.5
Q 108.9583984375 -34.5177734375 108.9 -34.55
L 103.9 -34.85
Q 103.8560546875 -34.83125 103.8 -34.8 103.7822265625 -34.7583984375 103.75 -34.7 103.76875 -34.6560546875 103.8 -34.65 103.8416015625 -34.5822265625 103.9 -34.6
L 108.9 -34.3
Q 108.9439453125 -34.26875 108.95 -34.3 109.01796875 -34.34140625 109 -34.4 109.03125 -34.44375 109 -34.5
M 104.05 -42.45
Q 104.0923828125 -42.419140625 104.15 -42.45
L 109.15 -42.45
Q 109.2076171875 -42.419140625 109.25 -42.45 109.280859375 -42.4923828125 109.25 -42.55 109.280859375 -42.6076171875 109.25 -42.65 109.2076171875 -42.680859375 109.15 -42.7
L 104.15 -42.7
Q 104.0923828125 -42.680859375 104.05 -42.65 104.019140625 -42.6076171875 104 -42.55 104.019140625 -42.4923828125 104.05 -42.45
M 103.95 -38.6
Q 103.9689453125 -38.55546875 104 -38.55 104.0421875 -38.4818359375 104.1 -38.5
L 109.1 -38.4
Q 109.14453125 -38.369140625 109.15 -38.4 109.2181640625 -38.4421875 109.2 -38.5 109.2310546875 -38.54453125 109.2 -38.6 109.1578125 -38.6181640625 109.1 -38.65
L 104.1 -38.75
Q 104.05546875 -38.7310546875 104 -38.7 103.9818359375 -38.6578125 103.95 -38.6
M 109.1 -46.75
Q 109.094140625 -46.78125 109.05 -46.8
L 104.05 -46.6
Q 103.991796875 -46.56796875 103.95 -46.55 103.91875 -46.494140625 103.9 -46.45 103.93203125 -46.391796875 103.95 -46.35 104.005859375 -46.3189453125 104.05 -46.35
L 109.05 -46.55
Q 109.108203125 -46.53203125 109.15 -46.6 109.1810546875 -46.605859375 109.15 -46.65 109.16796875 -46.708203125 109.1 -46.75
M 103.35 -54.2
Q 103.4064453125 -54.16875 103.45 -54.2
L 108.45 -54.6
Q 108.508984375 -54.582421875 108.55 -54.65 108.5814453125 -54.6564453125 108.55 -54.7 108.567578125 -54.758984375 108.5 -54.8 108.493359375 -54.8314453125 108.45 -54.85
L 103.45 -54.45
Q 103.391015625 -54.417578125 103.35 -54.4 103.3185546875 -54.3435546875 103.3 -54.3 103.332421875 -54.241015625 103.35 -54.2
M 103.65 -50.4
Q 103.6822265625 -50.34140625 103.7 -50.3 103.7560546875 -50.26875 103.8 -50.3
L 108.8 -50.6
Q 108.8583984375 -50.5822265625 108.9 -50.65 108.93125 -50.6560546875 108.9 -50.7 108.91796875 -50.7583984375 108.85 -50.8 108.8439453125 -50.83125 108.8 -50.85
L 103.8 -50.55
Q 103.7416015625 -50.5177734375 103.7 -50.5 103.66875 -50.44375 103.65 -50.4
M 108.1 -58.9
Q 108.0802734375 -58.931640625 108 -58.95
L 103 -58.35
Q 102.977734375 -58.3171875 102.95 -58.3 102.918359375 -58.2302734375 102.9 -58.2 102.9328125 -58.1279296875 102.95 -58.1 103.0197265625 -58.068359375 103.05 -58.1
L 108.05 -58.7
Q 108.1220703125 -58.6828125 108.15 -58.75 108.181640625 -58.7697265625 108.15 -58.85 108.1671875 -58.8720703125 108.1 -58.9
M 101.9 -65.95
Q 101.970703125 -65.9181640625 102 -65.95
L 106.9 -66.75
Q 106.9728515625 -66.733203125 107 -66.8 107.0318359375 -66.8205078125 107 -66.9 107.016796875 -66.9228515625 106.95 -66.95 106.929296875 -66.9818359375 106.85 -67
L 101.95 -66.2
Q 101.926953125 -66.166796875 101.9 -66.15 101.8681640625 -66.0794921875 101.85 -66.05 101.883203125 -65.9771484375 101.9 -65.95
M 102.4 -62.15
Q 102.4330078125 -62.0775390625 102.45 -62.05 102.519921875 -62.018359375 102.55 -62.05
L 107.55 -62.75
Q 107.622265625 -62.7330078125 107.65 -62.8 107.681640625 -62.8201171875 107.65 -62.9 107.6671875 -62.9224609375 107.6 -62.95 107.580078125 -62.981640625 107.5 -63
L 102.5 -62.3
Q 102.4775390625 -62.2669921875 102.45 -62.25 102.418359375 -62.1798828125 102.4 -62.15
M 101.15 -70
Q 101.1833984375 -69.926953125 101.2 -69.9 101.2708984375 -69.8681640625 101.3 -69.9
L 106.2 -70.8
Q 106.273046875 -70.7833984375 106.3 -70.85 106.3318359375 -70.8708984375 106.3 -70.95 106.3166015625 -70.973046875 106.25 -71 106.2291015625 -71.03203125 106.15 -71.05
L 101.25 -70.15
Q 101.226953125 -70.1166015625 101.2 -70.1 101.16796875 -70.02890625 101.15 -70 Z"/>
</g>

<g id="wire2_0_Layer0_2_FILL">
<path fill="#B7B388" stroke="none" d="
M 883.75 16.35
Q 885.65 14.5 885.65 11.85 885.65 9.2 883.75 7.3 881.9 5.45 879.25 5.45 876.6 5.45 874.7 7.3 872.85 9.2 872.85 11.85 872.85 14.5 874.7 16.35 876.6 18.25 879.25 18.25 881.9 18.25 883.75 16.35 Z"/>
</g>

<g id="wire2_0_Layer0_2_STROKES_1_FILL">
<path fill="#E2E2E2" fill-opacity="0.4980392156862745" stroke="none" d="
M 882.75 16.35
Q 882.75 16.75 883.05 17.05 883.35 17.35 883.75 17.35 884.15 17.35 884.45 17.05 884.75 16.75 884.75 16.35 884.75 15.95 884.45 15.65 884.15 15.35 883.75 15.35 883.35 15.35 883.05 15.65 882.75 15.95 882.75 16.35
M 875.2 15.45
Q 874.9 15.15 874.5 15.15 874.1 15.15 873.8 15.45 873.5 15.75 873.5 16.15 873.5 16.55 873.8 16.85 874.1 17.15 874.5 17.15 874.9 17.15 875.2 16.85 875.5 16.55 875.5 16.15 875.5 15.75 875.2 15.45
M 879.85 17.55
Q 879.55 17.25 879.15 17.25 878.75 17.25 878.45 17.55 878.15 17.85 878.15 18.25 878.15 18.65 878.45 18.95 878.75 19.25 879.15 19.25 879.55 19.25 879.85 18.95 880.15 18.65 880.15 18.25 880.15 17.85 879.85 17.55
M 872.15 10.85
Q 871.85 11.15 871.85 11.55 871.85 11.95 872.15 12.25 872.45 12.55 872.85 12.55 873.25 12.55 873.55 12.25 873.85 11.95 873.85 11.55 873.85 11.15 873.55 10.85 873.25 10.55 872.85 10.55 872.45 10.55 872.15 10.85
M 874.1 7
Q 874.1 7.4 874.4 7.7 874.7 8 875.1 8 875.5 8 875.8 7.7 876.1 7.4 876.1 7 876.1 6.6 875.8 6.3 875.5 6 875.1 6 874.7 6 874.4 6.3 874.1 6.6 874.1 7
M 878.95 4.75
Q 878.65 5.05 878.65 5.45 878.65 5.85 878.95 6.15 879.25 6.45 879.65 6.45 880.05 6.45 880.35 6.15 880.65 5.85 880.65 5.45 880.65 5.05 880.35 4.75 880.05 4.45 879.65 4.45 879.25 4.45 878.95 4.75
M 885.65 11.05
Q 885.25 11.05 884.95 11.35 884.65 11.65 884.65 12.05 884.65 12.45 884.95 12.75 885.25 13.05 885.65 13.05 886.05 13.05 886.35 12.75 886.65 12.45 886.65 12.05 886.65 11.65 886.35 11.35 886.05 11.05 885.65 11.05
M 884.75 6.95
Q 884.45 6.65 884.05 6.65 883.65 6.65 883.35 6.95 883.05 7.25 883.05 7.65 883.05 8.05 883.35 8.35 883.65 8.65 884.05 8.65 884.45 8.65 884.75 8.35 885.05 8.05 885.05 7.65 885.05 7.25 884.75 6.95 Z"/>
</g>

<g id="wire2_0_Layer0_3_FILL">
<path fill="#A6A26A" stroke="none" d="
M 883.75 16.35
Q 885.65 14.5 885.65 11.85 885.65 9.2 883.75 7.3 881.9 5.45 879.25 5.45 876.6 5.45 874.7 7.3 872.85 9.2 872.85 11.85 872.85 14.5 874.7 16.35 876.6 18.25 879.25 18.25 881.9 18.25 883.75 16.35 Z"/>
</g>

<g id="wire2_0_Layer0_3_STROKES_1_FILL">
<path fill="#E2E2E2" fill-opacity="0.4980392156862745" stroke="none" d="
M 884.8 15.3
Q 884.35 14.85 883.75 14.85 883.15 14.85 882.7 15.3 882.25 15.75 882.25 16.35 882.25 16.95 882.7 17.4 883.15 17.85 883.75 17.85 884.35 17.85 884.8 17.4 885.25 16.95 885.25 16.35 885.25 15.75 884.8 15.3
M 874.55 13.65
Q 874.1 13.2 873.5 13.2 872.9 13.2 872.45 13.65 872 14.1 872 14.7 872 15.3 872.45 15.75 872.9 16.2 873.5 16.2 874.1 16.2 874.55 15.75 875 15.3 875 14.7 875 14.1 874.55 13.65
M 879.25 17.1
Q 878.8 16.65 878.2 16.65 877.6 16.65 877.15 17.1 876.7 17.55 876.7 18.15 876.7 18.75 877.15 19.2 877.6 19.65 878.2 19.65 878.8 19.65 879.25 19.2 879.7 18.75 879.7 18.15 879.7 17.55 879.25 17.1
M 872.45 7.95
Q 872 8.4 872 9 872 9.6 872.45 10.05 872.9 10.5 873.5 10.5 874.1 10.5 874.55 10.05 875 9.6 875 9 875 8.4 874.55 7.95 874.1 7.5 873.5 7.5 872.9 7.5 872.45 7.95
M 877.05 4.5
Q 876.6 4.95 876.6 5.55 876.6 6.15 877.05 6.6 877.5 7.05 878.1 7.05 878.7 7.05 879.15 6.6 879.6 6.15 879.6 5.55 879.6 4.95 879.15 4.5 878.7 4.05 878.1 4.05 877.5 4.05 877.05 4.5
M 885.6 11.2
Q 885 11.2 884.55 11.65 884.1 12.1 884.1 12.7 884.1 13.3 884.55 13.75 885 14.2 885.6 14.2 886.2 14.2 886.65 13.75 887.1 13.3 887.1 12.7 887.1 12.1 886.65 11.65 886.2 11.2 885.6 11.2
M 884.7 6.15
Q 884.25 5.7 883.65 5.7 883.05 5.7 882.6 6.15 882.15 6.6 882.15 7.2 882.15 7.8 882.6 8.25 883.05 8.7 883.65 8.7 884.25 8.7 884.7 8.25 885.15 7.8 885.15 7.2 885.15 6.6 884.7 6.15 Z"/>
</g>

<path id="wire2_0_Layer0_0_1_STROKES" stroke="#FFFFFF" stroke-opacity="0.2980392156862745" stroke-width="5" stroke-linejoin="round" stroke-linecap="round" fill="none" d="
M 4.45 5.8
Q 124.6314453125 41.01640625 103.45 -73.2"/>
</defs>

<g transform="matrix( 1, 0, 0, 1, 3,81.6) ">
<g transform="matrix( 1, 0, 0, 1, 0,0) ">
<use xlink:href="#wire2_0_Layer0_0_1_STROKES"/>
</g>

<g transform="matrix( 1, 0, 0, 1, 0,0) ">
<use xlink:href="#wire2_0_Layer0_1_STROKES_1_FILL"/>
</g>

<g transform="matrix( 1, 0, 0, 1, -872.85,-5.45) ">
<use xlink:href="#wire2_0_Layer0_2_FILL"/>

<use xlink:href="#wire2_0_Layer0_2_STROKES_1_FILL"/>
</g>

<g transform="matrix( 1, 0, 0, 1, -775.8,-85.05) ">
<use xlink:href="#wire2_0_Layer0_3_FILL"/>

<use xlink:href="#wire2_0_Layer0_3_STROKES_1_FILL"/>
</g>
</g>
</svg>
