<?xml version="1.0" encoding="utf-8"?>
<!-- Generator: Adobe Illustrator 19.2.1, SVG Export Plug-In . SVG Version: 6.00 Build 0)  -->
<svg version="1.1" id="Layer_1" xmlns="http://www.w3.org/2000/svg" xmlns:xlink="http://www.w3.org/1999/xlink" x="0px" y="0px"
	 viewBox="0 0 89 60" style="enable-background:new 0 0 89 60;" xml:space="preserve">
<style type="text/css">
	.st0{fill:none;stroke:#FFFFFF;stroke-width:5;stroke-linecap:round;stroke-linejoin:round;stroke-opacity:0.298;}
	.st1{fill:#FFFFFF;fill-opacity:0.6;}
	.st2{fill:#A6A26A;}
	.st3{fill:#E2E2E2;fill-opacity:0.498;}
</style>
<path id="wire_0_Layer0_0_1_STROKES" class="st0" d="M10.1,13c35.5-5.9,57.1,4.8,65,32"/>
<g id="wire_0_Layer0_1_STROKES_1_FILL">
	<path class="st1" d="M9.6,10.4C9.6,10.5,9.6,10.5,9.6,10.4l0.8,5c0,0,0,0.1,0.1,0.1h0.1c0,0,0.1,0,0.1-0.1c0,0,0,0,0-0.1l-0.8-4.9
		c0,0,0,0,0-0.1C9.7,10.4,9.7,10.4,9.6,10.4L9.6,10.4 M13.6,9.8L13.6,9.8c-0.1,0.1-0.1,0.1-0.1,0.2l0.6,5c0,0,0,0.1,0.1,0.1h0.1h0.1
		c0,0,0,0,0-0.1l-0.6-5l0,0C13.7,9.8,13.7,9.8,13.6,9.8 M17.7,9.4h-0.1v0.1l0.5,5v0.1h0.1c0,0,0.1,0,0.1-0.1l0,0l-0.5-5
		C17.8,9.5,17.8,9.4,17.7,9.4L17.7,9.4 M21.6,9.1c0,0,0,0.1-0.1,0.1l0.3,5v0.1h0.1H22c0,0,0,0,0-0.1l-0.3-5
		C21.7,9.2,21.7,9.1,21.6,9.1L21.6,9.1C21.7,9.1,21.7,9.1,21.6,9.1 M25.9,14.1c0,0,0.1,0,0.1-0.1l0,0l-0.1-5V8.9c0,0,0,0-0.1-0.1
		c0,0-0.1,0-0.1,0.1V9l0.1,5v0.1H25.9 M29.9,8.8c0,0-0.1,0-0.1,0.1c0,0,0,0.1-0.1,0.1l-0.1,5l0,0l0.1,0.1l0,0l0.1-0.1l0.1-5
		C30,9,30,8.9,29.9,8.8C29.9,8.9,29.9,8.9,29.9,8.8 M33.8,9.1L33.8,9.1c-0.1,0.1-0.1,0.1-0.2,0.1l-0.3,5c0,0,0,0,0,0.1
		c0,0,0.1,0.1,0.1,0l0,0l0.1-0.1l0.3-5C34,9.2,34,9.1,33.8,9.1C33.9,9.1,33.9,9.1,33.8,9.1 M37.9,9.4C37.9,9.5,37.8,9.5,37.9,9.4
		c-0.1,0.1-0.1,0.1-0.2,0.1l-0.6,5c0,0.1,0,0.1,0,0.1s0,0.1,0.1,0.1s0.1,0,0.1,0l0.1-0.1l0.6-5C38,9.6,38,9.5,37.9,9.4
		C38,9.5,37.9,9.5,37.9,9.4 M41.9,10.1L41.9,10.1c-0.1,0.1-0.1,0.1-0.1,0.1l-0.9,4.9c0,0.1,0,0.1,0,0.1s0,0.1,0.1,0.1s0.1,0,0.1,0
		l0.1-0.1l0.9-4.9v-0.1C42,10.1,42,10.1,41.9,10.1 M45.9,11L45.9,11c-0.1,0.1-0.1,0.1-0.1,0.1l-1.2,4.8c0,0.1,0,0.1,0.1,0.1
		c0,0,0,0.1,0,0c0.1,0,0.1,0,0.1,0s0.1-0.1,0-0.1L45.9,11L45.9,11C46,11,46,11,45.9,11 M71.2,40.2C71.1,40.2,71.1,40.3,71.2,40.2
		c-0.1,0.1-0.1,0.2-0.1,0.2h0.1h0.1l4.7-1.6l0,0v-0.1l0,0c0,0-0.1,0-0.1-0.1L71.2,40.2 M74.5,34.7L74.5,34.7l-4.7,2l-0.1,0.1v0.1
		c0,0,0.1,0.1,0.1,0h0.1l4.6-2c0,0,0.1,0,0,0C74.5,34.9,74.5,34.8,74.5,34.7C74.5,34.8,74.5,34.7,74.5,34.7 M77.2,43
		C77.2,43,77.2,42.9,77.2,43c0.1-0.1,0.1-0.1,0.1-0.2l0,0h-0.1L72.3,44c0,0,0,0.1-0.1,0.1l0,0l0.1,0.1l0,0L77.2,43 M64.7,20.8
		C64.7,20.8,64.6,20.8,64.7,20.8l-3.5,3.8v0.1v0.1h0.1h0.1l3.4-3.7c0,0,0,0,0-0.1C64.8,20.9,64.8,20.8,64.7,20.8L64.7,20.8
		 M53.9,13.7C53.9,13.7,53.8,13.7,53.9,13.7c-0.1,0-0.2,0.1-0.2,0.1l-2,4.6v0.1c0,0,0.1,0.1,0.1,0h0.1c0,0,0.1,0,0,0l2-4.6
		C54,13.9,54,13.8,53.9,13.7C54,13.8,53.9,13.7,53.9,13.7 M49.9,12.3C49.9,12.3,49.8,12.3,49.9,12.3L48.2,17c0,0,0,0.1,0.1,0.1
		c0,0,0,0.1,0.1,0.1h0.1c0,0,0.1,0,0-0.1l1.6-4.7v-0.1C50,12.3,50,12.2,49.9,12.3C50,12.2,49.9,12.2,49.9,12.3 M57.8,15.9L57.8,15.9
		c0-0.1,0-0.1-0.1-0.1c0,0,0,0-0.1-0.1c0,0,0,0,0,0.1L55.1,20c0,0,0,0.1-0.1,0.1c0,0,0,0.1,0.1,0.1h0.1h0.1L57.8,15.9 M61.4,18.3
		c0,0,0,0,0-0.1c0,0,0,0-0.1-0.1c0,0,0,0-0.1,0c0,0,0,0-0.1,0l-2.9,4c0,0,0,0.1-0.1,0.1c0,0,0,0.1,0.1,0.1h0.1h0.1L61.4,18.3
		 M72.6,31C72.5,31,72.5,31,72.6,31l-4.5,2.5H68c0,0,0,0.1,0.1,0.1c0,0,0,0.1,0,0h0.1l4.4-2.4V31C72.7,31.1,72.7,31.1,72.6,31
		L72.6,31 M70.3,27.3L70.3,27.3c-0.1,0-0.2,0-0.2,0L66,30.2c0,0,0,0-0.1,0c0,0.1,0,0.1,0.1,0.1v0.1c0.1,0,0.1,0,0.1,0l4.1-2.9
		c0,0,0.1-0.1,0-0.1C70.4,27.4,70.4,27.3,70.3,27.3 M67.8,23.9C67.7,23.9,67.7,23.9,67.8,23.9c-0.1,0-0.2,0-0.2,0l-3.8,3.3
		c0,0,0,0.1-0.1,0.1c0,0,0,0,0.1,0l0.1,0.1c0,0,0,0,0.1,0l3.8-3.3C67.7,24.1,67.8,24,67.8,23.9C67.8,24,67.8,23.9,67.8,23.9z"/>
</g>
<g id="wire_0_Layer0_2_FILL">
	<path class="st2" d="M16.6,18.1c1.3-1.2,1.9-2.7,1.9-4.5s-0.6-3.3-1.9-4.6c-1.2-1.2-2.7-1.9-4.5-1.9S8.8,7.7,7.6,9
		s-1.9,2.8-1.9,4.6s0.6,3.3,1.9,4.5c1.3,1.3,2.8,1.9,4.5,1.9S15.3,19.4,16.6,18.1z"/>
</g>
<g id="wire_0_Layer0_2_STROKES_1_FILL">
	<path class="st3" d="M15.6,18.1c0,0.3,0.1,0.5,0.3,0.7s0.4,0.3,0.7,0.3s0.5-0.1,0.7-0.3c0.2-0.2,0.3-0.4,0.3-0.7s-0.1-0.5-0.3-0.7
		c-0.2-0.2-0.4-0.3-0.7-0.3c-0.3,0-0.5,0.1-0.7,0.3C15.7,17.6,15.6,17.8,15.6,18.1 M8,17.2c-0.2-0.2-0.4-0.3-0.7-0.3
		c-0.3,0-0.5,0.1-0.7,0.3c-0.2,0.2-0.3,0.4-0.3,0.7c0,0.3,0.1,0.5,0.3,0.7c0.2,0.2,0.4,0.3,0.7,0.3s0.5-0.1,0.7-0.3
		c0.2-0.2,0.3-0.4,0.3-0.7S8.2,17.4,8,17.2 M12.6,19.3C12.4,19.1,12.2,19,12,19c-0.3,0-0.5,0.1-0.7,0.3C11.1,19.5,11,19.7,11,20
		s0.1,0.5,0.3,0.7S11.7,21,12,21s0.5-0.1,0.7-0.3c0.2-0.2,0.3-0.4,0.3-0.7C13,19.7,12.9,19.5,12.6,19.3 M5,12.6
		c-0.2,0.2-0.3,0.4-0.3,0.7S4.8,13.8,5,14s0.4,0.3,0.7,0.3c0.3,0,0.5-0.1,0.7-0.3s0.3-0.4,0.3-0.7s-0.1-0.5-0.3-0.7
		c-0.2-0.2-0.4-0.3-0.7-0.3S5.2,12.4,5,12.6 M6.9,8.8C6.9,9,7,9.3,7.2,9.4s0.4,0.3,0.7,0.3c0.3,0,0.5-0.1,0.7-0.3
		C8.8,9.3,8.9,9,8.9,8.8c0-0.3-0.1-0.5-0.3-0.7C8.4,7.8,8.2,7.8,7.9,7.8c-0.3,0-0.5,0.1-0.7,0.3C7,8.3,6.9,8.5,6.9,8.8 M11.8,6.5
		c-0.2,0.2-0.3,0.4-0.3,0.7c0,0.3,0.1,0.5,0.3,0.7s0.4,0.3,0.7,0.3s0.5-0.1,0.7-0.3s0.3-0.4,0.3-0.7c0-0.3-0.1-0.5-0.3-0.7
		s-0.4-0.3-0.7-0.3S11.9,6.3,11.8,6.5 M18.5,12.8c-0.3,0-0.5,0.1-0.7,0.3s-0.3,0.4-0.3,0.7s0.1,0.5,0.3,0.7c0.2,0.2,0.4,0.3,0.7,0.3
		c0.3,0,0.5-0.1,0.7-0.3s0.3-0.4,0.3-0.7s-0.1-0.5-0.3-0.7S18.7,12.8,18.5,12.8 M17.6,8.7c-0.2-0.2-0.4-0.3-0.7-0.3
		c-0.3,0-0.5,0.1-0.7,0.3s-0.3,0.4-0.3,0.7s0.1,0.5,0.3,0.7c0.2,0.2,0.4,0.3,0.7,0.3c0.3,0,0.5-0.1,0.7-0.3s0.3-0.4,0.3-0.7
		S17.8,8.9,17.6,8.7z"/>
</g>
<g id="wire_0_Layer0_3_FILL">
	<path class="st2" d="M79.8,51.1c1.3-1.2,1.9-2.7,1.9-4.5s-0.6-3.3-1.9-4.5c-1.2-1.2-2.7-1.9-4.5-1.9S72,40.8,70.8,42
		c-1.2,1.3-1.9,2.8-1.9,4.5c0,1.8,0.6,3.3,1.9,4.5c1.3,1.3,2.8,1.9,4.5,1.9S78.6,52.4,79.8,51.1z"/>
</g>
<g id="wire_0_Layer0_3_STROKES_1_FILL">
	<path class="st3" d="M78.8,51.1c0,0.3,0.1,0.5,0.3,0.7c0.2,0.2,0.4,0.3,0.7,0.3s0.5-0.1,0.7-0.3s0.3-0.4,0.3-0.7s-0.1-0.5-0.3-0.7
		c-0.2-0.2-0.4-0.3-0.7-0.3s-0.5,0.1-0.7,0.3C78.9,50.6,78.8,50.8,78.8,51.1 M71.3,50.2c-0.2-0.2-0.4-0.3-0.7-0.3s-0.5,0.1-0.7,0.3
		s-0.3,0.4-0.3,0.7s0.1,0.5,0.3,0.7c0.2,0.2,0.4,0.3,0.7,0.3s0.5-0.1,0.7-0.3s0.3-0.4,0.3-0.7S71.4,50.4,71.3,50.2 M75.9,52.3
		c-0.2-0.2-0.4-0.3-0.7-0.3c-0.3,0-0.5,0.1-0.7,0.3s-0.3,0.4-0.3,0.7s0.1,0.5,0.3,0.7c0.2,0.2,0.4,0.3,0.7,0.3
		c0.3,0,0.5-0.1,0.7-0.3s0.3-0.4,0.3-0.7C76.2,52.7,76.1,52.5,75.9,52.3 M68.2,45.6c-0.2,0.2-0.3,0.4-0.3,0.7s0.1,0.5,0.3,0.7
		c0.2,0.2,0.4,0.3,0.7,0.3c0.3,0,0.5-0.1,0.7-0.3s0.3-0.4,0.3-0.7s-0.1-0.5-0.3-0.7c-0.2-0.2-0.4-0.3-0.7-0.3S68.4,45.4,68.2,45.6
		 M70.2,41.8c0,0.3,0.1,0.5,0.3,0.7c0.2,0.2,0.4,0.3,0.7,0.3c0.3,0,0.5-0.1,0.7-0.3s0.3-0.4,0.3-0.7s-0.1-0.5-0.3-0.7
		c-0.2-0.2-0.4-0.3-0.7-0.3c-0.3,0-0.5,0.1-0.7,0.3S70.1,41.5,70.2,41.8 M75,39.5c-0.2,0.2-0.3,0.4-0.3,0.7s0.1,0.5,0.3,0.7
		c0.2,0.2,0.4,0.3,0.7,0.3c0.3,0,0.5-0.1,0.7-0.3s0.3-0.4,0.3-0.7s-0.1-0.5-0.3-0.7s-0.4-0.3-0.7-0.3S75.2,39.3,75,39.5 M81.7,45.8
		c-0.3,0-0.5,0.1-0.7,0.3s-0.3,0.4-0.3,0.7s0.1,0.5,0.3,0.7c0.2,0.2,0.4,0.3,0.7,0.3c0.3,0,0.5-0.1,0.7-0.3s0.3-0.4,0.3-0.7
		s-0.1-0.5-0.3-0.7C82.2,45.9,82,45.8,81.7,45.8 M80.8,41.7c-0.2-0.2-0.4-0.3-0.7-0.3c-0.3,0-0.5,0.1-0.7,0.3s-0.3,0.4-0.3,0.7
		s0.1,0.5,0.3,0.7c0.2,0.2,0.4,0.3,0.7,0.3c0.3,0,0.5-0.1,0.7-0.3s0.3-0.4,0.3-0.7S81,41.9,80.8,41.7z"/>
</g>
</svg>
