
<svg xmlns="http://www.w3.org/2000/svg" version="1.1" xmlns:xlink="http://www.w3.org/1999/xlink" preserveAspectRatio="none" x="0px" y="0px" width="85px" height="50px" viewBox="0 0 85 50">
<defs>
<g id="wire_0_Layer0_1_STROKES_1_FILL">
<path fill="#FFFFFF" fill-opacity="0.6" stroke="none" d="
M 3.95 3.25
Q 3.9181640625 3.320703125 3.9 3.35
L 4.7 8.25
Q 4.733203125 8.3228515625 4.75 8.35 4.8205078125 8.3818359375 4.85 8.35 4.9228515625 8.366796875 4.95 8.3 4.9818359375 8.279296875 4.95 8.2
L 4.15 3.3
Q 4.166796875 3.276953125 4.1 3.25 4.0794921875 3.2181640625 4 3.2 3.9771484375 3.233203125 3.95 3.25
M 8 2.6
Q 7.9779296875 2.6328125 7.95 2.65 7.918359375 2.7197265625 7.9 2.75
L 8.5 7.75
Q 8.5328125 7.8220703125 8.55 7.85 8.6197265625 7.881640625 8.65 7.85 8.7220703125 7.8671875 8.75 7.8 8.781640625 7.7802734375 8.75 7.7
L 8.15 2.7
Q 8.1671875 2.677734375 8.1 2.65 8.0802734375 2.618359375 8 2.6
M 12.05 2.15
Q 11.9908203125 2.1826171875 11.95 2.2 11.9185546875 2.269140625 11.9 2.3
L 12.4 7.3
Q 12.4326171875 7.3716796875 12.45 7.4 12.5068359375 7.431640625 12.55 7.4 12.6091796875 7.4173828125 12.65 7.35 12.6814453125 7.3431640625 12.65 7.3
L 12.15 2.3
Q 12.1673828125 2.2408203125 12.1 2.2 12.0931640625 2.1685546875 12.05 2.15
M 16 1.9
Q 15.96875 1.9560546875 15.95 2
L 16.25 7
Q 16.2822265625 7.0583984375 16.3 7.1 16.35625 7.13125 16.4 7.1 16.45859375 7.11796875 16.5 7.05 16.53125 7.0439453125 16.5 7
L 16.2 2
Q 16.2177734375 1.9416015625 16.15 1.9 16.1439453125 1.86875 16.1 1.85 16.0416015625 1.8822265625 16 1.9
M 20.25 6.9
Q 20.3078125 6.9181640625 20.35 6.85 20.380859375 6.84453125 20.35 6.8
L 20.25 1.8
Q 20.2681640625 1.7421875 20.2 1.7 20.19453125 1.6689453125 20.15 1.65 20.0921875 1.6818359375 20.05 1.7 20.0189453125 1.75546875 20 1.8
L 20.1 6.8
Q 20.1318359375 6.8578125 20.15 6.9 20.20546875 6.9310546875 20.25 6.9
M 24.2 1.65
Q 24.15546875 1.6689453125 24.1 1.7 24.0818359375 1.7421875 24.05 1.8
L 23.95 6.8
Q 23.9689453125 6.84453125 24 6.85 24.0421875 6.9181640625 24.1 6.9 24.14453125 6.9310546875 24.15 6.9 24.2181640625 6.8578125 24.2 6.8
L 24.3 1.8
Q 24.330859375 1.75546875 24.3 1.7 24.2578125 1.6818359375 24.2 1.65
M 28.2 1.85
Q 28.15625 1.86875 28.1 1.9 28.0822265625 1.9416015625 28.05 2
L 27.75 7
Q 27.76875 7.0439453125 27.8 7.05 27.8416015625 7.11796875 27.9 7.1 27.9439453125 7.13125 27.95 7.1 28.0177734375 7.0583984375 28 7
L 28.3 2
Q 28.33125 1.9560546875 28.3 1.9 28.25859375 1.8822265625 28.2 1.85
M 32.25 2.25
Q 32.2197265625 2.268359375 32.15 2.3 32.1328125 2.327734375 32.1 2.35
L 31.5 7.35
Q 31.518359375 7.4302734375 31.55 7.45 31.5779296875 7.5171875 31.6 7.5 31.6802734375 7.531640625 31.7 7.5 31.7671875 7.4720703125 31.75 7.4
L 32.35 2.4
Q 32.381640625 2.3697265625 32.35 2.3 32.3220703125 2.2828125 32.25 2.25
M 36.3 2.9
Q 36.27109375 2.91796875 36.2 2.95 36.1833984375 2.976953125 36.15 3
L 35.25 7.9
Q 35.26796875 7.9791015625 35.3 8 35.326953125 8.0666015625 35.35 8.05 35.4291015625 8.0818359375 35.45 8.05 35.5166015625 8.023046875 35.5 7.95
L 36.4 3.05
Q 36.4318359375 3.0208984375 36.4 2.95 36.373046875 2.9333984375 36.3 2.9
M 40.3 3.8
Q 40.272265625 3.81796875 40.2 3.85 40.183984375 3.87578125 40.15 3.9
L 38.95 8.7
Q 38.96796875 8.7775390625 39 8.8 39.02578125 8.866015625 39.05 8.85 39.127734375 8.8822265625 39.15 8.85 39.2158203125 8.82421875 39.2 8.75
L 40.4 3.95
Q 40.43203125 3.922265625 40.4 3.85 40.37421875 3.833984375 40.3 3.8
M 65.5 33
Q 65.4619140625 33.04765625 65.45 33.1 65.417578125 33.148828125 65.4 33.2 65.44765625 33.237890625 65.5 33.25 65.548828125 33.282421875 65.6 33.25
L 70.3 31.65
Q 70.3380859375 31.6521484375 70.35 31.6 70.382421875 31.551171875 70.35 31.5 70.35234375 31.462109375 70.3 31.45 70.2509765625 31.417578125 70.2 31.4
L 65.5 33
M 68.8 27.5
Q 68.75 27.505078125 68.7 27.5
L 64.1 29.5
Q 64.0484375 29.548828125 64 29.6 64.005078125 29.6501953125 64 29.7 64.048828125 29.7517578125 64.1 29.75 64.15 29.794921875 64.2 29.75
L 68.8 27.75
Q 68.8515625 27.751171875 68.85 27.7 68.894921875 27.6498046875 68.85 27.6 68.851171875 27.5482421875 68.8 27.5
M 71.5 35.75
Q 71.5744140625 35.753125 71.6 35.7 71.6322265625 35.66484375 71.6 35.6 71.603125 35.5755859375 71.55 35.55 71.51484375 35.5177734375 71.45 35.5
L 66.65 36.8
Q 66.6255859375 36.846875 66.6 36.9 66.5677734375 36.9349609375 66.55 36.95 66.596875 37.0244140625 66.65 37.05 66.6849609375 37.0822265625 66.7 37.05
L 71.5 35.75
M 59.05 13.55
Q 58.991796875 13.58203125 58.95 13.6
L 55.55 17.3
Q 55.5189453125 17.355859375 55.5 17.4 55.53203125 17.458203125 55.55 17.5 55.605859375 17.5310546875 55.65 17.5 55.708203125 17.51796875 55.75 17.45
L 59.15 13.75
Q 59.1810546875 13.744140625 59.15 13.7 59.16796875 13.641796875 59.1 13.6 59.094140625 13.5689453125 59.05 13.55
M 48.25 6.5
Q 48.2001953125 6.505078125 48.15 6.5 48.098828125 6.5484375 48.05 6.6
L 46.05 11.2
Q 46.055078125 11.25 46.05 11.3 46.0982421875 11.351171875 46.15 11.35 46.1998046875 11.394921875 46.25 11.35 46.301171875 11.3515625 46.3 11.3
L 48.3 6.7
Q 48.344921875 6.65 48.3 6.6 48.3017578125 6.548828125 48.25 6.5
M 44.25 5.05
Q 44.19765625 5.0619140625 44.15 5.1
L 42.55 9.8
Q 42.567578125 9.8509765625 42.6 9.9 42.612109375 9.95234375 42.65 9.95 42.701171875 9.982421875 42.75 9.95 42.8021484375 9.9380859375 42.8 9.9
L 44.4 5.2
Q 44.432421875 5.148828125 44.4 5.1 44.387890625 5.04765625 44.35 5 44.298828125 5.017578125 44.25 5.05
M 52.1 8.7
Q 52.1322265625 8.67734375 52.1 8.6 52.1158203125 8.5755859375 52.05 8.55 52.0275390625 8.5177734375 51.95 8.5 51.9255859375 8.534375 51.9 8.55
L 49.4 12.85
Q 49.3677734375 12.92265625 49.35 12.95 49.384375 13.0244140625 49.4 13.05 49.4724609375 13.0822265625 49.5 13.05 49.5744140625 13.065625 49.6 13
L 52.1 8.7
M 55.75 11.05
Q 55.7818359375 11.029296875 55.75 10.95 55.7669921875 10.92734375 55.7 10.9 55.6794921875 10.8681640625 55.6 10.85 55.57734375 10.883203125 55.55 10.9
L 52.65 14.9
Q 52.6181640625 14.970703125 52.6 15 52.6330078125 15.07265625 52.65 15.1 52.720703125 15.1318359375 52.75 15.1 52.82265625 15.116796875 52.85 15.05
L 55.75 11.05
M 66.9 23.75
Q 66.885546875 23.7677734375 66.85 23.8
L 62.45 26.2
Q 62.3970703125 26.2251953125 62.35 26.25 62.3677734375 26.314453125 62.4 26.35 62.4251953125 26.4029296875 62.45 26.4 62.514453125 26.4322265625 62.55 26.4
L 66.95 24
Q 67.0029296875 23.9748046875 67 23.9 67.0322265625 23.885546875 67 23.85 66.9748046875 23.7970703125 66.9 23.75
M 64.7 20.1
Q 64.673046875 20.083203125 64.6 20.05 64.570703125 20.068359375 64.5 20.1
L 60.4 23
Q 60.383203125 23.0271484375 60.35 23.05 60.3681640625 23.129296875 60.4 23.15 60.4271484375 23.216796875 60.45 23.2 60.529296875 23.231640625 60.55 23.2
L 64.65 20.3
Q 64.716796875 20.2728515625 64.7 20.2 64.7318359375 20.170703125 64.7 20.1
M 62.1 16.7
Q 62.0587890625 16.6822265625 62 16.65 61.95625 16.66875 61.9 16.7
L 58.1 20
Q 58.0822265625 20.04140625 58.05 20.1 58.06875 20.14375 58.1 20.15 58.14140625 20.2177734375 58.2 20.2 58.24375 20.2310546875 58.25 20.2
L 62.05 16.9
Q 62.1177734375 16.85859375 62.1 16.8 62.13125 16.75625 62.1 16.7 Z"/>
</g>

<g id="wire_0_Layer0_2_FILL">
<path fill="#B7B388" stroke="none" d="
M 883.75 16.35
Q 885.65 14.5 885.65 11.85 885.65 9.2 883.75 7.3 881.9 5.45 879.25 5.45 876.6 5.45 874.7 7.3 872.85 9.2 872.85 11.85 872.85 14.5 874.7 16.35 876.6 18.25 879.25 18.25 881.9 18.25 883.75 16.35 Z"/>
</g>

<g id="wire_0_Layer0_2_STROKES_1_FILL">
<path fill="#E2E2E2" fill-opacity="0.4980392156862745" stroke="none" d="
M 882.75 16.35
Q 882.75 16.75 883.05 17.05 883.35 17.35 883.75 17.35 884.15 17.35 884.45 17.05 884.75 16.75 884.75 16.35 884.75 15.95 884.45 15.65 884.15 15.35 883.75 15.35 883.35 15.35 883.05 15.65 882.75 15.95 882.75 16.35
M 875.2 15.45
Q 874.9 15.15 874.5 15.15 874.1 15.15 873.8 15.45 873.5 15.75 873.5 16.15 873.5 16.55 873.8 16.85 874.1 17.15 874.5 17.15 874.9 17.15 875.2 16.85 875.5 16.55 875.5 16.15 875.5 15.75 875.2 15.45
M 879.85 17.55
Q 879.55 17.25 879.15 17.25 878.75 17.25 878.45 17.55 878.15 17.85 878.15 18.25 878.15 18.65 878.45 18.95 878.75 19.25 879.15 19.25 879.55 19.25 879.85 18.95 880.15 18.65 880.15 18.25 880.15 17.85 879.85 17.55
M 872.15 10.85
Q 871.85 11.15 871.85 11.55 871.85 11.95 872.15 12.25 872.45 12.55 872.85 12.55 873.25 12.55 873.55 12.25 873.85 11.95 873.85 11.55 873.85 11.15 873.55 10.85 873.25 10.55 872.85 10.55 872.45 10.55 872.15 10.85
M 874.1 7
Q 874.1 7.4 874.4 7.7 874.7 8 875.1 8 875.5 8 875.8 7.7 876.1 7.4 876.1 7 876.1 6.6 875.8 6.3 875.5 6 875.1 6 874.7 6 874.4 6.3 874.1 6.6 874.1 7
M 878.95 4.75
Q 878.65 5.05 878.65 5.45 878.65 5.85 878.95 6.15 879.25 6.45 879.65 6.45 880.05 6.45 880.35 6.15 880.65 5.85 880.65 5.45 880.65 5.05 880.35 4.75 880.05 4.45 879.65 4.45 879.25 4.45 878.95 4.75
M 885.65 11.05
Q 885.25 11.05 884.95 11.35 884.65 11.65 884.65 12.05 884.65 12.45 884.95 12.75 885.25 13.05 885.65 13.05 886.05 13.05 886.35 12.75 886.65 12.45 886.65 12.05 886.65 11.65 886.35 11.35 886.05 11.05 885.65 11.05
M 884.75 6.95
Q 884.45 6.65 884.05 6.65 883.65 6.65 883.35 6.95 883.05 7.25 883.05 7.65 883.05 8.05 883.35 8.35 883.65 8.65 884.05 8.65 884.45 8.65 884.75 8.35 885.05 8.05 885.05 7.65 885.05 7.25 884.75 6.95 Z"/>
</g>

<g id="wire_0_Layer0_3_FILL">
<path fill="#A6A26A" stroke="none" d="
M 883.75 16.35
Q 885.65 14.5 885.65 11.85 885.65 9.2 883.75 7.3 881.9 5.45 879.25 5.45 876.6 5.45 874.7 7.3 872.85 9.2 872.85 11.85 872.85 14.5 874.7 16.35 876.6 18.25 879.25 18.25 881.9 18.25 883.75 16.35 Z"/>
</g>

<g id="wire_0_Layer0_3_STROKES_1_FILL">
<path fill="#E2E2E2" fill-opacity="0.4980392156862745" stroke="none" d="
M 882.75 16.35
Q 882.75 16.75 883.05 17.05 883.35 17.35 883.75 17.35 884.15 17.35 884.45 17.05 884.75 16.75 884.75 16.35 884.75 15.95 884.45 15.65 884.15 15.35 883.75 15.35 883.35 15.35 883.05 15.65 882.75 15.95 882.75 16.35
M 875.2 15.45
Q 874.9 15.15 874.5 15.15 874.1 15.15 873.8 15.45 873.5 15.75 873.5 16.15 873.5 16.55 873.8 16.85 874.1 17.15 874.5 17.15 874.9 17.15 875.2 16.85 875.5 16.55 875.5 16.15 875.5 15.75 875.2 15.45
M 879.85 17.55
Q 879.55 17.25 879.15 17.25 878.75 17.25 878.45 17.55 878.15 17.85 878.15 18.25 878.15 18.65 878.45 18.95 878.75 19.25 879.15 19.25 879.55 19.25 879.85 18.95 880.15 18.65 880.15 18.25 880.15 17.85 879.85 17.55
M 872.15 10.85
Q 871.85 11.15 871.85 11.55 871.85 11.95 872.15 12.25 872.45 12.55 872.85 12.55 873.25 12.55 873.55 12.25 873.85 11.95 873.85 11.55 873.85 11.15 873.55 10.85 873.25 10.55 872.85 10.55 872.45 10.55 872.15 10.85
M 874.1 7
Q 874.1 7.4 874.4 7.7 874.7 8 875.1 8 875.5 8 875.8 7.7 876.1 7.4 876.1 7 876.1 6.6 875.8 6.3 875.5 6 875.1 6 874.7 6 874.4 6.3 874.1 6.6 874.1 7
M 878.95 4.75
Q 878.65 5.05 878.65 5.45 878.65 5.85 878.95 6.15 879.25 6.45 879.65 6.45 880.05 6.45 880.35 6.15 880.65 5.85 880.65 5.45 880.65 5.05 880.35 4.75 880.05 4.45 879.65 4.45 879.25 4.45 878.95 4.75
M 885.65 11.05
Q 885.25 11.05 884.95 11.35 884.65 11.65 884.65 12.05 884.65 12.45 884.95 12.75 885.25 13.05 885.65 13.05 886.05 13.05 886.35 12.75 886.65 12.45 886.65 12.05 886.65 11.65 886.35 11.35 886.05 11.05 885.65 11.05
M 884.75 6.95
Q 884.45 6.65 884.05 6.65 883.65 6.65 883.35 6.95 883.05 7.25 883.05 7.65 883.05 8.05 883.35 8.35 883.65 8.65 884.05 8.65 884.45 8.65 884.75 8.35 885.05 8.05 885.05 7.65 885.05 7.25 884.75 6.95 Z"/>
</g>

<path id="wire_0_Layer0_0_1_STROKES" stroke="#FFFFFF" stroke-opacity="0.2980392156862745" stroke-width="5" stroke-linejoin="round" stroke-linecap="round" fill="none" d="
M 4.45 5.8
Q 57.65 -3.05 69.45 37.8"/>
</defs>

<g transform="matrix( 1.05194091796875, 0, 0, 1.0513153076171875, 2.5,0.95) ">
<g transform="matrix( 1, 0, 0, 1, 0,0) ">
<use xlink:href="#wire_0_Layer0_0_1_STROKES"/>
</g>

<g transform="matrix( 1, 0, 0, 1, 0,0) ">
<use xlink:href="#wire_0_Layer0_1_STROKES_1_FILL"/>
</g>

<g transform="matrix( 1, 0, 0, 1, -872.85,-5.45) ">
<use xlink:href="#wire_0_Layer0_2_FILL"/>

<use xlink:href="#wire_0_Layer0_2_STROKES_1_FILL"/>
</g>

<g transform="matrix( 1, 0, 0, 1, -809.6,27.55) ">
<use xlink:href="#wire_0_Layer0_3_FILL"/>

<use xlink:href="#wire_0_Layer0_3_STROKES_1_FILL"/>
</g>
</g>
</svg>
