<svg id="_40" data-name="40" xmlns="http://www.w3.org/2000/svg" viewBox="0 0 170 170"><defs><style>.cls-1{opacity:0;}.cls-2{fill:#2580b2;}.Graphic-Style,.cls-3,.cls-4{fill:none;}.Graphic-Style{stroke:#fff;stroke-linejoin:bevel;stroke-width:2px;}.cls-3{stroke:#930;}.cls-3,.cls-4{stroke-linecap:round;stroke-linejoin:round;}.cls-4{stroke:#36eaa5;stroke-width:3px;}</style></defs><title>40_tool2A</title><g id="transparent_bg" data-name="transparent bg" class="cls-1"><rect class="cls-2" width="170" height="170"/></g><g id="tool2A"><path class="Graphic-Style" d="M49.61,114.49l-5.47-8.37a10,10,0,0,1,15.47,8.27Z"/><path class="Graphic-Style" d="M26,79.1l4.5-8.93a10,10,0,0,1,1.06,17.24Z"/><path class="Graphic-Style" d="M37.81,55.51l10,0.06A10,10,0,0,1,33.3,64.43Z"/><path class="Graphic-Style" d="M85,114.49l-10-.08a10,10,0,0,1,17.11-6.95Z"/></g><g id="shape"><path class="cls-3" d="M144,55.51l-59,59"/><path class="cls-3" d="M85,114.49H49.61"/><path class="cls-3" d="M37.81,55.51H144"/><path class="cls-3" d="M49.61,114.49L26,79.1"/><path class="cls-3" d="M26,79.1l11.8-23.6"/><path class="cls-4" d="M144,55.51l-59,59"/><path class="cls-4" d="M85,114.49H49.61"/><path class="cls-4" d="M37.81,55.51H144"/><path class="cls-4" d="M49.61,114.49L26,79.1"/><path class="cls-4" d="M26,79.1l11.8-23.6"/></g></svg>