<svg id="_58" data-name="58" xmlns="http://www.w3.org/2000/svg" viewBox="0 0 170 170"><defs><style>.cls-1{opacity:0;}.cls-2{fill:#2580b2;}.TISS_shape_outline,.cls-3,.cls-4{fill:none;}.TISS_shape_outline{stroke:#36eaa5;stroke-width:3px;}.TISS_shape_outline,.cls-3{stroke-linecap:round;stroke-linejoin:round;}.cls-3,.cls-4{stroke:#fff;stroke-width:2px;}.cls-4{stroke-miterlimit:10;}</style></defs><title>58_tool1</title><g id="transparent_bg" data-name="transparent bg" class="cls-1"><rect class="cls-2" width="170" height="170"/></g><g id="shape"><path class="TISS_shape_outline" d="M44,21.85L85,40.12"/><path class="TISS_shape_outline" d="M85,40.12l41-18.26"/><path class="TISS_shape_outline" d="M126,21.85l-4.7,44.67"/><path class="TISS_shape_outline" d="M121.34,66.52L151.4,99.9"/><path class="TISS_shape_outline" d="M151.4,99.9l-43.94,9.34"/><path class="TISS_shape_outline" d="M107.46,109.25L85,148.15"/><path class="TISS_shape_outline" d="M85,148.15l-22.46-38.9"/><path class="TISS_shape_outline" d="M62.54,109.25L18.6,99.9"/><path class="TISS_shape_outline" d="M18.6,99.9L48.66,66.52"/><path class="TISS_shape_outline" d="M48.66,66.52L44,21.85"/></g><g id="tool1"><line class="cls-3" x1="66.81" y1="133.02" x2="81.11" y2="124.37"/><line class="cls-3" x1="103.34" y1="133.08" x2="89.12" y2="124.31"/><line class="cls-3" x1="38.01" y1="49.25" x2="54.61" y2="47.37"/><line class="cls-3" x1="115.18" y1="46.85" x2="131.63" y2="49.77"/><line class="cls-3" x1="127.75" y1="113.41" x2="124.33" y2="97.05"/><line class="cls-3" x1="107.01" y1="39.12" x2="100.31" y2="23.81"/><line class="cls-3" x1="61.72" y1="39.12" x2="67.99" y2="23.63"/><line class="cls-3" x1="42.65" y1="113.48" x2="45.27" y2="96.98"/><line class="cls-3" x1="40.65" y1="87.4" x2="28.43" y2="76"/><line class="cls-3" x1="141.29" y1="75.82" x2="129.43" y2="87.58"/><path class="TISS_shape_outline" d="M44,21.85L85,40.12"/><path class="TISS_shape_outline" d="M85,40.12l41-18.26"/><path class="TISS_shape_outline" d="M126,21.85l-4.7,44.67"/><path class="TISS_shape_outline" d="M121.34,66.52L151.4,99.9"/><path class="TISS_shape_outline" d="M151.4,99.9l-43.94,9.34"/><path class="TISS_shape_outline" d="M107.46,109.25L85,148.15"/><path class="TISS_shape_outline" d="M85,148.15l-22.46-38.9"/><path class="TISS_shape_outline" d="M62.54,109.25L18.6,99.9"/><path class="TISS_shape_outline" d="M18.6,99.9L48.66,66.52"/><path class="TISS_shape_outline" d="M48.66,66.52L44,21.85"/><path class="cls-4" d="M44,21.85L85,40.12"/><path class="cls-4" d="M85,40.12l41-18.26"/><path class="cls-4" d="M126,21.85l-4.7,44.67"/><path class="cls-4" d="M121.34,66.52L151.4,99.9"/><path class="cls-4" d="M151.4,99.9l-43.94,9.34"/><path class="cls-4" d="M107.46,109.25L85,148.15"/><path class="cls-4" d="M85,148.15l-22.46-38.9"/><path class="cls-4" d="M62.54,109.25L18.6,99.9"/><path class="cls-4" d="M18.6,99.9L48.66,66.52"/><path class="cls-4" d="M48.66,66.52L44,21.85"/></g></svg>