<svg id="_58" data-name="58" xmlns="http://www.w3.org/2000/svg" viewBox="0 0 170 170"><defs><style>.cls-1{opacity:0;}.cls-2{fill:#2580b2;}.TISS_shape_outline,.cls-3{fill:none;stroke-linecap:round;stroke-linejoin:round;}.cls-3{stroke:#fff;stroke-width:2px;}.TISS_shape_outline{stroke:#36eaa5;stroke-width:3px;}</style></defs><title>58_tool2D</title><g id="transparent_bg" data-name="transparent bg" class="cls-1"><rect class="cls-2" width="170" height="170"/></g><g id="tool2D"><path class="cls-3" d="M62.54,109.25l-14.69-3q0.14-.66.33-1.3a15,15,0,1,1,21.91,17.29Z"/><path class="cls-3" d="M48.66,66.52L47.32,51.58q0.67-.06,1.34-0.06a15,15,0,1,1-10.24,26Z"/><path class="cls-3" d="M85,40.12l13.75-6q0.27,0.61.48,1.25a15,15,0,1,1-27.87-1.5Z"/><path class="cls-3" d="M121.34,66.52l10.18,11q-0.49.46-1,.86a15,15,0,1,1-7.73-26.81Z"/><path class="cls-3" d="M107.46,109.25l-7.53,13q-0.58-.34-1.13-0.72a15,15,0,1,1,23.35-15.28Z"/></g><g id="shape"><path class="TISS_shape_outline" d="M44,21.85L85,40.12"/><path class="TISS_shape_outline" d="M85,40.12l41-18.26"/><path class="TISS_shape_outline" d="M126,21.85l-4.7,44.67"/><path class="TISS_shape_outline" d="M121.34,66.52L151.4,99.9"/><path class="TISS_shape_outline" d="M151.4,99.9l-43.94,9.34"/><path class="TISS_shape_outline" d="M107.46,109.25L85,148.15"/><path class="TISS_shape_outline" d="M85,148.15l-22.46-38.9"/><path class="TISS_shape_outline" d="M62.54,109.25L18.6,99.9"/><path class="TISS_shape_outline" d="M18.6,99.9L48.66,66.52"/><path class="TISS_shape_outline" d="M48.66,66.52L44,21.85"/></g></svg>