<svg id="_58" data-name="58" xmlns="http://www.w3.org/2000/svg" viewBox="0 0 170 170"><defs><style>.cls-1{opacity:0;}.cls-2{fill:#2580b2;}.cls-3{font-size:10px;fill:#fff;font-family:Arial;font-style:italic;}.TISS_shape_outline,.cls-4{fill:none;}.TISS_shape_outline{stroke:#36eaa5;stroke-linecap:round;stroke-linejoin:round;stroke-width:3px;}.cls-4{stroke:#f66;stroke-miterlimit:10;stroke-width:2px;}</style></defs><title>58_tool1B</title><g id="transparent_bg" data-name="transparent bg" class="cls-1"><rect class="cls-2" width="170" height="170"/></g><g id="tool3"><text class="cls-3" transform="translate(54.83 160.28)">Not<tspan x="15.56" y="0"> </tspan><tspan x="17.97" y="0">Applicable</tspan></text></g><g id="shape"><path class="TISS_shape_outline" d="M44,21.85L85,40.12"/><path class="TISS_shape_outline" d="M85,40.12l41-18.26"/><path class="TISS_shape_outline" d="M126,21.85l-4.7,44.67"/><path class="TISS_shape_outline" d="M121.34,66.52L151.4,99.9"/><path class="TISS_shape_outline" d="M151.4,99.9l-43.94,9.34"/><path class="TISS_shape_outline" d="M107.46,109.25L85,148.15"/><path class="TISS_shape_outline" d="M85,148.15l-22.46-38.9"/><path class="TISS_shape_outline" d="M62.54,109.25L18.6,99.9"/><path class="TISS_shape_outline" d="M18.6,99.9L48.66,66.52"/><path class="TISS_shape_outline" d="M48.66,66.52L44,21.85"/></g><g id="tool1B"><path class="TISS_shape_outline" d="M44,21.85L85,40.12"/><path class="TISS_shape_outline" d="M85,40.12l41-18.26"/><path class="TISS_shape_outline" d="M126,21.85l-4.7,44.67"/><path class="TISS_shape_outline" d="M121.34,66.52L151.4,99.9"/><path class="TISS_shape_outline" d="M151.4,99.9l-43.94,9.34"/><path class="TISS_shape_outline" d="M107.46,109.25L85,148.15"/><path class="TISS_shape_outline" d="M85,148.15l-22.46-38.9"/><path class="TISS_shape_outline" d="M62.54,109.25L18.6,99.9"/><path class="TISS_shape_outline" d="M18.6,99.9L48.66,66.52"/><path class="TISS_shape_outline" d="M48.66,66.52L44,21.85"/><path class="cls-4" d="M44,21.85L85,40.12"/><path class="cls-4" d="M85,40.12l41-18.26"/><path class="cls-4" d="M126,21.85l-4.7,44.67"/><path class="cls-4" d="M121.34,66.52L151.4,99.9"/><path class="cls-4" d="M151.4,99.9l-43.94,9.34"/><path class="cls-4" d="M107.46,109.25L85,148.15"/><path class="cls-4" d="M85,148.15l-22.46-38.9"/><path class="cls-4" d="M62.54,109.25L18.6,99.9"/><path class="cls-4" d="M18.6,99.9L48.66,66.52"/><path class="cls-4" d="M48.66,66.52L44,21.85"/></g></svg>