<svg id="_53" data-name="53" xmlns="http://www.w3.org/2000/svg" viewBox="0 0 170 170"><defs><style>.cls-1{opacity:0;}.cls-2{fill:#2580b2;}.cls-3,.cls-4{fill:none;stroke-linecap:round;stroke-linejoin:round;}.cls-3{stroke:#930;}.cls-4{stroke:#36eaa5;stroke-width:3px;}</style></defs><title>53_normal</title><g id="transparent_bg" data-name="transparent bg" class="cls-1"><rect class="cls-2" width="170" height="170"/></g><g id="shape"><path class="cls-3" d="M57.59,145.06h54.83l34.19-42.87L134.4,48.73,85,24.94,35.6,48.73,23.4,102.19Z"/><path class="cls-3" d="M57.59,145.06h54.83"/><path class="cls-3" d="M112.42,145.06l34.19-42.87"/><path class="cls-3" d="M134.4,48.73L85,24.94"/><path class="cls-3" d="M85,24.94L35.6,48.73"/><path class="cls-3" d="M35.6,48.73L23.4,102.19"/><path class="cls-3" d="M23.4,102.19l34.19,42.87"/><path class="cls-4" d="M57.59,145.06h54.83l34.19-42.87L134.4,48.73,85,24.94,35.6,48.73,23.4,102.19Z"/><path class="cls-4" d="M57.59,145.06h54.83"/><path class="cls-4" d="M112.42,145.06l34.19-42.87"/><path class="cls-4" d="M134.4,48.73L85,24.94"/><path class="cls-4" d="M85,24.94L35.6,48.73"/><path class="cls-4" d="M35.6,48.73L23.4,102.19"/><path class="cls-4" d="M23.4,102.19l34.19,42.87"/></g></svg>