<svg id="_53" data-name="53" xmlns="http://www.w3.org/2000/svg" viewBox="0 0 170 170"><defs><style>.cls-1{opacity:0;}.cls-2{fill:#2580b2;}.Graphic-Style,.cls-3,.cls-4{fill:none;}.Graphic-Style{stroke:#fff;stroke-linejoin:bevel;stroke-width:2px;}.cls-3{stroke:#930;}.cls-3,.cls-4{stroke-linecap:round;stroke-linejoin:round;}.cls-4{stroke:#36eaa5;stroke-width:3px;}</style></defs><title>53_tool2A</title><g id="transparent_bg" data-name="transparent bg" class="cls-1"><rect class="cls-2" width="170" height="170"/></g><g id="tool2A"><path class="Graphic-Style" d="M35.6,48.73l-3.74,16A16.4,16.4,0,0,0,50.44,41.76Z"/><path class="Graphic-Style" d="M84.89,24.94L70.2,32.25a16.4,16.4,0,0,0,29.4-.05Z"/><path class="Graphic-Style" d="M134.4,48.73l-14.76-7.14a16.4,16.4,0,0,0,18.25,23.17Z"/><path class="Graphic-Style" d="M146.6,102.19l-3.58-16a16.4,16.4,0,0,0-6.47,29Z"/><path class="Graphic-Style" d="M112.42,145.06l9.94-13a16.4,16.4,0,0,0-26.34,13h16.4Z"/><path class="Graphic-Style" d="M57.59,145.06H74a16.4,16.4,0,0,0-26.34-13Z"/><path class="Graphic-Style" d="M23.4,102.19l10.43,12.66a16.4,16.4,0,0,0-6.69-28.63Z"/></g><g id="shape"><path class="cls-3" d="M57.59,145.06h54.83l34.19-42.87L134.4,48.73,85,24.94,35.6,48.73,23.4,102.19Z"/><path class="cls-3" d="M57.59,145.06h54.83"/><path class="cls-3" d="M112.42,145.06l34.19-42.87"/><path class="cls-3" d="M134.4,48.73L85,24.94"/><path class="cls-3" d="M85,24.94L35.6,48.73"/><path class="cls-3" d="M35.6,48.73L23.4,102.19"/><path class="cls-3" d="M23.4,102.19l34.19,42.87"/><path class="cls-4" d="M57.59,145.06h54.83l34.19-42.87L134.4,48.73,85,24.94,35.6,48.73,23.4,102.19Z"/><path class="cls-4" d="M57.59,145.06h54.83"/><path class="cls-4" d="M112.42,145.06l34.19-42.87"/><path class="cls-4" d="M134.4,48.73L85,24.94"/><path class="cls-4" d="M85,24.94L35.6,48.73"/><path class="cls-4" d="M35.6,48.73L23.4,102.19"/><path class="cls-4" d="M23.4,102.19l34.19,42.87"/></g></svg>