<svg id="_53" data-name="53" xmlns="http://www.w3.org/2000/svg" xmlns:xlink="http://www.w3.org/1999/xlink" viewBox="0 0 170 170"><defs><style>.cls-1{font-size:10px;fill:#fff;font-family:Arial;font-style:italic;}.cls-2{opacity:0;}.cls-3{fill:#2580b2;}.cls-4,.cls-5{fill:none;stroke-linecap:round;stroke-linejoin:round;}.cls-4{stroke:#930;}.cls-5{stroke:#36eaa5;stroke-width:3px;}</style><symbol id="NotApplicable" data-name="NotApplicable" viewBox="0 0 64.11 11.83"><text class="cls-1" transform="translate(0 8.58)">Not<tspan x="15.56" y="0"> </tspan><tspan x="17.97" y="0">Applicable</tspan></text></symbol></defs><title>53_tool2D</title><g id="transparent_bg" data-name="transparent bg" class="cls-2"><rect class="cls-3" width="170" height="170"/></g><g id="tool2B"><use width="64.11" height="11.83" transform="translate(54.83 151.7)" xlink:href="#NotApplicable"/></g><g id="shape"><path class="cls-4" d="M57.59,145.06h54.83l34.19-42.87L134.4,48.73,85,24.94,35.6,48.73,23.4,102.19Z"/><path class="cls-4" d="M57.59,145.06h54.83"/><path class="cls-4" d="M112.42,145.06l34.19-42.87"/><path class="cls-4" d="M134.4,48.73L85,24.94"/><path class="cls-4" d="M85,24.94L35.6,48.73"/><path class="cls-4" d="M35.6,48.73L23.4,102.19"/><path class="cls-4" d="M23.4,102.19l34.19,42.87"/><path class="cls-5" d="M57.59,145.06h54.83l34.19-42.87L134.4,48.73,85,24.94,35.6,48.73,23.4,102.19Z"/><path class="cls-5" d="M57.59,145.06h54.83"/><path class="cls-5" d="M112.42,145.06l34.19-42.87"/><path class="cls-5" d="M134.4,48.73L85,24.94"/><path class="cls-5" d="M85,24.94L35.6,48.73"/><path class="cls-5" d="M35.6,48.73L23.4,102.19"/><path class="cls-5" d="M23.4,102.19l34.19,42.87"/></g></svg>