<svg id="blue" xmlns="http://www.w3.org/2000/svg" viewBox="0 0 357.5 170"><defs><style>.cls-1{opacity:0;}.cls-2{fill:#2580b2;}.cls-3{font-size:14px;fill:#fff;font-family:Myriad Pro;}.cls-4,.cls-5,.cls-6{fill:none;stroke-linecap:round;stroke-linejoin:round;}.cls-4{stroke:#930;}.cls-5{stroke:#36eaa5;stroke-width:3px;}.cls-6{stroke:#f66;stroke-width:2px;}</style></defs><title>53_tool1B_m1</title><g id="transparent_bg" data-name="transparent bg" class="cls-1"><rect class="cls-2" width="170" height="170"/></g><rect class="cls-2" width="170" height="170"/><text class="cls-3" transform="translate(206 53.61)">T<tspan x="5.96" y="0">ool1 - </tspan><tspan x="42.05" y="0">E</tspan><tspan x="48.89" y="0">qual sides</tspan><tspan x="0" y="16.8">T</tspan><tspan x="5.96" y="16.8">ool2A - Obtuse angles</tspan><tspan x="0" y="33.6">T</tspan><tspan x="5.96" y="33.6">ool2B - </tspan><tspan x="49.64" y="33.6">R</tspan><tspan x="57.31" y="33.6">ig</tspan><tspan x="68.42" y="33.6">h</tspan><tspan x="76.13" y="33.6">t angles</tspan><tspan x="0" y="50.4">T</tspan><tspan x="5.96" y="50.4">ool2C - </tspan><tspan x="50.17" y="50.4">A</tspan><tspan x="58.57" y="50.4">cu</tspan><tspan x="72.56" y="50.4">t</tspan><tspan x="77.11" y="50.4">e angles</tspan><tspan x="0" y="67.2">T</tspan><tspan x="5.96" y="67.2">ool3 - pa</tspan><tspan x="56.77" y="67.2">r</tspan><tspan x="61.28" y="67.2">allel sides</tspan><tspan x="0" y="84">T</tspan><tspan x="5.96" y="84">ool2D - </tspan><tspan x="51.38" y="84">R</tspan><tspan x="58.97" y="84">efl</tspan><tspan x="73.3" y="84">e</tspan><tspan x="80.27" y="84">x angle</tspan></text><g id="shape"><path class="cls-4" d="M57.59,145.06h54.83l34.19-42.87L134.4,48.73,85,24.94,35.6,48.73,23.4,102.19Z"/><path class="cls-4" d="M57.59,145.06h54.83"/><path class="cls-4" d="M112.42,145.06l34.19-42.87"/><path class="cls-4" d="M134.4,48.73L85,24.94"/><path class="cls-4" d="M85,24.94L35.6,48.73"/><path class="cls-4" d="M35.6,48.73L23.4,102.19"/><path class="cls-4" d="M23.4,102.19l34.19,42.87"/><path class="cls-5" d="M57.59,145.06h54.83l34.19-42.87L134.4,48.73,85,24.94,35.6,48.73,23.4,102.19Z"/><path class="cls-5" d="M57.59,145.06h54.83"/><path class="cls-5" d="M112.42,145.06l34.19-42.87"/><path class="cls-5" d="M134.4,48.73L85,24.94"/><path class="cls-5" d="M85,24.94L35.6,48.73"/><path class="cls-5" d="M35.6,48.73L23.4,102.19"/><path class="cls-5" d="M23.4,102.19l34.19,42.87"/></g><g id="tool1B"><path class="cls-6" d="M57.59,145.06h54.83"/><path class="cls-6" d="M112.42,145.06l34.19-42.87"/><path class="cls-6" d="M134.4,48.73L85,24.94"/><path class="cls-6" d="M85,24.94L35.6,48.73"/><path class="cls-6" d="M35.6,48.73L23.4,102.19"/><path class="cls-6" d="M23.4,102.19l34.19,42.87"/><path class="cls-6" d="M134.38,48.48l12.23,53.45"/></g></svg>