<svg id="_53" data-name="53" xmlns="http://www.w3.org/2000/svg" viewBox="0 0 170 170"><defs><style>.cls-1{opacity:0;}.cls-2{fill:#2580b2;}.cls-3,.cls-4,.cls-5,.cls-6{fill:none;}.cls-3{stroke:#930;}.cls-3,.cls-4,.cls-5{stroke-linecap:round;stroke-linejoin:round;}.cls-4{stroke:#36eaa5;stroke-width:3px;}.cls-5,.cls-6{stroke:#fff;stroke-width:2px;}.cls-6{stroke-miterlimit:10;}</style></defs><title>53_tool1</title><g id="transparent_bg" data-name="transparent bg" class="cls-1"><rect class="cls-2" width="170" height="170"/></g><g id="shape"><path class="cls-3" d="M57.59,145.06h54.83l34.19-42.87L134.4,48.73,85,24.94,35.6,48.73,23.4,102.19Z"/><path class="cls-3" d="M57.59,145.06h54.83"/><path class="cls-3" d="M112.42,145.06l34.19-42.87"/><path class="cls-3" d="M134.4,48.73L85,24.94"/><path class="cls-3" d="M85,24.94L35.6,48.73"/><path class="cls-3" d="M35.6,48.73L23.4,102.19"/><path class="cls-3" d="M23.4,102.19l34.19,42.87"/><path class="cls-4" d="M57.59,145.06h54.83l34.19-42.87L134.4,48.73,85,24.94,35.6,48.73,23.4,102.19Z"/><path class="cls-4" d="M57.59,145.06h54.83"/><path class="cls-4" d="M112.42,145.06l34.19-42.87"/><path class="cls-4" d="M134.4,48.73L85,24.94"/><path class="cls-4" d="M85,24.94L35.6,48.73"/><path class="cls-4" d="M35.6,48.73L23.4,102.19"/><path class="cls-4" d="M23.4,102.19l34.19,42.87"/></g><g id="tool1"><line class="cls-5" x1="85" y1="153.42" x2="85" y2="136.7"/><line class="cls-5" x1="21.33" y1="73.71" x2="37.67" y2="77.21"/><line class="cls-5" x1="148.51" y1="73.71" x2="132.17" y2="77.21"/><line class="cls-5" x1="135.42" y1="129.54" x2="123.61" y2="117.71"/><line class="cls-5" x1="106.14" y1="44.39" x2="113.26" y2="29.28"/><line class="cls-5" x1="63.86" y1="44.39" x2="56.74" y2="29.28"/><line class="cls-5" x1="34.24" y1="129.17" x2="46.74" y2="118.08"/><path class="cls-3" d="M57.59,145.06h54.83l34.19-42.87L134.4,48.73,85,24.94,35.6,48.73,23.4,102.19Z"/><path class="cls-3" d="M57.59,145.06h54.83"/><path class="cls-3" d="M112.42,145.06l34.19-42.87"/><path class="cls-3" d="M134.4,48.73L85,24.94"/><path class="cls-3" d="M85,24.94L35.6,48.73"/><path class="cls-3" d="M35.6,48.73L23.4,102.19"/><path class="cls-3" d="M23.4,102.19l34.19,42.87"/><path class="cls-6" d="M57.59,145.06h54.83l34.19-42.87L134.4,48.73,85,24.94,35.6,48.73,23.4,102.19Z"/><path class="cls-6" d="M57.59,145.06h54.83"/><path class="cls-6" d="M112.42,145.06l34.19-42.87"/><path class="cls-6" d="M134.4,48.73L85,24.94"/><path class="cls-6" d="M85,24.94L35.6,48.73"/><path class="cls-6" d="M35.6,48.73L23.4,102.19"/><path class="cls-6" d="M23.4,102.19l34.19,42.87"/></g></svg>