<svg id="_37" data-name="37" xmlns="http://www.w3.org/2000/svg" viewBox="0 0 170 170"><defs><style>.cls-1{opacity:0;}.cls-2{fill:#2580b2;}.Graphic-Style,.cls-3,.cls-4{fill:none;}.Graphic-Style{stroke:#fff;stroke-linejoin:bevel;stroke-width:2px;}.cls-3{stroke:#930;}.cls-3,.cls-4{stroke-linecap:round;stroke-linejoin:round;}.cls-4{stroke:#36eaa5;stroke-width:3px;}</style></defs><title>37_tool2A</title><g id="transparent_bg" data-name="transparent bg" class="cls-1"><rect class="cls-2" width="170" height="170"/></g><g id="tool2A"><path class="Graphic-Style" d="M49.52,93.87l5.65-11.15a12.5,12.5,0,0,1-1.66,23Z"/><path class="Graphic-Style" d="M120.49,93.87l-3.91,11.87a12.5,12.5,0,0,1-1.76-23Z"/><path class="Graphic-Style" d="M102.74,147.1H90.24a12.5,12.5,0,0,1,16.46-11.86Z"/><path class="Graphic-Style" d="M67.26,147.1l-3.95-11.86A12.5,12.5,0,0,1,79.76,147.1H67.26Z"/></g><g id="shape"><path class="cls-3" d="M67.26,147.1h35.49"/><path class="cls-3" d="M102.74,147.1l17.74-53.23"/><path class="cls-3" d="M120.49,93.87L85,22.9"/><path class="cls-3" d="M85,22.9l-35.49,71"/><path class="cls-3" d="M49.52,93.87L67.26,147.1"/><path class="cls-4" d="M67.26,147.1h35.49"/><path class="cls-4" d="M102.74,147.1l17.74-53.23"/><path class="cls-4" d="M120.49,93.87L85,22.9"/><path class="cls-4" d="M85,22.9l-35.49,71"/><path class="cls-4" d="M49.52,93.87L67.26,147.1"/></g></svg>