<svg id="_37" data-name="37" xmlns="http://www.w3.org/2000/svg" viewBox="0 0 170 170"><defs><style>.cls-1{opacity:0;}.cls-2{fill:#2580b2;}.cls-3,.cls-4,.cls-5,.cls-6{fill:none;}.cls-3{stroke:#930;}.cls-3,.cls-4,.cls-6{stroke-linecap:round;stroke-linejoin:round;}.cls-4{stroke:#36eaa5;stroke-width:3px;}.cls-5,.cls-6{stroke:#fff;stroke-width:2px;}.cls-5{stroke-miterlimit:10;}</style></defs><title>37_tool1</title><g id="transparent_bg" data-name="transparent bg" class="cls-1"><rect class="cls-2" width="170" height="170"/></g><g id="shape"><path class="cls-3" d="M67.26,147.1h35.49"/><path class="cls-3" d="M102.74,147.1l17.74-53.23"/><path class="cls-3" d="M120.49,93.87L85,22.9"/><path class="cls-3" d="M85,22.9l-35.49,71"/><path class="cls-3" d="M49.52,93.87L67.26,147.1"/><path class="cls-4" d="M67.26,147.1h35.49"/><path class="cls-4" d="M102.74,147.1l17.74-53.23"/><path class="cls-4" d="M120.49,93.87L85,22.9"/><path class="cls-4" d="M85,22.9l-35.49,71"/><path class="cls-4" d="M49.52,93.87L67.26,147.1"/></g><g id="tool1"><path class="cls-5" d="M102.74,147.1l17.74-53.23"/><path class="cls-5" d="M120.49,93.87L85,22.9"/><path class="cls-5" d="M85,22.9l-35.49,71"/><path class="cls-5" d="M49.52,93.87L67.26,147.1"/><line class="cls-6" x1="67.94" y1="118.18" x2="49.52" y2="126.02"/><line class="cls-6" x1="120.9" y1="125.84" x2="102.33" y2="118.36"/><line class="cls-6" x1="94.99" y1="65.55" x2="112.75" y2="56.32"/><line class="cls-6" x1="97.45" y1="70.51" x2="115.21" y2="61.28"/><line class="cls-6" x1="57.01" y1="56.21" x2="75.65" y2="63.5"/><line class="cls-6" x1="54.9" y1="61.33" x2="73.54" y2="68.62"/><path class="cls-5" d="M102.74,147.1l17.74-53.23"/><path class="cls-5" d="M120.49,93.87L85,22.9"/><path class="cls-5" d="M85,22.9l-35.49,71"/><path class="cls-5" d="M49.52,93.87L67.26,147.1"/><line class="cls-5" x1="67.94" y1="118.18" x2="49.52" y2="126.02"/><line class="cls-5" x1="120.9" y1="125.84" x2="102.33" y2="118.36"/><line class="cls-5" x1="94.99" y1="65.55" x2="112.75" y2="56.32"/><line class="cls-5" x1="97.45" y1="70.51" x2="115.21" y2="61.28"/><line class="cls-5" x1="57.01" y1="56.21" x2="75.65" y2="63.5"/><line class="cls-5" x1="54.9" y1="61.33" x2="73.54" y2="68.62"/></g></svg>