<svg id="_49" data-name="49" xmlns="http://www.w3.org/2000/svg" viewBox="0 0 170 170"><defs><style>.cls-1{opacity:0;}.cls-2{fill:#2580b2;}.cls-3,.cls-4,.cls-5{fill:none;stroke-linecap:round;stroke-linejoin:round;}.cls-3{stroke:#930;}.cls-4{stroke:#36eaa5;stroke-width:3px;}.cls-5{stroke:#fff;stroke-width:2px;}</style></defs><title>49_tool3</title><g id="transparent_bg" data-name="transparent bg" class="cls-1"><rect class="cls-2" width="170" height="170"/></g><g id="shape"><path class="cls-3" d="M18,86.51l11.37-34.1"/><path class="cls-3" d="M29.35,52.41H86.18"/><path class="cls-3" d="M86.18,52.41l68.21,34.1"/><path class="cls-3" d="M154.39,86.51l-68.21,34.1"/><path class="cls-3" d="M29.35,120.61L18,86.51"/><path class="cls-3" d="M86.18,120.61H29.35"/><path class="cls-4" d="M18,86.51l11.37-34.1"/><path class="cls-4" d="M29.35,52.41H86.18"/><path class="cls-4" d="M86.18,52.41l68.21,34.1"/><path class="cls-4" d="M154.39,86.51l-68.21,34.1"/><path class="cls-4" d="M29.35,120.61L18,86.51"/><path class="cls-4" d="M86.18,120.61H29.35"/></g><g id="tool3"><polyline class="cls-5" points="54.27 45.39 61.27 52.41 54.27 59.42"/><polyline class="cls-5" points="54.27 113.6 61.27 120.61 54.27 127.63"/><line class="cls-5" x1="29.35" y1="52.41" x2="86.18" y2="52.41"/><line class="cls-5" x1="86.18" y1="120.61" x2="29.35" y2="120.61"/></g></svg>