<svg id="_49" data-name="49" xmlns="http://www.w3.org/2000/svg" viewBox="0 0 170 170"><defs><style>.cls-1{opacity:0;}.cls-2{fill:#2580b2;}.Graphic-Style,.cls-3,.cls-4,.cls-5{fill:none;}.Graphic-Style,.cls-3{stroke:#fff;stroke-width:2px;}.Graphic-Style{stroke-linejoin:bevel;}.cls-3{stroke-miterlimit:10;}.cls-4{stroke:#930;}.cls-4,.cls-5{stroke-linecap:round;stroke-linejoin:round;}.cls-5{stroke:#36eaa5;stroke-width:3px;}</style></defs><title>49_tool2A</title><g id="transparent_bg" data-name="transparent bg" class="cls-1"><rect class="cls-2" width="170" height="170"/></g><g id="tool2A"><path class="Graphic-Style" d="M86.18,52.41l9.8,5a11,11,0,0,1-20.8-4.95Z"/><path class="Graphic-Style" d="M86.18,120.61l-11-.06A11,11,0,0,1,96,115.62Z"/><path class="cls-3" d="M29.35,52.41l11,0A11,11,0,0,1,26,62.89Z"/><path class="cls-3" d="M29.35,120.61l-3.49-10.43a11,11,0,0,1,14.49,10.49Z"/><path class="cls-3" d="M18,86.51l3.33-9.43A10,10,0,0,1,21.15,96Z"/></g><g id="shape"><path class="cls-4" d="M18,86.51l11.37-34.1"/><path class="cls-4" d="M29.35,52.41H86.18"/><path class="cls-4" d="M86.18,52.41l68.21,34.1"/><path class="cls-4" d="M154.39,86.51l-68.21,34.1"/><path class="cls-4" d="M29.35,120.61L18,86.51"/><path class="cls-4" d="M86.18,120.61H29.35"/><path class="cls-5" d="M18,86.51l11.37-34.1"/><path class="cls-5" d="M29.35,52.41H86.18"/><path class="cls-5" d="M86.18,52.41l68.21,34.1"/><path class="cls-5" d="M154.39,86.51l-68.21,34.1"/><path class="cls-5" d="M29.35,120.61L18,86.51"/><path class="cls-5" d="M86.18,120.61H29.35"/></g></svg>