<svg id="_49" data-name="49" xmlns="http://www.w3.org/2000/svg" viewBox="0 0 170 170"><defs><style>.cls-1{opacity:0;}.cls-2{fill:#2580b2;}.cls-3,.cls-4,.cls-5,.cls-6{fill:none;}.cls-3{stroke:#930;}.cls-3,.cls-4,.cls-5{stroke-linecap:round;stroke-linejoin:round;}.cls-4{stroke:#36eaa5;stroke-width:3px;}.cls-5,.cls-6{stroke:#fff;stroke-width:2px;}.cls-6{stroke-miterlimit:10;}</style></defs><title>49_tool1</title><g id="transparent_bg" data-name="transparent bg" class="cls-1"><rect class="cls-2" width="170" height="170"/></g><g id="shape"><path class="cls-3" d="M18,86.51l11.37-34.1"/><path class="cls-3" d="M29.35,52.41H86.18"/><path class="cls-3" d="M86.18,52.41l68.21,34.1"/><path class="cls-3" d="M154.39,86.51l-68.21,34.1"/><path class="cls-3" d="M29.35,120.61L18,86.51"/><path class="cls-3" d="M86.18,120.61H29.35"/><path class="cls-4" d="M18,86.51l11.37-34.1"/><path class="cls-4" d="M29.35,52.41H86.18"/><path class="cls-4" d="M86.18,52.41l68.21,34.1"/><path class="cls-4" d="M154.39,86.51l-68.21,34.1"/><path class="cls-4" d="M29.35,120.61L18,86.51"/><path class="cls-4" d="M86.18,120.61H29.35"/></g><g id="tool1"><line class="cls-5" x1="108.32" y1="73.82" x2="115.58" y2="58.77"/><line class="cls-5" x1="114.17" y1="76.65" x2="121.44" y2="61.6"/><line class="cls-5" x1="120.03" y1="79.47" x2="127.29" y2="64.42"/><line class="cls-5" x1="108.32" y1="100.14" x2="115.58" y2="115.19"/><line class="cls-5" x1="114.17" y1="97.31" x2="121.44" y2="112.37"/><line class="cls-5" x1="120.03" y1="94.49" x2="127.29" y2="109.54"/><line class="cls-5" x1="54.52" y1="60.76" x2="54.52" y2="44.05"/><line class="cls-5" x1="61.02" y1="60.76" x2="61.02" y2="44.05"/><line class="cls-5" x1="54.52" y1="128.97" x2="54.52" y2="112.26"/><line class="cls-5" x1="61.02" y1="128.97" x2="61.02" y2="112.26"/><line class="cls-5" x1="31.51" y1="72.32" x2="15.81" y2="66.59"/><line class="cls-5" x1="15.81" y1="107.71" x2="31.51" y2="101.97"/><path class="cls-3" d="M18,86.51l11.37-34.1"/><path class="cls-3" d="M29.35,52.41H86.18"/><path class="cls-3" d="M86.18,52.41l68.21,34.1"/><path class="cls-3" d="M154.39,86.51l-68.21,34.1"/><path class="cls-3" d="M29.35,120.61L18,86.51"/><path class="cls-3" d="M86.18,120.61H29.35"/><path class="cls-6" d="M18,86.51l11.37-34.1"/><path class="cls-6" d="M29.35,52.41H86.18"/><path class="cls-6" d="M86.18,52.41l68.21,34.1"/><path class="cls-6" d="M154.39,86.51l-68.21,34.1"/><path class="cls-6" d="M29.35,120.61L18,86.51"/><path class="cls-6" d="M86.18,120.61H29.35"/></g></svg>