<svg id="set6" xmlns="http://www.w3.org/2000/svg" viewBox="0 0 170 170"><defs><style>.cls-1{opacity:0;}.cls-2{fill:#2580b2;}.cls-3,.cls-4{fill:none;stroke-linecap:round;stroke-linejoin:round;}.cls-3{stroke:#36eaa5;stroke-width:3px;}.cls-4{stroke:#fff;stroke-width:2px;}</style></defs><title>23_tool3</title><g id="Layer_2" data-name="Layer 2" class="cls-1"><rect class="cls-2" width="170" height="170"/></g><g id="_23" data-name="23"><g id="shape"><path class="cls-3" d="M19,35.08H95.39"/><path class="cls-3" d="M69.93,136.93L19,35.08"/><path class="cls-3" d="M146.32,136.93H69.93"/><path class="cls-3" d="M95.39,35.08l50.93,101.85"/></g><g id="tool3"><path class="cls-4" d="M19,35.08H95.39"/><path class="cls-4" d="M69.93,136.93L19,35.08"/><path class="cls-4" d="M146.32,136.93H69.93"/><path class="cls-4" d="M95.39,35.08l50.93,101.85"/><polyline class="cls-4" points="36.15 86 41.47 79 52.78 86"/><polyline class="cls-4" points="112.54 86 117.86 79 129.17 86"/><polyline class="cls-4" points="59.2 27.76 66.2 35.08 59.2 42.39"/><polyline class="cls-4" points="66.2 27.76 73.2 35.08 66.2 42.39"/><polyline class="cls-4" points="106.12 129.62 113.12 136.97 106.12 144.25"/><polyline class="cls-4" points="113.12 129.62 120.12 136.97 113.12 144.25"/></g></g></svg>