<svg xmlns="http://www.w3.org/2000/svg" xmlns:xlink="http://www.w3.org/1999/xlink" viewBox="0 0 513.78 203.18"><defs><style>.cls-1,.cls-12,.cls-13,.cls-14,.cls-15,.cls-16,.cls-17,.cls-18,.cls-19,.cls-2,.cls-20,.cls-21,.cls-22,.cls-23,.cls-24,.cls-25,.cls-26,.cls-27,.cls-28,.cls-4,.cls-8,.cls-9{fill:none;stroke:#e5007e;}.cls-1,.cls-12,.cls-15,.cls-16,.cls-19,.cls-2,.cls-21,.cls-22,.cls-24,.cls-4,.cls-8,.cls-9{stroke-miterlimit:10;}.cls-1{stroke-width:1px;}.cls-12,.cls-13,.cls-14,.cls-15,.cls-16,.cls-17,.cls-18,.cls-19,.cls-2,.cls-20,.cls-21,.cls-22,.cls-23,.cls-24,.cls-25,.cls-26,.cls-27,.cls-28,.cls-4,.cls-8,.cls-9{stroke-linecap:round;}.cls-2{stroke-width:1.42px;}.cls-13,.cls-14,.cls-15,.cls-16,.cls-17,.cls-18,.cls-19,.cls-2,.cls-20,.cls-21,.cls-22,.cls-23,.cls-24,.cls-25,.cls-26,.cls-27,.cls-28,.cls-3,.cls-4,.cls-5,.cls-9{opacity:0.5;}.cls-3{fill:#e5007e;}.cls-4,.cls-8{stroke-width:1px;}.cls-6{clip-path:url(#clip-path);}.cls-7{clip-path:url(#clip-path-2);}.cls-12,.cls-9{stroke-width:0.67px;}.cls-10{clip-path:url(#clip-path-3);}.cls-11{clip-path:url(#clip-path-4);}.cls-13,.cls-14,.cls-17,.cls-18,.cls-20,.cls-23,.cls-25,.cls-26,.cls-27,.cls-28{stroke-linejoin:round;}.cls-13,.cls-21{stroke-width:0.71px;}.cls-14{stroke-width:0.34px;}.cls-15{stroke-width:0.96px;}.cls-16{stroke-width:0.64px;}.cls-17{stroke-width:0.4px;}.cls-18{stroke-width:0.33px;}.cls-19{stroke-width:0.98px;}.cls-20{stroke-width:0.51px;}.cls-22{stroke-width:0.89px;}.cls-23{stroke-width:0.5px;}.cls-24{stroke-width:1.02px;}.cls-25{stroke-width:0.43px;}.cls-26{stroke-width:0.51px;}.cls-27{stroke-width:0.35px;}.cls-28{stroke-width:0.24px;}</style><clipPath id="clip-path"><path class="cls-1" d="M353.72,10.86A6.26,6.26,0,1,0,358.15,9a6.27,6.27,0,0,0-4.43,1.83"/></clipPath><clipPath id="clip-path-2"><rect class="cls-1" x="344.25" y="0.5" width="20.97" height="20.97"/></clipPath><clipPath id="clip-path-3"><path class="cls-1" d="M27.32,52a4.22,4.22,0,1,0,3-1.24,4.22,4.22,0,0,0-3,1.24"/></clipPath><clipPath id="clip-path-4"><rect class="cls-1" x="25.73" y="45.43" width="13.98" height="13.98"/></clipPath></defs><title>clix-i2c-flowers4</title><g id="Layer_2" data-name="Layer 2"><g id="flowers"><path class="cls-2" d="M59.9,107.65a3.35,3.35,0,0,1-6.7,0"/><path class="cls-2" d="M53.21,71.81a3.35,3.35,0,0,1,6.7,0"/><path class="cls-2" d="M68.41,103.57a3.35,3.35,0,0,1-5.8,3.35"/><path class="cls-2" d="M44.7,75.89a3.35,3.35,0,0,1,5.8-3.35"/><path class="cls-2" d="M73.75,95.79a3.35,3.35,0,1,1-3.35,5.8"/><path class="cls-2" d="M39.36,83.67a3.35,3.35,0,0,1,3.35-5.8"/><path class="cls-2" d="M74.48,86.39a3.35,3.35,0,1,1,0,6.69"/><path class="cls-2" d="M38.64,93.08a3.35,3.35,0,1,1,0-6.69"/><path class="cls-2" d="M70.4,77.87a3.35,3.35,0,0,1,3.35,5.8"/><path class="cls-2" d="M42.71,101.59a3.35,3.35,0,0,1-3.35-5.8"/><path class="cls-2" d="M62.61,72.54a3.35,3.35,0,0,1,5.8,3.35"/><path class="cls-2" d="M50.49,106.92a3.35,3.35,0,1,1-5.8-3.35"/><path class="cls-2" d="M55.18,113.33a4.34,4.34,0,1,1-8.42-2.09"/><path class="cls-2" d="M57.93,66.13a4.34,4.34,0,0,1,8.43,2.09"/><path class="cls-2" d="M67.17,110.86a4.34,4.34,0,0,1-8.34,2.41"/><path class="cls-2" d="M45.94,68.61a4.34,4.34,0,1,1,8.34-2.41"/><path class="cls-2" d="M76.31,102.72a4.34,4.34,0,0,1-6,6.26"/><path class="cls-2" d="M36.8,76.74a4.34,4.34,0,0,1,6-6.26"/><path class="cls-2" d="M80.15,91.1a4.34,4.34,0,1,1-2.09,8.43"/><path class="cls-2" d="M33,88.36A4.34,4.34,0,1,1,35,79.93"/><path class="cls-2" d="M77.68,79.12a4.34,4.34,0,0,1,2.41,8.34"/><path class="cls-2" d="M35.43,100.34A4.34,4.34,0,1,1,33,92"/><path class="cls-2" d="M69.55,70a4.34,4.34,0,0,1,6.25,6"/><path class="cls-2" d="M43.56,109.48a4.34,4.34,0,1,1-6.25-6"/><line class="cls-2" x1="56.55" y1="120.66" x2="56.55" y2="202.47"/><path class="cls-3" d="M57.88,77.43a1.32,1.32,0,1,1-1.32-1.32,1.32,1.32,0,0,1,1.32,1.32"/><path class="cls-3" d="M54.18,88.37a1.32,1.32,0,1,1-1.32,1.32,1.32,1.32,0,0,1,1.32-1.32"/><path class="cls-3" d="M55.34,82.74a1.32,1.32,0,1,1-1.7-.79,1.32,1.32,0,0,1,1.7.79"/><path class="cls-3" d="M60.25,96.23a1.32,1.32,0,1,1-1.69-.79,1.32,1.32,0,0,1,1.69.79"/><path class="cls-3" d="M51.91,84.31a1.32,1.32,0,1,1-1.86.16,1.32,1.32,0,0,1,1.86-.16"/><path class="cls-3" d="M62.9,93.54A1.32,1.32,0,1,1,61,93.7a1.32,1.32,0,0,1,1.86-.16"/><path class="cls-3" d="M49.72,87.39a1.32,1.32,0,1,1-1.53,1.07,1.33,1.33,0,0,1,1.53-1.07"/><path class="cls-3" d="M63.86,89.88A1.32,1.32,0,1,1,62.32,91a1.33,1.33,0,0,1,1.53-1.07"/><path class="cls-3" d="M49.36,91.15a1.32,1.32,0,1,1-.79,1.7,1.32,1.32,0,0,1,.79-1.7"/><path class="cls-3" d="M62.85,86.24a1.32,1.32,0,1,1-.79,1.69,1.32,1.32,0,0,1,.79-1.69"/><path class="cls-3" d="M50.93,94.58a1.32,1.32,0,1,1,.16,1.86,1.32,1.32,0,0,1-.16-1.86"/><path class="cls-3" d="M60.16,83.59a1.32,1.32,0,1,1,.16,1.86,1.32,1.32,0,0,1-.16-1.86"/><path class="cls-3" d="M54,96.78a1.32,1.32,0,1,1,1.07,1.53A1.32,1.32,0,0,1,54,96.78"/><path class="cls-3" d="M56.5,82.64a1.32,1.32,0,1,1,1.07,1.53,1.33,1.33,0,0,1-1.07-1.53"/><path class="cls-3" d="M57.88,102.14a1.32,1.32,0,1,1-1.32-1.32,1.32,1.32,0,0,1,1.32,1.32"/><path class="cls-3" d="M58.85,88.45a1.32,1.32,0,1,1-1.32,1.32,1.32,1.32,0,0,1,1.32-1.32"/><path class="cls-3" d="M55.16,92.07a1.32,1.32,0,1,1,1.32,1.32,1.32,1.32,0,0,1-1.32-1.32"/><path class="cls-3" d="M55.23,87.4a1.32,1.32,0,1,1,1.32,1.32,1.32,1.32,0,0,1-1.32-1.32"/><path class="cls-3" d="M51.52,78.42a1.32,1.32,0,1,1-1.81-.49,1.33,1.33,0,0,1,1.81.49"/><path class="cls-3" d="M63.88,99.83a1.32,1.32,0,1,1-1.81-.49,1.32,1.32,0,0,1,1.81.49"/><path class="cls-3" d="M46.51,82.46a1.32,1.32,0,1,1-1.81.48,1.33,1.33,0,0,1,1.81-.48"/><path class="cls-3" d="M67.92,94.82a1.32,1.32,0,1,1-1.81.48,1.32,1.32,0,0,1,1.81-.48"/><path class="cls-3" d="M44.2,88.46a1.32,1.32,0,1,1-1.32,1.32,1.32,1.32,0,0,1,1.32-1.32"/><path class="cls-3" d="M68.91,88.46a1.32,1.32,0,1,1-1.32,1.32,1.32,1.32,0,0,1,1.32-1.32"/><path class="cls-3" d="M45.19,94.82a1.32,1.32,0,1,1-.48,1.81,1.32,1.32,0,0,1,.48-1.81"/><path class="cls-3" d="M66.6,82.46a1.32,1.32,0,1,1-.48,1.81,1.33,1.33,0,0,1,.48-1.81"/><path class="cls-3" d="M49.23,99.83a1.32,1.32,0,1,1,.48,1.81,1.32,1.32,0,0,1-.48-1.81"/><path class="cls-3" d="M61.59,78.42a1.32,1.32,0,1,1,.48,1.81,1.33,1.33,0,0,1-.48-1.81"/><path class="cls-2" d="M279.31,71.9a8.47,8.47,0,0,1-16.94,0"/><path class="cls-2" d="M262.37,20.4a8.47,8.47,0,0,1,16.94,0"/><path class="cls-2" d="M292.83,62a8.47,8.47,0,1,1-13.7,10"/><path class="cls-2" d="M248.85,30.3a8.47,8.47,0,0,1,13.71-10"/><path class="cls-2" d="M297.95,46.06a8.47,8.47,0,0,1-5.23,16.11"/><path class="cls-2" d="M243.73,46.25A8.47,8.47,0,1,1,249,30.14"/><path class="cls-2" d="M292.71,30.14a8.47,8.47,0,0,1,5.23,16.11"/><path class="cls-2" d="M249,62.16a8.47,8.47,0,1,1-5.23-16.11"/><path class="cls-2" d="M279.12,20.34a8.47,8.47,0,1,1,13.7,10"/><path class="cls-2" d="M262.56,72a8.47,8.47,0,1,1-13.71-10"/><line class="cls-2" x1="270.84" y1="85.32" x2="270.84" y2="202.47"/><path class="cls-3" d="M271.83,37.43a1,1,0,1,1-1-1,1,1,0,0,1,1,1"/><path class="cls-3" d="M269,45.69a1,1,0,1,1-1,1,1,1,0,0,1,1-1"/><path class="cls-3" d="M267.33,42.63a1,1,0,1,1-1.4.12,1,1,0,0,1,1.4-.12"/><path class="cls-3" d="M275.62,49.59a1,1,0,1,1-1.4.12,1,1,0,0,1,1.4-.12"/><path class="cls-3" d="M265.41,47.78a1,1,0,1,1-.6,1.28,1,1,0,0,1,.6-1.28"/><path class="cls-3" d="M275.59,44.08a1,1,0,1,1-.6,1.28,1,1,0,0,1,.6-1.28"/><path class="cls-3" d="M268.92,52a1,1,0,1,1,.81,1.16,1,1,0,0,1-.81-1.16"/><path class="cls-3" d="M270.8,41.36a1,1,0,1,1,.81,1.15,1,1,0,0,1-.81-1.15"/><path class="cls-3" d="M271.83,56.08a1,1,0,1,1-1-1,1,1,0,0,1,1,1"/><path class="cls-3" d="M272.57,45.75a1,1,0,1,1-1,1,1,1,0,0,1,1-1"/><path class="cls-3" d="M269.78,48.48a1,1,0,1,1,1,1,1,1,0,0,1-1-1"/><path class="cls-3" d="M269.84,45a1,1,0,1,1,1,1,1,1,0,0,1-1-1"/><path class="cls-3" d="M267,38.18a1,1,0,1,1-1.36-.36,1,1,0,0,1,1.36.36"/><path class="cls-3" d="M276.36,54.33A1,1,0,1,1,275,54a1,1,0,0,1,1.36.37"/><path class="cls-3" d="M263.27,41.23a1,1,0,1,1-1.36.37,1,1,0,0,1,1.36-.37"/><path class="cls-3" d="M279.41,50.55a1,1,0,1,1-1.36.37,1,1,0,0,1,1.36-.37"/><path class="cls-3" d="M261.52,45.75a1,1,0,1,1-1,1,1,1,0,0,1,1-1"/><path class="cls-3" d="M280.16,45.75a1,1,0,1,1-1,1,1,1,0,0,1,1-1"/><path class="cls-3" d="M262.27,50.55a1,1,0,1,1-.36,1.36,1,1,0,0,1,.36-1.36"/><path class="cls-3" d="M278.41,41.23a1,1,0,1,1-.37,1.36,1,1,0,0,1,.37-1.36"/><path class="cls-3" d="M265.31,54.33a1,1,0,1,1,.37,1.36,1,1,0,0,1-.37-1.36"/><path class="cls-3" d="M274.63,38.18a1,1,0,1,1,.37,1.36,1,1,0,0,1-.37-1.36"/><path class="cls-3" d="M360.34,85.19a.64.64,0,1,1-.64-.64.64.64,0,0,1,.64.64"/><path class="cls-3" d="M358.54,90.52a.64.64,0,1,1-.64.64.64.64,0,0,1,.64-.64"/><path class="cls-3" d="M357.44,88.54a.64.64,0,1,1-.91.08.64.64,0,0,1,.91-.08"/><path class="cls-3" d="M362.79,93a.64.64,0,0,1-.83,1,.64.64,0,0,1,.83-1"/><path class="cls-3" d="M356.2,91.87a.64.64,0,1,1-.39.82.64.64,0,0,1,.39-.82"/><path class="cls-3" d="M362.76,89.48a.64.64,0,1,1-.39.83.65.65,0,0,1,.39-.83"/><path class="cls-3" d="M358.46,94.61a.64.64,0,1,1,.52.74.64.64,0,0,1-.52-.74"/><path class="cls-3" d="M359.67,87.73a.64.64,0,1,1,.52.74.64.64,0,0,1-.52-.74"/><path class="cls-3" d="M360.34,97.22a.64.64,0,1,1-.64-.64.64.64,0,0,1,.64.64"/><path class="cls-3" d="M360.82,90.55a.64.64,0,1,1-.64.64.64.64,0,0,1,.64-.64"/><path class="cls-3" d="M359,92.32a.64.64,0,1,1,.64.64.64.64,0,0,1-.64-.64"/><path class="cls-3" d="M359.06,90a.64.64,0,1,1,.64.64.64.64,0,0,1-.64-.64"/><path class="cls-3" d="M357.25,85.67a.64.64,0,1,1-1.12.64.64.64,0,0,1,1.12-.64"/><path class="cls-3" d="M363.27,96.09a.64.64,0,1,1-1.12.64.64.64,0,0,1,1.12-.64"/><path class="cls-3" d="M354.81,87.64a.64.64,0,1,1-.88.24.64.64,0,0,1,.88-.24"/><path class="cls-3" d="M365.23,93.66a.64.64,0,1,1-.88.23.64.64,0,0,1,.88-.23"/><path class="cls-3" d="M353.69,90.56a.64.64,0,1,1-.64.64.64.64,0,0,1,.64-.64"/><path class="cls-3" d="M365.72,90.56a.64.64,0,1,1-.64.64.64.64,0,0,1,.64-.64"/><path class="cls-3" d="M354.17,93.66a.64.64,0,1,1-.24.88.64.64,0,0,1,.24-.88"/><path class="cls-3" d="M364.59,87.64a.64.64,0,1,1-.24.88.64.64,0,0,1,.24-.88"/><path class="cls-3" d="M356.14,96.09a.64.64,0,1,1,.23.88.64.64,0,0,1-.23-.88"/><path class="cls-3" d="M362.15,85.67a.64.64,0,0,1,1.12.64.64.64,0,1,1-1.12-.64"/><path class="cls-4" d="M352.17,6.47a3.28,3.28,0,0,1,0-4.64"/><path class="cls-4" d="M344.77,9.22a3.28,3.28,0,0,1,4.64,0"/><path class="cls-4" d="M358.76,6.63a4.57,4.57,0,0,1,6.47,6.47"/><path class="cls-4" d="M356,22.37a4.58,4.58,0,1,1-6.47-6.47"/><g class="cls-5"><g class="cls-6"><g class="cls-7"><circle class="cls-8" cx="356.21" cy="13.35" r="7.56" transform="translate(94.89 255.79) rotate(-45)"/><circle class="cls-8" cx="354.35" cy="11.48" r="7.56" transform="translate(95.63 253.89) rotate(-44.99)"/><circle class="cls-8" cx="352.36" cy="9.5" r="7.56" transform="translate(96.53 251.99) rotate(-45.01)"/></g><rect class="cls-1" x="344.25" y="0.5" width="20.97" height="20.97"/></g><path class="cls-1" d="M353.72,10.86A6.26,6.26,0,1,0,358.15,9a6.27,6.27,0,0,0-4.43,1.83"/></g><circle class="cls-4" cx="351.43" cy="8.55" r="3.27"/><path class="cls-9" d="M36.26,51a2.22,2.22,0,0,1,3.14,0"/><path class="cls-9" d="M34.4,46a2.22,2.22,0,0,1,0,3.14"/><path class="cls-9" d="M36.15,55.42a3.09,3.09,0,0,1-4.37,4.36"/><path class="cls-9" d="M25.53,53.53a3.09,3.09,0,0,1,4.36-4.36"/><g class="cls-5"><g class="cls-10"><g class="cls-11"><circle class="cls-12" cx="31.62" cy="53.7" r="5.1" transform="translate(-28.71 38.07) rotate(-44.98)"/><circle class="cls-12" cx="32.88" cy="52.44" r="5.1" transform="translate(-27.44 38.59) rotate(-44.98)"/><circle class="cls-12" cx="34.22" cy="51.1" r="5.1" transform="translate(-26.11 39.17) rotate(-45.01)"/></g><rect class="cls-1" x="25.73" y="45.43" width="13.98" height="13.98"/></g><path class="cls-1" d="M27.32,52a4.22,4.22,0,1,0,3-1.24,4.22,4.22,0,0,0-3,1.24"/></g><circle class="cls-9" cx="34.86" cy="50.47" r="2.21"/><path class="cls-2" d="M74.72,131.15a18,18,0,0,0-18,18"/><path class="cls-13" d="M77.57,153.51a18,18,0,0,1-18,18A18,18,0,0,1,77.57,153.51Z"/><line class="cls-13" x1="77.57" y1="153.51" x2="59.59" y2="171.49"/><line class="cls-13" x1="72.47" y1="158.61" x2="72.47" y2="154.63"/><line class="cls-13" x1="72.47" y1="158.61" x2="76.46" y2="158.61"/><line class="cls-13" x1="68.34" y1="162.73" x2="68.34" y2="156.39"/><line class="cls-13" x1="68.34" y1="162.73" x2="74.72" y2="162.73"/><line class="cls-13" x1="64.29" y1="166.78" x2="64.29" y2="159.65"/><line class="cls-13" x1="64.29" y1="166.78" x2="71.46" y2="166.78"/><path class="cls-13" d="M36.53,133.12a18,18,0,0,1,18,18A18,18,0,0,1,36.53,133.12Z"/><line class="cls-13" x1="36.53" y1="133.12" x2="54.51" y2="151.09"/><line class="cls-13" x1="41.63" y1="138.22" x2="37.66" y2="138.22"/><line class="cls-13" x1="41.63" y1="138.22" x2="41.63" y2="134.22"/><line class="cls-13" x1="45.75" y1="142.34" x2="39.41" y2="142.34"/><line class="cls-13" x1="45.75" y1="142.34" x2="45.75" y2="135.97"/><line class="cls-13" x1="49.81" y1="146.4" x2="42.67" y2="146.4"/><line class="cls-13" x1="49.81" y1="146.4" x2="49.81" y2="139.22"/><path class="cls-13" d="M310.25,108.59a36.08,36.08,0,0,1-36.08,36.08A36.08,36.08,0,0,1,310.25,108.59Z"/><line class="cls-13" x1="310.25" y1="108.59" x2="274.17" y2="144.67"/><line class="cls-13" x1="300.01" y1="118.83" x2="300.01" y2="110.85"/><line class="cls-13" x1="300.01" y1="118.83" x2="308.04" y2="118.83"/><line class="cls-13" x1="291.74" y1="127.09" x2="291.74" y2="114.37"/><line class="cls-13" x1="291.74" y1="127.09" x2="304.53" y2="127.09"/><line class="cls-13" x1="283.59" y1="135.23" x2="283.59" y2="120.91"/><line class="cls-13" x1="283.59" y1="135.23" x2="297.99" y2="135.23"/><path class="cls-13" d="M249.58,97.47a18,18,0,0,1,18,18A18,18,0,0,1,249.58,97.47Z"/><line class="cls-13" x1="249.58" y1="97.47" x2="267.55" y2="115.44"/><line class="cls-13" x1="254.68" y1="102.57" x2="250.7" y2="102.57"/><line class="cls-13" x1="254.68" y1="102.57" x2="254.68" y2="98.57"/><line class="cls-13" x1="258.79" y1="106.69" x2="252.45" y2="106.69"/><line class="cls-13" x1="258.79" y1="106.69" x2="258.79" y2="100.31"/><line class="cls-13" x1="262.85" y1="110.75" x2="255.71" y2="110.75"/><line class="cls-13" x1="262.85" y1="110.75" x2="262.85" y2="103.57"/><path class="cls-14" d="M78.51,121.1A8.52,8.52,0,0,1,70,129.62,8.52,8.52,0,0,1,78.51,121.1Z"/><line class="cls-14" x1="78.51" y1="121.1" x2="69.99" y2="129.62"/><line class="cls-14" x1="76.09" y1="123.52" x2="76.09" y2="121.63"/><line class="cls-14" x1="76.09" y1="123.52" x2="77.99" y2="123.52"/><line class="cls-14" x1="74.14" y1="125.47" x2="74.14" y2="122.46"/><line class="cls-14" x1="74.14" y1="125.47" x2="77.16" y2="125.47"/><line class="cls-14" x1="72.22" y1="127.39" x2="72.22" y2="124.01"/><line class="cls-14" x1="72.22" y1="127.39" x2="75.62" y2="127.39"/><path class="cls-14" d="M71.46,133.56A8.52,8.52,0,0,1,80,142.09,8.52,8.52,0,0,1,71.46,133.56Z"/><line class="cls-14" x1="71.46" y1="133.56" x2="79.98" y2="142.09"/><line class="cls-14" x1="73.88" y1="135.98" x2="71.99" y2="135.98"/><line class="cls-14" x1="73.88" y1="135.98" x2="73.88" y2="134.09"/><line class="cls-14" x1="75.83" y1="137.94" x2="72.83" y2="137.94"/><line class="cls-14" x1="75.83" y1="137.94" x2="75.83" y2="134.91"/><line class="cls-14" x1="77.76" y1="139.86" x2="74.37" y2="139.86"/><line class="cls-14" x1="77.76" y1="139.86" x2="77.76" y2="136.46"/><path class="cls-15" d="M161.36,162.83a18,18,0,0,0-18,18"/><path class="cls-14" d="M165.14,152.78a8.53,8.53,0,0,1-8.52,8.52A8.52,8.52,0,0,1,165.14,152.78Z"/><line class="cls-14" x1="165.14" y1="152.78" x2="156.62" y2="161.3"/><line class="cls-14" x1="162.72" y1="155.2" x2="162.72" y2="153.31"/><line class="cls-14" x1="162.72" y1="155.2" x2="164.62" y2="155.2"/><line class="cls-14" x1="160.77" y1="157.15" x2="160.77" y2="154.14"/><line class="cls-14" x1="160.77" y1="157.15" x2="163.79" y2="157.15"/><line class="cls-14" x1="158.84" y1="159.07" x2="158.84" y2="155.69"/><line class="cls-14" x1="158.84" y1="159.07" x2="162.25" y2="159.07"/><path class="cls-14" d="M158.09,165.24a8.52,8.52,0,0,1,8.52,8.53A8.52,8.52,0,0,1,158.09,165.24Z"/><line class="cls-14" x1="158.09" y1="165.24" x2="166.61" y2="173.77"/><line class="cls-14" x1="160.51" y1="167.66" x2="158.62" y2="167.66"/><line class="cls-14" x1="160.51" y1="167.66" x2="160.51" y2="165.77"/><line class="cls-14" x1="162.46" y1="169.62" x2="159.45" y2="169.62"/><line class="cls-14" x1="162.46" y1="169.62" x2="162.46" y2="166.6"/><line class="cls-14" x1="164.38" y1="171.54" x2="161" y2="171.54"/><line class="cls-14" x1="164.38" y1="171.54" x2="164.38" y2="168.14"/><path class="cls-16" d="M106.46,153.18a1.5,1.5,0,1,1-3,0"/><path class="cls-16" d="M103.47,137.14a1.5,1.5,0,1,1,3,0"/><path class="cls-16" d="M110.27,151.35a1.5,1.5,0,1,1-2.59,1.5"/><path class="cls-16" d="M99.66,139a1.5,1.5,0,0,1,2.59-1.5"/><path class="cls-16" d="M112.66,147.87a1.5,1.5,0,1,1-1.5,2.59"/><path class="cls-16" d="M97.27,142.44a1.5,1.5,0,0,1,1.5-2.59"/><path class="cls-16" d="M113,143.66a1.5,1.5,0,0,1,0,3"/><path class="cls-16" d="M96.95,146.66a1.5,1.5,0,1,1,0-3"/><path class="cls-16" d="M111.16,139.85a1.5,1.5,0,0,1,1.5,2.59"/><path class="cls-16" d="M98.77,150.46a1.5,1.5,0,0,1-1.5-2.59"/><path class="cls-16" d="M107.67,137.46a1.5,1.5,0,0,1,2.59,1.5"/><path class="cls-16" d="M102.25,152.85a1.5,1.5,0,1,1-2.59-1.5"/><path class="cls-16" d="M104.35,155.72a1.94,1.94,0,0,1-3.77-.93"/><path class="cls-16" d="M105.58,134.6a1.94,1.94,0,1,1,3.77.93"/><path class="cls-16" d="M109.71,154.61a1.94,1.94,0,1,1-3.73,1.08"/><path class="cls-16" d="M100.21,135.71a1.94,1.94,0,0,1,3.73-1.08"/><path class="cls-16" d="M113.8,151a1.94,1.94,0,0,1-2.69,2.8"/><path class="cls-16" d="M96.12,139.35a1.94,1.94,0,0,1,2.69-2.8"/><path class="cls-16" d="M115.52,145.77a1.94,1.94,0,1,1-.93,3.77"/><path class="cls-16" d="M94.4,144.54a1.94,1.94,0,0,1,.93-3.77"/><path class="cls-16" d="M114.41,140.41a1.94,1.94,0,1,1,1.08,3.73"/><path class="cls-16" d="M95.51,149.91a1.94,1.94,0,0,1-1.08-3.73"/><path class="cls-16" d="M110.78,136.32a1.94,1.94,0,1,1,2.8,2.69"/><path class="cls-16" d="M99.15,154a1.94,1.94,0,0,1-2.8-2.69"/><line class="cls-15" x1="105.28" y1="159.92" x2="105.28" y2="202.47"/><path class="cls-3" d="M105.55,139.65a.59.59,0,1,1-.59-.59.59.59,0,0,1,.59.59"/><path class="cls-3" d="M103.9,144.55a.59.59,0,1,1-.59.59.59.59,0,0,1,.59-.59"/><path class="cls-3" d="M104.42,142a.59.59,0,1,1-.76-.35.59.59,0,0,1,.76.35"/><path class="cls-3" d="M106.62,148.07a.59.59,0,1,1-1.11.41.59.59,0,0,1,1.11-.41"/><path class="cls-3" d="M102.88,142.73a.59.59,0,1,1-.83.07.59.59,0,0,1,.83-.07"/><path class="cls-3" d="M107.8,146.86a.59.59,0,1,1-.83.07.6.6,0,0,1,.83-.07"/><path class="cls-3" d="M101.9,144.11a.59.59,0,1,1-.69.48.59.59,0,0,1,.69-.48"/><path class="cls-3" d="M108.23,145.23a.59.59,0,1,1-.69.48.6.6,0,0,1,.69-.48"/><path class="cls-3" d="M101.74,145.79a.59.59,0,1,1-.36.76.59.59,0,0,1,.36-.76"/><path class="cls-3" d="M107.78,143.6a.59.59,0,0,1,.76.36.59.59,0,1,1-.76-.36"/><path class="cls-3" d="M102.44,147.33a.59.59,0,0,1,.83-.07.59.59,0,1,1-.76.91.59.59,0,0,1-.07-.83"/><path class="cls-3" d="M106.58,142.41a.59.59,0,1,1,.07.83.6.6,0,0,1-.07-.83"/><path class="cls-3" d="M103.82,148.31a.6.6,0,0,1,.69-.48.59.59,0,0,1,.48.69.59.59,0,1,1-1.17-.21"/><path class="cls-3" d="M104.94,142a.6.6,0,0,1,.69-.48.59.59,0,0,1,.48.69.59.59,0,1,1-1.17-.21"/><path class="cls-3" d="M105.55,150.71a.59.59,0,1,1-.59-.59.59.59,0,0,1,.59.59"/><path class="cls-3" d="M106,144.58a.59.59,0,1,1-.59.59.59.59,0,0,1,.59-.59"/><path class="cls-3" d="M104.34,146.21a.59.59,0,1,1,.59.59.59.59,0,0,1-.59-.59"/><path class="cls-3" d="M104.37,144.11a.59.59,0,1,1,.59.59.59.59,0,0,1-.59-.59"/><path class="cls-3" d="M102.71,140.1a.59.59,0,1,1-.81-.22.59.59,0,0,1,.81.22"/><path class="cls-3" d="M108.24,149.68a.59.59,0,1,1-.81-.22.59.59,0,0,1,.81.22"/><path class="cls-3" d="M100.47,141.9a.59.59,0,1,1-.81.22.59.59,0,0,1,.81-.22"/><path class="cls-3" d="M110,147.43a.59.59,0,1,1-.81.22.59.59,0,0,1,.81-.22"/><path class="cls-3" d="M99.43,144.59a.59.59,0,1,1-.59.59.59.59,0,0,1,.59-.59"/><path class="cls-3" d="M110.5,144.59a.59.59,0,1,1-.59.59.59.59,0,0,1,.59-.59"/><path class="cls-3" d="M99.88,147.43a.59.59,0,1,1-.22.81.59.59,0,0,1,.22-.81"/><path class="cls-3" d="M109.46,141.9a.59.59,0,1,1-.22.81.59.59,0,0,1,.22-.81"/><path class="cls-3" d="M101.68,149.68a.59.59,0,1,1,.22.81.59.59,0,0,1-.22-.81"/><path class="cls-3" d="M107.21,140.1a.59.59,0,1,1,.22.81.59.59,0,0,1-.22-.81"/><path class="cls-17" d="M117.56,163.3a10.22,10.22,0,0,1-10.22,10.22A10.22,10.22,0,0,1,117.56,163.3Z"/><line class="cls-17" x1="117.56" y1="163.3" x2="107.34" y2="173.52"/><line class="cls-17" x1="114.66" y1="166.2" x2="114.66" y2="163.94"/><line class="cls-17" x1="114.66" y1="166.2" x2="116.93" y2="166.2"/><line class="cls-17" x1="112.31" y1="168.54" x2="112.31" y2="164.94"/><line class="cls-17" x1="112.31" y1="168.54" x2="115.94" y2="168.54"/><line class="cls-17" x1="110.01" y1="170.85" x2="110.01" y2="166.79"/><line class="cls-17" x1="110.01" y1="170.85" x2="114.08" y2="170.85"/><path class="cls-18" d="M95.45,174.67a8.45,8.45,0,0,1,8.45,8.45A8.45,8.45,0,0,1,95.45,174.67Z"/><line class="cls-18" x1="95.45" y1="174.67" x2="103.9" y2="183.12"/><line class="cls-18" x1="97.85" y1="177.06" x2="95.97" y2="177.06"/><line class="cls-18" x1="97.85" y1="177.06" x2="97.85" y2="175.18"/><line class="cls-18" x1="99.78" y1="179" x2="96.8" y2="179"/><line class="cls-18" x1="99.78" y1="179" x2="99.78" y2="176"/><line class="cls-18" x1="101.69" y1="180.91" x2="98.33" y2="180.91"/><line class="cls-18" x1="101.69" y1="180.91" x2="101.69" y2="177.54"/><path class="cls-19" d="M145.33,123.22a2.3,2.3,0,0,1-4.61,0"/><path class="cls-19" d="M140.72,98.57a2.3,2.3,0,1,1,4.61,0"/><path class="cls-19" d="M151.18,120.42a2.3,2.3,0,1,1-4,2.3"/><path class="cls-19" d="M134.86,101.37a2.3,2.3,0,0,1,4-2.3"/><path class="cls-19" d="M154.85,115.06a2.3,2.3,0,1,1-2.3,4"/><path class="cls-19" d="M131.19,106.73a2.3,2.3,0,1,1,2.3-4"/><path class="cls-19" d="M155.35,108.59a2.3,2.3,0,0,1,0,4.61"/><path class="cls-19" d="M130.7,113.2a2.3,2.3,0,0,1,0-4.61"/><path class="cls-19" d="M152.55,102.74a2.3,2.3,0,1,1,2.3,4"/><path class="cls-19" d="M133.5,119.05a2.3,2.3,0,0,1-2.3-4"/><path class="cls-19" d="M147.19,99.07a2.3,2.3,0,0,1,4,2.3"/><path class="cls-19" d="M138.85,122.72a2.3,2.3,0,1,1-4-2.3"/><path class="cls-19" d="M142.08,127.13a3,3,0,1,1-5.8-1.43"/><path class="cls-19" d="M144,94.66a3,3,0,0,1,5.8,1.43"/><path class="cls-19" d="M150.32,125.43a3,3,0,0,1-5.74,1.66"/><path class="cls-19" d="M135.72,96.36a3,3,0,0,1,5.74-1.65"/><path class="cls-19" d="M156.61,119.83a3,3,0,1,1-4.14,4.3"/><path class="cls-19" d="M129.44,102a3,3,0,1,1,4.14-4.3"/><path class="cls-19" d="M159.26,111.84a3,3,0,0,1-1.43,5.8"/><path class="cls-19" d="M126.79,110a3,3,0,0,1,1.43-5.8"/><path class="cls-19" d="M157.55,103.6a3,3,0,1,1,1.66,5.74"/><path class="cls-19" d="M128.49,118.2a3,3,0,0,1-1.65-5.74"/><path class="cls-19" d="M152,97.31a3,3,0,0,1,4.3,4.14"/><path class="cls-19" d="M134.09,124.48a3,3,0,1,1-4.3-4.14"/><line class="cls-15" x1="143.34" y1="132.13" x2="143.34" y2="202.47"/><path class="cls-3" d="M143.93,102.43a.91.91,0,1,1-.91-.91.91.91,0,0,1,.91.91"/><path class="cls-3" d="M141.39,110a.91.91,0,1,1-.91.91.91.91,0,0,1,.91-.91"/><path class="cls-3" d="M142.19,106.09a.91.91,0,1,1-1.17-.54.91.91,0,0,1,1.17.54"/><path class="cls-3" d="M145.56,115.36a.91.91,0,1,1-1.16-.54.91.91,0,0,1,1.16.54"/><path class="cls-3" d="M139.82,107.17a.91.91,0,1,1-1.28.11.91.91,0,0,1,1.28-.11"/><path class="cls-3" d="M147.39,113.52a.91.91,0,1,1-1.28.11.91.91,0,0,1,1.28-.11"/><path class="cls-3" d="M138.32,109.28a.91.91,0,1,1-1.05.74.91.91,0,0,1,1.05-.74"/><path class="cls-3" d="M148,111a.91.91,0,1,1-1.05.74A.91.91,0,0,1,148,111"/><path class="cls-3" d="M138.07,111.87a.91.91,0,1,1-.54,1.17.91.91,0,0,1,.54-1.17"/><path class="cls-3" d="M147.35,108.49a.91.91,0,1,1-.54,1.17.91.91,0,0,1,.54-1.17"/><path class="cls-3" d="M139.15,114.23a.91.91,0,1,1,.11,1.28.91.91,0,0,1-.11-1.28"/><path class="cls-3" d="M145.5,106.67a.91.91,0,1,1,.11,1.28.9.9,0,0,1-.11-1.28"/><path class="cls-3" d="M141.27,115.74a.91.91,0,1,1,.74,1.05.9.9,0,0,1-.74-1.05"/><path class="cls-3" d="M143,106a.91.91,0,1,1,.74,1.05A.91.91,0,0,1,143,106"/><path class="cls-3" d="M143.93,119.43a.91.91,0,1,1-.91-.91.91.91,0,0,1,.91.91"/><path class="cls-3" d="M144.6,110a.91.91,0,1,1-.91.91.91.91,0,0,1,.91-.91"/><path class="cls-3" d="M142.06,112.5a.91.91,0,1,1,.91.91.91.91,0,0,1-.91-.91"/><path class="cls-3" d="M142.11,109.29a.91.91,0,1,1,.91.91.91.91,0,0,1-.91-.91"/><path class="cls-3" d="M139.56,103.11a.91.91,0,1,1-1.24-.33.9.9,0,0,1,1.24.33"/><path class="cls-3" d="M148.06,117.84a.91.91,0,1,1-1.24-.33.91.91,0,0,1,1.24.33"/><path class="cls-3" d="M136.11,105.9a.91.91,0,1,1-1.24.33.91.91,0,0,1,1.24-.33"/><path class="cls-3" d="M150.84,114.39a.91.91,0,1,1-1.24.34.92.92,0,0,1,1.24-.34"/><path class="cls-3" d="M134.52,110a.91.91,0,1,1-.91.91.91.91,0,0,1,.91-.91"/><path class="cls-3" d="M151.52,110a.91.91,0,1,1-.91.91.91.91,0,0,1,.91-.91"/><path class="cls-3" d="M135.2,114.39a.91.91,0,1,1-.33,1.24.91.91,0,0,1,.33-1.24"/><path class="cls-3" d="M149.93,105.9a.91.91,0,1,1-.33,1.24.91.91,0,0,1,.33-1.24"/><path class="cls-3" d="M138,117.84a.91.91,0,1,1,.33,1.24.91.91,0,0,1-.33-1.24"/><path class="cls-3" d="M146.48,103.11a.91.91,0,1,1,.33,1.24.91.91,0,0,1-.33-1.24"/><path class="cls-17" d="M130.59,137.49a10.22,10.22,0,0,0,10.22,10.22A10.22,10.22,0,0,0,130.59,137.49Z"/><line class="cls-17" x1="130.59" y1="137.49" x2="140.81" y2="147.7"/><line class="cls-17" x1="133.49" y1="140.39" x2="133.49" y2="138.13"/><line class="cls-17" x1="133.49" y1="140.39" x2="131.22" y2="140.39"/><line class="cls-17" x1="135.84" y1="142.73" x2="135.84" y2="139.12"/><line class="cls-17" x1="135.84" y1="142.73" x2="132.21" y2="142.73"/><line class="cls-17" x1="138.14" y1="145.03" x2="138.14" y2="140.98"/><line class="cls-17" x1="138.14" y1="145.03" x2="134.07" y2="145.03"/><path class="cls-18" d="M154.15,134.74a8.45,8.45,0,0,0-8.45,8.45A8.45,8.45,0,0,0,154.15,134.74Z"/><line class="cls-18" x1="154.15" y1="134.74" x2="145.7" y2="143.19"/><line class="cls-18" x1="151.75" y1="137.14" x2="153.62" y2="137.14"/><line class="cls-18" x1="151.75" y1="137.14" x2="151.75" y2="135.26"/><line class="cls-18" x1="149.81" y1="139.08" x2="152.79" y2="139.08"/><line class="cls-18" x1="149.81" y1="139.08" x2="149.81" y2="136.08"/><line class="cls-18" x1="147.91" y1="140.98" x2="151.26" y2="140.98"/><line class="cls-18" x1="147.91" y1="140.98" x2="147.91" y2="137.61"/><path class="cls-20" d="M127.57,151.36a12.9,12.9,0,0,0,12.9,12.9A12.9,12.9,0,0,0,127.57,151.36Z"/><line class="cls-20" x1="127.57" y1="151.36" x2="140.48" y2="164.26"/><line class="cls-20" x1="131.23" y1="155.02" x2="131.23" y2="152.17"/><line class="cls-20" x1="131.23" y1="155.02" x2="128.37" y2="155.02"/><line class="cls-20" x1="134.19" y1="157.97" x2="134.19" y2="153.42"/><line class="cls-20" x1="134.19" y1="157.97" x2="129.62" y2="157.97"/><line class="cls-20" x1="137.11" y1="160.88" x2="137.11" y2="155.76"/><line class="cls-20" x1="137.11" y1="160.88" x2="131.96" y2="160.88"/><path class="cls-2" d="M241.84,133.12a29,29,0,0,1,29,29"/><path class="cls-21" d="M288.75,173.48a29,29,0,0,1,29,29"/><path class="cls-21" d="M317.75,202.47a16.83,16.83,0,0,1,16.83-16.83"/><path class="cls-22" d="M.44,184.42A18.06,18.06,0,0,1,18.5,202.47"/><path class="cls-22" d="M18.5,202.47A10.49,10.49,0,0,1,29,192"/><path class="cls-21" d="M187.87,173.48a29,29,0,0,1,29,29"/><path class="cls-21" d="M216.87,202.47a16.84,16.84,0,0,1,16.84-16.83"/><path class="cls-21" d="M243.81,175.34a27.13,27.13,0,0,0-27.13,27.13"/><path class="cls-21" d="M216.68,202.47a10.76,10.76,0,0,0-10.76-10.76"/><path class="cls-23" d="M235.93,118.73a12.54,12.54,0,0,0,12.54,12.54A12.54,12.54,0,0,0,235.93,118.73Z"/><line class="cls-23" x1="235.93" y1="118.73" x2="248.47" y2="131.26"/><line class="cls-23" x1="239.49" y1="122.28" x2="239.49" y2="119.51"/><line class="cls-23" x1="239.49" y1="122.28" x2="236.7" y2="122.28"/><line class="cls-23" x1="242.36" y1="125.16" x2="242.36" y2="120.73"/><line class="cls-23" x1="242.36" y1="125.16" x2="237.92" y2="125.16"/><line class="cls-23" x1="245.19" y1="127.98" x2="245.19" y2="123.01"/><line class="cls-23" x1="245.19" y1="127.98" x2="240.19" y2="127.98"/><path class="cls-14" d="M244.2,146.18a8.52,8.52,0,0,0,8.53-8.52A8.52,8.52,0,0,0,244.2,146.18Z"/><line class="cls-14" x1="244.2" y1="146.18" x2="252.73" y2="137.66"/><line class="cls-14" x1="246.62" y1="143.76" x2="244.74" y2="143.76"/><line class="cls-14" x1="246.62" y1="143.76" x2="246.62" y2="145.66"/><line class="cls-14" x1="248.58" y1="141.81" x2="245.57" y2="141.81"/><line class="cls-14" x1="248.58" y1="141.81" x2="248.58" y2="144.83"/><line class="cls-14" x1="250.5" y1="139.89" x2="247.11" y2="139.89"/><line class="cls-14" x1="250.5" y1="139.89" x2="250.5" y2="143.29"/><path class="cls-24" d="M365.75,109.29a6,6,0,1,1-12.09,0"/><path class="cls-24" d="M353.66,72.54a6,6,0,0,1,12.09,0"/><path class="cls-24" d="M375.39,102.23a6,6,0,1,1-9.78,7.1"/><path class="cls-24" d="M344,79.6a6,6,0,0,1,9.78-7.11"/><path class="cls-24" d="M379,90.85a6,6,0,1,1-3.74,11.49"/><path class="cls-24" d="M340.36,91a6,6,0,0,1,3.74-11.5"/><path class="cls-24" d="M375.31,79.49A6,6,0,0,1,379,91"/><path class="cls-24" d="M344.09,102.35a6,6,0,0,1-3.74-11.5"/><path class="cls-24" d="M365.61,72.5a6,6,0,1,1,9.78,7.11"/><path class="cls-24" d="M353.79,109.33a6,6,0,1,1-9.78-7.1"/><line class="cls-24" x1="359.7" y1="118.87" x2="359.7" y2="202.47"/><path class="cls-25" d="M386.42,121.8a10.88,10.88,0,0,1-10.87,10.88A10.88,10.88,0,0,1,386.42,121.8Z"/><line class="cls-25" x1="386.42" y1="121.8" x2="375.54" y2="132.68"/><line class="cls-25" x1="383.33" y1="124.89" x2="383.33" y2="122.48"/><line class="cls-25" x1="383.33" y1="124.89" x2="385.75" y2="124.89"/><line class="cls-25" x1="380.84" y1="127.38" x2="380.84" y2="123.54"/><line class="cls-25" x1="380.84" y1="127.38" x2="384.69" y2="127.38"/><line class="cls-25" x1="378.38" y1="129.83" x2="378.38" y2="125.51"/><line class="cls-25" x1="378.38" y1="129.83" x2="382.72" y2="129.83"/><path class="cls-25" d="M375.54,137.05a10.88,10.88,0,0,1,10.88,10.88A10.88,10.88,0,0,1,375.54,137.05Z"/><line class="cls-25" x1="375.54" y1="137.05" x2="386.42" y2="147.93"/><line class="cls-25" x1="378.63" y1="140.14" x2="376.22" y2="140.14"/><line class="cls-25" x1="378.63" y1="140.14" x2="378.63" y2="137.72"/><line class="cls-25" x1="381.12" y1="142.63" x2="377.28" y2="142.63"/><line class="cls-25" x1="381.12" y1="142.63" x2="381.12" y2="138.77"/><line class="cls-25" x1="383.58" y1="145.09" x2="379.25" y2="145.09"/><line class="cls-25" x1="383.58" y1="145.09" x2="383.58" y2="140.75"/><path class="cls-26" d="M344.53,127.54a12.83,12.83,0,0,1,12.83,12.83A12.83,12.83,0,0,1,344.53,127.54Z"/><line class="cls-26" x1="344.53" y1="127.54" x2="357.36" y2="140.37"/><line class="cls-26" x1="348.17" y1="131.18" x2="345.33" y2="131.18"/><line class="cls-26" x1="348.17" y1="131.18" x2="348.17" y2="128.32"/><line class="cls-26" x1="351.1" y1="134.12" x2="346.58" y2="134.12"/><line class="cls-26" x1="351.1" y1="134.12" x2="351.1" y2="129.57"/><line class="cls-26" x1="354" y1="137.02" x2="348.91" y2="137.02"/><line class="cls-26" x1="354" y1="137.02" x2="354" y2="131.89"/><path class="cls-21" d="M339,153a20.69,20.69,0,0,1,20.69,20.69"/><path class="cls-21" d="M359.7,155.39a20.69,20.69,0,0,1,20.69-20.69"/><path class="cls-27" d="M337.27,143.14a8.94,8.94,0,0,0,8.95,8.94A9,9,0,0,0,337.27,143.14Z"/><line class="cls-27" x1="337.27" y1="143.14" x2="346.22" y2="152.09"/><line class="cls-27" x1="339.81" y1="145.68" x2="339.81" y2="143.7"/><line class="cls-27" x1="339.81" y1="145.68" x2="337.82" y2="145.68"/><line class="cls-27" x1="341.86" y1="147.73" x2="341.86" y2="144.57"/><line class="cls-27" x1="341.86" y1="147.73" x2="338.69" y2="147.73"/><line class="cls-27" x1="343.89" y1="149.75" x2="343.89" y2="146.2"/><line class="cls-27" x1="343.89" y1="149.75" x2="340.31" y2="149.75"/><path class="cls-28" d="M340.69,162.3a6.08,6.08,0,0,0,6.08-6.08A6.08,6.08,0,0,0,340.69,162.3Z"/><line class="cls-28" x1="340.69" y1="162.3" x2="346.78" y2="156.22"/><line class="cls-28" x1="342.42" y1="160.58" x2="341.07" y2="160.58"/><line class="cls-28" x1="342.42" y1="160.58" x2="342.42" y2="161.93"/><line class="cls-28" x1="343.81" y1="159.18" x2="341.67" y2="159.18"/><line class="cls-28" x1="343.81" y1="159.18" x2="343.81" y2="161.34"/><line class="cls-28" x1="345.18" y1="157.81" x2="342.77" y2="157.81"/><line class="cls-28" x1="345.18" y1="157.81" x2="345.18" y2="160.24"/></g><g id="flowers_copy" data-name="flowers copy"><path class="cls-15" d="M508.36,162.83a18,18,0,0,0-18,18"/><path class="cls-14" d="M512.14,152.78a8.53,8.53,0,0,1-8.52,8.52A8.52,8.52,0,0,1,512.14,152.78Z"/><line class="cls-14" x1="512.14" y1="152.78" x2="503.62" y2="161.3"/><line class="cls-14" x1="509.72" y1="155.2" x2="509.72" y2="153.31"/><line class="cls-14" x1="509.72" y1="155.2" x2="511.62" y2="155.2"/><line class="cls-14" x1="507.77" y1="157.15" x2="507.77" y2="154.14"/><line class="cls-14" x1="507.77" y1="157.15" x2="510.79" y2="157.15"/><line class="cls-14" x1="505.84" y1="159.07" x2="505.84" y2="155.69"/><line class="cls-14" x1="505.84" y1="159.07" x2="509.25" y2="159.07"/><path class="cls-14" d="M505.09,165.24a8.52,8.52,0,0,1,8.52,8.53A8.52,8.52,0,0,1,505.09,165.24Z"/><line class="cls-14" x1="505.09" y1="165.24" x2="513.61" y2="173.77"/><line class="cls-14" x1="507.51" y1="167.66" x2="505.62" y2="167.66"/><line class="cls-14" x1="507.51" y1="167.66" x2="507.51" y2="165.77"/><line class="cls-14" x1="509.46" y1="169.62" x2="506.45" y2="169.62"/><line class="cls-14" x1="509.46" y1="169.62" x2="509.46" y2="166.6"/><line class="cls-14" x1="511.38" y1="171.54" x2="508" y2="171.54"/><line class="cls-14" x1="511.38" y1="171.54" x2="511.38" y2="168.14"/><path class="cls-16" d="M453.46,153.18a1.5,1.5,0,0,1-3,0"/><path class="cls-16" d="M450.47,137.14a1.5,1.5,0,0,1,3,0"/><path class="cls-16" d="M457.27,151.35a1.5,1.5,0,1,1-2.59,1.5"/><path class="cls-16" d="M446.66,139a1.5,1.5,0,0,1,2.59-1.5"/><path class="cls-16" d="M459.66,147.87a1.5,1.5,0,1,1-1.5,2.59"/><path class="cls-16" d="M444.27,142.44a1.5,1.5,0,0,1,1.5-2.59"/><path class="cls-16" d="M460,143.66a1.5,1.5,0,0,1,0,3"/><path class="cls-16" d="M443.95,146.66a1.5,1.5,0,0,1,0-3"/><path class="cls-16" d="M458.16,139.85a1.5,1.5,0,0,1,1.5,2.59"/><path class="cls-16" d="M445.77,150.46a1.5,1.5,0,0,1-1.5-2.59"/><path class="cls-16" d="M454.67,137.46a1.5,1.5,0,0,1,2.59,1.5"/><path class="cls-16" d="M449.25,152.85a1.5,1.5,0,1,1-2.59-1.5"/><path class="cls-16" d="M451.35,155.72a1.94,1.94,0,0,1-3.77-.93"/><path class="cls-16" d="M452.58,134.6a1.94,1.94,0,1,1,3.77.93"/><path class="cls-16" d="M456.71,154.61a1.94,1.94,0,1,1-3.73,1.08"/><path class="cls-16" d="M447.21,135.71a1.94,1.94,0,0,1,3.73-1.08"/><path class="cls-16" d="M460.8,151a1.94,1.94,0,0,1-2.69,2.8"/><path class="cls-16" d="M443.12,139.35a1.94,1.94,0,0,1,2.69-2.8"/><path class="cls-16" d="M462.52,145.77a1.94,1.94,0,1,1-.93,3.77"/><path class="cls-16" d="M441.4,144.54a1.94,1.94,0,0,1,.93-3.77"/><path class="cls-16" d="M461.41,140.41a1.94,1.94,0,1,1,1.08,3.73"/><path class="cls-16" d="M442.51,149.91a1.94,1.94,0,0,1-1.08-3.73"/><path class="cls-16" d="M457.78,136.32a1.94,1.94,0,1,1,2.8,2.69"/><path class="cls-16" d="M446.15,154a1.94,1.94,0,1,1-2.8-2.69"/><line class="cls-15" x1="452.28" y1="159.92" x2="452.28" y2="202.47"/><path class="cls-3" d="M452.55,139.65a.59.59,0,1,1-.59-.59.59.59,0,0,1,.59.59"/><path class="cls-3" d="M450.9,144.55a.59.59,0,1,1-.59.59.59.59,0,0,1,.59-.59"/><path class="cls-3" d="M451.42,142a.59.59,0,1,1-.76-.35.59.59,0,0,1,.76.35"/><path class="cls-3" d="M453.62,148.07a.59.59,0,1,1-1.11.41.59.59,0,0,1,1.11-.41"/><path class="cls-3" d="M449.88,142.73a.59.59,0,1,1-.83.07.59.59,0,0,1,.83-.07"/><path class="cls-3" d="M454.8,146.86a.59.59,0,1,1-.83.07.6.6,0,0,1,.83-.07"/><path class="cls-3" d="M448.9,144.11a.59.59,0,1,1-.69.48.59.59,0,0,1,.69-.48"/><path class="cls-3" d="M455.23,145.23a.59.59,0,1,1-.69.48.6.6,0,0,1,.69-.48"/><path class="cls-3" d="M448.74,145.79a.59.59,0,1,1-.36.76.59.59,0,0,1,.36-.76"/><path class="cls-3" d="M454.78,143.6a.59.59,0,0,1,.76.36.59.59,0,1,1-.76-.36"/><path class="cls-3" d="M449.44,147.33a.59.59,0,0,1,.83-.07.59.59,0,1,1-.76.91.59.59,0,0,1-.07-.83"/><path class="cls-3" d="M453.58,142.41a.59.59,0,1,1,.07.83.6.6,0,0,1-.07-.83"/><path class="cls-3" d="M450.82,148.31a.6.6,0,0,1,.69-.48.59.59,0,0,1,.48.69.59.59,0,1,1-1.17-.21"/><path class="cls-3" d="M451.94,142a.6.6,0,0,1,.69-.48.59.59,0,0,1,.48.69.59.59,0,1,1-1.17-.21"/><path class="cls-3" d="M452.55,150.71a.59.59,0,1,1-.59-.59.59.59,0,0,1,.59.59"/><path class="cls-3" d="M453,144.58a.59.59,0,1,1-.59.59.59.59,0,0,1,.59-.59"/><path class="cls-3" d="M451.34,146.21a.59.59,0,1,1,.59.59.59.59,0,0,1-.59-.59"/><path class="cls-3" d="M451.37,144.11a.59.59,0,1,1,.59.59.59.59,0,0,1-.59-.59"/><path class="cls-3" d="M449.71,140.1a.59.59,0,1,1-.81-.22.59.59,0,0,1,.81.22"/><path class="cls-3" d="M455.24,149.68a.59.59,0,1,1-.81-.22.59.59,0,0,1,.81.22"/><path class="cls-3" d="M447.47,141.9a.59.59,0,1,1-.81.22.59.59,0,0,1,.81-.22"/><path class="cls-3" d="M457,147.43a.59.59,0,1,1-.81.22.59.59,0,0,1,.81-.22"/><path class="cls-3" d="M446.43,144.59a.59.59,0,1,1-.59.59.59.59,0,0,1,.59-.59"/><path class="cls-3" d="M457.5,144.59a.59.59,0,1,1-.59.59.59.59,0,0,1,.59-.59"/><path class="cls-3" d="M446.88,147.43a.59.59,0,1,1-.22.81.59.59,0,0,1,.22-.81"/><path class="cls-3" d="M456.46,141.9a.59.59,0,1,1-.22.81.59.59,0,0,1,.22-.81"/><path class="cls-3" d="M448.68,149.68a.59.59,0,1,1,.22.81.59.59,0,0,1-.22-.81"/><path class="cls-3" d="M454.21,140.1a.59.59,0,1,1,.22.81.59.59,0,0,1-.22-.81"/><path class="cls-17" d="M464.56,163.3a10.22,10.22,0,0,1-10.22,10.22A10.22,10.22,0,0,1,464.56,163.3Z"/><line class="cls-17" x1="464.56" y1="163.3" x2="454.34" y2="173.52"/><line class="cls-17" x1="461.66" y1="166.2" x2="461.66" y2="163.94"/><line class="cls-17" x1="461.66" y1="166.2" x2="463.93" y2="166.2"/><line class="cls-17" x1="459.31" y1="168.54" x2="459.31" y2="164.94"/><line class="cls-17" x1="459.31" y1="168.54" x2="462.94" y2="168.54"/><line class="cls-17" x1="457.01" y1="170.85" x2="457.01" y2="166.79"/><line class="cls-17" x1="457.01" y1="170.85" x2="461.08" y2="170.85"/><path class="cls-18" d="M442.45,174.67a8.45,8.45,0,0,1,8.45,8.45A8.45,8.45,0,0,1,442.45,174.67Z"/><line class="cls-18" x1="442.45" y1="174.67" x2="450.9" y2="183.12"/><line class="cls-18" x1="444.85" y1="177.06" x2="442.97" y2="177.06"/><line class="cls-18" x1="444.85" y1="177.06" x2="444.85" y2="175.18"/><line class="cls-18" x1="446.78" y1="179" x2="443.8" y2="179"/><line class="cls-18" x1="446.78" y1="179" x2="446.78" y2="176"/><line class="cls-18" x1="448.69" y1="180.91" x2="445.33" y2="180.91"/><line class="cls-18" x1="448.69" y1="180.91" x2="448.69" y2="177.54"/><path class="cls-19" d="M492.33,123.22a2.3,2.3,0,0,1-4.61,0"/><path class="cls-19" d="M487.72,98.57a2.3,2.3,0,1,1,4.61,0"/><path class="cls-19" d="M498.18,120.42a2.3,2.3,0,1,1-4,2.3"/><path class="cls-19" d="M481.86,101.37a2.3,2.3,0,0,1,4-2.3"/><path class="cls-19" d="M501.85,115.06a2.3,2.3,0,1,1-2.3,4"/><path class="cls-19" d="M478.19,106.73a2.3,2.3,0,1,1,2.3-4"/><path class="cls-19" d="M502.35,108.59a2.3,2.3,0,0,1,0,4.61"/><path class="cls-19" d="M477.7,113.2a2.3,2.3,0,0,1,0-4.61"/><path class="cls-19" d="M499.55,102.74a2.3,2.3,0,1,1,2.3,4"/><path class="cls-19" d="M480.5,119.05a2.3,2.3,0,0,1-2.3-4"/><path class="cls-19" d="M494.19,99.07a2.3,2.3,0,0,1,4,2.3"/><path class="cls-19" d="M485.85,122.72a2.3,2.3,0,1,1-4-2.3"/><path class="cls-19" d="M489.08,127.13a3,3,0,1,1-5.8-1.43"/><path class="cls-19" d="M491,94.66a3,3,0,0,1,5.8,1.43"/><path class="cls-19" d="M497.32,125.43a3,3,0,0,1-5.74,1.66"/><path class="cls-19" d="M482.72,96.36a3,3,0,0,1,5.74-1.65"/><path class="cls-19" d="M503.61,119.83a3,3,0,1,1-4.14,4.3"/><path class="cls-19" d="M476.44,102a3,3,0,1,1,4.14-4.3"/><path class="cls-19" d="M506.26,111.84a3,3,0,0,1-1.43,5.8"/><path class="cls-19" d="M473.79,110a3,3,0,0,1,1.43-5.8"/><path class="cls-19" d="M504.55,103.6a3,3,0,1,1,1.66,5.74"/><path class="cls-19" d="M475.49,118.2a3,3,0,0,1-1.65-5.74"/><path class="cls-19" d="M499,97.31a3,3,0,0,1,4.3,4.14"/><path class="cls-19" d="M481.09,124.48a3,3,0,1,1-4.3-4.14"/><line class="cls-15" x1="490.34" y1="132.13" x2="490.34" y2="202.47"/><path class="cls-3" d="M490.93,102.43a.91.91,0,1,1-.91-.91.91.91,0,0,1,.91.91"/><path class="cls-3" d="M488.39,110a.91.91,0,1,1-.91.91.91.91,0,0,1,.91-.91"/><path class="cls-3" d="M489.19,106.09a.91.91,0,1,1-1.17-.54.91.91,0,0,1,1.17.54"/><path class="cls-3" d="M492.56,115.36a.91.91,0,1,1-1.16-.54.91.91,0,0,1,1.16.54"/><path class="cls-3" d="M486.82,107.17a.91.91,0,1,1-1.28.11.91.91,0,0,1,1.28-.11"/><path class="cls-3" d="M494.39,113.52a.91.91,0,1,1-1.28.11.91.91,0,0,1,1.28-.11"/><path class="cls-3" d="M485.32,109.28a.91.91,0,1,1-1.05.74.91.91,0,0,1,1.05-.74"/><path class="cls-3" d="M495,111a.91.91,0,1,1-1.05.74A.91.91,0,0,1,495,111"/><path class="cls-3" d="M485.07,111.87a.91.91,0,1,1-.54,1.17.91.91,0,0,1,.54-1.17"/><path class="cls-3" d="M494.35,108.49a.91.91,0,1,1-.54,1.17.91.91,0,0,1,.54-1.17"/><path class="cls-3" d="M486.15,114.23a.91.91,0,1,1,.11,1.28.91.91,0,0,1-.11-1.28"/><path class="cls-3" d="M492.5,106.67a.91.91,0,1,1,.11,1.28.9.9,0,0,1-.11-1.28"/><path class="cls-3" d="M488.27,115.74a.91.91,0,1,1,.74,1.05.9.9,0,0,1-.74-1.05"/><path class="cls-3" d="M490,106a.91.91,0,1,1,.74,1.05A.91.91,0,0,1,490,106"/><path class="cls-3" d="M490.93,119.43a.91.91,0,1,1-.91-.91.91.91,0,0,1,.91.91"/><path class="cls-3" d="M491.6,110a.91.91,0,1,1-.91.91.91.91,0,0,1,.91-.91"/><path class="cls-3" d="M489.06,112.5a.91.91,0,1,1,.91.91.91.91,0,0,1-.91-.91"/><path class="cls-3" d="M489.11,109.29a.91.91,0,1,1,.91.91.91.91,0,0,1-.91-.91"/><path class="cls-3" d="M486.56,103.11a.91.91,0,1,1-1.24-.33.9.9,0,0,1,1.24.33"/><path class="cls-3" d="M495.06,117.84a.91.91,0,1,1-1.24-.33.91.91,0,0,1,1.24.33"/><path class="cls-3" d="M483.11,105.9a.91.91,0,1,1-1.24.33.91.91,0,0,1,1.24-.33"/><path class="cls-3" d="M497.84,114.39a.91.91,0,1,1-1.24.34.92.92,0,0,1,1.24-.34"/><path class="cls-3" d="M481.52,110a.91.91,0,1,1-.91.91.91.91,0,0,1,.91-.91"/><path class="cls-3" d="M498.52,110a.91.91,0,1,1-.91.91.91.91,0,0,1,.91-.91"/><path class="cls-3" d="M482.2,114.39a.91.91,0,1,1-.33,1.24.91.91,0,0,1,.33-1.24"/><path class="cls-3" d="M496.93,105.9a.91.91,0,1,1-.33,1.24.91.91,0,0,1,.33-1.24"/><path class="cls-3" d="M485,117.84a.91.91,0,1,1,.33,1.24.91.91,0,0,1-.33-1.24"/><path class="cls-3" d="M493.48,103.11a.91.91,0,1,1,.33,1.24.91.91,0,0,1-.33-1.24"/><path class="cls-17" d="M477.59,137.49a10.22,10.22,0,0,0,10.22,10.22A10.22,10.22,0,0,0,477.59,137.49Z"/><line class="cls-17" x1="477.59" y1="137.49" x2="487.81" y2="147.7"/><line class="cls-17" x1="480.49" y1="140.39" x2="480.49" y2="138.13"/><line class="cls-17" x1="480.49" y1="140.39" x2="478.22" y2="140.39"/><line class="cls-17" x1="482.84" y1="142.73" x2="482.84" y2="139.12"/><line class="cls-17" x1="482.84" y1="142.73" x2="479.21" y2="142.73"/><line class="cls-17" x1="485.14" y1="145.03" x2="485.14" y2="140.98"/><line class="cls-17" x1="485.14" y1="145.03" x2="481.07" y2="145.03"/><path class="cls-18" d="M501.15,134.74a8.45,8.45,0,0,0-8.45,8.45A8.45,8.45,0,0,0,501.15,134.74Z"/><line class="cls-18" x1="501.15" y1="134.74" x2="492.7" y2="143.19"/><line class="cls-18" x1="498.75" y1="137.14" x2="500.62" y2="137.14"/><line class="cls-18" x1="498.75" y1="137.14" x2="498.75" y2="135.26"/><line class="cls-18" x1="496.81" y1="139.08" x2="499.79" y2="139.08"/><line class="cls-18" x1="496.81" y1="139.08" x2="496.81" y2="136.08"/><line class="cls-18" x1="494.91" y1="140.98" x2="498.26" y2="140.98"/><line class="cls-18" x1="494.91" y1="140.98" x2="494.91" y2="137.61"/><path class="cls-20" d="M474.57,151.36a12.9,12.9,0,0,0,12.9,12.9A12.9,12.9,0,0,0,474.57,151.36Z"/><line class="cls-20" x1="474.57" y1="151.36" x2="487.48" y2="164.26"/><line class="cls-20" x1="478.23" y1="155.02" x2="478.23" y2="152.17"/><line class="cls-20" x1="478.23" y1="155.02" x2="475.37" y2="155.02"/><line class="cls-20" x1="481.19" y1="157.97" x2="481.19" y2="153.42"/><line class="cls-20" x1="481.19" y1="157.97" x2="476.62" y2="157.97"/><line class="cls-20" x1="484.11" y1="160.88" x2="484.11" y2="155.76"/><line class="cls-20" x1="484.11" y1="160.88" x2="478.96" y2="160.88"/><path class="cls-22" d="M397.44,184.42a18.06,18.06,0,0,1,18.05,18.05"/><path class="cls-22" d="M415.5,202.47A10.49,10.49,0,0,1,426,192"/></g></g></svg>