<?xml version="1.0" encoding="utf-8"?>
<!-- Generator: Adobe Illustrator 20.0.0, SVG Export Plug-In . SVG Version: 6.00 Build 0)  -->
<svg version="1.1" id="Layer_1" xmlns="http://www.w3.org/2000/svg" xmlns:xlink="http://www.w3.org/1999/xlink" x="0px" y="0px"
	 viewBox="0 0 143 32" style="enable-background:new 0 0 143 32;" xml:space="preserve">
<style type="text/css">
	.st0{fill:#A61680;}
	.st1{fill:#E5007E;}
	.st2{fill:#573D8F;}
	.st3{fill:#5387C6;}
</style>
<g>
	<path class="st0" d="M14.5,0.1c3,0,9,1,9,4.7c0,1.5-1,2.8-2.6,2.8c-1.7,0-2.9-1.5-6.4-1.5c-5.2,0-7.8,4.4-7.8,9.5
		c0,5,2.7,9.2,7.8,9.2c3.5,0,4.9-1.8,6.6-1.8c1.9,0,2.8,1.9,2.8,2.8c0,4-6.3,4.9-9.4,4.9C6,30.8,0.1,24.1,0.1,15.5
		C0.1,6.8,6,0.1,14.5,0.1z"/>
	<path class="st0" d="M26.8,3.6c0-2.1,1.3-3.3,3.1-3.3c1.8,0,3.1,1.2,3.1,3.3v21h7.4c2.1,0,3,1.6,3,3c-0.1,1.4-1.2,2.8-3,2.8H30.1
		c-2,0-3.3-1.3-3.3-3.4V3.6z"/>
	<path class="st0" d="M46.3,3.6c0-2.1,1.3-3.3,3.1-3.3c1.8,0,3.1,1.2,3.1,3.3v23.7c0,2.1-1.3,3.3-3.1,3.3c-1.8,0-3.1-1.2-3.1-3.3
		V3.6z"/>
	<g>
		<path class="st1" d="M78.3,17.7c-0.4,0-0.7-0.1-1-0.4c-0.5-0.5-0.5-1.4,0-2c0.5-0.5,0.7-1.1,0.7-1.7c0-0.7-0.3-1.3-0.7-1.7
			c-0.5-0.5-1.1-0.7-1.7-0.7c-0.7,0-1.3,0.3-1.7,0.7l-5.2,5.2c-0.5,0.5-1.4,0.5-2,0c-0.5-0.5-0.5-1.4,0-2l5.2-5.2
			c1-1,2.3-1.5,3.7-1.5c1.4,0,2.7,0.5,3.7,1.5c1,1,1.5,2.3,1.5,3.7c0,1.4-0.5,2.7-1.5,3.7C79,17.6,78.7,17.7,78.3,17.7z"/>
	</g>
	<g>
		<path class="st2" d="M65.3,29.1c-1.4,0-2.7-0.5-3.7-1.5c-2-2-2-5.3,0-7.4c0.5-0.5,1.4-0.5,2,0c0.5,0.5,0.5,1.4,0,2
			c-1,1-1,2.5,0,3.5c0.5,0.5,1.1,0.7,1.7,0.7c0.7,0,1.3-0.3,1.7-0.7l5.2-5.2c0.5-0.5,1.4-0.5,2,0c0.5,0.5,0.5,1.4,0,2L69,27.6
			C68,28.6,66.7,29.1,65.3,29.1z"/>
	</g>
	<g>
		<path class="st0" d="M75.6,29.1c-1.4,0-2.7-0.5-3.7-1.5c-0.5-0.5-0.5-1.4,0-2c0.5-0.5,1.4-0.5,2,0c0.5,0.5,1.1,0.7,1.7,0.7
			c0.7,0,1.3-0.3,1.7-0.7c1-1,1-2.5,0-3.5L72.1,17c-0.5-0.5-0.5-1.4,0-2c0.5-0.5,1.4-0.5,2,0l5.2,5.2c2,2,2,5.3,0,7.4
			C78.3,28.6,77,29.1,75.6,29.1z"/>
	</g>
	<g>
		<path class="st3" d="M67.9,23c-0.4,0-0.7-0.1-1-0.4l-5.3-5.3c-1-1-1.5-2.3-1.5-3.7c0-1.4,0.5-2.7,1.5-3.7c1-1,2.3-1.5,3.7-1.5
			c1.4,0,2.7,0.5,3.7,1.5c0.5,0.5,0.5,1.4,0,2c-0.5,0.5-1.4,0.5-2,0c-0.5-0.5-1.1-0.7-1.7-0.7c-0.7,0-1.3,0.3-1.7,0.7
			c-0.5,0.5-0.7,1.1-0.7,1.7c0,0.7,0.3,1.3,0.7,1.7l5.3,5.3c0.5,0.5,0.5,1.4,0,2C68.6,22.9,68.3,23,67.9,23z"/>
	</g>
	<circle class="st3" cx="70.4" cy="7.3" r="1.6"/>
	<circle class="st0" cx="70.4" cy="30.3" r="1.6"/>
	<circle class="st1" cx="81.9" cy="18.8" r="1.6"/>
	<circle class="st2" cx="59" cy="18.8" r="1.6"/>
	<g>
		<path class="st3" d="M92.8,11L92.8,11c0-1.4,1.1-2.6,2.6-2.6c0.7,0,1.2,0.2,1.7,0.5c0.1,0.1,0.2,0.2,0.2,0.4
			c0,0.3-0.2,0.5-0.5,0.5c-0.1,0-0.2-0.1-0.3-0.1c-0.3-0.2-0.6-0.4-1-0.4c-0.8,0-1.4,0.7-1.4,1.5v0c0,0.8,0.6,1.6,1.4,1.6
			c0.5,0,0.8-0.1,1.1-0.4c0.1-0.1,0.2-0.1,0.3-0.1c0.3,0,0.5,0.2,0.5,0.5c0,0.2-0.1,0.3-0.2,0.4c-0.4,0.4-1,0.6-1.8,0.6
			C93.9,13.5,92.8,12.4,92.8,11z"/>
		<path class="st3" d="M98.3,11L98.3,11c0-1.4,1.1-2.6,2.6-2.6c1.5,0,2.6,1.1,2.6,2.5v0c0,1.4-1.1,2.6-2.6,2.6
			C99.4,13.5,98.3,12.4,98.3,11z M102.5,11L102.5,11c0-0.9-0.6-1.6-1.5-1.6c-0.9,0-1.5,0.7-1.5,1.5v0c0,0.8,0.6,1.6,1.5,1.6
			C101.8,12.5,102.5,11.8,102.5,11z"/>
		<path class="st3" d="M105,9c0-0.3,0.2-0.5,0.5-0.5h0.1c0.3,0,0.4,0.1,0.6,0.3l2.1,2.8V9c0-0.3,0.2-0.5,0.5-0.5
			c0.3,0,0.5,0.2,0.5,0.5v3.9c0,0.3-0.2,0.5-0.5,0.5h0c-0.3,0-0.4-0.1-0.6-0.3l-2.2-2.9V13c0,0.3-0.2,0.5-0.5,0.5
			c-0.3,0-0.5-0.2-0.5-0.5V9z"/>
		<path class="st3" d="M111.1,9c0-0.3,0.2-0.5,0.5-0.5h0.1c0.3,0,0.4,0.1,0.6,0.3l2.1,2.8V9c0-0.3,0.2-0.5,0.5-0.5
			c0.3,0,0.5,0.2,0.5,0.5v3.9c0,0.3-0.2,0.5-0.5,0.5h0c-0.3,0-0.4-0.1-0.6-0.3l-2.2-2.9V13c0,0.3-0.2,0.5-0.5,0.5
			c-0.3,0-0.5-0.2-0.5-0.5V9z"/>
		<path class="st3" d="M117.2,12.9V9.1c0-0.3,0.2-0.5,0.5-0.5h2.7c0.3,0,0.5,0.2,0.5,0.5c0,0.3-0.2,0.5-0.5,0.5h-2.2v1h1.9
			c0.3,0,0.5,0.2,0.5,0.5c0,0.3-0.2,0.5-0.5,0.5h-1.9v1h2.2c0.3,0,0.5,0.2,0.5,0.5c0,0.3-0.2,0.5-0.5,0.5h-2.8
			C117.4,13.5,117.2,13.2,117.2,12.9z"/>
		<path class="st3" d="M122.1,11L122.1,11c0-1.4,1.1-2.6,2.6-2.6c0.7,0,1.2,0.2,1.7,0.5c0.1,0.1,0.2,0.2,0.2,0.4
			c0,0.3-0.2,0.5-0.5,0.5c-0.1,0-0.2-0.1-0.3-0.1c-0.3-0.2-0.6-0.4-1-0.4c-0.8,0-1.4,0.7-1.4,1.5v0c0,0.8,0.6,1.6,1.4,1.6
			c0.5,0,0.8-0.1,1.1-0.4c0.1-0.1,0.2-0.1,0.3-0.1c0.3,0,0.5,0.2,0.5,0.5c0,0.2-0.1,0.3-0.2,0.4c-0.4,0.4-1,0.6-1.8,0.6
			C123.2,13.5,122.1,12.4,122.1,11z"/>
		<path class="st3" d="M129.2,9.5h-1c-0.3,0-0.5-0.2-0.5-0.5c0-0.3,0.2-0.5,0.5-0.5h3.2c0.3,0,0.5,0.2,0.5,0.5
			c0,0.3-0.2,0.5-0.5,0.5h-1V13c0,0.3-0.2,0.5-0.5,0.5c-0.3,0-0.5-0.2-0.5-0.5V9.5z"/>
		<path class="st3" d="M133.1,12.9V9.1c0-0.3,0.2-0.5,0.5-0.5h2.7c0.3,0,0.5,0.2,0.5,0.5c0,0.3-0.2,0.5-0.5,0.5h-2.2v1h1.9
			c0.3,0,0.5,0.2,0.5,0.5c0,0.3-0.2,0.5-0.5,0.5h-1.9v1h2.2c0.3,0,0.5,0.2,0.5,0.5c0,0.3-0.2,0.5-0.5,0.5h-2.8
			C133.3,13.5,133.1,13.2,133.1,12.9z"/>
		<path class="st3" d="M138.3,9.1c0-0.3,0.2-0.5,0.5-0.5h1.4c1.6,0,2.6,1.1,2.6,2.5v0c0,1.4-1.1,2.5-2.6,2.5h-1.4
			c-0.3,0-0.5-0.2-0.5-0.5V9.1z M140.2,12.5c0.9,0,1.5-0.6,1.5-1.5v0c0-0.9-0.6-1.5-1.5-1.5h-0.8v3H140.2z"/>
		<path class="st3" d="M93,17.4c0-0.3,0.2-0.5,0.5-0.5c0.3,0,0.5,0.2,0.5,0.5v3.5h2c0.3,0,0.5,0.2,0.5,0.5c0,0.3-0.2,0.5-0.5,0.5
			h-2.6c-0.3,0-0.5-0.2-0.5-0.5V17.4z"/>
		<path class="st3" d="M97.9,21.3v-3.9c0-0.3,0.2-0.5,0.5-0.5h2.7c0.3,0,0.5,0.2,0.5,0.5c0,0.3-0.2,0.5-0.5,0.5h-2.2v1h1.9
			c0.3,0,0.5,0.2,0.5,0.5c0,0.3-0.2,0.5-0.5,0.5h-1.9v1h2.2c0.3,0,0.5,0.2,0.5,0.5c0,0.3-0.2,0.5-0.5,0.5h-2.8
			C98.1,21.9,97.9,21.6,97.9,21.3z"/>
		<path class="st3" d="M102.8,21.2l1.7-3.9c0.1-0.3,0.3-0.4,0.6-0.4h0.1c0.3,0,0.5,0.2,0.6,0.4l1.7,3.9c0,0.1,0.1,0.1,0.1,0.2
			c0,0.3-0.2,0.5-0.5,0.5c-0.3,0-0.4-0.1-0.5-0.4l-0.3-0.8h-2.2l-0.3,0.8c-0.1,0.2-0.3,0.3-0.5,0.3c-0.3,0-0.5-0.2-0.5-0.5
			C102.7,21.3,102.8,21.3,102.8,21.2z M105.8,19.8l-0.7-1.6l-0.7,1.6H105.8z"/>
		<path class="st3" d="M109,17.5c0-0.3,0.2-0.5,0.5-0.5h1.7c0.6,0,1.1,0.2,1.4,0.5c0.3,0.3,0.4,0.7,0.4,1.1v0c0,0.8-0.4,1.3-1,1.5
			l0.8,0.9c0.1,0.1,0.2,0.2,0.2,0.4c0,0.3-0.3,0.5-0.5,0.5c-0.2,0-0.4-0.1-0.5-0.3l-1.1-1.3H110v1.1c0,0.3-0.2,0.5-0.5,0.5
			c-0.3,0-0.5-0.2-0.5-0.5V17.5z M111.1,19.3c0.5,0,0.8-0.3,0.8-0.7v0c0-0.5-0.3-0.7-0.9-0.7H110v1.4H111.1z"/>
		<path class="st3" d="M114.5,17.5c0-0.3,0.2-0.5,0.5-0.5h0.1c0.3,0,0.4,0.1,0.6,0.3l2.1,2.8v-2.5c0-0.3,0.2-0.5,0.5-0.5
			c0.3,0,0.5,0.2,0.5,0.5v3.9c0,0.3-0.2,0.5-0.5,0.5h0c-0.3,0-0.4-0.1-0.6-0.3l-2.2-2.9v2.6c0,0.3-0.2,0.5-0.5,0.5
			c-0.3,0-0.5-0.2-0.5-0.5V17.5z"/>
		<path class="st3" d="M120.6,17.4c0-0.3,0.2-0.5,0.5-0.5c0.3,0,0.5,0.2,0.5,0.5v3.9c0,0.3-0.2,0.5-0.5,0.5c-0.3,0-0.5-0.2-0.5-0.5
			V17.4z"/>
		<path class="st3" d="M123.4,17.5c0-0.3,0.2-0.5,0.5-0.5h0.1c0.3,0,0.4,0.1,0.6,0.3l2.1,2.8v-2.5c0-0.3,0.2-0.5,0.5-0.5
			c0.3,0,0.5,0.2,0.5,0.5v3.9c0,0.3-0.2,0.5-0.5,0.5h0c-0.3,0-0.4-0.1-0.6-0.3l-2.2-2.9v2.6c0,0.3-0.2,0.5-0.5,0.5
			c-0.3,0-0.5-0.2-0.5-0.5V17.5z"/>
		<path class="st3" d="M129.3,19.4L129.3,19.4c0-1.4,1.1-2.6,2.6-2.6c0.7,0,1.2,0.2,1.7,0.5c0.1,0.1,0.2,0.2,0.2,0.4
			c0,0.3-0.2,0.5-0.5,0.5c-0.2,0-0.3-0.1-0.3-0.1c-0.3-0.2-0.6-0.3-1.1-0.3c-0.8,0-1.4,0.7-1.4,1.5v0c0,0.9,0.6,1.6,1.5,1.6
			c0.4,0,0.7-0.1,1-0.3V20h-0.7c-0.3,0-0.5-0.2-0.5-0.5c0-0.3,0.2-0.5,0.5-0.5h1.2c0.3,0,0.5,0.2,0.5,0.5v1.2c0,0.3-0.1,0.5-0.4,0.7
			c-0.4,0.2-1,0.5-1.7,0.5C130.3,22,129.3,20.9,129.3,19.4z"/>
		<path class="st3" d="M93.1,25.9c0-0.3,0.2-0.5,0.5-0.5c0.3,0,0.5,0.2,0.5,0.5v3.9c0,0.3-0.2,0.5-0.5,0.5c-0.3,0-0.5-0.2-0.5-0.5
			V25.9z"/>
		<path class="st3" d="M95.9,25.9c0-0.3,0.2-0.5,0.5-0.5h0.1c0.3,0,0.4,0.1,0.6,0.3l2.1,2.8v-2.5c0-0.3,0.2-0.5,0.5-0.5
			c0.3,0,0.5,0.2,0.5,0.5v3.9c0,0.3-0.2,0.5-0.5,0.5h0c-0.3,0-0.4-0.1-0.6-0.3l-2.2-2.9v2.6c0,0.3-0.2,0.5-0.5,0.5
			c-0.3,0-0.5-0.2-0.5-0.5V25.9z"/>
		<path class="st3" d="M102,25.9c0-0.3,0.2-0.5,0.5-0.5c0.3,0,0.5,0.2,0.5,0.5v3.9c0,0.3-0.2,0.5-0.5,0.5c-0.3,0-0.5-0.2-0.5-0.5
			V25.9z"/>
		<path class="st3" d="M105.9,26.4h-1c-0.3,0-0.5-0.2-0.5-0.5c0-0.3,0.2-0.5,0.5-0.5h3.2c0.3,0,0.5,0.2,0.5,0.5
			c0,0.3-0.2,0.5-0.5,0.5h-1v3.4c0,0.3-0.2,0.5-0.5,0.5c-0.3,0-0.5-0.2-0.5-0.5V26.4z"/>
		<path class="st3" d="M109.9,25.9c0-0.3,0.2-0.5,0.5-0.5c0.3,0,0.5,0.2,0.5,0.5v3.9c0,0.3-0.2,0.5-0.5,0.5c-0.3,0-0.5-0.2-0.5-0.5
			V25.9z"/>
		<path class="st3" d="M112.4,29.6l1.7-3.9c0.1-0.3,0.3-0.4,0.6-0.4h0.1c0.3,0,0.5,0.2,0.6,0.4l1.7,3.9c0,0.1,0.1,0.1,0.1,0.2
			c0,0.3-0.2,0.5-0.5,0.5c-0.3,0-0.4-0.1-0.5-0.4l-0.3-0.8h-2.2l-0.3,0.8c-0.1,0.2-0.3,0.3-0.5,0.3c-0.3,0-0.5-0.2-0.5-0.5
			C112.3,29.8,112.4,29.7,112.4,29.6z M115.5,28.3l-0.7-1.6l-0.7,1.6H115.5z"/>
		<path class="st3" d="M119.2,26.4h-1c-0.3,0-0.5-0.2-0.5-0.5c0-0.3,0.2-0.5,0.5-0.5h3.2c0.3,0,0.5,0.2,0.5,0.5
			c0,0.3-0.2,0.5-0.5,0.5h-1v3.4c0,0.3-0.2,0.5-0.5,0.5c-0.3,0-0.5-0.2-0.5-0.5V26.4z"/>
		<path class="st3" d="M123.1,25.9c0-0.3,0.2-0.5,0.5-0.5c0.3,0,0.5,0.2,0.5,0.5v3.9c0,0.3-0.2,0.5-0.5,0.5c-0.3,0-0.5-0.2-0.5-0.5
			V25.9z"/>
		<path class="st3" d="M127.3,30l-1.6-3.8c0-0.1-0.1-0.2-0.1-0.3c0-0.3,0.2-0.5,0.5-0.5c0.3,0,0.5,0.2,0.6,0.4l1.2,3.2l1.2-3.2
			c0.1-0.2,0.3-0.3,0.5-0.3c0.3,0,0.5,0.2,0.5,0.5c0,0.1,0,0.2-0.1,0.2l-1.6,3.9c-0.1,0.3-0.3,0.4-0.6,0.4h-0.1
			C127.6,30.4,127.4,30.2,127.3,30z"/>
		<path class="st3" d="M131.5,29.8v-3.9c0-0.3,0.2-0.5,0.5-0.5h2.7c0.3,0,0.5,0.2,0.5,0.5c0,0.3-0.2,0.5-0.5,0.5h-2.2v1h1.9
			c0.3,0,0.5,0.2,0.5,0.5c0,0.3-0.2,0.5-0.5,0.5h-1.9v1h2.2c0.3,0,0.5,0.2,0.5,0.5c0,0.3-0.2,0.5-0.5,0.5h-2.8
			C131.8,30.3,131.5,30.1,131.5,29.8z"/>
	</g>
</g>
</svg>
