<?xml version="1.0" encoding="UTF-8" standalone="no"?>
<!-- Created with Inkscape (http://www.inkscape.org/) -->

<svg
   xmlns:dc="http://purl.org/dc/elements/1.1/"
   xmlns:cc="http://creativecommons.org/ns#"
   xmlns:rdf="http://www.w3.org/1999/02/22-rdf-syntax-ns#"
   xmlns:svg="http://www.w3.org/2000/svg"
   xmlns="http://www.w3.org/2000/svg"
   xmlns:sodipodi="http://sodipodi.sourceforge.net/DTD/sodipodi-0.dtd"
   xmlns:inkscape="http://www.inkscape.org/namespaces/inkscape"
   width="135"
   height="32"
   viewBox="0 0 35.718752 8.4666669"
   version="1.1"
   id="svg201"
   inkscape:version="0.92.3 (2405546, 2018-03-11)"
   sodipodi:docname="Footer v5.1_17.09.19.svg">
  <defs
     id="defs195">
    <clipPath
       clipPathUnits="userSpaceOnUse"
       id="clipPath3442">
      <rect
         style="fill:#000000;fill-opacity:1;stroke:none;stroke-width:0.92243534;stroke-miterlimit:4;stroke-dasharray:none;stroke-opacity:1"
         id="rect3444"
         width="20.614058"
         height="12.483703"
         x="171.99832"
         y="239.1203" />
    </clipPath>
  </defs>
  <sodipodi:namedview
     id="base"
     pagecolor="#ffffff"
     bordercolor="#666666"
     borderopacity="1.0"
     inkscape:pageopacity="0.0"
     inkscape:pageshadow="2"
     inkscape:zoom="4.2691572"
     inkscape:cx="78.663159"
     inkscape:cy="15.898634"
     inkscape:document-units="mm"
     inkscape:current-layer="layer3"
     showgrid="false"
     units="px"
     inkscape:window-width="1299"
     inkscape:window-height="713"
     inkscape:window-x="67"
     inkscape:window-y="27"
     inkscape:window-maximized="1" />
  <metadata
     id="metadata198">
    <rdf:RDF>
      <cc:Work
         rdf:about="">
        <dc:format>image/svg+xml</dc:format>
        <dc:type
           rdf:resource="http://purl.org/dc/dcmitype/StillImage" />
        <dc:title></dc:title>
        <cc:license
           rdf:resource="http://creativecommons.org/licenses/by/4.0/" />
      </cc:Work>
      <cc:License
         rdf:about="http://creativecommons.org/licenses/by/4.0/">
        <cc:permits
           rdf:resource="http://creativecommons.org/ns#Reproduction" />
        <cc:permits
           rdf:resource="http://creativecommons.org/ns#Distribution" />
        <cc:requires
           rdf:resource="http://creativecommons.org/ns#Notice" />
        <cc:requires
           rdf:resource="http://creativecommons.org/ns#Attribution" />
        <cc:permits
           rdf:resource="http://creativecommons.org/ns#DerivativeWorks" />
      </cc:License>
    </rdf:RDF>
  </metadata>
  <g
     inkscape:label="Layer 1"
     inkscape:groupmode="layer"
     id="layer1"
     transform="translate(0,-288.53332)">
    <g
       inkscape:groupmode="layer"
       id="layer3"
       inkscape:label="Layer 2">
      <g
         id="g271"
         transform="matrix(0.83343901,0,0,0.83343901,2.094262,48.53858)">
        <g
           id="g186"
           transform="matrix(0.08269073,0,0,0.08269073,-5.0945632,287.23007)">
          <g
             id="g26">
            <g
               id="g22">
              <path
                 id="path2"
                 d="m 175.199,52.36 c 0,1.192 0,2.379 0,3.788 -0.699,-1.283 -1.693,-0.739 -2.549,-0.816 -0.772,-0.07 -1.555,-0.014 -2.392,-0.014 0,0.3 0,0.53 0,0.76 0,3.045 -0.006,6.094 10e-4,9.138 0,0.684 -0.188,1.447 0.694,1.811 -0.042,0.042 -0.082,0.086 -0.123,0.129 -1.318,0 -2.634,0 -3.949,0 0.89,-0.612 0.558,-1.564 0.563,-2.383 0.027,-2.898 0.013,-5.794 0.009,-8.688 0,-0.231 0,-0.465 0,-0.758 -1.403,0 -2.751,-0.031 -4.094,0.032 -0.258,0.009 -0.501,0.378 -0.876,0.683 0,-1.284 0,-2.484 0,-3.68 0.117,0 0.237,0 0.354,0 0.051,0.526 0.385,0.634 0.791,0.634 3.48,0 6.958,-0.006 10.439,0.005 0.449,0.003 0.754,-0.166 0.896,-0.639 0.079,-0.002 0.156,-0.002 0.236,-0.002 z"
                 inkscape:connector-curvature="0"
                 style="clip-rule:evenodd;fill-rule:evenodd" />
              <path
                 id="path4"
                 d="m 143.531,52.36 c 0,1.189 0,2.377 0,3.565 -0.692,-1.023 -1.644,-0.532 -2.461,-0.594 -0.796,-0.059 -1.603,-0.014 -2.492,-0.014 0,0.262 0,0.485 0,0.711 0,3.068 -0.004,6.133 0.002,9.201 0,0.68 -0.194,1.445 0.683,1.807 -0.038,0.038 -0.074,0.08 -0.111,0.121 -1.316,0 -2.634,0 -4.145,0 1.165,-0.72 0.729,-1.792 0.745,-2.702 0.044,-2.787 0.014,-5.574 0.014,-8.365 0,-0.23 0,-0.462 0,-0.76 -1.411,0 -2.777,-0.029 -4.137,0.027 -0.24,0.01 -0.466,0.378 -0.812,0.688 0,-1.292 0,-2.49 0,-3.686 0.117,0 0.235,0 0.354,0 0.016,0.612 0.415,0.634 0.825,0.634 1.725,0 3.45,0 5.174,0 1.726,0 3.453,0.005 5.177,-0.002 0.4,-0.003 0.813,-0.012 0.832,-0.632 0.116,10e-4 0.233,10e-4 0.352,10e-4 z"
                 inkscape:connector-curvature="0"
                 style="clip-rule:evenodd;fill-rule:evenodd" />
              <path
                 id="path6"
                 d="m 118.574,52.36 c 0,1.192 0,2.379 0,3.571 -0.089,0.071 -0.179,0.141 -0.268,0.213 -0.034,-0.142 -0.026,-0.337 -0.109,-0.418 -0.179,-0.168 -0.403,-0.383 -0.612,-0.391 -1.292,-0.033 -2.583,-0.016 -3.976,-0.016 0,0.273 0,0.522 0,0.768 0,3.087 -0.003,6.177 0,9.264 0.002,0.646 -0.163,1.368 0.699,1.665 -0.04,0.045 -0.077,0.092 -0.117,0.135 -1.316,0 -2.634,0 -4.1,0 1.087,-0.748 0.683,-1.833 0.699,-2.765 0.042,-2.769 0.012,-5.535 0.012,-8.302 0,-0.231 0,-0.461 0,-0.76 -1.4,0 -2.748,-0.031 -4.092,0.029 -0.26,0.01 -0.51,0.371 -0.851,0.64 0,-1.242 0,-2.438 0,-3.633 0.08,0 0.156,0 0.236,0 0.16,0.499 0.493,0.646 0.956,0.642 1.683,-0.021 3.366,-0.008 5.045,-0.008 1.761,0 3.519,0.002 5.28,0 0.407,-0.002 0.806,-0.036 0.843,-0.634 0.119,0 0.238,0 0.355,0 z"
                 inkscape:connector-curvature="0"
                 style="clip-rule:evenodd;fill-rule:evenodd" />
              <path
                 id="path8"
                 d="m 231.939,52.36 c 0,1.192 0,2.379 0,3.556 -0.123,0.021 -0.189,0.045 -0.196,0.031 -0.364,-0.689 -0.957,-0.649 -1.566,-0.636 -1.055,0.024 -2.111,0.006 -3.253,0.006 0,0.295 0,0.544 0,0.795 0,3.001 -0.001,6.004 0.002,9.007 0.002,0.721 -0.183,1.527 0.597,2.043 -1.319,0 -2.638,0 -3.958,0 0.825,-0.591 0.573,-1.468 0.575,-2.241 0.013,-2.939 0.007,-5.878 0.007,-8.813 0,-0.235 0,-0.464 0,-0.791 -0.846,0 -1.642,0 -2.438,0 -0.332,0 -0.668,0.021 -0.998,-0.005 -0.583,-0.045 -1.12,-0.004 -1.395,0.782 -0.069,-0.047 -0.138,-0.096 -0.207,-0.141 0,-1.198 0,-2.397 0,-3.594 0.116,0 0.233,0 0.351,0 0.1,0.436 0.362,0.634 0.767,0.634 3.535,-0.002 7.072,0 10.607,-0.002 0.394,0 0.684,-0.163 0.752,-0.632 0.118,10e-4 0.238,10e-4 0.353,10e-4 z"
                 inkscape:connector-curvature="0"
                 style="clip-rule:evenodd;fill-rule:evenodd" />
              <path
                 id="path10"
                 d="m 175.976,66.998 c 0.82,-0.247 0.704,-0.92 0.704,-1.536 0.003,-3.388 0.017,-6.781 -0.007,-10.17 -0.005,-0.765 0.311,-1.67 -0.714,-2.125 0.043,-0.036 0.088,-0.074 0.134,-0.11 0.142,-0.02 0.284,-0.061 0.427,-0.061 2.842,0.003 5.687,-0.008 8.529,0.027 0.621,0.006 1.257,0.104 1.854,0.28 1.624,0.478 2.557,1.975 2.531,3.932 -0.03,2.064 -0.95,3.37 -2.742,3.877 -0.221,0.062 -0.443,0.126 -0.794,0.224 1.501,1.906 2.295,4.296 4.27,5.809 -1.569,0 -3.096,0 -4.831,0 0.984,-0.515 0.51,-1.016 0.214,-1.498 -0.786,-1.281 -1.565,-2.57 -2.385,-3.824 -0.14,-0.216 -0.457,-0.396 -0.699,-0.409 -0.838,-0.048 -1.686,-0.004 -2.527,-0.025 -0.354,-0.008 -0.49,0.115 -0.484,0.511 0.018,1.351 -0.028,2.707 0.028,4.056 0.017,0.388 0.292,0.762 0.466,1.188 -1.224,0 -2.539,0 -3.852,0 -0.041,-0.048 -0.081,-0.098 -0.122,-0.146 z m 3.513,-7.956 c 1.893,0 3.715,0.045 5.536,-0.017 1.07,-0.038 1.595,-0.716 1.602,-1.799 0.009,-1.199 -0.601,-1.86 -1.842,-1.887 -1.687,-0.037 -3.373,-0.019 -5.058,-0.019 -0.074,0 -0.144,0.038 -0.237,0.059 -0.001,1.22 -0.001,2.413 -0.001,3.663 z"
                 inkscape:connector-curvature="0"
                 style="clip-rule:evenodd;fill-rule:evenodd" />
              <path
                 id="path12"
                 d="m 244.754,54.308 c -0.445,0.971 -0.945,2.072 -1.44,3.167 -1.658,-2.332 -3.863,-2.571 -6.227,-2.138 -0.435,0.082 -0.891,0.379 -1.207,0.721 -0.655,0.703 -0.417,1.698 0.467,1.948 0.772,0.216 1.582,0.277 2.376,0.411 1.042,0.172 2.101,0.28 3.129,0.534 1.636,0.403 2.756,1.731 2.908,3.301 0.189,1.965 -0.589,3.594 -2.229,4.393 -2.495,1.214 -5.029,1.042 -7.557,0.065 -0.257,-0.098 -0.511,-0.218 -0.76,-0.337 -0.523,-0.251 -1.005,-0.669 -1.646,-0.336 -0.035,-0.042 -0.068,-0.08 -0.102,-0.118 0.456,-1.145 0.912,-2.285 1.367,-3.43 0.051,-0.004 0.101,-0.009 0.152,-0.014 0.315,1.41 1.377,1.776 2.414,2.145 1.41,0.502 2.837,0.701 4.265,0.121 0.403,-0.164 0.812,-0.46 1.09,-0.816 0.646,-0.819 0.355,-1.773 -0.605,-2.013 -0.799,-0.197 -1.623,-0.275 -2.437,-0.404 -1.007,-0.164 -2.033,-0.234 -3.016,-0.5 -1.728,-0.467 -2.571,-1.58 -2.751,-3.394 -0.164,-1.687 0.607,-3.28 2.062,-4.069 1.92,-1.047 3.94,-0.997 5.968,-0.455 0.735,0.197 1.436,0.561 2.163,0.807 0.489,0.164 0.999,0.256 1.616,0.411 z"
                 inkscape:connector-curvature="0"
                 style="clip-rule:evenodd;fill-rule:evenodd" />
              <path
                 id="path14"
                 d="m 205.972,65.982 c 0.481,-1.21 0.931,-2.34 1.396,-3.509 0.112,0.086 0.217,0.117 0.226,0.171 0.135,0.884 0.747,1.272 1.402,1.584 1.579,0.755 3.213,1.155 4.911,0.607 0.498,-0.162 1.018,-0.502 1.368,-0.917 0.664,-0.793 0.361,-1.797 -0.602,-2.008 -1.149,-0.248 -2.328,-0.355 -3.49,-0.539 -0.676,-0.106 -1.364,-0.179 -2.018,-0.38 -1.625,-0.492 -2.528,-1.617 -2.668,-3.188 -0.172,-1.919 0.531,-3.411 2.039,-4.271 1.484,-0.847 3.095,-0.968 4.697,-0.692 1.128,0.192 2.216,0.664 3.32,1.02 0.54,0.172 1.036,0.658 1.67,0.112 0.037,0.071 0.074,0.142 0.11,0.212 -0.5,1.101 -1.001,2.198 -1.482,3.257 -1.677,-2.274 -3.869,-2.526 -6.246,-2.123 -0.228,0.039 -0.454,0.145 -0.663,0.262 -0.626,0.35 -0.948,0.926 -0.869,1.528 0.099,0.756 0.66,0.93 1.201,1.019 1.547,0.256 3.108,0.415 4.653,0.7 1.19,0.22 2.248,0.767 2.892,1.982 1.224,2.318 0.197,5.142 -2.245,6.071 -2.668,1.015 -5.282,0.715 -7.836,-0.513 -0.915,-0.44 -0.911,-0.449 -1.766,-0.385 z"
                 inkscape:connector-curvature="0"
                 style="clip-rule:evenodd;fill-rule:evenodd" />
              <path
                 id="path16"
                 d="m 201.014,53.033 c 1.236,0 2.46,0 3.694,0 0.008,0.065 0.037,0.17 0.018,0.18 -0.692,0.382 -0.565,1.08 -0.565,1.727 -0.002,2.297 0.006,4.593 -0.006,6.887 -0.001,0.557 -0.052,1.111 -0.101,1.663 -0.163,1.888 -1.196,3.009 -2.775,3.495 -2.306,0.708 -4.651,0.729 -6.96,-0.011 -1.939,-0.616 -2.824,-1.924 -2.867,-4.167 -0.045,-2.314 0.02,-4.632 -0.045,-6.951 -0.025,-0.931 0.466,-2.039 -0.543,-2.808 1.31,0 2.618,0 4.133,0 -1.169,0.726 -0.751,1.794 -0.767,2.708 -0.039,2.1 -0.014,4.202 0.025,6.305 0.031,1.689 0.61,2.446 2.115,2.837 1.105,0.287 2.222,0.265 3.315,-0.058 1.202,-0.355 1.834,-1.122 1.859,-2.471 0.055,-2.768 0.047,-5.535 0.014,-8.302 -0.004,-0.321 -0.328,-0.641 -0.544,-1.034 z"
                 inkscape:connector-curvature="0"
                 style="clip-rule:evenodd;fill-rule:evenodd" />
              <path
                 id="path18"
                 d="m 121.155,67.159 c -1.468,0 -2.864,0 -4.254,0 1.505,-1.678 2.004,-3.928 2.946,-5.908 0.92,-1.937 1.728,-3.94 2.577,-5.919 0.319,-0.742 0.811,-1.503 -0.284,-2.269 1.693,0 3.176,0 4.659,0 0.009,0.051 0.035,0.11 0.021,0.13 -0.614,0.774 -0.618,0.78 -0.178,1.766 1.344,3.003 2.665,6.016 4.04,9.001 0.514,1.115 0.74,2.461 1.886,3.203 -1.556,0 -3.109,0 -4.661,0 -0.008,-0.074 -0.03,-0.139 -0.015,-0.155 0.706,-0.605 0.636,-0.628 0.341,-1.586 -0.445,-1.448 -1.174,-2.104 -2.65,-1.874 -1.173,0.176 -2.389,0.048 -3.585,0.023 -0.346,-0.005 -0.541,0.113 -0.665,0.466 -0.124,0.359 -0.293,0.698 -0.443,1.048 -0.502,1.168 -0.502,1.168 0.265,2.074 z m 3.34,-10.616 c -0.728,1.753 -1.41,3.386 -2.108,5.065 1.448,0 2.786,0 4.194,0 -0.696,-1.69 -1.364,-3.312 -2.086,-5.065 z"
                 inkscape:connector-curvature="0"
                 style="clip-rule:evenodd;fill-rule:evenodd" />
              <path
                 id="path20"
                 d="m 146.19,67.155 c -1.514,0 -2.911,0 -4.306,0 0.937,-0.626 1.121,-1.723 1.525,-2.641 1.371,-3.105 2.703,-6.23 4.056,-9.346 0.31,-0.715 0.661,-1.416 -0.158,-2.101 1.499,0 2.997,0 4.497,0 0.004,0.049 0.027,0.109 0.009,0.127 -0.646,0.736 -0.646,0.75 -0.204,1.743 1.547,3.464 3.079,6.936 4.651,10.385 0.298,0.656 0.77,1.216 1.164,1.831 -1.453,0 -3.011,0 -4.643,0 0.797,-0.839 0.699,-0.804 0.33,-1.958 -0.42,-1.316 -1.098,-1.793 -2.371,-1.648 -1.241,0.145 -2.508,0.045 -3.762,0.027 -0.338,-0.008 -0.539,0.098 -0.667,0.456 -0.147,0.419 -0.35,0.816 -0.525,1.222 -0.46,1.085 -0.46,1.085 0.404,1.903 z m 5.37,-5.538 c -0.694,-1.684 -1.367,-3.319 -2.089,-5.071 -0.735,1.757 -1.411,3.383 -2.116,5.071 1.437,0 2.779,0 4.205,0 z"
                 inkscape:connector-curvature="0"
                 style="clip-rule:evenodd;fill-rule:evenodd" />
            </g>
            <text
               id="text24"
               font-size="8.666"
               transform="matrix(0.9273,0,0,1,105.8584,33.0366)"
               style="font-size:8.66600037px;font-family:Cambria">An initiative seeded by</text>
          </g>
          <g
             id="g184">
            <g
               id="g182">
              <g
                 id="g92">
                <path
                   id="path28"
                   d="M 288.393,66.35 V 51.495 c 11.467,-6.179 17.802,6.82 11.328,14.879 z"
                   inkscape:connector-curvature="0"
                   style="clip-rule:evenodd;fill:#026937;fill-rule:evenodd" />
                <path
                   id="path30"
                   d="M 326.799,51.648 C 303.795,42.77 312.262,64.402 314.712,66.374 h 12.087 V 52.115 Z"
                   inkscape:connector-curvature="0"
                   style="clip-rule:evenodd;fill:#026937;fill-rule:evenodd" />
                <g
                   id="g76">
                  <path
                     id="path32"
                     d="m 285.092,52.598 h -3.55 v -0.825 l -0.435,0.301 v 1.311 0.493 1.56 0.494 1.642 0.3 1.008 0.491 1.869 0.3 0.43 c -0.074,0.051 -0.141,0.09 -0.188,0.112 -0.161,0.071 -0.32,0.107 -0.465,0.107 -0.108,0 -0.212,-0.018 -0.315,-0.059 -0.104,-0.04 -0.198,-0.104 -0.288,-0.196 -0.146,-0.148 -0.225,-0.345 -0.225,-0.584 0,-0.12 0.013,-0.225 0.037,-0.315 0.025,-0.092 0.062,-0.177 0.116,-0.259 0.15,-0.254 0.364,-0.493 0.631,-0.713 0.083,-0.067 0.197,-0.146 0.341,-0.239 h -0.285 c -0.149,0.116 -0.262,0.208 -0.346,0.286 -0.275,0.244 -0.484,0.489 -0.638,0.734 -0.125,0.2 -0.192,0.43 -0.192,0.686 0,0.19 0.036,0.358 0.108,0.506 0.069,0.148 0.176,0.272 0.324,0.369 0.146,0.097 0.307,0.146 0.487,0.146 0.2,0 0.41,-0.071 0.63,-0.216 0.076,-0.041 0.166,-0.112 0.267,-0.205 v 0.603 0.297 0.914 0.589 0.391 l 0.435,-0.31 V 64.226 63.7 h 1.501 v 1.366 h -1.163 c -0.148,0.027 -0.26,0.062 -0.338,0.094 -0.234,0.103 -0.379,0.259 -0.44,0.468 -0.022,0.076 -0.032,0.129 -0.032,0.159 0,0.033 0,0.065 0,0.109 0,0.204 0.06,0.362 0.181,0.479 0.123,0.12 0.266,0.175 0.43,0.175 0.071,0 0.139,-0.01 0.2,-0.033 0.281,-0.115 0.475,-0.362 0.587,-0.746 0.016,-0.063 0.03,-0.147 0.047,-0.256 h 0.529 v 0.309 c 0.014,0.044 0.027,0.077 0.032,0.1 0.029,0.069 0.072,0.104 0.122,0.104 0.036,0 0.075,-0.014 0.118,-0.042 0.104,-0.076 0.228,-0.191 0.371,-0.341 0.173,-0.183 0.254,-0.318 0.254,-0.409 0,-0.073 -0.033,-0.121 -0.114,-0.151 -0.02,-0.006 -0.059,-0.013 -0.115,-0.019 H 283.48 V 63.7 h 1.288 l 0.324,-0.447 h -3.55 v -0.52 -0.303 -0.221 h 3.216 l 0.334,-0.447 h -3.55 V 61.24 60.941 59.063 58.564 58.541 H 283 c -0.198,0.129 -0.344,0.243 -0.438,0.339 -0.311,0.31 -0.468,0.635 -0.468,0.98 0,0.308 0.075,0.562 0.231,0.759 0.156,0.204 0.364,0.315 0.624,0.339 0.311,0 0.588,-0.147 0.831,-0.435 0.243,-0.289 0.365,-0.597 0.365,-0.929 0,-0.32 -0.098,-0.597 -0.294,-0.824 -0.058,-0.068 -0.147,-0.145 -0.267,-0.229 h 1.182 l 0.324,-0.445 h -3.55 v -0.525 -0.297 -0.115 h 1.427 c 0.087,-0.021 0.158,-0.042 0.208,-0.061 0.165,-0.061 0.293,-0.147 0.399,-0.256 0.135,-0.138 0.23,-0.278 0.283,-0.425 0.055,-0.146 0.081,-0.294 0.081,-0.447 0,-0.201 -0.044,-0.412 -0.149,-0.625 -0.023,-0.073 -0.071,-0.151 -0.139,-0.249 h -0.309 c 0.059,-0.038 0.108,-0.073 0.151,-0.107 0.181,-0.169 0.303,-0.348 0.364,-0.533 0.061,-0.182 0.093,-0.412 0.093,-0.694 0,-0.126 -0.045,-0.291 -0.134,-0.495 -0.027,-0.059 -0.061,-0.135 -0.107,-0.223 h 1.057 z m -2.823,13.122 c -0.061,0.146 -0.148,0.258 -0.266,0.333 -0.084,0.053 -0.178,0.078 -0.285,0.078 -0.117,0 -0.212,-0.024 -0.291,-0.085 -0.075,-0.053 -0.116,-0.127 -0.116,-0.223 0,-0.094 0.032,-0.168 0.102,-0.224 0.065,-0.057 0.172,-0.084 0.313,-0.084 h 0.601 c -0.021,0.088 -0.041,0.158 -0.058,0.205 z m 0.941,-7.009 c 0.077,0.095 0.152,0.197 0.225,0.3 0.109,0.159 0.201,0.33 0.269,0.504 0.064,0.18 0.102,0.336 0.102,0.471 0,0.182 -0.049,0.317 -0.146,0.415 -0.095,0.097 -0.244,0.142 -0.442,0.142 -0.199,0 -0.365,-0.069 -0.49,-0.207 -0.127,-0.141 -0.198,-0.321 -0.224,-0.547 0,-0.027 0,-0.066 0,-0.118 0,-0.282 0.108,-0.543 0.315,-0.791 0.067,-0.08 0.172,-0.169 0.31,-0.271 0.032,0.039 0.058,0.074 0.081,0.102 z m -1.668,-3.087 v -0.485 -0.477 c 0.054,-0.073 0.097,-0.126 0.135,-0.155 0.117,-0.096 0.238,-0.146 0.358,-0.146 0.113,0 0.207,0.047 0.289,0.135 0.079,0.087 0.172,0.262 0.269,0.525 0.022,0.058 0.041,0.117 0.054,0.176 0.01,0.055 0.018,0.108 0.024,0.162 0,-0.002 0.003,-0.002 0.007,-0.002 l -1.136,1.358 z m 1.854,-0.056 c 0.155,0.272 0.229,0.52 0.229,0.737 0,0.2 -0.099,0.327 -0.299,0.38 -0.065,0.02 -0.165,0.031 -0.295,0.031 h -1.128 l 1.259,-1.498 c 0.109,0.142 0.186,0.261 0.234,0.35 z m 0.107,-1.009 c -0.06,0.137 -0.15,0.253 -0.282,0.343 -0.048,0.03 -0.106,0.06 -0.185,0.095 -0.018,-0.051 -0.031,-0.095 -0.041,-0.125 -0.081,-0.222 -0.148,-0.396 -0.22,-0.516 -0.063,-0.12 -0.142,-0.215 -0.233,-0.279 -0.089,-0.067 -0.184,-0.097 -0.29,-0.097 -0.071,0 -0.154,0.02 -0.247,0.061 -0.089,0.042 -0.199,0.107 -0.321,0.195 -0.029,0.024 -0.078,0.057 -0.142,0.104 v -0.771 -0.473 -0.05 h 1.607 c 0.013,0.017 0.031,0.038 0.035,0.05 0.074,0.108 0.135,0.218 0.189,0.329 0.051,0.112 0.091,0.201 0.121,0.269 0.059,0.164 0.091,0.316 0.091,0.465 0.001,0.129 -0.026,0.264 -0.082,0.4 z"
                     inkscape:connector-curvature="0"
                     style="fill:#1d1d1b" />
                  <path
                     id="path34"
                     d="m 281.755,43.925 3.185,0.453 0.389,-0.398 -3.469,-0.491 0.16,-0.892 -0.502,0.274 -0.153,0.713 c -0.095,-0.003 -0.17,0 -0.229,10e-4 -0.162,0.004 -0.321,0.026 -0.476,0.062 -0.219,0.037 -0.422,0.086 -0.608,0.147 -0.238,0.074 -0.422,0.169 -0.564,0.275 -0.152,0.123 -0.243,0.282 -0.271,0.474 -0.039,0.275 0.047,0.479 0.248,0.604 0.126,0.075 0.261,0.124 0.41,0.142 0.165,0.027 0.353,0.015 0.568,-0.032 0.063,-0.014 0.146,-0.035 0.252,-0.067 l 0.024,-0.194 c -0.074,0.029 -0.124,0.047 -0.164,0.053 -0.13,0.029 -0.253,0.035 -0.375,0.017 -0.048,-0.007 -0.102,-0.02 -0.157,-0.041 -0.057,-0.018 -0.106,-0.042 -0.148,-0.068 -0.151,-0.117 -0.214,-0.256 -0.194,-0.421 0.028,-0.196 0.158,-0.349 0.402,-0.455 0.238,-0.104 0.52,-0.175 0.837,-0.254 0.149,-0.033 0.416,-0.058 0.416,-0.058 -0.419,2.663 -0.229,5.95 -0.229,5.95 l 0.435,-0.309 v -2.29 h 1.233 c -0.16,0.131 -0.275,0.239 -0.348,0.326 -0.226,0.269 -0.343,0.531 -0.343,0.789 0,0.292 0.079,0.517 0.241,0.669 0.141,0.132 0.32,0.197 0.54,0.197 0.141,0 0.275,-0.024 0.404,-0.079 0.232,-0.097 0.411,-0.235 0.539,-0.418 0.129,-0.182 0.19,-0.389 0.19,-0.615 0,-0.192 -0.062,-0.392 -0.182,-0.612 -0.037,-0.069 -0.096,-0.153 -0.173,-0.257 h 1.122 l 0.324,-0.444 h -1.871 c -0.097,-0.121 -0.165,-0.218 -0.212,-0.285 -0.133,-0.21 -0.198,-0.388 -0.198,-0.532 0,-0.195 0.043,-0.334 0.126,-0.421 0.082,-0.085 0.19,-0.13 0.324,-0.13 0.116,0 0.248,0.037 0.392,0.104 0.096,0.047 0.229,0.136 0.399,0.26 0.049,0.035 0.116,0.086 0.201,0.153 l 0.324,-0.36 c -0.134,-0.1 -0.243,-0.177 -0.324,-0.223 -0.253,-0.146 -0.472,-0.234 -0.667,-0.247 h -0.091 c -0.291,0 -0.547,0.092 -0.768,0.277 -0.222,0.187 -0.334,0.407 -0.334,0.666 0,0.111 0.045,0.27 0.136,0.471 0.026,0.063 0.069,0.151 0.13,0.267 h -1.117 c 0.003,0.004 0.031,-0.891 0.216,-2.751 z m 1.07,3.43 c 0.064,-0.066 0.155,-0.145 0.285,-0.231 0.066,0.076 0.117,0.138 0.15,0.188 0.105,0.154 0.193,0.328 0.266,0.524 0.032,0.087 0.056,0.151 0.06,0.19 0.011,0.047 0.019,0.108 0.019,0.195 0,0.13 -0.034,0.251 -0.102,0.353 -0.068,0.1 -0.175,0.174 -0.311,0.212 -0.043,0.012 -0.078,0.018 -0.109,0.018 -0.155,0 -0.281,-0.063 -0.388,-0.195 -0.101,-0.127 -0.153,-0.296 -0.153,-0.507 0,-0.286 0.097,-0.535 0.283,-0.747 z"
                     inkscape:connector-curvature="0"
                     style="fill:#1d1d1b" />
                  <path
                     id="path36"
                     d="m 296.051,23.303 0.463,-0.217 1.329,3.018 0.533,0.121 -1.468,-3.324 0.728,-0.339 -0.449,-0.283 -1.592,0.744 0.018,0.009 -0.985,0.505 -0.303,0.193 -0.107,0.06 0.006,0.005 -1.723,1.096 -1.008,0.774 -0.012,-0.005 -0.115,0.1 -0.146,0.106 0.015,0.006 -1.237,1.069 c 0,0 -1.721,1.612 -2.28,2.332 -0.343,0.444 -1.417,1.734 -1.417,1.734 -0.065,0.003 -0.118,0.006 -0.158,0.006 -0.146,-0.003 -0.297,-0.019 -0.451,-0.051 -0.097,-0.021 -0.183,-0.046 -0.261,-0.081 -0.076,-0.033 -0.155,-0.082 -0.239,-0.15 -0.089,-0.071 -0.15,-0.149 -0.191,-0.228 -0.044,-0.08 -0.059,-0.166 -0.044,-0.261 0.013,-0.091 0.037,-0.166 0.085,-0.227 0.03,-0.042 0.072,-0.078 0.125,-0.105 0.009,-0.01 0.034,-0.02 0.059,-0.028 l -0.021,-0.125 c -0.102,0.005 -0.178,0.013 -0.233,0.028 -0.172,0.042 -0.308,0.124 -0.399,0.243 -0.1,0.131 -0.131,0.264 -0.088,0.399 0.041,0.136 0.13,0.258 0.265,0.368 0.144,0.118 0.308,0.193 0.489,0.23 0.179,0.033 0.441,0.069 0.785,0.106 0.046,0.008 0.111,0.015 0.185,0.017 l -1.501,2.331 -0.611,1.072 -0.154,0.331 -0.055,0.11 h 0.007 l -0.842,1.881 -0.475,1.255 -0.012,0.002 -0.109,0.317 h 0.014 l -0.548,1.775 0.504,-0.157 0.121,-0.4 1.274,0.412 c 0.167,-0.012 0.296,-0.032 0.393,-0.061 0.288,-0.092 0.52,-0.269 0.692,-0.53 0.013,-0.031 0.036,-0.078 0.075,-0.138 0.013,-0.039 0.027,-0.078 0.039,-0.123 0.038,-0.148 0.06,-0.31 0.038,-0.487 0,-0.042 -0.006,-0.094 -0.017,-0.148 l 1.115,0.448 0.455,-0.292 c -0.054,0.054 -0.101,0.114 -0.14,0.188 -0.013,0.026 -0.024,0.059 -0.043,0.1 -0.07,0.174 -0.089,0.341 -0.047,0.503 0.019,0.049 0.037,0.109 0.08,0.184 l 0.478,-0.282 c -0.036,-0.081 -0.065,-0.145 -0.079,-0.184 -0.043,-0.137 -0.043,-0.262 0,-0.366 0.007,-0.014 0.026,-0.05 0.058,-0.096 0.083,-0.102 0.186,-0.124 0.323,-0.063 0.116,0.05 0.203,0.146 0.266,0.282 0.056,0.139 0.064,0.303 0.014,0.492 -10e-4,0.023 -0.011,0.055 -0.031,0.097 -0.05,0.119 -0.146,0.246 -0.281,0.371 -0.048,0.045 -0.132,0.115 -0.245,0.2 -0.109,0.089 -0.229,0.17 -0.352,0.249 -0.041,0.027 -0.108,0.067 -0.195,0.108 l 0.087,0.189 c 0.103,-0.057 0.183,-0.104 0.252,-0.143 0.215,-0.124 0.429,-0.262 0.647,-0.416 0.26,-0.183 0.434,-0.387 0.524,-0.608 0.087,-0.21 0.098,-0.417 0.03,-0.621 -0.052,-0.157 -0.166,-0.278 -0.342,-0.355 -0.198,-0.087 -0.416,-0.103 -0.636,-0.042 -0.151,0.038 -0.27,0.112 -0.365,0.211 l -3.307,-1.323 0.251,-0.66 0.837,-1.818 0.009,-0.002 0.251,-0.457 0.921,0.532 -0.797,1.756 c -0.098,0.211 -0.076,0.351 0.058,0.417 0.109,0.053 0.294,0.05 0.547,-0.01 0.257,-0.061 0.413,-0.133 0.479,-0.222 0.078,-0.112 0.012,-0.225 -0.206,-0.329 l -0.295,-0.144 0.579,-1.26 1.524,0.878 0.497,-0.224 -3.096,-1.784 1.563,-2.499 1.016,0.723 c -0.205,0.013 -0.365,0.033 -0.467,0.064 -0.336,0.084 -0.575,0.236 -0.72,0.448 -0.158,0.239 -0.218,0.469 -0.17,0.691 0.044,0.188 0.155,0.349 0.337,0.479 0.113,0.081 0.24,0.137 0.372,0.169 0.244,0.058 0.474,0.048 0.678,-0.029 0.205,-0.074 0.371,-0.207 0.501,-0.395 0.103,-0.157 0.164,-0.357 0.181,-0.608 0.008,-0.078 0.008,-0.183 0,-0.313 l 0.928,0.657 0.51,-0.178 -1.541,-1.096 c -0.012,-0.153 -0.016,-0.271 -0.012,-0.355 0.004,-0.251 0.049,-0.436 0.127,-0.554 0.107,-0.158 0.22,-0.249 0.339,-0.272 0.113,-0.021 0.225,0.004 0.333,0.086 0.097,0.067 0.184,0.172 0.27,0.312 0.051,0.091 0.112,0.24 0.184,0.445 0.021,0.059 0.051,0.14 0.081,0.244 l 0.463,-0.107 c -0.05,-0.162 -0.096,-0.287 -0.144,-0.374 -0.126,-0.269 -0.26,-0.464 -0.408,-0.595 l -0.074,-0.052 c -0.241,-0.169 -0.5,-0.242 -0.788,-0.219 -0.283,0.021 -0.5,0.138 -0.642,0.35 -0.062,0.097 -0.113,0.25 -0.148,0.466 -0.015,0.069 -0.024,0.167 -0.039,0.298 l -0.92,-0.652 2.092,-2.46 1.888,-1.837 0.585,0.735 c -0.014,0 -0.032,0 -0.039,0 -0.238,0.015 -0.412,0.083 -0.53,0.203 -0.131,0.13 -0.19,0.323 -0.188,0.577 0,0.081 0.014,0.195 0.049,0.338 -0.189,-0.021 -0.333,-0.026 -0.44,-0.016 -0.327,0.028 -0.571,0.126 -0.737,0.295 -0.037,0.036 -0.087,0.099 -0.154,0.188 -0.065,0.088 -0.102,0.235 -0.1,0.435 0.007,0.202 0.092,0.389 0.26,0.561 0.093,0.102 0.23,0.196 0.411,0.286 0.178,0.087 0.387,0.157 0.625,0.2 0.183,0.034 0.457,0.063 0.831,0.083 0.127,0.011 0.302,0.017 0.525,0.022 l -0.005,-0.237 c -0.062,0 -0.11,0 -0.142,0 -0.235,-0.011 -0.397,-0.02 -0.495,-0.03 -0.357,-0.045 -0.554,-0.076 -0.589,-0.091 -0.285,-0.066 -0.512,-0.187 -0.671,-0.353 -0.32,-0.333 -0.314,-0.67 0.019,-1.012 0.074,-0.073 0.207,-0.112 0.402,-0.12 0.06,-0.003 0.149,0 0.267,0.008 l 0.109,0.516 0.419,-0.077 c -0.031,-0.137 -0.051,-0.246 -0.066,-0.327 -0.053,-0.263 -0.078,-0.466 -0.082,-0.608 -0.002,-0.109 0.011,-0.203 0.04,-0.287 0.029,-0.082 0.067,-0.148 0.115,-0.195 0.077,-0.081 0.188,-0.129 0.327,-0.138 0.006,0 0.011,0 0.018,0 l 0.079,0.104 c 0.148,0.083 0.271,0.14 0.368,0.172 0.292,0.086 0.575,0.067 0.856,-0.061 0.028,-0.015 0.078,-0.039 0.136,-0.067 0.03,-0.027 0.063,-0.055 0.099,-0.084 0.115,-0.096 0.215,-0.225 0.298,-0.384 0.019,-0.035 0.041,-0.08 0.056,-0.133 l 0.701,1.001 0.537,0.01 -2.066,-2.964 0.545,-0.405 1.649,-1.048 0.012,0.005 0.449,-0.242 0.498,0.974 -1.604,1.015 c -0.193,0.122 -0.251,0.25 -0.172,0.38 0.069,0.11 0.218,0.208 0.463,0.303 0.249,0.092 0.419,0.121 0.521,0.081 0.128,-0.053 0.128,-0.185 0,-0.394 l -0.17,-0.281 1.153,-0.736 0.813,1.587 0.54,0.09 -1.659,-3.226 0.529,-0.287 z M 284.457,38.36 c 0.08,0.147 0.136,0.262 0.169,0.347 0.097,0.258 0.132,0.459 0.085,0.593 -0.069,0.229 -0.208,0.361 -0.42,0.395 -0.064,0.01 -0.16,0 -0.285,-0.022 l -1.328,-0.432 0.28,-0.916 0.008,-0.003 0.184,-0.484 z m 3.262,-5.846 c 0.009,0.101 0.019,0.179 0.019,0.242 0,0.189 -0.021,0.383 -0.069,0.587 -0.019,0.091 -0.039,0.157 -0.056,0.195 -0.016,0.039 -0.05,0.094 -0.095,0.167 -0.075,0.106 -0.168,0.185 -0.278,0.23 -0.108,0.047 -0.235,0.043 -0.37,-0.003 -0.045,-0.018 -0.081,-0.034 -0.099,-0.048 -0.129,-0.092 -0.2,-0.22 -0.215,-0.387 -0.014,-0.167 0.037,-0.337 0.156,-0.509 0.157,-0.237 0.372,-0.386 0.644,-0.451 0.088,-0.018 0.21,-0.027 0.363,-0.023 z m 5.229,-5.596 c -0.015,0.169 -0.029,0.296 -0.046,0.38 -0.054,0.273 -0.135,0.458 -0.24,0.548 -0.181,0.151 -0.367,0.185 -0.56,0.097 -0.061,-0.031 -0.141,-0.091 -0.229,-0.186 l -0.884,-1.106 0.718,-0.605 0.007,0.003 0.412,-0.307 z"
                     inkscape:connector-curvature="0"
                     style="fill:#1d1d1b" />
                  <path
                     id="path38"
                     d="m 304.027,23.476 -0.907,-0.939 c 0.454,-0.172 0.771,-0.495 0.675,-1.025 -0.103,-0.521 -0.591,-0.72 -1.263,-0.584 -0.362,0.07 -0.643,0.173 -0.907,0.224 -0.276,0.056 -0.522,0.085 -0.716,0.099 l 0.018,0.076 0.455,0.06 c 0.117,0.013 0.14,0.046 0.236,0.54 l 0.359,1.897 c 0.075,0.401 0.057,0.427 -0.077,0.502 l -0.364,0.217 0.012,0.071 c 0.239,-0.071 0.532,-0.149 0.788,-0.201 0.182,-0.037 0.525,-0.083 0.75,-0.104 l -0.014,-0.076 -0.433,-0.06 c -0.143,-0.021 -0.181,-0.133 -0.31,-0.814 l -0.115,-0.603 0.393,-0.079 c 0.4,0.363 0.977,0.942 1.41,1.443 0.125,-0.036 0.248,-0.073 0.374,-0.097 0.114,-0.024 0.238,-0.04 0.358,-0.05 l -0.014,-0.075 c -0.293,0.007 -0.327,-0.024 -0.708,-0.422 z m -1.499,-0.959 -0.344,0.067 -0.248,-1.309 c 0.152,-0.031 0.306,-0.065 0.466,-0.099 0.478,-0.093 0.827,0.042 0.915,0.503 0.109,0.573 -0.314,0.741 -0.789,0.838 z"
                     inkscape:connector-curvature="0"
                     style="fill:#1d1d1b" />
                  <path
                     id="path40"
                     d="m 307.604,22.955 -0.072,0.003 c -0.075,0.321 -0.128,0.492 -0.185,0.576 -0.052,0.064 -0.126,0.076 -0.681,0.103 -0.234,0.011 -0.476,0.007 -0.721,0.014 -0.021,-0.224 -0.048,-0.466 -0.062,-0.714 l -0.033,-0.723 0.535,-0.025 c 0.631,-0.034 0.694,-0.027 0.739,0.088 l 0.157,0.399 0.071,-0.002 c -0.019,-0.226 -0.032,-0.428 -0.038,-0.645 -0.012,-0.196 -0.018,-0.4 -0.021,-0.603 l -0.074,0.002 -0.119,0.386 c -0.031,0.116 -0.093,0.133 -0.723,0.164 l -0.539,0.026 -0.028,-0.655 c -0.01,-0.224 -0.004,-0.422 -0.003,-0.61 0.19,-0.016 0.426,-0.031 0.73,-0.045 0.595,-0.03 0.633,-0.032 0.695,0.114 l 0.155,0.394 0.071,-0.003 c -0.012,-0.122 -0.03,-0.305 -0.031,-0.386 -0.009,-0.078 -0.009,-0.271 -0.009,-0.404 -0.453,0.044 -0.94,0.092 -1.431,0.115 -0.396,0.019 -0.79,0.019 -1.22,0.019 l 0.002,0.073 0.442,0.129 c 0.117,0.031 0.133,0.069 0.156,0.57 l 0.094,1.928 c 0.016,0.409 0,0.432 -0.144,0.487 l -0.393,0.159 0.002,0.073 c 0.371,-0.038 0.867,-0.083 1.321,-0.107 0.295,-0.016 1.093,-0.031 1.359,-0.022 l -0.018,-0.408 c 10e-4,-0.155 0.015,-0.316 0.016,-0.47 z"
                     inkscape:connector-curvature="0"
                     style="fill:#1d1d1b" />
                  <rect
                     id="rect42"
                     height="0.37400001"
                     width="1.187"
                     transform="matrix(-0.9984,-0.0572,0.0572,-0.9984,615.934,62.7769)"
                     y="22.393999"
                     x="308.271"
                     style="fill:#1d1d1b" />
                  <path
                     id="path44"
                     d="m 310.767,23.382 c 0.034,-0.307 0.062,-0.631 0.102,-0.949 0.041,-0.319 0.091,-0.639 0.136,-0.956 0.069,-0.499 0.081,-0.539 0.188,-0.558 l 0.444,-0.091 0.013,-0.076 c -0.26,-0.01 -0.518,-0.023 -0.772,-0.058 -0.29,-0.037 -0.536,-0.093 -0.783,-0.146 l -0.009,0.075 0.412,0.204 c 0.095,0.047 0.095,0.088 0.043,0.586 -0.036,0.319 -0.066,0.645 -0.101,0.964 -0.04,0.315 -0.096,0.635 -0.135,0.955 -0.057,0.406 -0.079,0.435 -0.211,0.461 l -0.412,0.08 -0.01,0.074 c 0.233,0.011 0.536,0.029 0.792,0.06 0.229,0.032 0.525,0.092 0.762,0.144 l 0.01,-0.072 -0.38,-0.191 c -0.12,-0.061 -0.133,-0.096 -0.089,-0.506 z"
                     inkscape:connector-curvature="0"
                     style="fill:#1d1d1b" />
                  <path
                     id="path46"
                     d="m 315.604,24.866 c 0.035,-0.337 0.325,-2.28 0.425,-2.633 0.02,-0.092 0.072,-0.11 0.299,-0.134 l 0.241,-0.025 0.021,-0.07 c -0.346,-0.077 -0.677,-0.157 -0.971,-0.235 -0.548,0.712 -1.112,1.418 -1.72,2.091 -0.136,-0.896 -0.266,-1.792 -0.353,-2.687 -0.301,-0.09 -0.63,-0.203 -0.945,-0.315 l -0.019,0.073 0.256,0.188 c 0.085,0.063 0.102,0.13 0.078,0.221 -0.1,0.381 -0.592,1.665 -0.936,2.43 -0.067,0.164 -0.098,0.185 -0.291,0.2 l -0.29,0.022 -0.016,0.073 c 0.197,0.033 0.396,0.069 0.591,0.124 0.217,0.062 0.42,0.144 0.629,0.228 l 0.021,-0.073 -0.232,-0.167 c -0.13,-0.091 -0.159,-0.151 -0.13,-0.269 0.092,-0.344 0.583,-1.766 0.83,-2.425 l 0.01,0.002 c 0.15,1.057 0.319,2.113 0.406,3.191 l 0.065,0.017 c 0.63,-0.833 1.253,-1.606 1.953,-2.452 l 0.012,0.003 c -0.038,0.261 -0.331,2.282 -0.399,2.542 -0.015,0.043 -0.084,0.099 -0.271,0.109 l -0.266,0.018 -0.019,0.07 c 0.235,0.048 0.468,0.095 0.707,0.159 0.23,0.068 0.464,0.157 0.686,0.244 l 0.021,-0.073 -0.252,-0.155 c -0.105,-0.069 -0.158,-0.124 -0.141,-0.292 z"
                     inkscape:connector-curvature="0"
                     style="fill:#1d1d1b" />
                  <path
                     id="path48"
                     d="m 319.246,23.167 -0.1,-0.055 c -0.75,0.689 -1.784,1.534 -2.659,2.306 -0.138,0.004 -0.296,-0.01 -0.432,-0.023 l -0.026,0.068 c 0.178,0.067 0.361,0.138 0.53,0.224 0.188,0.097 0.358,0.208 0.529,0.318 l 0.035,-0.068 -0.332,-0.352 c 0.195,-0.232 0.408,-0.479 0.649,-0.659 0.198,0.098 0.388,0.191 0.586,0.288 0.196,0.102 0.391,0.208 0.587,0.313 -0.006,0.176 -0.073,0.703 -0.118,0.931 -0.164,-0.016 -0.394,-0.055 -0.523,-0.087 l -0.034,0.068 c 0.219,0.086 0.43,0.173 0.644,0.28 0.245,0.125 0.478,0.268 0.715,0.414 l 0.027,-0.066 -0.32,-0.34 c 0.075,-1.172 0.135,-2.378 0.242,-3.56 z m -0.599,2.133 -1.046,-0.535 1.146,-0.993 z"
                     inkscape:connector-curvature="0"
                     style="fill:#1d1d1b" />
                  <path
                     id="path50"
                     d="m 322.396,27.715 0.356,0.061 0.041,-0.061 c -0.189,-0.124 -0.397,-0.231 -0.588,-0.369 -0.206,-0.144 -0.39,-0.317 -0.592,-0.47 l -0.042,0.059 0.187,0.284 c 0.143,0.208 0.143,0.25 0.096,0.319 l -0.418,0.623 c -0.022,0.031 -0.068,0.093 -0.118,0.156 -0.184,-0.052 -0.361,-0.146 -0.54,-0.274 -0.638,-0.451 -0.722,-1.28 -0.213,-2.036 0.585,-0.88 1.377,-0.946 1.981,-0.516 0.167,0.117 0.397,0.337 0.404,0.426 0.007,0.128 -0.075,0.426 -0.139,0.658 l 0.057,0.044 c 0.082,-0.131 0.161,-0.261 0.248,-0.388 0.072,-0.111 0.155,-0.223 0.236,-0.333 -0.156,-0.172 -0.333,-0.326 -0.57,-0.492 -0.75,-0.539 -2.005,-0.676 -2.68,0.331 -0.555,0.823 -0.349,1.833 0.624,2.522 0.287,0.205 0.687,0.387 0.887,0.449 0.048,-0.083 0.094,-0.159 0.121,-0.207 l 0.453,-0.674 c 0.062,-0.091 0.105,-0.123 0.209,-0.112 z"
                     inkscape:connector-curvature="0"
                     style="fill:#1d1d1b" />
                  <path
                     id="path52"
                     d="m 323.095,29.226 c 0.193,-0.238 0.395,-0.49 0.597,-0.731 0.207,-0.242 0.422,-0.479 0.63,-0.719 0.325,-0.371 0.361,-0.399 0.457,-0.358 l 0.419,0.182 0.05,-0.056 c -0.211,-0.16 -0.418,-0.313 -0.612,-0.49 -0.216,-0.196 -0.395,-0.384 -0.571,-0.57 l -0.048,0.057 0.23,0.408 c 0.058,0.091 0.033,0.125 -0.275,0.51 -0.203,0.249 -0.4,0.5 -0.606,0.741 -0.201,0.24 -0.421,0.48 -0.626,0.72 -0.269,0.305 -0.299,0.319 -0.427,0.264 l -0.386,-0.17 -0.047,0.055 c 0.191,0.144 0.433,0.329 0.626,0.506 0.174,0.154 0.388,0.373 0.557,0.553 l 0.049,-0.058 -0.216,-0.373 c -0.065,-0.121 -0.058,-0.158 0.199,-0.471 z"
                     inkscape:connector-curvature="0"
                     style="fill:#1d1d1b" />
                  <path
                     id="path54"
                     d="m 327.458,30.542 c 0.069,-0.061 0.145,-0.059 0.25,0.003 l 0.324,0.179 0.075,-0.071 c -0.175,-0.168 -0.349,-0.332 -0.501,-0.509 -0.146,-0.165 -0.277,-0.344 -0.402,-0.521 l -0.055,0.051 0.126,0.358 c 0.054,0.156 0.048,0.216 -0.051,0.327 -0.178,0.187 -0.363,0.367 -0.549,0.536 l -0.928,0.867 h -0.013 l 0.473,-2.48 c 0.041,-0.209 0.091,-0.407 0.159,-0.607 -0.119,-0.105 -0.24,-0.207 -0.342,-0.327 -0.113,-0.127 -0.206,-0.268 -0.304,-0.409 l -0.054,0.049 c 0.075,0.164 0.139,0.327 0.193,0.499 l -0.031,0.122 -0.765,0.708 c -0.493,0.459 -1.089,0.965 -1.228,1.064 -0.037,0.026 -0.101,0.023 -0.172,-0.013 l -0.376,-0.199 -0.051,0.05 c 0.163,0.158 0.326,0.309 0.475,0.481 0.151,0.172 0.294,0.365 0.431,0.552 l 0.057,-0.046 -0.151,-0.339 c -0.065,-0.147 -0.059,-0.202 -0.007,-0.271 0.061,-0.079 0.813,-0.794 1.321,-1.265 l 0.43,-0.402 0.008,0.007 -0.348,1.782 c -0.116,0.597 -0.224,1.198 -0.366,1.789 l 0.083,0.094 c 0.431,-0.414 0.871,-0.824 1.03,-0.97 0.224,-0.213 0.933,-0.814 1.259,-1.089 z"
                     inkscape:connector-curvature="0"
                     style="fill:#1d1d1b" />
                  <path
                     id="path56"
                     d="m 326.858,33.599 c 0.243,-0.183 0.496,-0.378 0.751,-0.561 0.253,-0.184 0.518,-0.363 0.774,-0.546 0.403,-0.28 0.441,-0.296 0.525,-0.234 l 0.368,0.279 0.062,-0.041 c -0.168,-0.207 -0.33,-0.41 -0.479,-0.627 -0.17,-0.241 -0.297,-0.469 -0.427,-0.691 l -0.057,0.042 0.129,0.455 c 0.034,0.101 0,0.129 -0.388,0.427 -0.255,0.188 -0.504,0.384 -0.762,0.568 -0.253,0.185 -0.52,0.363 -0.777,0.543 -0.33,0.229 -0.364,0.237 -0.47,0.154 l -0.339,-0.258 -0.059,0.039 c 0.151,0.186 0.343,0.425 0.489,0.645 0.133,0.19 0.292,0.456 0.414,0.675 l 0.059,-0.041 -0.122,-0.419 c -0.031,-0.137 -0.016,-0.17 0.309,-0.409 z"
                     inkscape:connector-curvature="0"
                     style="fill:#1d1d1b" />
                  <path
                     id="path58"
                     d="m 330.78,35.951 c 0.09,-0.039 0.159,-0.018 0.248,0.066 l 0.276,0.255 0.082,-0.05 c -0.13,-0.203 -0.257,-0.404 -0.366,-0.617 -0.102,-0.195 -0.186,-0.402 -0.267,-0.607 l -0.066,0.037 0.043,0.379 c 0.016,0.167 -0.004,0.225 -0.131,0.306 -0.211,0.136 -0.432,0.264 -0.656,0.384 l -1.103,0.611 -0.019,-0.004 1.048,-2.291 c 0.089,-0.193 0.182,-0.371 0.296,-0.548 -0.091,-0.129 -0.183,-0.263 -0.258,-0.403 -0.079,-0.151 -0.141,-0.311 -0.2,-0.473 l -0.064,0.034 c 0.036,0.178 0.06,0.35 0.072,0.533 l -0.06,0.111 -0.905,0.498 c -0.585,0.325 -1.285,0.666 -1.442,0.729 -0.04,0.016 -0.104,-0.002 -0.164,-0.054 l -0.318,-0.288 -0.062,0.036 c 0.121,0.195 0.246,0.382 0.353,0.582 0.105,0.21 0.195,0.43 0.286,0.648 l 0.062,-0.036 -0.064,-0.365 c -0.03,-0.159 -0.011,-0.211 0.057,-0.265 0.079,-0.063 0.976,-0.568 1.579,-0.904 l 0.514,-0.28 v 0.011 l -0.749,1.642 c -0.257,0.554 -0.501,1.106 -0.779,1.647 l 0.059,0.114 c 0.518,-0.297 1.045,-0.589 1.234,-0.69 0.263,-0.148 1.089,-0.557 1.464,-0.748 z"
                     inkscape:connector-curvature="0"
                     style="fill:#1d1d1b" />
                  <path
                     id="path60"
                     d="m 330.702,40.312 0.253,0.265 0.068,-0.025 c -0.084,-0.215 -0.19,-0.431 -0.27,-0.654 -0.084,-0.242 -0.14,-0.493 -0.212,-0.738 l -0.068,0.026 -0.009,0.343 c -10e-4,0.255 -0.027,0.286 -0.104,0.314 l -0.695,0.256 c -0.034,0.01 -0.11,0.034 -0.182,0.057 -0.121,-0.155 -0.211,-0.334 -0.286,-0.547 -0.261,-0.749 0.142,-1.477 0.984,-1.786 0.977,-0.358 1.657,0.067 1.906,0.774 0.062,0.198 0.127,0.513 0.083,0.589 -0.068,0.107 -0.303,0.302 -0.491,0.449 l 0.027,0.069 c 0.138,-0.054 0.277,-0.114 0.418,-0.164 0.126,-0.044 0.255,-0.085 0.38,-0.128 -0.029,-0.234 -0.084,-0.461 -0.179,-0.741 -0.309,-0.888 -1.248,-1.754 -2.366,-1.342 -0.918,0.337 -1.324,1.279 -0.926,2.423 0.117,0.337 0.342,0.726 0.465,0.895 0.087,-0.036 0.166,-0.072 0.216,-0.092 l 0.755,-0.274 c 0.101,-0.038 0.156,-0.042 0.233,0.031 z"
                     inkscape:connector-curvature="0"
                     style="fill:#1d1d1b" />
                  <path
                     id="path62"
                     d="m 330.678,43.507 0.971,-0.141 0.063,0.468 c 0.086,0.64 0.086,0.701 -0.023,0.762 l -0.369,0.192 0.009,0.073 c 0.215,-0.035 0.414,-0.067 0.622,-0.098 0.187,-0.026 0.384,-0.052 0.581,-0.073 l -0.01,-0.073 -0.385,-0.086 c -0.12,-0.027 -0.139,-0.086 -0.224,-0.727 l -0.064,-0.465 0.573,-0.085 c 0.209,-0.029 0.414,-0.041 0.621,-0.062 l 0.152,1.107 c 0.021,0.145 0.033,0.213 -0.119,0.286 l -0.355,0.185 0.008,0.073 c 0.146,-0.026 0.296,-0.051 0.437,-0.073 0.118,-0.014 0.246,-0.03 0.362,-0.041 -0.081,-0.425 -0.16,-0.857 -0.218,-1.29 -0.059,-0.432 -0.099,-0.861 -0.143,-1.331 l -0.074,0.012 -0.079,0.463 c -0.022,0.121 -0.055,0.141 -0.537,0.212 l -1.857,0.27 c -0.396,0.057 -0.42,0.038 -0.487,-0.103 l -0.188,-0.388 -0.071,0.009 c 0.059,0.274 0.111,0.525 0.146,0.78 0.045,0.315 0.053,0.538 0.07,0.827 l 0.078,-0.007 0.075,-0.43 c 0.027,-0.164 0.039,-0.186 0.435,-0.246 z"
                     inkscape:connector-curvature="0"
                     style="fill:#1d1d1b" />
                  <path
                     id="path64"
                     d="m 333.508,45.416 -0.141,0.389 c -0.054,0.151 -0.157,0.168 -0.595,0.175 l -1.457,0.024 c -0.793,0.014 -1.111,0.559 -1.1,1.331 0.014,0.795 0.396,1.295 1.401,1.289 0.922,-0.003 1.352,-0.021 1.641,-0.017 0.107,0.004 0.16,0.077 0.216,0.218 l 0.088,0.23 h 0.073 c -0.02,-0.213 -0.044,-0.422 -0.049,-0.624 -0.005,-0.235 0.015,-0.465 0.032,-0.697 l -0.074,0.004 -0.084,0.292 c -0.039,0.144 -0.082,0.228 -0.177,0.239 -0.358,0.05 -1.183,0.066 -1.821,0.08 -0.623,0.007 -0.961,-0.326 -0.974,-0.881 -0.012,-0.851 0.418,-1.013 1.082,-1.022 0.803,-0.014 1.25,-0.021 1.553,-0.006 0.183,0.006 0.212,0.047 0.316,0.339 l 0.094,0.242 h 0.076 c -0.028,-0.283 -0.056,-0.562 -0.06,-0.84 -0.005,-0.254 0.012,-0.504 0.031,-0.768 h -0.071 z"
                     inkscape:connector-curvature="0"
                     style="fill:#1d1d1b" />
                  <path
                     id="path66"
                     d="m 332.727,49.507 v 0.076 l 0.417,0.161 c 0.174,0.07 0.194,0.124 0.194,0.928 h -2.259 c -0.258,0 -0.395,-0.009 -0.468,-0.042 -0.069,-0.027 -0.127,-0.145 -0.259,-0.549 h -0.072 c 0.019,0.248 0.041,0.487 0.041,0.816 0,0.329 -0.022,0.566 -0.041,0.816 h 0.072 c 0.132,-0.404 0.189,-0.518 0.259,-0.55 0.073,-0.032 0.21,-0.044 0.468,-0.044 h 2.259 c 0,0.801 -0.021,0.859 -0.194,0.93 l -0.417,0.159 v 0.076 h 0.883 c -0.019,-0.463 -0.043,-0.922 -0.043,-1.387 0,-0.465 0.024,-0.925 0.043,-1.389 h -0.883 z"
                     inkscape:connector-curvature="0"
                     style="fill:#1d1d1b" />
                  <path
                     id="path68"
                     d="m 333.535,52.704 -0.147,0.385 c -0.053,0.15 -0.153,0.165 -0.592,0.165 h -1.458 c -0.796,0 -1.122,0.539 -1.122,1.313 0,0.796 0.375,1.299 1.382,1.314 0.92,0.008 1.349,0 1.639,0.008 0.108,0.004 0.159,0.081 0.21,0.219 l 0.089,0.238 h 0.074 c -0.019,-0.213 -0.043,-0.424 -0.043,-0.627 0,-0.234 0.024,-0.463 0.043,-0.695 h -0.074 l -0.089,0.296 c -0.042,0.144 -0.086,0.224 -0.181,0.234 -0.357,0.041 -1.18,0.047 -1.818,0.047 -0.622,0 -0.959,-0.338 -0.959,-0.894 0,-0.851 0.431,-1.005 1.099,-1.005 0.796,0 1.243,0 1.549,0.018 0.182,0.009 0.209,0.053 0.311,0.344 l 0.089,0.247 h 0.074 c -0.019,-0.282 -0.043,-0.561 -0.043,-0.845 0,-0.247 0.024,-0.499 0.043,-0.762 z"
                     inkscape:connector-curvature="0"
                     style="fill:#1d1d1b" />
                  <path
                     id="path70"
                     d="m 333.535,56.771 -0.147,0.45 c -0.033,0.115 -0.07,0.135 -0.558,0.135 h -1.875 c -0.402,0 -0.421,-0.021 -0.467,-0.171 l -0.136,-0.413 h -0.072 c 0.019,0.259 0.041,0.564 0.041,0.84 0,0.186 -0.022,0.54 -0.041,0.771 h 0.072 l 0.138,-0.424 c 0.047,-0.139 0.161,-0.153 0.836,-0.153 h 0.595 v 0.409 c -0.416,0.332 -1.083,0.807 -1.641,1.145 0.007,0.135 0.019,0.269 0.019,0.397 0,0.121 -0.012,0.25 -0.019,0.373 h 0.072 c 0.048,-0.297 0.087,-0.324 0.539,-0.634 l 1.064,-0.736 c 0.078,0.491 0.33,0.874 0.853,0.874 0.519,0 0.801,-0.458 0.801,-1.163 0,-0.377 -0.043,-0.682 -0.043,-0.958 0,-0.289 0.024,-0.542 0.043,-0.739 h -0.074 z m -0.794,2.351 c -0.569,0 -0.646,-0.46 -0.646,-0.956 v -0.362 h 1.292 c 0,0.157 0.008,0.318 0.008,0.491 0.001,0.498 -0.196,0.827 -0.654,0.827 z"
                     inkscape:connector-curvature="0"
                     style="fill:#1d1d1b" />
                  <path
                     id="path72"
                     d="m 333.535,60.556 -0.147,0.448 c -0.033,0.118 -0.07,0.131 -0.558,0.131 h -1.875 c -0.402,0 -0.421,-0.018 -0.467,-0.171 l -0.136,-0.409 h -0.072 c 0.019,0.383 0.041,0.895 0.041,1.364 0,0.3 -0.022,1.122 -0.041,1.399 h 0.393 c 0.152,0 0.309,0.018 0.457,0.03 v -0.075 c -0.305,-0.096 -0.474,-0.152 -0.552,-0.215 -0.061,-0.056 -0.065,-0.135 -0.065,-0.707 0,-0.239 0.014,-0.491 0.021,-0.741 0.22,-0.01 0.457,-0.026 0.692,-0.026 h 0.707 v 0.553 c 0,0.646 -0.013,0.708 -0.126,0.754 l -0.392,0.138 v 0.074 c 0.216,-0.006 0.418,-0.01 0.626,-0.01 0.193,0 0.387,0.004 0.587,0.01 V 63.03 l -0.367,-0.138 c -0.118,-0.045 -0.126,-0.108 -0.126,-0.754 v -0.553 h 0.637 c 0.219,0 0.41,0.016 0.593,0.026 0.002,0.195 0.013,0.444 0.013,0.751 0,0.613 0,0.657 -0.144,0.708 l -0.391,0.141 v 0.074 c 0.115,-0.005 0.292,-0.014 0.372,-0.014 0.076,0 0.263,0.009 0.394,0.014 -0.019,-0.468 -0.043,-0.971 -0.043,-1.48 0,-0.401 0.024,-0.812 0.043,-1.25 h -0.074 z"
                     inkscape:connector-curvature="0"
                     style="fill:#1d1d1b" />
                  <path
                     id="path74"
                     d="m 332.737,64.271 c -0.976,0 -0.912,1.672 -1.647,1.672 -0.486,0 -0.672,-0.391 -0.672,-0.814 0,-0.138 0.033,-0.385 0.119,-0.545 l 0.67,-0.183 v -0.076 l -0.842,-0.089 c -0.113,0.306 -0.149,0.533 -0.149,0.789 0,1.049 0.522,1.397 0.973,1.397 1.073,0 0.863,-1.67 1.682,-1.67 0.346,0 0.597,0.309 0.597,0.646 0,0.182 -0.03,0.357 -0.1,0.541 l -0.571,0.205 v 0.062 l 0.711,0.029 c 0.099,-0.222 0.163,-0.565 0.163,-0.789 -10e-4,-0.577 -0.306,-1.175 -0.934,-1.175 z"
                     inkscape:connector-curvature="0"
                     style="fill:#1d1d1b" />
                </g>
                <g
                   id="g86">
                  <path
                     id="path78"
                     d="m 288.262,69.017 c 1.089,0.053 2.157,0.104 3.243,0.104 1.082,0 2.154,-0.051 3.24,-0.104 v 2.182 h -0.175 l -0.375,-1.025 c -0.163,-0.437 -0.297,-0.486 -2.169,-0.486 v 5.584 c 0,0.643 0.026,0.977 0.099,1.154 0.077,0.17 0.338,0.321 1.287,0.643 v 0.179 c -0.588,-0.05 -1.137,-0.102 -1.907,-0.102 -0.774,0 -1.325,0.051 -1.911,0.102 v -0.179 c 0.952,-0.321 1.226,-0.473 1.285,-0.643 0.077,-0.177 0.101,-0.511 0.101,-1.154 v -5.584 c -1.867,0 -2.004,0.05 -2.17,0.486 l -0.37,1.025 h -0.178 z"
                     inkscape:connector-curvature="0"
                     style="fill:#1d1d1b" />
                  <path
                     id="path80"
                     d="m 300.571,77.068 0.961,-0.321 c 0.312,-0.102 0.352,-0.176 0.363,-1.166 0.01,-0.765 0.033,-1.55 0.033,-2.318 0,-0.771 -0.023,-1.552 -0.033,-2.321 -0.027,-1.204 -0.039,-1.307 -0.274,-1.387 l -1.05,-0.357 v -0.18 c 0.599,0.053 1.211,0.104 1.909,0.104 0.622,0 1.233,-0.051 1.854,-0.104 v 0.18 l -1.042,0.357 c -0.24,0.08 -0.253,0.183 -0.276,1.387 -0.013,0.769 -0.037,1.55 -0.037,2.321 0,0.768 0.024,1.554 0.037,2.294 0.012,0.986 0.053,1.064 0.365,1.18 l 0.953,0.332 v 0.179 c -0.582,-0.05 -1.307,-0.102 -1.854,-0.102 -0.624,0 -1.348,0.051 -1.909,0.102 z"
                     inkscape:connector-curvature="0"
                     style="fill:#1d1d1b" />
                  <path
                     id="path82"
                     d="m 310.678,74.953 h 0.176 l 0.423,1.655 c 0.374,0.216 0.958,0.294 1.272,0.294 0.999,0 1.905,-0.46 1.905,-1.654 0,-1.82 -3.899,-1.665 -3.899,-4.08 0,-1.548 1.396,-2.305 2.741,-2.305 0.522,0 1.32,0.17 1.845,0.411 l -0.074,1.756 h -0.136 l -0.486,-1.423 c -0.426,-0.165 -0.834,-0.245 -1.262,-0.245 -0.781,0 -1.507,0.63 -1.507,1.49 0,2.011 3.901,1.5 3.901,4.154 0,1.111 -0.812,2.397 -3.264,2.397 -0.6,0 -1.134,-0.08 -1.848,-0.359 z"
                     inkscape:connector-curvature="0"
                     style="fill:#1d1d1b" />
                  <path
                     id="path84"
                     d="m 322.308,74.953 h 0.171 l 0.424,1.655 c 0.377,0.216 0.961,0.294 1.27,0.294 0.999,0 1.91,-0.46 1.91,-1.654 0,-1.82 -3.898,-1.665 -3.898,-4.08 0,-1.548 1.393,-2.305 2.742,-2.305 0.519,0 1.318,0.17 1.843,0.411 l -0.075,1.756 h -0.142 l -0.485,-1.423 c -0.421,-0.165 -0.832,-0.241 -1.257,-0.241 -0.784,0 -1.506,0.625 -1.506,1.485 0,2.011 3.9,1.5 3.9,4.154 0,1.111 -0.812,2.397 -3.267,2.397 -0.598,0 -1.133,-0.076 -1.845,-0.359 z"
                     inkscape:connector-curvature="0"
                     style="fill:#1d1d1b" />
                </g>
                <rect
                   id="rect88"
                   height="0.86199999"
                   width="52.522999"
                   y="81.261002"
                   x="281.03799"
                   style="fill:#1d1d1b" />
                <path
                   id="path90"
                   d="m 326.837,47.218 v 0.024 c -2.681,0.288 -5.097,0.534 -7.252,0.772 -0.85,0.098 -2.627,0.404 -3.697,0.022 -0.218,-0.076 -0.883,-0.403 -0.337,-0.632 0,0 0,0 0.003,0 l 0.009,-0.004 c 0.912,-0.406 4.655,-0.583 11.267,-0.719 0.006,0.181 0.007,0.355 0.007,0.537 z m 0,0.507 c -3.189,0.262 -5.836,0.58 -8.007,0.979 -0.174,0.032 -0.34,0.062 -0.504,0.097 1.593,0.409 3.218,0.733 4.814,1.133 1.373,0.345 2.604,0.667 3.696,0.95 v -3.159 z m -38.444,3.024 c 1.319,-0.792 2.812,-1.205 4.256,-1.655 2.434,-0.826 0.806,-1.132 -2.388,-4.186 -0.424,-0.392 -0.996,-0.902 -1.533,-1.378 -0.21,1.149 -0.326,2.332 -0.335,3.541 0,0.05 0,0.1 0,0.147 v 0 z m 0.504,-8.058 c 1.226,1.389 2.371,2.438 3.338,3.182 1.265,0.951 2.349,1.728 3.266,2.341 4.62,3.609 5.021,1.833 1.457,-1.062 -1.658,-1.462 -3.64,-2.417 -5.906,-3.701 -0.665,-0.421 -1.348,-0.83 -2.042,-1.224 -0.034,0.154 -0.075,0.312 -0.113,0.464 z m 0.27,-1.041 c 0.098,-0.344 0.202,-0.682 0.314,-1.015 1.579,0.437 4.039,1.199 6.126,1.879 3.565,4.019 -1.339,2.543 -6.44,-0.864 z m 0.55,-1.655 c 1.707,0.521 3.303,1.02 4.915,1.491 -0.963,-0.955 -2.27,-2.127 -3.995,-3.553 -0.341,0.669 -0.651,1.357 -0.92,2.062 z m 1.21,-2.594 c 0.058,-0.104 0.119,-0.207 0.176,-0.311 1.186,0.482 2.299,1.15 3.331,1.906 L 294.442,39 c 1.45,1.019 2.711,2.208 3.7,3.458 -0.787,-0.2 -1.55,-0.409 -2.308,-0.622 -0.047,-0.055 -0.096,-0.11 -0.146,-0.166 -1.445,-1.571 -3.048,-3.006 -4.761,-4.269 z m 0.415,-0.709 c 0.143,-0.231 0.287,-0.457 0.437,-0.682 0.522,0.394 1.271,0.884 1.62,1.014 2.539,1.091 3.635,0.383 3.599,0.393 0.027,0.052 0.097,0.176 0.104,0.213 0.237,0.798 2.437,4.84 -0.235,2.589 v 0 l -0.007,-0.003 c -0.109,-0.096 -0.227,-0.197 -0.348,-0.309 -0.605,-0.511 -1.439,-1.142 -2.35,-1.731 -0.932,-0.593 -1.902,-1.117 -2.82,-1.484 z m 0.574,-0.886 c 2.089,1.43 2.727,-0.044 1.841,-2.294 -0.665,0.715 -1.282,1.481 -1.841,2.294 z m 2.034,-2.494 c 0.387,-0.405 0.795,-0.791 1.218,-1.16 0.159,0.337 0.492,1.021 0.58,1.258 2.414,5.205 -0.894,3.678 -1.589,3.409 0.796,-0.773 0.234,-2.668 -0.209,-3.507 z m 1.52,-1.419 c 0.034,-0.027 0.067,-0.053 0.101,-0.082 1.206,0.895 4.013,5.034 6.825,7.189 1.948,4.247 0.717,4.354 -2.025,4.001 v 0 c -0.066,-0.014 -0.136,-0.032 -0.201,-0.045 -1.212,-2.516 -2.373,-5.26 -3.163,-7.407 l -0.186,-0.505 c -0.363,-0.968 -0.903,-2.182 -1.351,-3.151 z m 0.48,-0.393 c 1.063,0.986 3.479,3.932 5.646,5.869 -0.417,-0.808 -0.907,-1.724 -1.492,-2.759 -0.622,-1.187 -1.565,-2.904 -2.411,-4.333 -0.603,0.376 -1.181,0.786 -1.743,1.223 z m 2.214,-1.502 c 0.39,0.726 2.265,3.979 4.238,7.649 0.237,0.437 0.797,1.009 1.438,1.316 0.566,0.248 1.043,0.278 1.381,-0.009 0.1,-0.057 0.182,-0.145 0.255,-0.258 -1.244,-2.064 -3.281,-4.684 -6.473,-9.159 -0.284,0.146 -0.565,0.299 -0.839,0.461 z m 1.261,-0.673 c 0.986,-0.48 2.018,-0.871 3.085,-1.174 0.82,1.078 1.583,2.126 2.248,3.049 -0.75,0.354 -2.034,0.1 -3.934,-0.858 -0.499,-0.258 -0.979,-0.616 -1.399,-1.017 z m 3.923,-1.39 c 0.638,-0.15 1.284,-0.265 1.944,-0.347 0.018,0.058 0.036,0.128 0.059,0.217 0.117,0.403 0.165,0.832 0.197,1.226 0.068,0.821 -0.044,1.438 -0.358,1.829 -0.502,-0.65 -1.109,-1.601 -1.842,-2.925 z m 2.474,-0.404 c 0.462,-0.045 0.928,-0.073 1.398,-0.081 0.275,1.156 0.611,5.144 -0.826,4.535 -0.116,-1.523 -0.243,-3.048 -0.572,-4.454 z m 1.996,-0.084 0.01,0.13 v 0.003 c 0.015,0.317 0.026,0.696 0.035,1.134 v 0 c 0.013,5.067 1.649,16.347 1.883,4.996 l 0.124,-6.133 c -0.674,-0.077 -1.358,-0.125 -2.052,-0.13 z m 2.486,0.187 c 0.384,0.056 0.765,0.123 1.144,0.203 -0.316,1.264 -0.514,2.571 -0.681,3.885 -0.416,-0.206 -0.597,-1.265 -0.463,-4.088 z m 1.458,0.269 c -0.298,1.203 -0.446,2.089 -0.438,2.727 -0.004,0.051 -0.004,0.104 0,0.161 v 0 c 0.009,0.303 0.078,0.549 0.195,0.741 0.131,-0.081 0.264,-0.18 0.406,-0.288 v 0 c 1.052,-0.789 2.155,-1.487 3.29,-2.146 l 0.049,-0.029 c -1.118,-0.497 -2.287,-0.892 -3.502,-1.166 z m 4.194,1.493 c 0.5,0.248 0.986,0.516 1.46,0.807 -0.17,0.167 -0.439,0.374 -0.737,0.557 -1.276,0.806 -2.86,1.312 -3.92,1.315 -0.129,0 -0.254,-0.007 -0.368,-0.023 -0.006,0 -0.011,0 -0.019,-0.002 -0.011,0 -0.019,-0.003 -0.028,-0.005 h -0.009 c -0.009,-0.002 -0.015,-0.005 -0.021,-0.005 -0.115,-0.021 -0.223,-0.054 -0.315,-0.096 1.012,-1.333 2.782,-2.096 3.957,-2.548 z m 1.836,1.043 c -0.688,0.683 -1.863,1.306 -3.554,1.84 -0.06,0.016 -0.117,0.034 -0.173,0.052 l -0.016,0.007 h -0.005 c -0.906,0.281 -1.684,0.508 -2.331,1.075 -0.324,0.284 -0.73,0.897 -0.972,1.745 -0.399,1.595 -0.339,2.89 1.176,2.036 0.287,-0.183 0.598,-0.411 0.926,-0.669 2.001,-1.578 4.952,-4.646 5.709,-5.572 -0.249,-0.177 -0.5,-0.35 -0.76,-0.514 z m 1.281,0.898 c -1.031,0.875 -2.474,2.487 -4.673,4.51 -0.122,0.114 -0.248,0.227 -0.372,0.337 l -0.018,0.019 c -0.016,0.011 -0.028,0.028 -0.043,0.041 -0.555,0.503 -1.099,1.004 -1.608,1.478 v 0 c -1.546,1.626 -0.542,3.256 2.008,1.547 0.879,-0.68 1.775,-1.739 2.62,-2.845 v 0 l 0.003,-0.002 c 0.362,-0.479 0.715,-0.958 1.048,-1.423 0.912,-1.207 1.663,-2.125 2.193,-2.7 -0.372,-0.337 -0.759,-0.657 -1.158,-0.962 z m 1.487,1.261 c 0.555,0.522 1.082,1.081 1.577,1.663 -0.16,0.09 -0.439,0.239 -0.77,0.424 -1.971,1.008 -4.945,2.362 -1.632,-1.247 0.244,-0.254 0.52,-0.536 0.825,-0.84 z m 1.787,1.915 c 0.177,0.223 0.35,0.444 0.518,0.67 -0.432,0.316 -0.853,0.615 -1.257,0.896 -5.279,4.063 -8.106,3.85 -4.188,0.983 0.954,-0.702 2.11,-1.145 3.171,-1.674 0.82,-0.412 1.419,-0.7 1.756,-0.875 z m 0.824,1.089 c 0.312,0.446 0.613,0.905 0.89,1.376 -0.247,0.265 -0.779,0.76 -1.446,1.305 -1.876,1.531 -3.777,2.778 -7.072,2.71 -0.303,-0.008 -0.468,-0.083 -0.002,-0.338 l 0.07,-0.04 0.003,-0.003 v 0 c 1.363,-0.728 2.69,-1.604 4.219,-2.589 1.099,-0.757 2.223,-1.566 3.338,-2.421 z m 1.116,1.771 c -0.418,0.344 -0.832,0.691 -1.236,1.05 -2.278,2.036 -2.229,2.221 0.076,1.947 0.797,-0.092 1.586,-0.257 2.368,-0.414 -0.341,-0.892 -0.745,-1.756 -1.208,-2.583 z m 1.371,3.016 c -4.457,0.958 -9.162,1.064 -12.542,2.382 -0.177,0.071 -0.357,0.14 -0.524,0.218 -0.015,0.003 -0.027,0.01 -0.041,0.02 -0.63,0.307 -1.114,0.686 -1.457,1.134 -1.197,1.711 0.668,3.712 3.081,2.37 0.01,-0.01 0.025,-0.016 0.038,-0.022 2.603,-1.646 6.635,-3.22 11.852,-4.82 -0.123,-0.435 -0.258,-0.862 -0.407,-1.282 z m 0.557,1.828 c 0.064,0.253 0.122,0.506 0.176,0.761 -1.923,1.21 -3.515,2.353 -4.34,2.908 -0.803,0.546 -1.48,0.55 -2.529,0.566 -1.521,0.019 -2.262,-0.053 -1.997,-0.509 0.42,-0.733 3.243,-1.985 8.69,-3.726 z m 0.27,1.225 c 0.162,0.867 0.268,1.75 0.32,2.653 -1.227,0.076 -2.18,0.1 -2.814,0.061 v 0 c -0.356,-0.02 -1.092,-0.097 -0.664,-0.6 0.029,-0.033 0.067,-0.074 0.107,-0.113 0.87,-0.821 2.034,-1.378 3.051,-2.001 z m -23.03,-3.729 c 0.649,1.299 1.264,2.615 1.793,3.854 v 0 c 0.449,1.09 1.08,2.389 1.071,0.618 -0.139,-2.129 -0.936,-3.384 -2.864,-4.472 z m 0.603,9.657 c 0.399,-0.171 -0.782,-2.774 -2.335,-4.037 v 0 c -0.187,-0.153 -0.386,-0.301 -0.595,-0.444 0.305,0.587 0.604,1.145 0.898,1.661 0.23,0.411 0.44,0.816 0.662,1.23 0.558,1.022 1.115,1.621 1.37,1.59 z m -5.052,-5.685 c 0.69,1.109 1.163,2.241 1.344,3.325 v 0.001 c 0.16,0.836 0.062,1.355 -0.543,0.394 v 0 0 c -0.079,-0.123 -0.162,-0.27 -0.257,-0.438 -0.424,-0.715 -1.118,-1.797 -2.162,-3.271 -0.207,-0.274 -0.426,-0.539 -0.642,-0.807 0.961,0.325 1.767,0.607 2.26,0.796 z m 7.56,-9.667 c 0.796,1.68 1.484,3.958 0.646,4.046 -0.095,-0.654 -0.196,-1.242 -0.312,-1.785 -0.151,-0.725 -0.252,-1.485 -0.334,-2.261 z m -0.715,3.333 c 0.193,-2.024 -0.471,-5.196 -1.827,-5.461 -0.109,-0.029 -0.234,-0.056 -0.36,-0.083 -0.785,-0.19 -2.243,-0.569 -3.464,-1.326 1.299,1.878 2.748,3.934 4.115,5.396 0.611,0.645 1.115,1.128 1.536,1.474 z"
                   inkscape:connector-curvature="0"
                   style="clip-rule:evenodd;fill:#026937;fill-rule:evenodd" />
              </g>
              <g
                 id="g180">
                <g
                   id="g108">
                  <rect
                     id="rect94"
                     height="4.6789999"
                     width="10.52"
                     y="44.073002"
                     x="407.526"
                     style="fill:#231f20" />
                  <rect
                     id="rect96"
                     height="15.206"
                     width="4.2069998"
                     y="44.073002"
                     x="387.013"
                     style="fill:#231f20" />
                  <rect
                     id="rect98"
                     height="22.223"
                     width="4.2080002"
                     y="44.073002"
                     x="393.85101"
                     style="fill:#231f20" />
                  <rect
                     id="rect100"
                     height="22.223"
                     width="4.2080002"
                     y="44.073002"
                     x="380.17499"
                     style="fill:#231f20" />
                  <rect
                     id="rect102"
                     height="14.621"
                     width="4.2080002"
                     y="51.674999"
                     x="407.526"
                     style="fill:#231f20" />
                  <rect
                     id="rect104"
                     height="4.6789999"
                     width="4.2080002"
                     y="44.073002"
                     x="400.68799"
                     style="fill:#231f20" />
                  <rect
                     id="rect106"
                     height="14.621"
                     width="4.2080002"
                     y="51.674999"
                     x="400.68799"
                     style="fill:#a41f35" />
                </g>
                <g
                   id="g178">
                  <path
                     id="path110"
                     d="m 427.005,44.083 h 1.716 l 0.827,3.867 h 0.014 l 0.855,-3.867 h 1.695 v 5.204 h -1.104 v -4.041 h -0.014 l -0.928,4.041 h -1.031 l -0.954,-4.041 h -0.013 v 4.041 h -1.064 v -5.204 z"
                     inkscape:connector-curvature="0"
                     style="fill:#010101" />
                  <path
                     id="path112"
                     d="m 435.952,48.476 c 0,0.271 0.007,0.57 0.092,0.811 h -0.945 c -0.04,-0.131 -0.06,-0.27 -0.066,-0.402 h -0.014 c -0.171,0.307 -0.684,0.504 -1.052,0.504 -0.67,0 -1.17,-0.409 -1.17,-1.155 0,-0.936 0.677,-1.264 1.795,-1.439 l 0.375,-0.059 v -0.322 c 0,-0.292 -0.211,-0.417 -0.486,-0.417 -0.33,0 -0.486,0.132 -0.539,0.519 h -0.986 c 0.032,-1.118 0.967,-1.221 1.439,-1.221 0.953,0 1.552,0.249 1.558,1.125 v 2.056 z m -0.985,-1.082 -0.69,0.22 c -0.256,0.081 -0.493,0.19 -0.493,0.504 0,0.307 0.23,0.438 0.479,0.438 0.401,0 0.704,-0.3 0.704,-0.892 z"
                     inkscape:connector-curvature="0"
                     style="fill:#010101" />
                  <path
                     id="path114"
                     d="m 439.168,46.546 c -0.204,-0.271 -0.645,-0.416 -0.967,-0.416 -0.256,0 -0.439,0.102 -0.439,0.299 0,0.665 2.069,0.117 2.069,1.572 0,1.023 -0.815,1.388 -1.577,1.388 -0.763,0 -1.196,-0.241 -1.709,-0.767 l 0.638,-0.614 c 0.315,0.336 0.638,0.548 1.104,0.548 0.171,0 0.559,-0.044 0.559,-0.395 0,-0.606 -2.071,-0.124 -2.071,-1.505 0,-0.979 0.77,-1.359 1.479,-1.359 0.539,0 1.072,0.212 1.545,0.563 z"
                     inkscape:connector-curvature="0"
                     style="fill:#010101" />
                  <path
                     id="path116"
                     d="m 442.823,46.546 c -0.204,-0.271 -0.645,-0.416 -0.966,-0.416 -0.257,0 -0.441,0.102 -0.441,0.299 0,0.665 2.071,0.117 2.071,1.572 0,1.023 -0.815,1.388 -1.578,1.388 -0.762,0 -1.195,-0.241 -1.708,-0.767 l 0.637,-0.614 c 0.316,0.336 0.638,0.548 1.104,0.548 0.171,0 0.56,-0.044 0.56,-0.395 0,-0.606 -2.071,-0.124 -2.071,-1.505 0,-0.979 0.77,-1.359 1.479,-1.359 0.54,0 1.071,0.212 1.545,0.563 z"
                     inkscape:connector-curvature="0"
                     style="fill:#010101" />
                  <path
                     id="path118"
                     d="m 447.163,48.476 c 0,0.271 0.007,0.57 0.092,0.811 h -0.947 c -0.039,-0.131 -0.059,-0.27 -0.065,-0.402 h -0.013 c -0.171,0.307 -0.684,0.504 -1.052,0.504 -0.67,0 -1.17,-0.409 -1.17,-1.155 0,-0.936 0.677,-1.264 1.794,-1.439 l 0.375,-0.059 v -0.322 c 0,-0.292 -0.21,-0.417 -0.487,-0.417 -0.328,0 -0.485,0.132 -0.538,0.519 h -0.986 c 0.033,-1.118 0.967,-1.221 1.439,-1.221 0.954,0 1.552,0.249 1.559,1.125 v 2.056 z m -0.986,-1.082 -0.69,0.22 c -0.256,0.081 -0.493,0.19 -0.493,0.504 0,0.307 0.23,0.438 0.479,0.438 0.402,0 0.704,-0.3 0.704,-0.892 z"
                     inkscape:connector-curvature="0"
                     style="fill:#010101" />
                  <path
                     id="path120"
                     d="m 450.377,46.708 c -0.184,-0.438 -0.498,-0.533 -0.657,-0.533 -0.584,0 -0.795,0.504 -0.795,1.169 0,0.665 0.25,1.169 0.795,1.169 0.316,0 0.565,-0.132 0.73,-0.57 l 0.736,0.417 c -0.315,0.621 -0.889,1.03 -1.558,1.03 -1.046,0 -1.769,-0.738 -1.769,-2.046 0,-1.286 0.77,-2.046 1.735,-2.046 0.664,0 1.235,0.271 1.571,0.95 z"
                     inkscape:connector-curvature="0"
                     style="fill:#010101" />
                  <path
                     id="path122"
                     d="m 451.766,44.083 h 1.025 v 1.681 h 0.014 c 0.196,-0.3 0.638,-0.468 0.959,-0.468 0.736,0 1.099,0.475 1.099,1.257 v 2.733 h -1.026 v -2.331 c 0,-0.6 -0.289,-0.738 -0.512,-0.738 -0.238,0 -0.533,0.168 -0.533,0.892 v 2.178 h -1.025 v -5.204 z"
                     inkscape:connector-curvature="0"
                     style="fill:#010101" />
                  <path
                     id="path124"
                     d="m 458.879,49.287 h -1.025 v -0.343 c -0.263,0.343 -0.697,0.446 -1.013,0.446 -0.828,0 -1.059,-0.534 -1.059,-1.118 V 45.4 h 1.026 v 2.543 c 0,0.343 0.111,0.526 0.5,0.526 0.295,0 0.545,-0.183 0.545,-0.606 V 45.4 h 1.025 v 3.887 z"
                     inkscape:connector-curvature="0"
                     style="fill:#010101" />
                  <path
                     id="path126"
                     d="m 462.067,46.546 c -0.204,-0.271 -0.644,-0.416 -0.966,-0.416 -0.257,0 -0.44,0.102 -0.44,0.299 0,0.665 2.07,0.117 2.07,1.572 0,1.023 -0.815,1.388 -1.577,1.388 -0.763,0 -1.196,-0.241 -1.709,-0.767 l 0.638,-0.614 c 0.315,0.336 0.638,0.548 1.104,0.548 0.172,0 0.559,-0.044 0.559,-0.395 0,-0.606 -2.07,-0.124 -2.07,-1.505 0,-0.979 0.77,-1.359 1.479,-1.359 0.539,0 1.071,0.212 1.545,0.563 z"
                     inkscape:connector-curvature="0"
                     style="fill:#010101" />
                  <path
                     id="path128"
                     d="m 464.231,47.577 c 0.007,0.746 0.435,0.979 0.762,0.979 0.382,0 0.56,-0.219 0.854,-0.688 l 0.77,0.446 c -0.354,0.731 -0.913,1.075 -1.695,1.075 -1.086,0 -1.717,-0.833 -1.717,-1.929 0,-1.374 0.651,-2.164 1.717,-2.164 1.274,0 1.708,1.082 1.716,2.28 h -2.407 z m 1.381,-0.702 c -0.033,-0.57 -0.402,-0.745 -0.697,-0.745 -0.295,0 -0.651,0.233 -0.697,0.745 z"
                     inkscape:connector-curvature="0"
                     style="fill:#010101" />
                  <path
                     id="path130"
                     d="m 469.083,46.174 h -0.611 v 1.907 c 0,0.307 0.138,0.387 0.322,0.387 0.111,0 0.256,-0.015 0.309,-0.021 v 0.898 c -0.131,0.015 -0.434,0.044 -0.657,0.044 -0.874,0 -0.998,-0.606 -0.998,-1.169 v -2.046 h -0.5 v -0.702 h 0.5 v -1.125 h 1.024 v 1.125 h 0.611 z"
                     inkscape:connector-curvature="0"
                     style="fill:#010101" />
                  <path
                     id="path132"
                     d="m 471.398,46.174 h -0.611 v 1.907 c 0,0.307 0.137,0.387 0.32,0.387 0.112,0 0.257,-0.015 0.311,-0.021 v 0.898 c -0.133,0.015 -0.435,0.044 -0.658,0.044 -0.875,0 -0.999,-0.606 -0.999,-1.169 v -2.046 h -0.5 v -0.702 h 0.5 v -1.125 h 1.026 v 1.125 h 0.611 z"
                     inkscape:connector-curvature="0"
                     style="fill:#010101" />
                  <path
                     id="path134"
                     d="m 474.251,46.546 c -0.203,-0.271 -0.645,-0.416 -0.967,-0.416 -0.256,0 -0.439,0.102 -0.439,0.299 0,0.665 2.069,0.117 2.069,1.572 0,1.023 -0.813,1.388 -1.577,1.388 -0.763,0 -1.196,-0.241 -1.709,-0.767 l 0.638,-0.614 c 0.315,0.336 0.638,0.548 1.104,0.548 0.171,0 0.559,-0.044 0.559,-0.395 0,-0.606 -2.071,-0.124 -2.071,-1.505 0,-0.979 0.77,-1.359 1.479,-1.359 0.539,0 1.072,0.212 1.545,0.563 z"
                     inkscape:connector-curvature="0"
                     style="fill:#010101" />
                  <path
                     id="path136"
                     d="m 427.031,52.593 h 1.17 v 5.204 h -1.17 z"
                     inkscape:connector-curvature="0"
                     style="fill:#010101" />
                  <path
                     id="path138"
                     d="m 429.115,53.908 h 1.024 v 0.344 c 0.264,-0.344 0.697,-0.446 1.014,-0.446 0.828,0 1.058,0.534 1.058,1.118 v 2.872 h -1.024 v -2.434 c 0,-0.38 -0.105,-0.636 -0.501,-0.636 -0.414,0 -0.546,0.299 -0.546,0.65 v 2.419 h -1.024 v -3.887 z"
                     inkscape:connector-curvature="0"
                     style="fill:#010101" />
                  <path
                     id="path140"
                     d="m 435.4,55.056 c -0.204,-0.27 -0.645,-0.416 -0.967,-0.416 -0.256,0 -0.44,0.102 -0.44,0.299 0,0.666 2.07,0.117 2.07,1.572 0,1.023 -0.814,1.389 -1.577,1.389 -0.763,0 -1.196,-0.241 -1.709,-0.768 l 0.638,-0.614 c 0.316,0.336 0.638,0.548 1.104,0.548 0.171,0 0.559,-0.044 0.559,-0.395 0,-0.607 -2.071,-0.125 -2.071,-1.505 0,-0.979 0.771,-1.359 1.479,-1.359 0.538,0 1.071,0.212 1.545,0.563 z"
                     inkscape:connector-curvature="0"
                     style="fill:#010101" />
                  <path
                     id="path142"
                     d="m 438.518,54.683 h -0.611 v 1.908 c 0,0.307 0.138,0.387 0.321,0.387 0.111,0 0.257,-0.015 0.31,-0.022 v 0.899 c -0.132,0.015 -0.435,0.044 -0.657,0.044 -0.875,0 -1,-0.607 -1,-1.169 v -2.046 h -0.5 v -0.702 h 0.5 v -1.125 h 1.026 v 1.125 h 0.611 z"
                     inkscape:connector-curvature="0"
                     style="fill:#010101" />
                  <path
                     id="path144"
                     d="m 439.104,53.47 v -0.877 h 1.024 v 0.877 z m 1.024,0.438 v 3.888 h -1.024 v -3.888 z"
                     inkscape:connector-curvature="0"
                     style="fill:#010101" />
                  <path
                     id="path146"
                     d="m 442.777,54.683 h -0.611 v 1.908 c 0,0.307 0.138,0.387 0.322,0.387 0.111,0 0.256,-0.015 0.309,-0.022 v 0.899 c -0.131,0.015 -0.435,0.044 -0.657,0.044 -0.874,0 -0.999,-0.607 -0.999,-1.169 v -2.046 h -0.5 v -0.702 h 0.5 v -1.125 h 1.025 v 1.125 h 0.611 z"
                     inkscape:connector-curvature="0"
                     style="fill:#010101" />
                  <path
                     id="path148"
                     d="m 446.458,57.796 h -1.024 v -0.343 c -0.263,0.343 -0.697,0.446 -1.013,0.446 -0.828,0 -1.058,-0.533 -1.058,-1.119 v -2.872 h 1.024 v 2.543 c 0,0.344 0.112,0.526 0.5,0.526 0.296,0 0.546,-0.183 0.546,-0.607 v -2.463 h 1.024 v 3.889 z"
                     inkscape:connector-curvature="0"
                     style="fill:#010101" />
                  <path
                     id="path150"
                     d="m 449.108,54.683 h -0.61 v 1.908 c 0,0.307 0.138,0.387 0.321,0.387 0.111,0 0.256,-0.015 0.309,-0.022 v 0.899 c -0.131,0.015 -0.434,0.044 -0.656,0.044 -0.875,0 -1,-0.607 -1,-1.169 v -2.046 h -0.5 v -0.702 h 0.5 v -1.125 h 1.026 v 1.125 h 0.61 z"
                     inkscape:connector-curvature="0"
                     style="fill:#010101" />
                  <path
                     id="path152"
                     d="m 450.47,56.086 c 0.006,0.746 0.434,0.979 0.763,0.979 0.381,0 0.559,-0.22 0.854,-0.687 l 0.769,0.446 c -0.354,0.73 -0.913,1.074 -1.696,1.074 -1.083,0 -1.715,-0.833 -1.715,-1.929 0,-1.375 0.65,-2.164 1.715,-2.164 1.276,0 1.71,1.082 1.717,2.28 h -2.407 z m 1.381,-0.702 c -0.034,-0.569 -0.401,-0.745 -0.697,-0.745 -0.296,0 -0.65,0.233 -0.697,0.745 z"
                     inkscape:connector-curvature="0"
                     style="fill:#010101" />
                  <path
                     id="path154"
                     d="m 458.891,55.853 c 0,1.308 -0.768,2.046 -1.859,2.046 -1.091,0 -1.86,-0.739 -1.86,-2.046 0,-1.308 0.77,-2.046 1.86,-2.046 1.091,-0.001 1.859,0.737 1.859,2.046 z m -2.695,0 c 0,0.665 0.249,1.169 0.835,1.169 0.585,0 0.834,-0.504 0.834,-1.213 0,-0.621 -0.249,-1.125 -0.834,-1.125 -0.586,-10e-4 -0.835,0.504 -0.835,1.169 z"
                     inkscape:connector-curvature="0"
                     style="fill:#010101" />
                  <path
                     id="path156"
                     d="m 459.694,54.683 h -0.54 v -0.702 h 0.54 v -0.38 c 0,-0.439 0.125,-1.067 1,-1.067 0.223,0 0.537,0.036 0.67,0.088 v 0.833 h -0.29 c -0.177,0 -0.354,0.059 -0.354,0.278 v 0.249 h 0.631 v 0.702 h -0.631 v 3.113 h -1.025 v -3.114 z"
                     inkscape:connector-curvature="0"
                     style="fill:#010101" />
                  <path
                     id="path158"
                     d="m 425.815,61.102 h 3.615 v 1.009 h -1.224 v 4.195 h -1.169 v -4.195 h -1.223 v -1.009 z"
                     inkscape:connector-curvature="0"
                     style="fill:#010101" />
                  <path
                     id="path160"
                     d="m 430.259,64.596 c 0.007,0.746 0.435,0.979 0.764,0.979 0.381,0 0.558,-0.219 0.854,-0.688 l 0.769,0.446 c -0.355,0.731 -0.913,1.075 -1.696,1.075 -1.084,0 -1.716,-0.833 -1.716,-1.929 0,-1.375 0.651,-2.164 1.716,-2.164 1.275,0 1.709,1.082 1.716,2.28 h -2.407 z m 1.381,-0.702 c -0.033,-0.57 -0.401,-0.746 -0.697,-0.746 -0.296,0 -0.65,0.234 -0.696,0.746 z"
                     inkscape:connector-curvature="0"
                     style="fill:#010101" />
                  <path
                     id="path162"
                     d="m 435.649,63.726 c -0.184,-0.439 -0.498,-0.534 -0.657,-0.534 -0.584,0 -0.795,0.504 -0.795,1.169 0,0.665 0.25,1.169 0.795,1.169 0.316,0 0.565,-0.132 0.73,-0.57 l 0.736,0.417 c -0.316,0.621 -0.889,1.03 -1.559,1.03 -1.045,0 -1.768,-0.738 -1.768,-2.046 0,-1.287 0.769,-2.046 1.735,-2.046 0.663,0 1.235,0.271 1.571,0.95 z"
                     inkscape:connector-curvature="0"
                     style="fill:#010101" />
                  <path
                     id="path164"
                     d="m 437.038,61.102 h 1.025 v 1.681 h 0.013 c 0.197,-0.3 0.639,-0.468 0.96,-0.468 0.737,0 1.098,0.475 1.098,1.257 v 2.733 h -1.024 v -2.331 c 0,-0.6 -0.29,-0.738 -0.514,-0.738 -0.237,0 -0.532,0.168 -0.532,0.892 v 2.178 h -1.025 v -5.204 z"
                     inkscape:connector-curvature="0"
                     style="fill:#010101" />
                  <path
                     id="path166"
                     d="m 441.056,62.418 h 1.024 v 0.343 c 0.263,-0.343 0.697,-0.446 1.013,-0.446 0.828,0 1.059,0.533 1.059,1.118 v 2.872 h -1.025 v -2.434 c 0,-0.38 -0.105,-0.636 -0.5,-0.636 -0.414,0 -0.546,0.3 -0.546,0.65 v 2.419 h -1.024 v -3.886 z"
                     inkscape:connector-curvature="0"
                     style="fill:#010101" />
                  <path
                     id="path168"
                     d="m 448.543,64.362 c 0,1.308 -0.77,2.046 -1.86,2.046 -1.092,0 -1.86,-0.738 -1.86,-2.046 0,-1.308 0.769,-2.046 1.86,-2.046 1.09,-0.001 1.86,0.738 1.86,2.046 z m -2.694,0 c 0,0.665 0.249,1.169 0.834,1.169 0.586,0 0.835,-0.504 0.835,-1.213 0,-0.622 -0.249,-1.126 -0.835,-1.126 -0.585,0 -0.834,0.505 -0.834,1.17 z"
                     inkscape:connector-curvature="0"
                     style="fill:#010101" />
                  <path
                     id="path170"
                     d="m 449.215,66.306 v -5.204 h 1.025 v 5.204 z"
                     inkscape:connector-curvature="0"
                     style="fill:#010101" />
                  <path
                     id="path172"
                     d="m 454.631,64.362 c 0,1.308 -0.769,2.046 -1.86,2.046 -1.091,0 -1.859,-0.738 -1.859,-2.046 0,-1.308 0.768,-2.046 1.859,-2.046 1.091,0 1.86,0.738 1.86,2.046 z m -2.694,0 c 0,0.665 0.249,1.169 0.834,1.169 0.586,0 0.835,-0.504 0.835,-1.213 0,-0.622 -0.249,-1.126 -0.835,-1.126 -0.585,0 -0.834,0.505 -0.834,1.17 z"
                     inkscape:connector-curvature="0"
                     style="fill:#010101" />
                  <path
                     id="path174"
                     d="m 458.372,62.418 v 3.895 c 0,1.235 -1.137,1.279 -1.676,1.279 -1.052,0 -1.604,-0.395 -1.61,-1.345 h 1.064 c 0.007,0.424 0.224,0.6 0.592,0.6 0.394,0 0.638,-0.088 0.638,-0.658 v -0.446 c -0.225,0.242 -0.657,0.322 -0.967,0.322 -0.979,0 -1.36,-0.877 -1.36,-1.856 0,-0.951 0.447,-1.893 1.373,-1.893 0.382,0 0.71,0.095 1,0.409 v -0.307 z m -1.649,0.73 c -0.322,0 -0.645,0.205 -0.645,1.045 0,0.467 0.092,1.038 0.631,1.038 0.658,0 0.678,-0.636 0.678,-1.038 0,-0.789 -0.349,-1.045 -0.664,-1.045 z"
                     inkscape:connector-curvature="0"
                     style="fill:#010101" />
                  <path
                     id="path176"
                     d="m 459.129,66.7 c 0.118,0.008 0.237,0.015 0.349,0.015 0.309,0 0.474,-0.066 0.474,-0.285 0,-0.059 -0.007,-0.125 -0.093,-0.417 l -1.024,-3.595 h 1.077 l 0.564,2.967 h 0.014 l 0.572,-2.967 h 1.111 l -1.229,4.144 c -0.177,0.592 -0.401,1.03 -1.007,1.03 h -0.808 z"
                     inkscape:connector-curvature="0"
                     style="fill:#010101" />
                </g>
              </g>
            </g>
          </g>
        </g>
        <g
           transform="matrix(0.08269073,0,0,0.08269073,-2.6891374,273.19842)"
           id="g990">
          <g
             id="g830">
            <text
               style="font-size:8.345047px;font-family:Cambria;stroke-width:0.96296418"
               transform="scale(0.9629642,1.0384602)"
               font-size="8.666"
               id="text828-1"
               x="327.37543"
               y="188.16193">Led by</text>
          </g>
        </g>
      </g>
      <g
         id="g317">
        <path
           style="fill:none;stroke:#000000;stroke-width:0.10827234;stroke-linecap:butt;stroke-linejoin:miter;stroke-miterlimit:4;stroke-dasharray:none;stroke-opacity:0.35294118"
           d="M 0.64915227,294.16575 H 35.026009"
           id="path1067"
           inkscape:connector-curvature="0" />
        <text
           xml:space="preserve"
           style="font-style:normal;font-weight:normal;font-size:0.44124982px;line-height:1.25;font-family:sans-serif;letter-spacing:0px;word-spacing:0px;fill:#000000;fill-opacity:1;stroke:none;stroke-width:0.16546869"
           x="0.79111898"
           y="294.81201"
           id="text127-3-2"><tspan
             x="0.79111898"
             y="294.81201"
             style="font-style:normal;font-variant:normal;font-weight:normal;font-stretch:normal;font-size:0.43655121px;font-family:calibri;-inkscape-font-specification:calibri;stroke-width:0.16546869"
             id="tspan1103"> Massachusetts Institute of Technology and Tata Institute of Social Sciences 2016-Present</tspan></text>
        <text
           xml:space="preserve"
           style="font-style:normal;font-weight:normal;font-size:0.44124982px;line-height:1.25;font-family:sans-serif;letter-spacing:0px;word-spacing:0px;fill:#000000;fill-opacity:1;stroke:none;stroke-width:0.16546869"
           x="0.77775842"
           y="296.00763"
           id="text127-3-2-9"><tspan
             x="0.77775842"
             y="296.00763"
             style="font-style:normal;font-variant:normal;font-weight:normal;font-stretch:normal;font-family:calibri;-inkscape-font-specification:calibri;stroke-width:0.16546869"
             id="tspan1128">Except where otherwise noted, content on this platform is licensed under a </tspan><tspan
             x="0.77775842"
             y="296.55917"
             style="font-style:normal;font-variant:normal;font-weight:normal;font-stretch:normal;font-family:calibri;-inkscape-font-specification:calibri;stroke-width:0.16546869"
             id="tspan174">Creative Commons Attribution 4.0 International license</tspan><tspan
             x="0.77775842"
             y="297.11075"
             style="font-style:normal;font-variant:normal;font-weight:normal;font-stretch:normal;font-family:calibri;-inkscape-font-specification:calibri;stroke-width:0.16546869"
             id="tspan172" /></text>
        <g
           id="layer1-6"
           transform="matrix(0.03555242,0,0,0.03555242,10.815909,296.15566)">
          <g
             transform="matrix(0.9875019,0,0,0.9333518,-323.90064,-271.87688)"
             id="BY">
            <g
               id="g3693"
               transform="translate(158,54)">
              <rect
                 style="fill:#ffffff;fill-opacity:1;stroke:#000000;stroke-width:1.04161763;stroke-miterlimit:4;stroke-dasharray:none;stroke-opacity:1"
                 id="rect3695"
                 width="80"
                 height="15"
                 x="170.5"
                 y="237.86218" />
              <rect
                 y="239.36218"
                 x="172"
                 height="12"
                 width="77"
                 id="rect3697"
                 style="fill:#000000;fill-opacity:1;stroke:none;stroke-width:0.92243534;stroke-miterlimit:4;stroke-dasharray:none;stroke-opacity:1" />
              <path
                 inkscape:connector-curvature="0"
                 style="fill:#abb1aa;fill-opacity:1;stroke:none;stroke-width:1;stroke-miterlimit:4;stroke-dasharray:none;stroke-opacity:0.46913578"
                 d="m 171.99996,239.37505 v 12 h 20.33478 c 1.30865,-1.75031 2.19178,-3.78448 2.19178,-6 0,-2.20074 -0.86793,-4.25715 -2.16053,-6 z"
                 id="path3699" />
              <g
                 id="g3701"
                 transform="matrix(0.9612533,0,0,0.9612533,6.8341566,9.5069994)"
                 clip-path="url(#clipPath3442)">
                <path
                   inkscape:connector-curvature="0"
                   id="path3703"
                   cx="296.35416"
                   ry="22.939548"
                   cy="264.3577"
                   type="arc"
                   rx="22.939548"
                   d="m 190.06417,245.36206 c 0.002,3.89199 -3.15091,7.04866 -7.04264,7.05117 -3.89174,0.002 -7.04891,-3.15067 -7.05117,-7.04263 0,-0.003 0,-0.006 0,-0.009 -0.002,-3.89199 3.1509,-7.04866 7.04264,-7.05093 3.89224,-0.002 7.04891,3.15068 7.05117,7.04267 0,0.002 0,0.005 0,0.008 z"
                   style="opacity:1;fill:#ffffff" />
                <path
                   inkscape:connector-curvature="0"
                   d="m 188.74576,239.62226 c 1.56267,1.56266 2.34412,3.47643 2.34412,5.7398 0,2.26386 -0.76791,4.15707 -2.30373,5.67959 -1.62988,1.60356 -3.5562,2.40507 -5.77893,2.40507 -2.1959,0 -4.08885,-0.795 -5.67835,-2.38498 -1.58975,-1.58976 -2.38451,-3.48948 -2.38451,-5.69968 0,-2.20971 0.79476,-4.12298 2.38451,-5.7398 1.54912,-1.56316 3.44207,-2.34462 5.67835,-2.34462 2.26338,0 4.1759,0.78145 5.73854,2.34462 z m -10.36483,1.05129 c -1.32115,1.33445 -1.98148,2.89761 -1.98148,4.69074 0,1.79265 0.65381,3.34253 1.96117,4.64964 1.3076,1.3076 2.86425,1.96116 4.67043,1.96116 1.80619,0 3.37611,-0.66007 4.71056,-1.98097 1.26699,-1.22687 1.90073,-2.76945 1.90073,-4.62983 0,-1.8463 -0.64403,-3.41345 -1.93133,-4.70075 -1.28705,-1.28705 -2.84695,-1.93084 -4.67996,-1.93084 -1.83301,1e-5 -3.38338,0.64705 -4.65012,1.94085 z m 3.47668,3.90204 c -0.20188,-0.44014 -0.50407,-0.66034 -0.9071,-0.66034 -0.71249,0 -1.06861,0.47976 -1.06861,1.43879 0,0.95924 0.35612,1.43851 1.06861,1.43851 0.47049,0 0.80654,-0.23347 1.00818,-0.70144 l 0.9876,0.5259 c -0.47074,0.83638 -1.17695,1.25467 -2.11866,1.25467 -0.72627,0 -1.3081,-0.22269 -1.74498,-0.66759 -0.43763,-0.44539 -0.65581,-1.05932 -0.65581,-1.84203 0,-0.76893 0.2252,-1.37935 0.67587,-1.8315 0.45067,-0.45218 1.01192,-0.67816 1.68479,-0.67816 0.99538,0 1.70811,0.39225 2.13897,1.17595 z m 4.64637,0 c -0.20214,-0.44014 -0.49831,-0.66034 -0.88881,-0.66034 -0.72678,0 -1.09043,0.47976 -1.09043,1.43879 0,0.95924 0.36365,1.43851 1.09043,1.43851 0.47125,0 0.80127,-0.23347 0.98963,-0.70144 l 1.00967,0.5259 c -0.46999,0.83638 -1.17521,1.25467 -2.11516,1.25467 -0.72528,0 -1.30585,-0.22269 -1.74248,-0.66759 -0.43587,-0.44539 -0.65429,-1.05932 -0.65429,-1.84203 0,-0.76893 0.22168,-1.37935 0.66483,-1.8315 0.44289,-0.45218 1.00667,-0.67816 1.69183,-0.67816 0.99362,0 1.70535,0.39225 2.1347,1.17595 z"
                   id="path3705"
                   style="opacity:1" />
              </g>
            </g>
            <path
               inkscape:connector-curvature="0"
               style="font-style:normal;font-weight:bold;font-size:8.25858784px;font-family:'Bitstream Vera Sans';fill:#ffffff;fill-opacity:1;stroke:none;stroke-width:1px;stroke-linecap:butt;stroke-linejoin:miter;stroke-opacity:1"
               d="m 357.4197,298.68502 c 0.24548,10e-6 0.43161,-0.0536 0.5584,-0.16075 0.12678,-0.10716 0.19017,-0.26523 0.19018,-0.4742 -10e-6,-0.2063 -0.0634,-0.36303 -0.19018,-0.4702 -0.12679,-0.10984 -0.31292,-0.16476 -0.5584,-0.16477 h -0.86186 v 1.26992 h 0.86186 m 0.0526,2.62426 c 0.31292,0 0.5476,-0.0657 0.70407,-0.19693 0.15915,-0.13127 0.23873,-0.32953 0.23873,-0.59477 0,-0.25988 -0.0782,-0.45412 -0.23469,-0.58272 -0.15645,-0.13128 -0.39249,-0.19691 -0.70811,-0.19692 h -0.91446 v 1.57134 h 0.91446 m 1.44859,-2.15807 c 0.33449,0.0965 0.59345,0.27461 0.7769,0.53449 0.18342,0.25988 0.27514,0.57869 0.27515,0.95646 -10e-6,0.5787 -0.19694,1.01004 -0.59077,1.29404 -0.39384,0.28399 -0.9927,0.42598 -1.79657,0.42598 h -2.58559 v -6 h 2.33877 c 0.83893,10e-6 1.44588,0.12593 1.82084,0.37777 0.37765,0.25185 0.56648,0.65506 0.56648,1.20964 0,0.29204 -0.0688,0.5412 -0.20635,0.74749 -0.13758,0.20362 -0.3372,0.355 -0.59886,0.45413 m 0.91657,-2.78903 h 1.7035 l 1.37575,2.13798 1.37574,-2.13798 H 366 l -2.30236,3.47221 v 2.52779 h -1.55782 v -2.52779 l -2.30236,-3.47221"
               id="text3707" />
          </g>
        </g>
        <a
           id="a182"
           transform="matrix(1.1476778,0,0,1.1476778,-10.011498,-42.54298)">
          <text
             id="text127-3-26"
             y="293.85364"
             x="32.114754"
             style="font-style:normal;font-weight:normal;font-size:0.31242543px;line-height:1.25;font-family:sans-serif;letter-spacing:0px;word-spacing:0px;fill:#000000;fill-opacity:1;stroke:none;stroke-width:0.11715953"
             xml:space="preserve"><tspan
               id="tspan1176"
               style="font-style:normal;font-variant:normal;font-weight:normal;font-stretch:normal;font-size:0.38037789px;font-family:calibri;-inkscape-font-specification:calibri;stroke-width:0.11715953"
               y="293.85364"
               x="32.114754">Visit our OER website: clixoer.tiss.edu </tspan><tspan
               id="tspan178"
               style="font-style:normal;font-variant:normal;font-weight:normal;font-stretch:normal;font-size:0.38037789px;font-family:calibri;-inkscape-font-specification:calibri;stroke-width:0.11715953"
               y="294.3291"
               x="32.114754">Contact us: contact@clix.tiss.edu </tspan><tspan
               id="tspan180"
               style="font-style:normal;font-variant:normal;font-weight:normal;font-stretch:normal;font-size:0.38037789px;font-family:calibri;-inkscape-font-specification:calibri;stroke-width:0.11715953"
               y="294.74445"
               x="32.114754" /></text>
        </a>
      </g>
    </g>
  </g>
</svg>
