<svg id="_31" data-name="31" xmlns="http://www.w3.org/2000/svg" viewBox="0 0 170 170"><defs><style>.cls-1{opacity:0;}.cls-2{fill:#2580b2;}.cls-3,.cls-4{fill:none;stroke-linecap:round;stroke-linejoin:round;}.cls-3{stroke:#36eaa5;stroke-width:3px;}.cls-4{stroke:#fff;stroke-width:2px;}</style></defs><title>31_tool1</title><g id="transparent_bg" data-name="transparent bg" class="cls-1"><rect class="cls-2" width="170" height="170"/></g><g id="shape"><path class="cls-3" d="M62.11,137.17H108.4"/><path class="cls-3" d="M108.4,137.17L154.69,44.6"/><path class="cls-3" d="M154.69,44.6L85.26,67.74"/><path class="cls-3" d="M85.26,67.74L15.82,44.6"/><path class="cls-3" d="M15.82,44.6l46.29,92.58"/></g><g id="tool1"><path class="cls-4" d="M108.4,137.17L154.69,44.6"/><path class="cls-4" d="M154.69,44.6L85.26,67.74"/><path class="cls-4" d="M85.26,67.74L15.82,44.6"/><path class="cls-4" d="M15.82,44.6l46.29,92.58"/><line class="cls-4" x1="31.06" y1="95.45" x2="46.88" y2="86.32"/><line class="cls-4" x1="139.46" y1="95.45" x2="123.63" y2="86.32"/><line class="cls-4" x1="49.54" y1="65.14" x2="55.67" y2="47.93"/><line class="cls-4" x1="57.03" y1="67.88" x2="63.16" y2="50.66"/><line class="cls-4" x1="122.02" y1="65.14" x2="115.89" y2="47.93"/><line class="cls-4" x1="114.53" y1="67.88" x2="108.4" y2="50.66"/></g></svg>