<svg id="_48" data-name="48" xmlns="http://www.w3.org/2000/svg" viewBox="0 0 170 170"><defs><style>.cls-1{opacity:0;}.cls-2{fill:#2580b2;}.cls-3,.cls-4{fill:none;stroke-linecap:round;stroke-linejoin:round;}.cls-3{stroke:#36eaa5;stroke-width:3px;}.cls-4{stroke:#fff;stroke-width:2px;}</style></defs><title>48_tool1</title><g id="transparent_bg" data-name="transparent bg" class="cls-1"><rect class="cls-2" width="170" height="170"/></g><g id="shape"><path class="cls-3" d="M115.57,34.45H54.7"/><path class="cls-3" d="M54.7,34.45L24.27,87.15"/><path class="cls-3" d="M24.27,87.15L54.7,139.87"/><path class="cls-3" d="M54.7,139.87h60.86"/><path class="cls-3" d="M115.57,139.87L146,87.15"/><path class="cls-3" d="M146,87.15L115.57,34.45"/></g><g id="tool1"><path class="cls-4" d="M115.57,34.45H54.7"/><path class="cls-4" d="M54.7,34.45L24.27,87.15"/><path class="cls-4" d="M24.27,87.15L54.7,139.87"/><path class="cls-4" d="M54.7,139.87h60.86"/><path class="cls-4" d="M115.57,139.87L146,87.15"/><path class="cls-4" d="M146,87.15L115.57,34.45"/><line class="cls-4" x1="85" y1="42.8" x2="85" y2="26.09"/><line class="cls-4" x1="85" y1="148.22" x2="85" y2="131.51"/><line class="cls-4" x1="46.21" y1="65.77" x2="32.77" y2="55.84"/><line class="cls-4" x1="124.06" y1="65.77" x2="137.5" y2="55.84"/><line class="cls-4" x1="46.88" y1="109.61" x2="32.1" y2="117.41"/><line class="cls-4" x1="123.4" y1="109.61" x2="138.17" y2="117.41"/></g></svg>