<svg id="_48" data-name="48" xmlns="http://www.w3.org/2000/svg" viewBox="0 0 170 170"><defs><style>.cls-1{opacity:0;}.cls-2{fill:#2580b2;}.cls-3,.cls-4{fill:none;stroke-linecap:round;stroke-linejoin:round;}.cls-3{stroke:#36eaa5;stroke-width:3px;}.cls-4{stroke:#fff;stroke-width:2px;}</style></defs><title>48_tool3</title><g id="transparent_bg" data-name="transparent bg" class="cls-1"><rect class="cls-2" width="170" height="170"/></g><g id="shape"><path class="cls-3" d="M115.57,34.45H54.7"/><path class="cls-3" d="M54.7,34.45L24.27,87.15"/><path class="cls-3" d="M24.27,87.15L54.7,139.87"/><path class="cls-3" d="M54.7,139.87h60.86"/><path class="cls-3" d="M115.57,139.87L146,87.15"/><path class="cls-3" d="M146,87.15L115.57,34.45"/></g><g id="tool3"><g id="tool3-2" data-name="tool3"><path class="cls-4" d="M115.57,34.45H54.7"/><path class="cls-4" d="M54.7,34.45L24.27,87.15"/><path class="cls-4" d="M24.27,87.15L54.7,139.87"/><path class="cls-4" d="M54.7,139.87h60.86"/><path class="cls-4" d="M115.57,139.87L146,87.15"/><path class="cls-4" d="M146,87.15l-30.43-52.7"/><polyline class="cls-4" points="83 42.8 90 34.45 83 26.09"/><polyline class="cls-4" points="46.21 65.77 43.49 53.8 32.77 55.84"/><polyline class="cls-4" points="123.52 64.93 134.78 67.8 138.05 56.67"/><polyline class="cls-4" points="123.39 109.61 134.78 106.51 138.17 117.41"/><polyline class="cls-4" points="91 42.8 98 34.45 91 26.09"/><polyline class="cls-4" points="83 148.22 90 139.87 83 131.51"/><polyline class="cls-4" points="91 148.22 98 139.87 91 131.51"/><polyline class="cls-4" points="126.78 71.36 138.39 74.04 141.31 63.1"/><polyline class="cls-4" points="120.26 58.5 131.19 61.56 134.79 50.24"/><polyline class="cls-4" points="32.23 116.86 43.15 119.92 46.75 108.59"/><polyline class="cls-4" points="35.48 123.29 46.75 126.16 50.01 115.03"/><polyline class="cls-4" points="28.97 110.42 39.48 113.72 43.49 102.16"/></g></g></svg>