<svg id="_48" data-name="48" xmlns="http://www.w3.org/2000/svg" viewBox="0 0 170 170"><defs><style>.cls-1{opacity:0;}.cls-2{fill:#2580b2;}.cls-3,.cls-4{fill:none;stroke-linecap:round;stroke-linejoin:round;}.cls-3{stroke:#fff;stroke-width:2px;}.cls-4{stroke:#36eaa5;stroke-width:3px;}</style></defs><title>48_tool2A</title><g id="transparent_bg" data-name="transparent bg" class="cls-1"><rect class="cls-2" width="170" height="170"/></g><g id="tool2A"><path class="cls-3" d="M54.7,139.87l-6.78-12.11a13.88,13.88,0,0,1,20.66,12.11H54.7Z"/><path class="cls-3" d="M115.57,139.87l-13.88-.15a13.88,13.88,0,0,1,20.75-11.92Z"/><path class="cls-3" d="M24.27,87.15l6.85-12.07a13.88,13.88,0,0,1,.13,24.07Z"/><path class="cls-3" d="M146,87.12l-6.77,12.12a13.88,13.88,0,0,1,0-24.24Z"/><path class="cls-3" d="M54.7,34.45l13.88,0.21A13.88,13.88,0,0,1,47.72,46.44Z"/><path class="cls-3" d="M115.57,34.45l7.11,11.92a13.88,13.88,0,0,1-21-11.89Z"/></g><g id="shape"><path class="cls-4" d="M115.57,34.45H54.7"/><path class="cls-4" d="M54.7,34.45L24.27,87.15"/><path class="cls-4" d="M24.27,87.15L54.7,139.87"/><path class="cls-4" d="M54.7,139.87h60.86"/><path class="cls-4" d="M115.57,139.87L146,87.15"/><path class="cls-4" d="M146,87.15L115.57,34.45"/></g></svg>