<svg id="_57" data-name="57" xmlns="http://www.w3.org/2000/svg" viewBox="0 0 170 170"><defs><style>.cls-1{opacity:0;}.cls-2{fill:#2580b2;}.Graphic-Style,.TISS_shape_outline{fill:none;}.Graphic-Style{stroke:#fff;stroke-linejoin:bevel;stroke-width:2px;}.TISS_shape_outline{stroke:#36eaa5;stroke-linecap:round;stroke-linejoin:round;stroke-width:3px;}</style></defs><title>57_tool2D</title><g id="transparent_bg" data-name="transparent bg" class="cls-1"><rect class="cls-2" width="170" height="170"/></g><g id="tool2D"><path class="Graphic-Style" d="M50.73,64.58L42,82a19.53,19.53,0,0,0,17.78-.15Z"/><path class="Graphic-Style" d="M84.84,47.15L77.49,72a25.86,25.86,0,0,0,15.94-.41Z"/><path class="Graphic-Style" d="M102.13,99.42l-3.25-10.2a10.71,10.71,0,1,0,5.31-.3Z"/><path class="Graphic-Style" d="M67.87,99.42l-4.79-9.58a10.71,10.71,0,1,0,8.1-.6Z"/></g><g id="shape"><path class="TISS_shape_outline" d="M85,151.69L33.6,99.42"/><path class="TISS_shape_outline" d="M33.6,99.42L50.73,64.58"/><path class="TISS_shape_outline" d="M50.73,64.58L67.87,99.42"/><path class="TISS_shape_outline" d="M67.87,99.42L85,47.15"/><path class="TISS_shape_outline" d="M85,47.15l17.13,52.27"/><path class="TISS_shape_outline" d="M102.13,99.42l17.13-87.11"/><path class="TISS_shape_outline" d="M119.27,12.31l17.14,87.11"/><path class="TISS_shape_outline" d="M136.41,99.42L85,151.69"/></g></svg>