<svg id="_57" data-name="57" xmlns="http://www.w3.org/2000/svg" viewBox="0 0 170 170"><defs><style>.cls-1{opacity:0;}.cls-2{fill:#2580b2;}.TISS_shape_outline,.cls-3,.cls-4,.cls-5,.cls-6{fill:none;stroke-linecap:round;stroke-linejoin:round;stroke-width:3px;}.TISS_shape_outline{stroke:#36eaa5;}.cls-3{stroke:#f66;}.cls-4{stroke:#8add00;}.cls-5{stroke:#bc66ff;}.cls-6{stroke:#ffe566;}</style></defs><title>57_tool1B</title><g id="transparent_bg" data-name="transparent bg" class="cls-1"><rect class="cls-2" width="170" height="170"/></g><g id="shape"><path class="TISS_shape_outline" d="M85,151.69L33.6,99.42"/><path class="TISS_shape_outline" d="M33.6,99.42L50.73,64.58"/><path class="TISS_shape_outline" d="M50.73,64.58L67.87,99.42"/><path class="TISS_shape_outline" d="M67.87,99.42L85,47.15"/><path class="TISS_shape_outline" d="M85,47.15l17.13,52.27"/><path class="TISS_shape_outline" d="M102.13,99.42l17.13-87.11"/><path class="TISS_shape_outline" d="M119.27,12.31l17.14,87.11"/><path class="TISS_shape_outline" d="M136.41,99.42L85,151.69"/></g><g id="tool1B"><path class="cls-3" d="M85,151.69L33.6,99.42"/><path class="cls-4" d="M33.6,99.42L50.73,64.58"/><path class="cls-4" d="M50.73,64.58L67.87,99.42"/><path class="cls-5" d="M67.87,99.42L85,47.15"/><path class="cls-5" d="M85,47.15l17.13,52.27"/><path class="cls-6" d="M102.13,99.42l17.13-87.11"/><path class="cls-6" d="M119.27,12.31l17.14,87.11"/><path class="cls-3" d="M136.41,99.42L85,151.69"/></g></svg>