<svg id="_57" data-name="57" xmlns="http://www.w3.org/2000/svg" viewBox="0 0 170 170"><defs><style>.cls-1{opacity:0;}.cls-2{fill:#2580b2;}.TISS_shape_outline,.cls-3,.cls-4{fill:none;}.TISS_shape_outline{stroke:#36eaa5;stroke-width:3px;}.TISS_shape_outline,.cls-3{stroke-linecap:round;stroke-linejoin:round;}.cls-3,.cls-4{stroke:#fff;stroke-width:2px;}.cls-4{stroke-miterlimit:10;}</style></defs><title>57_tool1</title><g id="transparent_bg" data-name="transparent bg" class="cls-1"><rect class="cls-2" width="170" height="170"/></g><g id="shape"><path class="TISS_shape_outline" d="M85,151.69L33.6,99.42"/><path class="TISS_shape_outline" d="M33.6,99.42L50.73,64.58"/><path class="TISS_shape_outline" d="M50.73,64.58L67.87,99.42"/><path class="TISS_shape_outline" d="M67.87,99.42L85,47.15"/><path class="TISS_shape_outline" d="M85,47.15l17.13,52.27"/><path class="TISS_shape_outline" d="M102.13,99.42l17.13-87.11"/><path class="TISS_shape_outline" d="M119.27,12.31l17.14,87.11"/><path class="TISS_shape_outline" d="M136.41,99.42L85,151.69"/></g><g id="tool1"><line class="cls-3" x1="45.86" y1="88.38" x2="35.12" y2="82.07"/><line class="cls-3" x1="65.26" y1="79.77" x2="54.05" y2="85.22"/><line class="cls-3" x1="81.23" y1="78.49" x2="69.03" y2="75.04"/><line class="cls-3" x1="83" y1="72.24" x2="70.8" y2="68.79"/><line class="cls-3" x1="100.26" y1="74.04" x2="88.43" y2="78.61"/><line class="cls-3" x1="97.91" y1="67.97" x2="86.09" y2="72.54"/><line class="cls-3" x1="115.05" y1="65.44" x2="102.44" y2="63.04"/><line class="cls-3" x1="117.37" y1="53.29" x2="104.76" y2="50.88"/><line class="cls-3" x1="116.21" y1="59.36" x2="103.6" y2="56.96"/><line class="cls-3" x1="138.46" y1="72.31" x2="125.9" y2="74.97"/><line class="cls-3" x1="135.9" y1="60.21" x2="123.34" y2="62.86"/><line class="cls-3" x1="137.18" y1="66.26" x2="124.62" y2="68.92"/><line class="cls-3" x1="60.35" y1="116" x2="50.23" y2="126.12"/><line class="cls-3" x1="55.98" y1="111.63" x2="45.86" y2="121.75"/><line class="cls-3" x1="69.08" y1="124.74" x2="58.96" y2="134.86"/><line class="cls-3" x1="64.72" y1="120.37" x2="54.6" y2="130.49"/><line class="cls-3" x1="121.24" y1="125.36" x2="111.46" y2="114.91"/><line class="cls-3" x1="125.75" y1="121.14" x2="115.97" y2="110.69"/><line class="cls-3" x1="112.22" y1="133.8" x2="102.44" y2="123.35"/><line class="cls-3" x1="116.73" y1="129.58" x2="106.95" y2="119.13"/><path class="TISS_shape_outline" d="M85,151.69L33.6,99.42"/><path class="TISS_shape_outline" d="M33.6,99.42L50.73,64.58"/><path class="TISS_shape_outline" d="M50.73,64.58L67.87,99.42"/><path class="TISS_shape_outline" d="M67.87,99.42L85,47.15"/><path class="TISS_shape_outline" d="M85,47.15l17.13,52.27"/><path class="TISS_shape_outline" d="M102.13,99.42l17.13-87.11"/><path class="TISS_shape_outline" d="M119.27,12.31l17.14,87.11"/><path class="TISS_shape_outline" d="M136.41,99.42L85,151.69"/><path class="cls-4" d="M85,151.69L33.6,99.42"/><path class="cls-4" d="M33.6,99.42L50.73,64.58"/><path class="cls-4" d="M50.73,64.58L67.87,99.42"/><path class="cls-4" d="M67.87,99.42L85,47.15"/><path class="cls-4" d="M85,47.15l17.13,52.27"/><path class="cls-4" d="M102.13,99.42l17.13-87.11"/><path class="cls-4" d="M119.27,12.31l17.14,87.11"/><path class="cls-4" d="M136.41,99.42L85,151.69"/></g></svg>