<svg id="_43" data-name="43" xmlns="http://www.w3.org/2000/svg" viewBox="0 0 170 170"><defs><style>.cls-1{opacity:0;}.cls-2{fill:#2580b2;}.TISS_shape_outline,.cls-3,.cls-4{fill:none;}.TISS_shape_outline{stroke:#36eaa5;stroke-linecap:round;stroke-linejoin:round;stroke-width:3px;}.cls-3{stroke:#f66;}.cls-3,.cls-4{stroke-miterlimit:10;stroke-width:2px;}.cls-4{stroke:#ffe566;}</style></defs><title>43_tool1B</title><g id="transparent_bg" data-name="transparent bg" class="cls-1"><rect class="cls-2" width="170" height="170"/></g><g id="shape"><path class="TISS_shape_outline" d="M30.63,101.13l53.93,30.94"/><path class="TISS_shape_outline" d="M84.56,132.08l54.37-30.5"/><path class="TISS_shape_outline" d="M139.37,39.69L84.12,69.75"/><path class="TISS_shape_outline" d="M138.93,101.58l0.44-61.89"/><path class="TISS_shape_outline" d="M84.12,69.75L30.63,37.92"/><path class="TISS_shape_outline" d="M30.63,37.92v63.21"/><path class="TISS_shape_outline" d="M30.63,101.13l53.93,30.94"/><path class="TISS_shape_outline" d="M84.56,132.08l54.37-30.5"/><path class="TISS_shape_outline" d="M139.37,39.69L84.12,69.75"/><path class="TISS_shape_outline" d="M138.93,101.58l0.44-61.89"/><path class="TISS_shape_outline" d="M84.12,69.75L30.63,37.92"/><path class="TISS_shape_outline" d="M30.63,37.92v63.21"/></g><g id="tool1B"><path class="cls-3" d="M30.63,101.13l53.93,30.94"/><path class="cls-3" d="M84.56,132.08l54.37-30.5"/><path class="cls-3" d="M139.37,39.69L84.12,69.75"/><path class="cls-4" d="M138.93,101.58l0.44-61.89"/><path class="cls-3" d="M84.12,69.75L30.63,37.92"/><path class="cls-4" d="M30.63,37.92v63.21"/></g></svg>