<svg id="_43" data-name="43" xmlns="http://www.w3.org/2000/svg" viewBox="0 0 170 170"><defs><style>.cls-1{opacity:0;}.cls-2{fill:#2580b2;}.TISS_shape_outline,.cls-3,.cls-4{fill:none;}.TISS_shape_outline{stroke:#36eaa5;stroke-width:3px;}.TISS_shape_outline,.cls-3{stroke-linecap:round;stroke-linejoin:round;}.cls-3,.cls-4{stroke:#fff;stroke-width:2px;}.cls-4{stroke-miterlimit:10;}</style></defs><title>43_tool1</title><g id="transparent_bg" data-name="transparent bg" class="cls-1"><rect class="cls-2" width="170" height="170"/></g><g id="shape"><path class="TISS_shape_outline" d="M30.63,101.13l53.93,30.94"/><path class="TISS_shape_outline" d="M84.56,132.08l54.37-30.5"/><path class="TISS_shape_outline" d="M139.37,39.69L84.12,69.75"/><path class="TISS_shape_outline" d="M138.93,101.58l0.44-61.89"/><path class="TISS_shape_outline" d="M84.12,69.75L30.63,37.92"/><path class="TISS_shape_outline" d="M30.63,37.92v63.21"/><path class="TISS_shape_outline" d="M30.63,101.13l53.93,30.94"/><path class="TISS_shape_outline" d="M84.56,132.08l54.37-30.5"/><path class="TISS_shape_outline" d="M139.37,39.69L84.12,69.75"/><path class="TISS_shape_outline" d="M138.93,101.58l0.44-61.89"/><path class="TISS_shape_outline" d="M84.12,69.75L30.63,37.92"/><path class="TISS_shape_outline" d="M30.63,37.92v63.21"/></g><g id="tool1"><line class="cls-3" x1="102.3" y1="112.93" x2="111.36" y2="127.96"/><line class="cls-3" x1="108.3" y1="109.31" x2="117.36" y2="124.34"/><line class="cls-3" x1="114.3" y1="105.7" x2="123.36" y2="120.73"/><line class="cls-3" x1="101.21" y1="50.9" x2="110.27" y2="65.93"/><line class="cls-3" x1="107.21" y1="47.28" x2="116.27" y2="62.31"/><line class="cls-3" x1="113.22" y1="43.67" x2="122.27" y2="58.7"/><line class="cls-3" x1="59.78" y1="65.93" x2="68.79" y2="50.86"/><line class="cls-3" x1="53.77" y1="62.33" x2="62.77" y2="47.27"/><line class="cls-3" x1="56.78" y1="125.94" x2="65.78" y2="110.87"/><line class="cls-3" x1="50.76" y1="122.34" x2="59.77" y2="107.28"/><line class="cls-3" x1="130.15" y1="77.63" x2="147.71" y2="77.63"/><line class="cls-3" x1="21.85" y1="77.63" x2="39.4" y2="77.63"/><path class="cls-4" d="M30.63,101.13l53.93,30.94"/><path class="cls-4" d="M84.56,132.08l54.37-30.5"/><path class="cls-4" d="M139.37,39.69L84.12,69.75"/><path class="cls-4" d="M138.93,101.58l0.44-61.89"/><path class="cls-4" d="M84.12,69.75L30.63,37.92"/><path class="cls-4" d="M30.63,37.92v63.21"/><path class="cls-4" d="M30.63,101.13l53.93,30.94"/><path class="cls-4" d="M84.56,132.08l54.37-30.5"/><path class="cls-4" d="M139.37,39.69L84.12,69.75"/><path class="cls-4" d="M138.93,101.58l0.44-61.89"/><path class="cls-4" d="M84.12,69.75L30.63,37.92"/><path class="cls-4" d="M30.63,37.92v63.21"/><line class="cls-4" x1="102.3" y1="112.93" x2="111.36" y2="127.96"/><line class="cls-4" x1="108.3" y1="109.31" x2="117.36" y2="124.34"/><line class="cls-4" x1="114.3" y1="105.7" x2="123.36" y2="120.73"/><line class="cls-4" x1="101.21" y1="50.9" x2="110.27" y2="65.93"/><line class="cls-4" x1="107.21" y1="47.28" x2="116.27" y2="62.31"/><line class="cls-4" x1="113.22" y1="43.67" x2="122.27" y2="58.7"/><line class="cls-4" x1="59.78" y1="65.93" x2="68.79" y2="50.86"/><line class="cls-4" x1="53.77" y1="62.33" x2="62.77" y2="47.27"/><line class="cls-4" x1="56.78" y1="125.94" x2="65.78" y2="110.87"/><line class="cls-4" x1="50.76" y1="122.34" x2="59.77" y2="107.28"/><line class="cls-4" x1="130.15" y1="77.63" x2="147.71" y2="77.63"/><line class="cls-4" x1="21.85" y1="77.63" x2="39.4" y2="77.63"/><path class="cls-4" d="M30.63,101.13l53.93,30.94"/><path class="cls-4" d="M84.56,132.08l54.37-30.5"/><path class="cls-4" d="M139.37,39.69L84.12,69.75"/><path class="cls-4" d="M138.93,101.58l0.44-61.89"/><path class="cls-4" d="M84.12,69.75L30.63,37.92"/><path class="cls-4" d="M30.63,37.92v63.21"/><path class="cls-4" d="M30.63,101.13l53.93,30.94"/><path class="cls-4" d="M84.56,132.08l54.37-30.5"/><path class="cls-4" d="M139.37,39.69L84.12,69.75"/><path class="cls-4" d="M138.93,101.58l0.44-61.89"/><path class="cls-4" d="M84.12,69.75L30.63,37.92"/><path class="cls-4" d="M30.63,37.92v63.21"/><path class="cls-4" d="M30.63,101.13l53.93,30.94"/><path class="cls-4" d="M84.56,132.08l54.37-30.5"/><path class="cls-4" d="M139.37,39.69L84.12,69.75"/><path class="cls-4" d="M138.93,101.58l0.44-61.89"/><path class="cls-4" d="M84.12,69.75L30.63,37.92"/><path class="cls-4" d="M30.63,37.92v63.21"/></g></svg>