<svg id="_43" data-name="43" xmlns="http://www.w3.org/2000/svg" viewBox="0 0 170 170"><defs><style>.cls-1{opacity:0;}.cls-2{fill:#2580b2;}.Graphic-Style,.TISS_shape_outline{fill:none;}.Graphic-Style{stroke:#fff;stroke-linejoin:bevel;stroke-width:2px;}.TISS_shape_outline{stroke:#36eaa5;stroke-linecap:round;stroke-linejoin:round;stroke-width:3px;}</style></defs><title>43_tool2C</title><g id="transparent_bg" data-name="transparent bg" class="cls-1"><rect class="cls-2" width="170" height="170"/></g><g id="tool2C"><path class="Graphic-Style" d="M30.63,37.92L49.88,49.56a22.5,22.5,0,0,1-19.1,10.86Z"/><path class="Graphic-Style" d="M139.37,39.69l-0.19,22.5a22.5,22.5,0,0,1-19.52-11.65Z"/></g><g id="shape"><path class="TISS_shape_outline" d="M30.63,101.13l53.93,30.94"/><path class="TISS_shape_outline" d="M84.56,132.08l54.37-30.5"/><path class="TISS_shape_outline" d="M139.37,39.69L84.12,69.75"/><path class="TISS_shape_outline" d="M138.93,101.58l0.44-61.89"/><path class="TISS_shape_outline" d="M84.12,69.75L30.63,37.92"/><path class="TISS_shape_outline" d="M30.63,37.92v63.21"/><path class="TISS_shape_outline" d="M30.63,101.13l53.93,30.94"/><path class="TISS_shape_outline" d="M84.56,132.08l54.37-30.5"/><path class="TISS_shape_outline" d="M139.37,39.69L84.12,69.75"/><path class="TISS_shape_outline" d="M138.93,101.58l0.44-61.89"/><path class="TISS_shape_outline" d="M84.12,69.75L30.63,37.92"/><path class="TISS_shape_outline" d="M30.63,37.92v63.21"/></g></svg>