<svg id="_43" data-name="43" xmlns="http://www.w3.org/2000/svg" viewBox="0 0 170 170"><defs><style>.cls-1{opacity:0;}.cls-2{fill:#2580b2;}.TISS_shape_outline,.cls-3{fill:none;stroke-linecap:round;stroke-linejoin:round;}.TISS_shape_outline{stroke:#36eaa5;stroke-width:3px;}.cls-3{stroke:#fff;stroke-width:2px;}</style></defs><title>43_tool3</title><g id="transparent_bg" data-name="transparent bg" class="cls-1"><rect class="cls-2" width="170" height="170"/></g><g id="shape"><path class="TISS_shape_outline" d="M30.63,101.13l53.93,30.94"/><path class="TISS_shape_outline" d="M84.56,132.08l54.37-30.5"/><path class="TISS_shape_outline" d="M139.37,39.69L84.12,69.75"/><path class="TISS_shape_outline" d="M138.93,101.58l0.44-61.89"/><path class="TISS_shape_outline" d="M84.12,69.75L30.63,37.92"/><path class="TISS_shape_outline" d="M30.63,37.92v63.21"/><path class="TISS_shape_outline" d="M30.63,101.13l53.93,30.94"/><path class="TISS_shape_outline" d="M84.56,132.08l54.37-30.5"/><path class="TISS_shape_outline" d="M139.37,39.69L84.12,69.75"/><path class="TISS_shape_outline" d="M138.93,101.58l0.44-61.89"/><path class="TISS_shape_outline" d="M84.12,69.75L30.63,37.92"/><path class="TISS_shape_outline" d="M30.63,37.92v63.21"/></g><g id="tool3"><polyline class="cls-3" points="21.85 74.55 30.63 67.55 39.4 74.55"/><polyline class="cls-3" points="58.96 45.02 60.62 56.12 50.17 60.21"/><polyline class="cls-3" points="101.3 50.86 111.75 54.97 110.06 66.07"/><polyline class="cls-3" points="105.38 48.28 115.83 52.39 114.14 63.49"/><polyline class="cls-3" points="102.05 111.88 112.5 115.99 110.81 127.08"/><polyline class="cls-3" points="106.13 109.29 116.58 113.4 114.89 124.5"/><polyline class="cls-3" points="58.96 107.75 60.62 118.85 50.17 122.94"/><polyline class="cls-3" points="130.38 78.05 139.15 71.05 147.93 78.05"/><polyline class="cls-3" points="21.85 79.8 30.63 72.8 39.4 79.8"/><polyline class="cls-3" points="130.38 83.3 139.15 76.3 147.93 83.3"/><polyline class="cls-3" points="21.85 85.73 30.63 78.73 39.4 85.73"/><polyline class="cls-3" points="130.38 89.23 139.15 82.23 147.93 89.23"/><line class="cls-3" x1="30.63" y1="37.92" x2="30.63" y2="101.13"/><line class="cls-3" x1="139.37" y1="40.53" x2="138.93" y2="101.58"/><line class="cls-3" x1="30.63" y1="37.92" x2="84.12" y2="69.75"/><line class="cls-3" x1="139.37" y1="39.69" x2="84.12" y2="69.75"/><line class="cls-3" x1="138.93" y1="101.58" x2="84.56" y2="132.08"/><line class="cls-3" x1="30.63" y1="101.13" x2="84.56" y2="132.08"/></g></svg>