<svg id="_43" data-name="43" xmlns="http://www.w3.org/2000/svg" viewBox="0 0 170 170"><defs><style>.cls-1{opacity:0;}.cls-2{fill:#2580b2;}.Graphic-Style,.TISS_shape_outline{fill:none;}.Graphic-Style{stroke:#fff;stroke-linejoin:bevel;stroke-width:2px;}.TISS_shape_outline{stroke:#36eaa5;stroke-linecap:round;stroke-linejoin:round;stroke-width:3px;}</style></defs><title>43_tool2A</title><g id="transparent_bg" data-name="transparent bg" class="cls-1"><rect class="cls-2" width="170" height="170"/></g><g id="tool2A"><path class="Graphic-Style" d="M138.93,101.58l-15.27,8.54a17.5,17.5,0,0,1,15.32-26Z"/><path class="Graphic-Style" d="M84.56,132.08l-15.19-8.69a17.5,17.5,0,0,1,30.46.15Z"/><path class="Graphic-Style" d="M30.63,101.13l0-17.5a17.5,17.5,0,0,1,15.11,26.25Z"/></g><g id="shape"><path class="TISS_shape_outline" d="M30.63,101.13l53.93,30.94"/><path class="TISS_shape_outline" d="M84.56,132.08l54.37-30.5"/><path class="TISS_shape_outline" d="M139.37,39.69L84.12,69.75"/><path class="TISS_shape_outline" d="M138.93,101.58l0.44-61.89"/><path class="TISS_shape_outline" d="M84.12,69.75L30.63,37.92"/><path class="TISS_shape_outline" d="M30.63,37.92v63.21"/><path class="TISS_shape_outline" d="M30.63,101.13l53.93,30.94"/><path class="TISS_shape_outline" d="M84.56,132.08l54.37-30.5"/><path class="TISS_shape_outline" d="M139.37,39.69L84.12,69.75"/><path class="TISS_shape_outline" d="M138.93,101.58l0.44-61.89"/><path class="TISS_shape_outline" d="M84.12,69.75L30.63,37.92"/><path class="TISS_shape_outline" d="M30.63,37.92v63.21"/></g></svg>