<svg id="_34" data-name="34" xmlns="http://www.w3.org/2000/svg" viewBox="0 0 170 170"><defs><style>.cls-1{opacity:0;}.cls-2{fill:#2580b2;}.TISS_shape_outline,.cls-3{fill:none;stroke-linecap:round;stroke-linejoin:round;}.TISS_shape_outline{stroke:#36eaa5;stroke-width:3px;}.cls-3{stroke:#fff;stroke-width:2px;}</style></defs><title>34_tool3</title><g id="transparent_bg" data-name="transparent bg" class="cls-1"><rect class="cls-2" width="170" height="170"/></g><g id="shape"><path class="TISS_shape_outline" d="M54.55,42.86h77.57"/><path class="TISS_shape_outline" d="M132.11,42.86L85.57,135.94"/><path class="TISS_shape_outline" d="M85.57,135.94H39"/><path class="TISS_shape_outline" d="M39,135.94l31-62.05"/><path class="TISS_shape_outline" d="M70.06,73.89l-15.51-31"/></g><g id="tool3"><path class="cls-3" d="M54.55,42.86h77.57"/><path class="cls-3" d="M132.11,42.86L85.57,135.94"/><path class="cls-3" d="M85.57,135.94H39"/><path class="cls-3" d="M39,135.94l31-62.05"/><polyline class="cls-3" points="82.86 35.85 89.86 42.86 82.86 49.88"/><polyline class="cls-3" points="89.86 35.85 96.86 42.86 89.86 49.88"/><polyline class="cls-3" points="55.55 128.93 62.55 135.94 55.55 142.96"/><polyline class="cls-3" points="62.55 128.93 69.55 135.94 62.55 142.96"/><polyline class="cls-3" points="97.48 96.99 106.73 93.43 110.31 102.67"/><polyline class="cls-3" points="48.13 101.61 57.38 98.05 60.96 107.29"/></g></svg>